<svg width="10" height="10" viewBox="0 0 10 10"  xmlns="http://www.w3.org/2000/svg">
<path d="M4.33333 6L3.5 3.5L2.66667 6H4.33333Z"/>
<path fill-rule="evenodd" clip-rule="evenodd" d="M1 0C0.447715 0 0 0.447716 0 1V9C0 9.55229 0.447715 10 1 10H9C9.55229 10 10 9.55228 10 9V1C10 0.447715 9.55228 0 9 0H1ZM2.94302 2.17094C2.97705 2.06886 3.07258 2 3.18019 2H3.81981C3.92742 2 4.02295 2.06886 4.05698 2.17094L5.89031 7.67094C5.94427 7.83283 5.82378 8 5.65314 8H5.18019C5.07258 8 4.97705 7.93114 4.94302 7.82906L4.66667 7H2.33333L2.05698 7.82906C2.02295 7.93114 1.92742 8 1.81981 8H1.34686C1.17622 8 1.05572 7.83283 1.10969 7.67094L2.94302 2.17094ZM7 2.25C7 2.11193 7.11193 2 7.25 2H7.75C7.88807 2 8 2.11193 8 2.25V7.75C8 7.88807 7.88807 8 7.75 8H7.25C7.11193 8 7 7.88807 7 7.75V2.25Z"/>
</svg>
