<svg width="16" height="15" viewBox="0 0 16 15" fill="none" xmlns="http://www.w3.org/2000/svg">
<path d="M7.25 9.25C7.25 9.66421 7.58579 10 8 10C8.41421 10 8.75 9.66421 8.75 9.25V5.75C8.75 5.33579 8.41421 5 8 5C7.58579 5 7.25 5.33579 7.25 5.75V9.25Z" fill="#FEC91B"/>
<path d="M8.69904 11.2849C8.88474 11.4665 9 11.7198 9 12C9 12.2761 8.88807 12.5261 8.7071 12.7071C8.52613 12.8881 8.27614 13 8 13C7.72386 13 7.47387 12.8881 7.2929 12.7071C7.11193 12.5261 7 12.2761 7 12C7 11.7239 7.11193 11.4739 7.2929 11.2929C7.47387 11.1119 7.72386 11 8 11C8.27206 11 8.51875 11.1086 8.69904 11.2849Z" fill="#FEC91B"/>
<path fill-rule="evenodd" clip-rule="evenodd" d="M0.138026 13.2332C0.138026 13.2332 6.1138 2.19358 6.96653 0.612982C7.1869 0.204508 7.60587 1.42921e-06 7.99891 0C8.39195 -1.42914e-06 8.81684 0.200414 9.03961 0.612982L15.8598 13.2332C16.0246 13.5384 16.0742 14.0264 15.8419 14.4231C15.637 14.7857 15.2031 15 14.8236 15L1.17423 15C0.745459 15 0.352412 14.7656 0.173758 14.4411C-0.0227638 14.1166 -0.0763616 13.6118 0.138026 13.2332ZM1.01745 13.7092C1.01587 13.7124 1.01465 13.7139 1.00853 13.7256C0.986968 13.7671 0.985575 13.8263 1 13.875C1.01079 13.9114 1.04138 13.9541 1.07492 13.9732C1.10504 13.9903 1.14086 14 1.17423 14L14.8236 14C14.8256 14 14.8378 13.9995 14.858 13.9942C14.8779 13.9889 14.8994 13.9805 14.9198 13.9694C14.955 13.9502 14.9691 13.9333 14.9717 13.9302C14.9719 13.9299 14.9721 13.9297 14.9721 13.9297L14.9751 13.9244L14.979 13.9178C14.9883 13.9019 15.001 13.868 14.9999 13.8127C14.9994 13.7862 14.9957 13.7607 14.9902 13.7392C14.9853 13.7201 14.9805 13.7098 14.9799 13.7083C14.9798 13.7081 14.9798 13.7082 14.9799 13.7083L8.15985 1.08842L8.15968 1.08809C8.14488 1.06068 8.12516 1.0413 8.09784 1.02614C8.0664 1.00869 8.02943 1 7.99892 1C7.97242 1 7.9387 1.00773 7.90874 1.02461C7.88242 1.03943 7.86204 1.05921 7.84662 1.08779C5.57541 5.29766 3.29451 9.50249 1.01745 13.7092Z" fill="#FEC91B"/>
</svg>
