<svg width="12" height="14" viewBox="0 0 12 14" fill="none" xmlns="http://www.w3.org/2000/svg">
<path fill-rule="evenodd" clip-rule="evenodd" d="M1 10C1 9.9425 1.00243 9.88557 1.00718 9.82931C1.03648 9.48272 1.15415 9.16131 1.33759 8.8877C1.01494 8.77448 0.730108 8.58088 0.507113 8.33093C0.191698 7.97738 0 7.51108 0 7C0 6.48892 0.191699 6.02262 0.507114 5.66907C0.730109 5.41912 1.01494 5.22552 1.33759 5.1123C1.15415 4.83869 1.03647 4.51728 1.00718 4.17069C1.00243 4.11443 1 4.0575 1 4C1 2.89543 1.89543 2 3 2C3 0.89543 3.89543 0 5 0C5.74028 0 6.38663 0.402199 6.73244 1H7.13378C7.30669 0.701099 7.62986 0.5 8 0.5C8.55229 0.5 9 0.947715 9 1.5C9 2.05228 8.55229 2.5 8 2.5C7.62986 2.5 7.30669 2.2989 7.13378 2H7V4H8.79289L9.03387 3.75902C9.01178 3.67641 9 3.58958 9 3.5C9 2.94771 9.44771 2.5 10 2.5C10.5523 2.5 11 2.94771 11 3.5C11 4.05228 10.5523 4.5 10 4.5C9.91042 4.5 9.82359 4.48822 9.74098 4.46613L9.20711 5H7V6.5H9.63378C9.80669 6.2011 10.1299 6 10.5 6C11.0523 6 11.5 6.44772 11.5 7C11.5 7.55229 11.0523 8 10.5 8C10.1299 8 9.80669 7.7989 9.63378 7.5H7V9H9.20711L9.74098 9.53387C9.82359 9.51178 9.91042 9.5 10 9.5C10.5523 9.5 11 9.94772 11 10.5C11 11.0523 10.5523 11.5 10 11.5C9.44771 11.5 9 11.0523 9 10.5C9 10.4104 9.01178 10.3236 9.03387 10.241L8.79289 10H7V12H7.13378C7.30669 11.7011 7.62986 11.5 8 11.5C8.55229 11.5 9 11.9477 9 12.5C9 13.0523 8.55229 13.5 8 13.5C7.62986 13.5 7.30669 13.2989 7.13378 13H6.73244C6.38663 13.5978 5.74028 14 5 14C3.89543 14 3 13.1046 3 12C1.89543 12 1 11.1046 1 10ZM6 12V2C6 1.44772 5.55228 1 5 1C4.44772 1 4 1.44772 4 2C4 2.55228 5 3 5 3V4C5 4 4.34465 3.76806 4 3.5C3.78203 3.33047 3.5 3 3.5 3H3C2.44772 3 2 3.44772 2 4C2 4.615 2.5 5 3 5V6C3 6 1.95049 5.95702 1.66869 6.0559C1.27786 6.19304 1 6.56536 1 7C1 7.43464 1.27786 7.80696 1.66869 7.9441C1.95049 8.04298 3 8 3 8V9C2.5 9 2 9.385 2 10C2 10.5523 2.44772 11 3 11H3.5C3.5 11 3.78203 10.6695 4 10.5C4.34465 10.2319 5 10 5 10V11C5 11 4 11.4477 4 12C4 12.5523 4.44772 13 5 13C5.55228 13 6 12.5523 6 12Z" />
</svg>
