<svg width="16" height="16" viewBox="0 0 16 16" xmlns="http://www.w3.org/2000/svg">
<path d="M7.42421 11.8873C7.41224 11.8999 7.4002 11.9125 7.38689 11.9237C7.35463 11.9508 7.28669 12 7.21876 12C7.00001 12 7.00001 11.75 7.00001 11.75L7.00001 4.25C7.00001 4.25 7.00001 4 7.21876 4C7.2867 4 7.35464 4.04924 7.3869 4.07635C7.4002 4.08753 7.41224 4.10006 7.42421 4.11267L10.8883 7.76234C10.9003 7.77495 10.9125 7.7873 10.9233 7.80087C10.9504 7.83467 11 7.90906 11 8C11 8.09094 10.9504 8.16534 10.9233 8.19913C10.9125 8.21271 10.9003 8.22506 10.8883 8.23767L7.42421 11.8873Z"/>
</svg>
