<svg width="16" height="16" viewBox="0 0 16 16" xmlns="http://www.w3.org/2000/svg">
<path d="M4 6.75C4 6.88807 4.11193 7 4.25 7H11.75C11.8881 7 12 6.88807 12 6.75V6.25C12 6.11193 11.8881 6 11.75 6H4.25C4.11193 6 4 6.11193 4 6.25V6.75Z" />
<path d="M4.25 9C4.11193 9 4 8.88807 4 8.75V8.25C4 8.11193 4.11193 8 4.25 8H11.75C11.8881 8 12 8.11193 12 8.25V8.75C12 8.88807 11.8881 9 11.75 9H4.25Z" />
<path d="M4 10.75C4 10.8881 4.11193 11 4.25 11H11.75C11.8881 11 12 10.8881 12 10.75V10.25C12 10.1119 11.8881 10 11.75 10H4.25C4.11193 10 4 10.1119 4 10.25V10.75Z" />
<path fill-rule="evenodd" clip-rule="evenodd" d="M5.25 1C5.11193 1 5 1.11193 5 1.25V2H2.25C2.11193 2 2 2.11193 2 2.25V14C2 14.5523 2.44772 15 3 15H13C13.5523 15 14 14.5523 14 14V2.25C14 2.11193 13.8881 2 13.75 2H11V1.25C11 1.11193 10.8881 1 10.75 1H5.25ZM3 3H5V3.75C5 3.88807 5.11193 4 5.25 4H10.75C10.8881 4 11 3.88807 11 3.75V3H13V14H3V3ZM10 2H6V3H10V2Z" />
</svg>
