<svg width="16" height="16" viewBox="0 0 16 16" xmlns="http://www.w3.org/2000/svg">
<path d="M11.5744 4.07396C11.4768 3.97632 11.3185 3.97632 11.2209 4.07396L8.00098 7.29387L4.78192 4.07481C4.68429 3.97718 4.52599 3.97718 4.42836 4.07481L4.07481 4.42836C3.97718 4.52599 3.97718 4.68429 4.07481 4.78192L7.29387 8.00098L4.07469 11.2202C3.97706 11.3178 3.97706 11.4761 4.07469 11.5737L4.42824 11.9273C4.52587 12.0249 4.68416 12.0249 4.78179 11.9273L8.00098 8.70808L11.2193 11.9264C11.3169 12.024 11.4752 12.024 11.5729 11.9264L11.9264 11.5729C12.024 11.4752 12.024 11.3169 11.9264 11.2193L8.70808 8.00098L11.928 4.78106C12.0256 4.68343 12.0256 4.52514 11.928 4.42751L11.5744 4.07396Z"/>
</svg>
