<svg width="16" height="16" viewBox="0 0 16 16" fill="none" xmlns="http://www.w3.org/2000/svg">
<path fill-rule="evenodd" clip-rule="evenodd" d="M12.7784 13.781C14.4408 12.4054 15.5 10.3264 15.5 8C15.5 5.67362 14.4408 3.59464 12.7784 2.21898C11.4808 1.14526 9.81576 0.5 8 0.5C6.18424 0.5 4.51919 1.14526 3.22163 2.21898C1.55919 3.59464 0.5 5.67362 0.5 8C0.5 10.3264 1.55919 12.4054 3.22163 13.781C4.51919 14.8547 6.18424 15.5 8 15.5C9.81576 15.5 11.4808 14.8547 12.7784 13.781ZM4.07517 5.13582C3.97754 5.03819 3.97754 4.8799 4.07517 4.78227L4.78228 4.07516C4.87991 3.97753 5.0382 3.97753 5.13583 4.07516L8.00002 6.93935L10.8642 4.07516C10.9618 3.97753 11.1201 3.97753 11.2178 4.07516L11.9249 4.78227C12.0225 4.8799 12.0225 5.03819 11.9249 5.13582L9.06068 8.00001L11.9177 10.857C12.0153 10.9547 12.0153 11.113 11.9177 11.2106L11.2106 11.9177C11.113 12.0153 10.9547 12.0153 10.8571 11.9177L8.00002 9.06067L5.13722 11.9235C5.03959 12.0211 4.8813 12.0211 4.78367 11.9235L4.07656 11.2164C3.97893 11.1187 3.97893 10.9604 4.07656 10.8628L6.93936 8.00001L4.07517 5.13582Z" />
</svg>
