<svg width="14" height="15" viewBox="0 0 14 15" fill="none" xmlns="http://www.w3.org/2000/svg">
<path fill-rule="evenodd" clip-rule="evenodd" d="M7.00392 8.29547C7.04722 8.29594 7.09121 8.28516 7.13142 8.26194L13.875 4.40625C13.875 4.40625 14.0004 4.34375 14.0004 4.15625C14.0004 3.96875 13.875 3.90625 13.875 3.90625L7.13142 0.0337279C7.09121 0.0105078 7.04722 -0.000266822 7.00392 0.000207154C6.95824 -0.00165346 6.9115 0.00898477 6.86898 0.0335352L0.125002 3.9375C0.0468759 3.98438 0 4.07031 0 4.15625C0 4.24219 0.0468748 4.32812 0.125 4.375L6.86898 8.26214C6.9115 8.28669 6.95824 8.29733 7.00392 8.29547ZM7.00003 1.11257L12.2573 4.15625L7.00003 7.1831L1.7428 4.15625L7.00003 1.11257Z" fill="#E3E3E5"/>
<path d="M13.3754 6.49596C13.495 6.42693 13.6479 6.46789 13.7169 6.58747L13.9669 7.02048C14.036 7.14005 13.995 7.29295 13.8754 7.36199L7.13146 11.2556C7.09125 11.2788 7.04726 11.2896 7.00396 11.2891C6.95828 11.291 6.91154 11.2804 6.86902 11.2558L0.127391 7.36353C0.0078183 7.2945 -0.0331503 7.1416 0.0358853 7.02203L0.285885 6.58901C0.354921 6.46944 0.507819 6.42847 0.627392 6.49751L7.00008 10.1768L13.3754 6.49596Z" fill="#E3E3E5"/>
<path d="M13.3759 9.49725C13.4955 9.42821 13.6484 9.46918 13.7174 9.58875L13.9674 10.0218C14.0365 10.1413 13.9955 10.2942 13.8759 10.3633L7.13305 14.2563C7.09007 14.2811 7.04277 14.2917 6.99662 14.2895C6.95247 14.2905 6.90751 14.2797 6.86647 14.2561L0.126842 10.3649C0.00726885 10.2959 -0.0336996 10.143 0.035336 10.0234L0.285336 9.59041C0.354372 9.47084 0.507269 9.42987 0.626842 9.4989L6.99995 13.1784L13.3759 9.49725Z" fill="#E3E3E5"/>
</svg>
