<svg width="16" height="16" viewBox="0 0 16 16" xmlns="http://www.w3.org/2000/svg">
<g clip-path="url(#clip0_24300_102168)">
<path fill-rule="evenodd" clip-rule="evenodd" d="M12.7325 2.86427C12.6349 2.76664 12.4766 2.76664 12.379 2.86427L10.7981 4.4451C9.91766 4.15624 8.97708 3.99999 8 3.99999C5.33873 3.99999 2.94819 5.15909 1.30566 6.99999C1.02527 7.31425 0.75 7.59375 0.75 8C0.75 8.4375 1.02527 8.68574 1.30566 9C2.09099 9.88017 3.04731 10.6045 4.12247 11.1208L2.83303 12.4102C2.7354 12.5078 2.7354 12.6661 2.83303 12.7638L3.18658 13.1173C3.28421 13.215 3.4425 13.215 3.54013 13.1173L6.95305 9.70441C7.25758 9.89187 7.61616 10 8 10C9.10457 10 10 9.10457 10 8C10 7.61616 9.89187 7.25757 9.70441 6.95304L13.0861 3.57138C13.1837 3.47375 13.1837 3.31545 13.0861 3.21782L12.7325 2.86427ZM8.98453 6.2587L9.70912 5.53412C9.22417 5.19737 8.63513 4.99999 8 4.99999C6.34315 4.99999 5 6.34314 5 8C5 8.63513 5.19737 9.22417 5.53413 9.70911L6.25871 8.98453C6.09402 8.69388 6 8.35792 6 8C6 6.89543 6.89543 5.99999 8 5.99999C8.35792 5.99999 8.69388 6.09401 8.98453 6.2587ZM1.76439 8.00551C1.84847 8.12325 1.95558 8.22637 2.05183 8.33424C2.79167 9.16343 3.70133 9.83648 4.72618 10.2989C4.26864 9.64848 4 8.85561 4 8C4 7.14438 4.26864 6.35151 4.72618 5.70113C3.70133 6.16351 2.79167 6.83656 2.05183 7.66575C1.95348 7.77598 1.84616 7.88223 1.76439 8.00551Z"/>
<path d="M7.16255 10.8815C7.42834 10.9587 7.70934 11 8 11C9.65685 11 11 9.65685 11 8C11 7.70934 10.9587 7.42833 10.8816 7.16254L11.6601 6.38397C11.8786 6.87816 12 7.4249 12 8C12 8.85561 11.7314 9.64848 11.2738 10.2989C12.2959 9.83775 13.2033 9.16711 13.9421 8.34104C14.0362 8.23581 14.1504 8.12735 14.2145 7.99935C14.1513 7.87456 14.04 7.76873 13.9482 7.66575C13.3832 7.03255 12.7192 6.4904 11.9805 6.06359L12.7095 5.33455C13.4495 5.792 14.118 6.35402 14.6943 6.99999C14.9747 7.31425 15.2177 7.59375 15.2177 8C15.2177 8.40625 14.9705 8.69116 14.6875 9.00765C13.0452 10.8441 10.6576 12 8 12C7.39077 12 6.79573 11.9393 6.22061 11.8235L7.16255 10.8815Z"/>
</g>
<defs>
<clipPath id="clip0_24300_102168">
<rect width="16" height="16" fill="white"/>
</clipPath>
</defs>
</svg>
