<svg width="16" height="16" viewBox="0 0 16 16" xmlns="http://www.w3.org/2000/svg">
<path d="M13.959 1.07615C13.8614 0.978522 13.7031 0.978522 13.6054 1.07615L7.99615 6.68545L5.17781 3.86711L5.17453 3.86389L5.17231 3.86178C5.0744 3.76808 4.91907 3.76938 4.82276 3.86569L1.0728 7.61566C0.975165 7.71329 0.975165 7.87158 1.0728 7.96921L1.42635 8.32276C1.52398 8.4204 1.68227 8.4204 1.7799 8.32276L4.99957 5.10309L7.41381 7.51733C7.4252 7.53883 7.43994 7.55901 7.45804 7.57711L7.8116 7.93067C7.90923 8.0283 8.06752 8.0283 8.16515 7.93067L14.3126 1.78326C14.4102 1.68563 14.4102 1.52734 14.3126 1.42971L13.959 1.07615Z"/>
<path d="M1.25 15C1.11193 15 1 14.8881 1 14.75L1 11.25C1 11.1119 1.11193 11 1.25 11H1.75C1.88807 11 2 11.1119 2 11.25L2 14.75C2 14.8881 1.88807 15 1.75 15H1.25Z"/>
<path d="M7 14.75C7 14.8881 7.11193 15 7.25 15H7.75C7.88807 15 8 14.8881 8 14.75V11.25C8 11.1119 7.88807 11 7.75 11H7.25C7.11193 11 7 11.1119 7 11.25V14.75Z"/>
<path d="M10.25 15C10.1119 15 10 14.8881 10 14.75V8.24998C10 8.11191 10.1119 7.99998 10.25 7.99998H10.75C10.8881 7.99998 11 8.11191 11 8.24998V14.75C11 14.8881 10.8881 15 10.75 15H10.25Z"/>
<path d="M4 14.75C4 14.8881 4.11193 15 4.25 15H4.75C4.88807 15 5 14.8881 5 14.75L5 8.24998C5 8.11191 4.88807 7.99998 4.75 7.99998H4.25C4.11193 7.99998 4 8.11191 4 8.24998L4 14.75Z"/>
<path d="M13.25 15C13.1119 15 13 14.8881 13 14.75L13 5.24998C13 5.11191 13.1119 4.99998 13.25 4.99998H13.75C13.8881 4.99998 14 5.11191 14 5.24998L14 14.75C14 14.8881 13.8881 15 13.75 15H13.25Z"/>
</svg>
