<svg width="16" height="16" viewBox="0 0 16 16" xmlns="http://www.w3.org/2000/svg">
<path d="M1 2.25C1 2.11193 1.11193 2 1.25 2H3.75C3.88807 2 4 2.11193 4 2.25V4.75C4 4.88807 3.88807 5 3.75 5H1.25C1.11193 5 1 4.88807 1 4.75V2.25Z"/>
<path d="M1 7.25C1 7.11193 1.11193 7 1.25 7H3.75C3.88807 7 4 7.11193 4 7.25V9.75C4 9.88807 3.88807 10 3.75 10H1.25C1.11193 10 1 9.88807 1 9.75V7.25Z" />
<path d="M1.25 12C1.11193 12 1 12.1119 1 12.25V14.75C1 14.8881 1.11193 15 1.25 15H3.75C3.88807 15 4 14.8881 4 14.75V12.25C4 12.1119 3.88807 12 3.75 12H1.25Z" />
<path d="M6 2.25C6 2.11193 6.11193 2 6.25 2H8.75C8.88807 2 9 2.11193 9 2.25V4.75C9 4.88807 8.88807 5 8.75 5H6.25C6.11193 5 6 4.88807 6 4.75V2.25Z" />
<path d="M6.25 7C6.11193 7 6 7.11193 6 7.25V9.75C6 9.88807 6.11193 10 6.25 10H8.75C8.88807 10 9 9.88807 9 9.75V7.25C9 7.11193 8.88807 7 8.75 7H6.25Z" />
<path d="M6 12.25C6 12.1119 6.11193 12 6.25 12H8.75C8.88807 12 9 12.1119 9 12.25V14.75C9 14.8881 8.88807 15 8.75 15H6.25C6.11193 15 6 14.8881 6 14.75V12.25Z" />
<path d="M11.25 2C11.1119 2 11 2.11193 11 2.25V4.75C11 4.88807 11.1119 5 11.25 5H13.75C13.8881 5 14 4.88807 14 4.75V2.25C14 2.11193 13.8881 2 13.75 2H11.25Z" />
<path d="M11 7.25C11 7.11193 11.1119 7 11.25 7H13.75C13.8881 7 14 7.11193 14 7.25V9.75C14 9.88807 13.8881 10 13.75 10H11.25C11.1119 10 11 9.88807 11 9.75V7.25Z"/>
<path d="M11.25 12C11.1119 12 11 12.1119 11 12.25V14.75C11 14.8881 11.1119 15 11.25 15H13.75C13.8881 15 14 14.8881 14 14.75V12.25C14 12.1119 13.8881 12 13.75 12H11.25Z"/>
</svg>
