<svg width="16" height="16" viewBox="0 0 16 16" xmlns="http://www.w3.org/2000/svg">
<path d="M2.25 2C2.11193 2 2 2.11193 2 2.25V6.75C2 6.88807 2.11193 7 2.25 7H6.75C6.88807 7 7 6.88807 7 6.75V2.25C7 2.11193 6.88807 2 6.75 2H2.25Z"/>
<path d="M2.25 9C2.11193 9 2 9.11193 2 9.25V13.75C2 13.8881 2.11193 14 2.25 14H6.75C6.88807 14 7 13.8881 7 13.75V9.25C7 9.11193 6.88807 9 6.75 9H2.25Z"/>
<path d="M9 2.25C9 2.11193 9.11193 2 9.25 2H13.75C13.8881 2 14 2.11193 14 2.25V6.75C14 6.88807 13.8881 7 13.75 7H9.25C9.11193 7 9 6.88807 9 6.75V2.25Z"/>
<path d="M9.25 9C9.11193 9 9 9.11193 9 9.25V13.75C9 13.8881 9.11193 14 9.25 14H13.75C13.8881 14 14 13.8881 14 13.75V9.25C14 9.11193 13.8881 9 13.75 9H9.25Z"/>
</svg>
