<svg width="16" height="16" viewBox="0 0 16 16" xmlns="http://www.w3.org/2000/svg">
<path d="M8.93454 8.81947C9.85231 8.44934 10.5 7.55031 10.5 6.5C10.5 5.11929 9.38071 4 8 4C6.61929 4 5.5 5.11929 5.5 6.5C5.5 6.77614 5.72386 7 6 7C6.27614 7 6.5 6.77614 6.5 6.5C6.5 5.67157 7.17157 5 8 5C8.82843 5 9.5 5.67157 9.5 6.5C9.5 7.13019 9.11138 7.6696 8.56073 7.89168L7.82507 8.18762C7.63519 8.25853 7.5 8.44164 7.5 8.65625C7.5 8.79039 7.55282 8.91219 7.6388 9.00199C7.72982 9.09705 7.858 9.15625 8 9.15625C8.06787 9.15625 8.13259 9.14273 8.19159 9.11823L8.93454 8.81947Z" />
<path d="M8.74999 11C8.74999 11.2102 8.66354 11.4001 8.52427 11.5363C8.38905 11.6685 8.20403 11.75 7.99999 11.75C7.79288 11.75 7.60539 11.6661 7.46966 11.5303C7.33394 11.3946 7.24999 11.2071 7.24999 11C7.24999 10.7929 7.33394 10.6054 7.46966 10.4697C7.60539 10.3339 7.79288 10.25 7.99999 10.25C8.20709 10.25 8.39459 10.3339 8.53031 10.4697C8.66604 10.6054 8.74999 10.7929 8.74999 11Z" />
<path fill-rule="evenodd" clip-rule="evenodd" d="M12.9576 12.9419C14.2197 11.6758 15 9.92902 15 8C15 6.07098 14.2197 4.32421 12.9576 3.05808C11.6902 1.78673 9.93697 1 8 1C6.06303 1 4.3098 1.78673 3.04244 3.05808C1.78028 4.32421 1 6.07098 1 8C1 9.92902 1.78028 11.6758 3.04244 12.9419C4.3098 14.2133 6.06303 15 8 15C9.93698 15 11.6902 14.2133 12.9576 12.9419ZM12.2426 12.2426C13.3284 11.1569 14 9.65685 14 8C14 6.34315 13.3284 4.84315 12.2426 3.75736C11.1569 2.67157 9.65685 2 8 2C6.34315 2 4.84315 2.67157 3.75736 3.75736C2.67157 4.84315 2 6.34315 2 8C2 9.65685 2.67157 11.1569 3.75736 12.2426C4.84315 13.3284 6.34315 14 8 14C9.65686 14 11.1569 13.3284 12.2426 12.2426Z" />
</svg>
