<svg width="16" height="16" viewBox="0 0 16 16" xmlns="http://www.w3.org/2000/svg">
<path d="M9 5C9 5.28022 8.88474 5.53353 8.69904 5.71509C8.51874 5.89136 8.27206 6 8 6C7.72386 6 7.47387 5.88807 7.2929 5.70712C7.11193 5.52615 7 5.27615 7 5C7 4.72385 7.11193 4.47385 7.2929 4.29288C7.47387 4.11193 7.72386 4 8 4C8.27614 4 8.52613 4.11193 8.7071 4.29288C8.88807 4.47385 9 4.72385 9 5Z"/>
<path d="M7.25 7.75C7.25 7.33579 7.58579 7 8 7C8.41421 7 8.75 7.33579 8.75 7.75L8.75 11.25C8.75 11.6642 8.41421 12 8 12C7.58579 12 7.25 11.6642 7.25 11.25V7.75Z"/>
<path fill-rule="evenodd" clip-rule="evenodd" d="M12.7784 13.781C14.4408 12.4054 15.5 10.3264 15.5 8C15.5 5.67362 14.4408 3.59464 12.7784 2.21898C11.4808 1.14526 9.81576 0.5 8 0.5C6.18424 0.5 4.51918 1.14526 3.22163 2.21898C1.55919 3.59464 0.5 5.67362 0.5 8C0.5 10.3264 1.55919 12.4054 3.22163 13.781C4.51918 14.8547 6.18424 15.5 8 15.5C9.81576 15.5 11.4808 14.8547 12.7784 13.781ZM11.7236 12.7051C13.1104 11.6061 14 9.90693 14 8C14 6.09307 13.1104 4.39391 11.7236 3.2949C10.7005 2.48414 9.40677 2 8 2C6.59323 2 5.29953 2.48414 4.27644 3.2949C2.8896 4.39391 2 6.09307 2 8C2 9.90693 2.8896 11.6061 4.27644 12.7051C5.29953 13.5159 6.59323 14 8 14C9.40677 14 10.7005 13.5159 11.7236 12.7051Z"/>
</svg>
