<svg width="11" height="14" viewBox="0 0 11 14" xmlns="http://www.w3.org/2000/svg">
<path d="M10.3592 7.69639L6.0633 3.40053L10.1776 4.50295C10.7121 4.64617 11.0295 5.19472 10.8865 5.72819L10.3592 7.69639Z"/>
<path d="M4.48782 1.94311L8.60789 0.839137C9.14237 0.695925 9.69152 1.01229 9.83447 1.54575L10.3627 3.51728L4.48782 1.94311Z"/>
<path fill-rule="evenodd" clip-rule="evenodd" d="M4.82843 3.5856C4.45335 3.21053 3.94465 2.99982 3.41421 2.99982H2C0.89543 2.99982 3.37175e-07 3.89525 0 4.99982V6.41403C-3.37174e-07 6.94446 0.210714 7.45317 0.585787 7.82824L5.52427 12.7667C5.9148 13.1573 6.54796 13.1573 6.93849 12.7667L9.76691 9.9383C10.1574 9.54778 10.1574 8.91461 9.76691 8.52409L4.82843 3.5856ZM1.81196 6.84471C2.37334 7.40609 3.28351 7.40609 3.84489 6.84471C4.40627 6.28333 4.40627 5.37316 3.84489 4.81178C3.28351 4.2504 2.37334 4.2504 1.81196 4.81178C1.25058 5.37316 1.25058 6.28333 1.81196 6.84471Z"/>
</svg>
