<svg width="24" height="24" viewBox="0 0 64 64" fill="none" xmlns="http://www.w3.org/2000/svg">
<path d="M8 12C8 9.79086 9.79086 8 12 8H52C54.2091 8 56 9.79086 56 12V52C56 54.2091 54.2091 56 52 56H12C9.79086 56 8 54.2091 8 52V12ZM32 12H12L12 52H32V39.998H39.9477L39.9477 46.996C39.9477 47.8869 41.0248 48.3331 41.6548 47.7031L51.6156 38.7052C51.8108 38.5099 51.9477 38.254 51.9477 37.998C51.9477 37.7421 51.8108 37.4862 51.6156 37.291L41.6548 28.2949C41.0248 27.665 39.9477 28.1111 39.9477 29.002V35.998H32V28H24.875V34.996C24.875 35.8869 23.7978 36.3331 23.1679 35.7031L13.2071 26.7071C13.0118 26.5118 12.875 26.2559 12.875 26C12.875 25.7441 13.0118 25.4881 13.2071 25.2929L23.1679 16.2949C23.7978 15.6649 24.875 16.1111 24.875 17.002L24.875 24H32V12Z" fill="#B2B3B9"/>
</svg>
