<svg width="22" height="28" viewBox="0 0 22 28" fill="none" xmlns="http://www.w3.org/2000/svg">
<path fill-rule="evenodd" clip-rule="evenodd" d="M21.4621 27.3647C21.7958 27.0073 22 26.5275 22 26V8H16C14.8954 8 14 7.10457 14 6V0H0.5C0.223858 0 0 0.223858 0 0.5V26C0 26.5275 0.204214 27.0073 0.537897 27.3647C0.902939 27.7556 1.42293 28 2 28H20C20.5771 28 21.0971 27.7556 21.4621 27.3647ZM7.99999 10.5C7.99999 10.2239 8.22385 10 8.49999 10H17.5C17.7761 10 18 10.2239 18 10.5V11.5C18 11.7761 17.7761 12 17.5 12H8.49999C8.22385 12 7.99999 11.7761 7.99999 11.5V10.5ZM7.99999 14.5C7.99999 14.2239 8.22385 14 8.49999 14H17.5C17.7761 14 18 14.2239 18 14.5V15.5C18 15.7761 17.7761 16 17.5 16H8.49999C8.22385 16 7.99999 15.7761 7.99999 15.5V14.5ZM4.49999 18C4.22385 18 3.99999 18.2239 3.99999 18.5V19.5C3.99999 19.7761 4.22385 20 4.49999 20H5.49999C5.77613 20 5.99999 19.7761 5.99999 19.5V18.5C5.99999 18.2239 5.77613 18 5.49999 18H4.49999ZM8.49999 18C8.22385 18 7.99999 18.2239 7.99999 18.5V19.5C7.99999 19.7761 8.22385 20 8.49999 20H17.5C17.7761 20 18 19.7761 18 19.5V18.5C18 18.2239 17.7761 18 17.5 18H8.49999ZM4.49999 14C4.22385 14 3.99999 14.2239 3.99999 14.5V15.5C3.99999 15.7761 4.22385 16 4.49999 16H5.49999C5.77613 16 5.99999 15.7761 5.99999 15.5V14.5C5.99999 14.2239 5.77613 14 5.49999 14H4.49999ZM4.49999 10C4.22385 10 3.99999 10.2239 3.99999 10.5V11.5C3.99999 11.7761 4.22385 12 4.49999 12H5.49999C5.77613 12 5.99999 11.7761 5.99999 11.5V10.5C5.99999 10.2239 5.77613 10 5.49999 10H4.49999Z" fill="white"/>
<path d="M16 5.5C16 5.77614 16.2239 6 16.5 6H22L16 0V5.5Z" fill="white"/>
</svg>
