<svg width="16" height="16" viewBox="0 0 16 16" fill="none" xmlns="http://www.w3.org/2000/svg">
<path fill-rule="evenodd" clip-rule="evenodd" d="M12.7784 13.781C14.4408 12.4054 15.5 10.3264 15.5 8C15.5 5.67362 14.4408 3.59464 12.7784 2.21898C11.4808 1.14526 9.81576 0.5 8 0.5C6.18424 0.5 4.51919 1.14526 3.22163 2.21898C1.55919 3.59464 0.5 5.67362 0.5 8C0.5 10.3264 1.55919 12.4054 3.22163 13.781C4.51919 14.8547 6.18424 15.5 8 15.5C9.81576 15.5 11.4808 14.8547 12.7784 13.781ZM13 7.5C13 7.36193 12.8881 7.25 12.75 7.25L3.25 7.25C3.11193 7.25 3 7.36193 3 7.5V8.5C3 8.63807 3.11193 8.75 3.25 8.75H12.75C12.8881 8.75 13 8.63807 13 8.5V7.5Z" />
</svg>
