<svg width="16" height="16" viewBox="0 0 16 16" xmlns="http://www.w3.org/2000/svg">
<path d="M7.7496 1.0043C7.88758 0.99945 8 1.11184 8 1.24991L8 7.74991C8 7.88798 7.88807 7.99991 7.75 7.99991L1.25 7.99991C1.11193 7.99991 0.999542 7.88749 1.00439 7.7495C1.13332 4.0826 4.08269 1.13323 7.7496 1.0043Z"/>
<path d="M1.11761 9.28451C1.08986 9.13491 1.20704 8.99991 1.35919 8.99991H1.87141C1.99351 8.99991 2.09722 9.08841 2.12168 9.20805C2.68074 11.9427 5.10013 13.9999 8 13.9999C11.3137 13.9999 14 11.3136 14 7.99991C14 5.10003 11.9428 2.68065 9.20814 2.12159C9.08851 2.09713 9 1.99342 9 1.87131V1.3591C9 1.20695 9.135 1.08977 9.2846 1.11752C12.5371 1.72078 15 4.57272 15 7.99991C15 11.8659 11.866 14.9999 8 14.9999C4.57281 14.9999 1.72087 12.537 1.11761 9.28451Z"/>
</svg>
