<svg width="16" height="16" viewBox="0 0 16 16" fill="none" xmlns="http://www.w3.org/2000/svg">
<path d="M14.0001 14V4L11.0001 1H3.25006C3.11199 1 3.00006 1.11193 3.00006 1.25V4.54514C3.19083 4.4917 3.38946 4.42632 3.58809 4.34632C3.73405 4.26968 3.87166 4.18871 4.00006 4.10654V2H10.0001V4C10.0001 4.55228 10.4478 5 11.0001 5H13.0001V14H4.00006V12.8473C3.62257 12.6126 3.29101 12.3534 3.00006 12.0764V14C3.00006 14.2637 3.10217 14.5036 3.26901 14.6823C3.45153 14.8778 3.71152 15 4.00006 15H13.0001C13.2886 15 13.5486 14.8778 13.7311 14.6823C13.898 14.5036 14.0001 14.2637 14.0001 14Z" fill="#E3E3E5"/>
<path fill-rule="evenodd" clip-rule="evenodd" d="M8.61738 5.7005C8.73438 5.71906 8.84144 5.73341 8.93586 5.74451C8.99928 6.25368 9.06898 7.24035 8.85963 8.32952C8.56251 9.87576 7.72547 11.5684 5.49989 12.4856C3.26887 11.5941 2.43257 9.90572 2.13746 8.35187C1.92958 7.25713 2.0019 6.26115 2.06764 5.74408C2.16035 5.73322 2.26515 5.71921 2.37965 5.70116C2.80024 5.63485 3.3744 5.51044 3.96168 5.27393L4.00843 5.2551L4.05305 5.23167C4.6847 4.89995 5.18153 4.50157 5.49995 4.21092C5.8166 4.50043 6.3083 4.89542 6.93263 5.22549L6.97755 5.24923L7.02461 5.2683C7.61488 5.50735 8.19343 5.63329 8.61738 5.7005ZM8.17677 6.92678C8.27442 7.02441 8.27442 7.18271 8.17677 7.28033L5.17677 10.2803C5.07911 10.378 4.92085 10.378 4.82319 10.2803L3.32325 8.78033C3.2256 8.6827 3.2256 8.52441 3.32325 8.42678L3.67677 8.07323C3.77442 7.9756 3.93269 7.9756 4.03034 8.07323L5.00001 9.04289L7.46968 6.57323C7.56733 6.47559 7.7256 6.47559 7.82325 6.57323L8.17677 6.92678Z" fill="#E3E3E5"/>
</svg>
