<svg width="16" height="16" viewBox="0 0 16 16"  xmlns="http://www.w3.org/2000/svg">
<path d="M11.9497 2.05026C10.6458 0.746333 8.95547 0.0643635 7.24733 0.00434729C7.10938 -0.000499662 6.99746 0.111878 6.99746 0.249914L6.99746 0.749899C6.99746 0.888011 7.10951 0.999417 7.2475 1.00508C8.69952 1.06466 10.134 1.64875 11.2426 2.75736C13.5858 5.10051 13.5858 8.8995 11.2426 11.2426C8.8995 13.5858 5.1005 13.5858 2.75736 11.2426C0.414214 8.8995 0.414214 5.10051 2.75736 2.75736L3.57322 3.57323C3.73072 3.73072 4 3.61918 4 3.39645V1.25C4 1.11193 3.88807 1 3.75 1L1.60355 1C1.38083 1 1.26929 1.26929 1.42678 1.42678L2.05025 2.05026C-0.683417 4.78393 -0.683417 9.21608 2.05025 11.9498C4.78392 14.6834 9.21608 14.6834 11.9497 11.9498C14.6834 9.21608 14.6834 4.78393 11.9497 2.05026Z"/>
</svg>
