<svg width="16" height="16" viewBox="0 0 16 16" fill="none" xmlns="http://www.w3.org/2000/svg">
<path d="M12.9282 2.72163C13.1597 2.54659 13.4534 2.84032 13.2784 3.07183L8.88389 8.88388L8.70711 9.06066C8.21896 9.54882 7.4275 9.54882 6.93934 9.06066C6.45119 8.5725 6.45119 7.78105 6.93934 7.29289L7.11612 7.11612L12.9282 2.72163Z" fill="#2B2C30"/>
<path d="M12.4121 6.70467C12.3652 6.76669 12.3503 6.8469 12.3689 6.92239C12.5262 7.56041 12.5426 8.22798 12.4133 8.87787C12.256 9.66885 11.8893 10.4015 11.3536 11.0002C11.2616 11.1031 11.261 11.261 11.3586 11.3586L12.0659 12.0659C12.1635 12.1635 12.3222 12.1638 12.4157 12.0622C13.1605 11.2527 13.6695 10.2526 13.8847 9.17054C14.1162 8.00666 13.9974 6.80026 13.5433 5.7039C13.4837 5.56 13.2923 5.5405 13.1984 5.66475L12.4121 6.70467Z" fill="#2B2C30"/>
<path d="M10.2329 2.43094C10.4064 2.50052 10.4299 2.73006 10.2808 2.84282L9.29533 3.58792C9.23331 3.63481 9.15311 3.64975 9.07762 3.63113C8.72684 3.54461 8.3651 3.50019 8 3.50019C7.11002 3.50019 6.24003 3.7641 5.50004 4.25855C4.76005 4.75299 4.1833 5.45577 3.84272 6.278C3.50214 7.10023 3.41303 8.00499 3.58666 8.87787C3.744 9.66885 4.11068 10.4015 4.64638 11.0002C4.73844 11.1031 4.73901 11.261 4.64138 11.3586L3.93414 12.0659C3.83651 12.1635 3.67779 12.1638 3.58431 12.0622C2.83955 11.2527 2.33052 10.2526 2.11529 9.17054C1.88378 8.00666 2.0026 6.80026 2.45673 5.7039C2.91085 4.60754 3.67989 3.67047 4.66658 3.01118C5.65328 2.35189 6.81331 2 8 2C8.76876 2 9.52634 2.14768 10.2329 2.43094Z" fill="#2B2C30"/>
</svg>
