<svg width="16" height="16" viewBox="0 0 16 16" xmlns="http://www.w3.org/2000/svg">
<path fill-rule="evenodd" clip-rule="evenodd" d="M9.5 13H1.5C1.36739 13 1.24022 12.9473 1.14645 12.8536C1.05269 12.7598 1 12.6326 1 12.5V3.5C1 3.36739 1.05269 3.24021 1.14645 3.14645C1.24022 3.05268 1.36739 3 1.5 3H9.5C9.63261 3 9.75978 3.05268 9.85355 3.14645C9.94731 3.24021 10 3.36739 10 3.5V12.5C10 12.6326 9.94731 12.7598 9.85355 12.8536C9.75978 12.9473 9.63261 13 9.5 13ZM2 12H9V4H2V12Z"/>
<path d="M12.5 12H11V11H12V5H11V4H12.5C12.6326 4 12.7598 4.05268 12.8535 4.14645C12.9473 4.24021 13 4.36739 13 4.5V11.5C13 11.6326 12.9473 11.7598 12.8535 11.8536C12.7598 11.9473 12.6326 12 12.5 12Z"/>
<path d="M14.5 5H14V11H14.5C14.6326 11 14.7598 10.9473 14.8536 10.8536C14.9473 10.7598 15 10.6326 15 10.5V5.5C15 5.36739 14.9473 5.24021 14.8536 5.14645C14.7598 5.05268 14.6326 5 14.5 5Z"/>
</svg>
