<svg width="16" height="16" viewBox="0 0 16 16" xmlns="http://www.w3.org/2000/svg">
<path d="M6.00001 5C6.00001 4.71977 5.88475 4.46647 5.69905 4.28491C5.51876 4.10864 5.27207 4 5.00001 4C4.72388 4 4.47388 4.11192 4.29291 4.29288C4.11195 4.47385 4.00001 4.72385 4.00001 5C4.00001 5.27614 4.11195 5.52615 4.29291 5.70711C4.47388 5.88807 4.72388 6 5.00001 6C5.27615 6 5.52615 5.88807 5.70711 5.70711C5.88808 5.52615 6.00001 5.27614 6.00001 5Z"/>
<path d="M10.4482 8.20408C10.5459 8.30171 10.7042 8.30171 10.8018 8.20408L11.1553 7.85053C11.253 7.7529 11.253 7.59461 11.1553 7.49697L10.3615 6.7031C10.2638 6.60547 10.1055 6.60547 10.0079 6.7031L9.65436 7.05665C9.55673 7.15428 9.55673 7.31258 9.65436 7.41021L10.4482 8.20408Z"/>
<path d="M8.17874 8.88583C8.0811 8.7882 8.0811 8.62991 8.17874 8.53228L8.53229 8.17872C8.62992 8.08109 8.78821 8.08109 8.88584 8.17872L9.67288 8.96576C9.77051 9.06339 9.77051 9.22168 9.67288 9.31931L9.31933 9.67287C9.2217 9.7705 9.0634 9.7705 8.96577 9.67287L8.17874 8.88583Z"/>
<path d="M6.68847 10.3761C6.59084 10.2785 6.59084 10.1202 6.68847 10.0225L7.04202 9.66899C7.13965 9.57136 7.29794 9.57136 7.39557 9.66899L8.18261 10.456C8.28024 10.5537 8.28024 10.712 8.18261 10.8096L7.82906 11.1631C7.73143 11.2608 7.57314 11.2608 7.47551 11.1631L6.68847 10.3761Z"/>
<path fill-rule="evenodd" clip-rule="evenodd" d="M2.44007 9.25697C2.15877 8.97566 2.00073 8.59413 2.00073 8.19631V4.00024C2.00073 2.89567 2.89616 2.00024 4.00073 2.00024H8.19679C8.59462 2.00024 8.97615 2.15828 9.25746 2.43958L13.5644 6.74648C14.1501 7.33227 14.1501 8.28201 13.5644 8.8678L8.86829 13.5639C8.2825 14.1496 7.33276 14.1496 6.74697 13.5639L2.44007 9.25697ZM8.55035 3.14669L12.8572 7.45359C13.0525 7.64885 13.0525 7.96543 12.8572 8.16069L8.16118 12.8568C7.96592 13.052 7.64934 13.052 7.45408 12.8568L3.14718 8.54986C3.05341 8.45609 3.00073 8.32891 3.00073 8.19631L3.00073 4.00024C3.00073 3.44796 3.44845 3.00024 4.00073 3.00024L8.1968 3.00024C8.3294 3.00024 8.45658 3.05292 8.55035 3.14669Z"/>
</svg>
