<svg width="22" height="28" viewBox="0 0 22 28" fill="none" xmlns="http://www.w3.org/2000/svg">
<path d="M16 11H14V13H16V11Z" fill="white"/>
<path d="M16 16H14V18H16V16Z" fill="white"/>
<path d="M14 21H16V23H14V21Z" fill="white"/>
<path fill-rule="evenodd" clip-rule="evenodd" d="M22 26C22 26.5275 21.7958 27.0073 21.4621 27.3647C21.0971 27.7556 20.5771 28 20 28H2C1.42293 28 0.902939 27.7556 0.537897 27.3647C0.204214 27.0073 0 26.5275 0 26V0.5C0 0.223858 0.223858 0 0.5 0H14V6C14 7.10457 14.8954 8 16 8H22V26ZM4 5.5C4 5.22386 4.22386 5 4.5 5H7.5C7.77614 5 8 5.22386 8 5.5V8.5C8 8.77614 7.77614 9 7.5 9H7V11H13V10.5C13 10.2239 13.2239 10 13.5 10H16.5C16.7761 10 17 10.2239 17 10.5V13.5C17 13.7761 16.7761 14 16.5 14H13.5C13.2239 14 13 13.7761 13 13.5V13H7V16H13V15.5C13 15.2239 13.2239 15 13.5 15H16.5C16.7761 15 17 15.2239 17 15.5V18.5C17 18.7761 16.7761 19 16.5 19H13.5C13.2239 19 13 18.7761 13 18.5V18H7V21H13V20.5C13 20.2239 13.2239 20 13.5 20H16.5C16.7761 20 17 20.2239 17 20.5V23.5C17 23.7761 16.7761 24 16.5 24H13.5C13.2239 24 13 23.7761 13 23.5V23H5V9H4.5C4.22386 9 4 8.77614 4 8.5V5.5Z" fill="white"/>
<path d="M16.5 6C16.2239 6 16 5.77614 16 5.5V0L22 6H16.5Z" fill="white"/>
</svg>
