<svg width="16" height="16" viewBox="0 0 16 16" xmlns="http://www.w3.org/2000/svg">
<path d="M4.75005 5L7.00005 5L7.00005 10.75C7.00005 10.8881 7.11198 11 7.25005 11H7.75005C7.88812 11 8.00005 10.8881 8.00005 10.75L8.00005 5H10.25C10.4728 5 10.5843 4.73071 10.4268 4.57322L7.67683 2.07617C7.5792 1.97854 7.42091 1.97854 7.32327 2.07617L4.57328 4.57322C4.41851 4.73193 4.52733 5 4.75005 5Z"/>
<path d="M5.75 9C5.88807 9 6 9.11193 6 9.25V9.75C6 9.88807 5.88807 10 5.75 10H2L2 14L13 14V10L9.25 10C9.11193 10 9 9.88807 9 9.75V9.25C9 9.11193 9.11193 9 9.25 9L13 9C13.5523 9 14 9.44771 14 10V14C14 14.5523 13.5523 15 13 15L2 15C1.44772 15 1 14.5523 1 14L1 10C1 9.44771 1.44772 9 2 9H5.75Z"/>
</svg>
