<svg width="14" height="14" viewBox="0 0 14 14" fill="none" xmlns="http://www.w3.org/2000/svg">
<g clip-path="url(#clip0_39149_20213)">
<rect width="10" height="10" rx="7" fill="white" x="2" y="2" />
<path d="M6.98438 0C3.10969 0 -0.03125 3.14094 -0.03125 7.01562C-0.03125 10.8903 3.10969 14.0312 6.98438 14.0312C10.8591 14.0312 14 10.8903 14 7.01562C14 3.14094 10.8591 0 6.98438 0ZM7 3.5C7.82844 3.5 8.5 4.17156 8.5 5C8.5 5.82844 7.82844 6.5 7 6.5C6.17156 6.5 5.5 5.82844 5.5 5C5.5 4.17156 6.17156 3.5 7 3.5ZM9.96875 9.75C9.96875 9.88813 9.85688 10 9.71875 10H4.22406C4.08406 10 3.97125 9.885 3.97406 9.74469L3.99781 8.60844C3.99906 8.54375 4.02562 8.48219 4.07156 8.43656L5.42688 7.08844C5.47375 7.04187 5.53719 7.01562 5.60313 7.01562H8.39563C8.4625 7.01562 8.52625 7.04219 8.57344 7.08969L9.89656 8.42688C9.94281 8.47375 9.96875 8.53688 9.96875 8.60281V9.75Z" fill="#C81326"/>
</g>
<defs>
<clipPath id="clip0_39149_20213">
<rect width="14" height="14" rx="7" fill="white"/>
</clipPath>
</defs>
</svg>
