<svg width="16" height="16" viewBox="0 0 16 16" xmlns="http://www.w3.org/2000/svg">
<path fill-rule="evenodd" clip-rule="evenodd" d="M4.00149 8C3.68778 8 3.31244 8.125 3.12494 8.375L1.34369 10.75C1.17181 10.9688 0.999941 11.2188 0.999941 11.4688L0.999939 12.75C0.999937 12.8881 1.11187 13 1.24994 13H10.7499C10.888 13 10.9999 12.8881 10.9999 12.75C10.9999 12.4645 10.9999 12.179 10.9999 11.8935C10.9999 11.7519 10.9999 11.6103 10.9999 11.4688C10.9999 11.227 10.8302 10.9915 10.6724 10.7725C10.667 10.765 10.6616 10.7575 10.6562 10.75L8.87494 8.375C8.67181 8.125 8.31279 8 7.99994 8L4.00149 8ZM1.99993 12L1.99994 11.5312C1.99994 11.5312 3.24924 9.89271 3.87494 9.0625C3.90744 9.01938 3.96189 9 3.99994 9H7.99994C8.06244 9 8.10137 9.03125 8.12494 9.0625C8.65815 9.76966 9.99994 11.5312 9.99994 11.5312L9.99988 12H1.99993Z"/>
<path fill-rule="evenodd" clip-rule="evenodd" d="M5.99796 7C4.8943 6.99893 3.99994 6.10391 3.99994 5C3.99994 3.89543 4.89537 3 5.99994 3C7.10451 3 7.99994 3.89543 7.99994 5C7.99994 6.10391 7.10557 6.99893 6.00191 7H5.99796ZM6.99994 5C6.99994 5.55228 6.55222 6 5.99994 6C5.44765 6 4.99994 5.55228 4.99994 5C4.99994 4.44772 5.44765 4 5.99994 4C6.55222 4 6.99994 4.44772 6.99994 5Z"/>
<path fill-rule="evenodd" clip-rule="evenodd" d="M13 6.5C13 7.32843 12.3284 8 11.5 8C10.6715 8 9.99997 7.32843 9.99997 6.5C9.99997 5.67157 10.6715 5 11.5 5C12.3284 5 13 5.67157 13 6.5ZM11.5 7C11.7761 7 12 6.77614 12 6.5C12 6.22386 11.7761 6 11.5 6C11.2238 6 11 6.22386 11 6.5C11 6.77614 11.2238 7 11.5 7Z"/>
<path d="M14 12H11.9999C11.9999 12.308 11.9999 12.605 12 13H14.825C14.9216 13 15 12.9112 15 12.8016C14.9999 12.4335 14.9999 12.3413 14.9999 12.1931L15 11.7285C15 11.5301 14.8878 11.3327 14.7552 11.1775L13.1532 9.29476C12.9864 9.09872 12.7668 9 12.5478 9H10.5714L11.3254 10H12.4403L14 11.8332L14 12Z"/>
</svg>
