<svg width="16" height="16" viewBox="0 0 16 16" xmlns="http://www.w3.org/2000/svg">
<path fill-rule="evenodd" clip-rule="evenodd" d="M11 4C11 5.65685 9.65686 7 8.00001 7C6.34315 7 5.00001 5.65685 5.00001 4C5.00001 2.34315 6.34315 1 8.00001 1C9.65686 1 11 2.34315 11 4ZM10 4C10 5.10457 9.10458 6 8.00001 6C6.89544 6 6.00001 5.10457 6.00001 4C6.00001 2.89543 6.89544 2 8.00001 2C9.10458 2 10 2.89543 10 4Z" />
<path fill-rule="evenodd" clip-rule="evenodd" d="M13.6503 10.7434C13.8397 10.9388 14 11.1875 14 11.4375L14 13.75C14 13.8881 13.8881 14 13.75 14H2.25001C2.11193 14 2.00001 13.8881 2.00001 13.75C2.00001 13.75 1.99999 12.0908 2.00001 11.4375C2.00001 11.1875 2.15789 10.9388 2.34731 10.7434L4.635 8.37135C4.87414 8.12438 5.18785 8 5.50155 8H10.4969C10.8098 8 11.1235 8.12438 11.3618 8.37135L13.6503 10.7434ZM12.9314 11.4385L12.9322 11.4393C12.9566 11.4645 13 11.5313 13 11.5938C13 11.7317 12.9999 11.8697 12.9998 12.0077C12.9996 12.3384 12.9995 12.6692 13 13H3.00001L3 12.4946C3 12.1988 3 11.9122 3.00001 11.5938C3.00001 11.5313 3.04185 11.4636 3.06539 11.4393L5.3534 9.06697L5.35386 9.0665C5.40137 9.01767 5.45426 9 5.50155 9H10.4969C10.5434 9 10.5958 9.01767 10.6421 9.06568L12.9314 11.4385Z" />
</svg>
