<svg width="199" height="138" viewBox="0 0 199 138" fill="none" xmlns="http://www.w3.org/2000/svg">
<g clip-path="url(#clip0_39033_68740)">
<path d="M39.5 137.933C61.3152 137.933 79 136.59 79 134.933C79 133.276 61.3152 131.933 39.5 131.933C17.6848 131.933 0 133.276 0 134.933C0 136.59 17.6848 137.933 39.5 137.933Z" fill="#242528"/>
<path d="M30.1931 30.6049C37.0673 27.6811 45.6292 29.5336 53.9908 30.8193C54.0686 29.2623 55.0118 27.3673 54.0238 26.2811C52.8235 24.9614 52.934 23.5747 53.6563 22.1801C55.5033 18.6139 52.8571 14.8192 50.1852 11.664C49.583 10.9544 48.8219 10.3969 47.9638 10.0367C47.1056 9.6765 46.1746 9.52381 45.2464 9.59101L40.297 9.94454C39.0926 10.0306 37.9432 10.4824 37.0026 11.2395C36.062 11.9966 35.3751 13.0229 35.0338 14.1811C33.8519 15.7884 33.2194 17.3912 33.6177 18.9857C31.8475 20.1954 31.5501 21.6557 32.3455 23.3018C33.02 24.3383 33.0128 25.3472 32.3148 26.3282C31.3982 27.5789 30.696 28.9735 30.2373 30.4547L30.1931 30.6049Z" fill="#2F2E41"/>
<path d="M193.552 119.241H53.4478C52.2018 119.241 51.007 118.746 50.1259 117.865C49.2449 116.984 48.75 115.789 48.75 114.543C99.5378 108.64 149.371 108.64 198.25 114.543C198.25 115.789 197.755 116.984 196.874 117.865C195.993 118.746 194.798 119.241 193.552 119.241Z" fill="#2F2E41"/>
<path d="M198.25 114.819L48.75 114.543L66.0765 85.3891L66.1594 85.2509V20.9991C66.1594 20.2192 66.3129 19.4469 66.6113 18.7264C66.9098 18.0059 67.3472 17.3512 67.8986 16.7997C68.4501 16.2483 69.1048 15.8109 69.8253 15.5124C70.5458 15.214 71.3181 15.0605 72.098 15.0605H174.073C174.853 15.0605 175.625 15.214 176.346 15.5124C177.066 15.8109 177.721 16.2483 178.272 16.7997C178.824 17.3512 179.261 18.0059 179.56 18.7264C179.858 19.4469 180.012 20.2192 180.012 20.9991V85.6931L198.25 114.819Z" fill="#3F3D56"/>
<path d="M71.9626 19.2056C71.4497 19.2062 70.958 19.4102 70.5954 19.7728C70.2327 20.1355 70.0288 20.6272 70.0282 21.14V79.7241C70.0288 80.237 70.2328 80.7286 70.5954 81.0913C70.9581 81.4539 71.4497 81.6579 71.9626 81.6585H175.037C175.55 81.6579 176.042 81.4539 176.405 81.0912C176.767 80.7286 176.971 80.237 176.972 79.7241V21.14C176.971 20.6272 176.767 20.1355 176.405 19.7729C176.042 19.4102 175.55 19.2062 175.037 19.2056H71.9626Z" fill="#242528"/>
<path d="M72.3945 89.396C72.236 89.3963 72.0809 89.4419 71.9475 89.5274C71.814 89.6128 71.7078 89.7347 71.6413 89.8786L66.3025 101.485C66.2443 101.611 66.2189 101.75 66.2285 101.889C66.2382 102.027 66.2825 102.161 66.3575 102.279C66.4325 102.396 66.5357 102.492 66.6577 102.559C66.7797 102.625 66.9165 102.66 67.0555 102.66H179.329C179.47 102.66 179.609 102.624 179.732 102.555C179.856 102.487 179.959 102.387 180.034 102.267C180.108 102.147 180.15 102.01 180.157 101.869C180.163 101.727 180.133 101.587 180.07 101.461L174.267 89.8543C174.198 89.7163 174.093 89.6002 173.962 89.5192C173.83 89.4383 173.679 89.3956 173.525 89.396H72.3945Z" fill="#2F2E41"/>
<path d="M123.085 18.2384C123.772 18.2384 124.329 17.6817 124.329 16.9949C124.329 16.3081 123.772 15.7514 123.085 15.7514C122.399 15.7514 121.842 16.3081 121.842 16.9949C121.842 17.6817 122.399 18.2384 123.085 18.2384Z" fill="#242528"/>
<path d="M112.05 104.871C111.868 104.871 111.691 104.931 111.546 105.042C111.401 105.153 111.297 105.309 111.25 105.484L109.91 110.459C109.877 110.581 109.873 110.71 109.898 110.835C109.922 110.96 109.975 111.077 110.053 111.178C110.13 111.279 110.23 111.361 110.344 111.418C110.458 111.474 110.584 111.503 110.711 111.503H136.179C136.311 111.503 136.442 111.472 136.559 111.411C136.677 111.35 136.778 111.263 136.855 111.155C136.931 111.047 136.981 110.923 137 110.792C137.018 110.661 137.006 110.528 136.962 110.403L135.241 105.429C135.184 105.266 135.078 105.125 134.938 105.025C134.798 104.925 134.63 104.871 134.457 104.871H112.05Z" fill="#2F2E41"/>
<path d="M180.012 84.2838V85.389H66.0765L66.1622 85.251V84.2838H180.012Z" fill="#2F2E41"/>
<path d="M176.834 38.6876C187.517 38.6876 196.177 30.0271 196.177 19.3438C196.177 8.66052 187.517 0 176.834 0C166.15 0 157.49 8.66052 157.49 19.3438C157.49 30.0271 166.15 38.6876 176.834 38.6876Z" fill="#00C7FD"/>
<path d="M184.848 27.7722H168.82C168.527 27.7719 168.246 27.6553 168.038 27.4481C167.831 27.2409 167.715 26.9599 167.714 26.6668V16.9949C167.715 16.7019 167.831 16.4209 168.039 16.2137C168.246 16.0064 168.527 15.8899 168.82 15.8896H184.848C185.141 15.8899 185.422 16.0064 185.629 16.2137C185.836 16.4209 185.953 16.7019 185.953 16.9949V26.6668C185.953 26.9599 185.836 27.2409 185.629 27.4481C185.422 27.6553 185.141 27.7719 184.848 27.7722ZM168.82 16.9949V26.6668H184.848L184.848 16.9949L168.82 16.9949Z" fill="#242528"/>
<path d="M181.808 16.9949H171.86V12.5735C171.86 9.37102 173.951 7.04668 176.834 7.04668C179.716 7.04668 181.808 9.37102 181.808 12.5735L181.808 16.9949ZM172.965 15.8896H180.702V12.5735C180.702 9.97023 179.112 8.15204 176.834 8.15204C174.556 8.15204 172.965 9.97025 172.965 12.5735L172.965 15.8896Z" fill="#242528"/>
<path d="M176.834 22.6599C177.444 22.6599 177.939 22.165 177.939 21.5545C177.939 20.9441 177.444 20.4492 176.834 20.4492C176.223 20.4492 175.728 20.9441 175.728 21.5545C175.728 22.165 176.223 22.6599 176.834 22.6599Z" fill="#242528"/>
<path d="M163.33 61.7874H83.67C83.2789 61.7869 82.904 61.6313 82.6274 61.3548C82.3509 61.0782 82.1953 60.7033 82.1948 60.3122V40.5519C82.1953 40.1608 82.3509 39.7859 82.6274 39.5093C82.904 39.2328 83.2789 39.0772 83.67 39.0768H163.33C163.721 39.0772 164.096 39.2328 164.373 39.5093C164.649 39.7859 164.805 40.1608 164.805 40.5519V60.3122C164.805 60.7033 164.649 61.0782 164.373 61.3548C164.096 61.6313 163.721 61.7869 163.33 61.7874ZM83.67 39.6668C83.4353 39.6671 83.2104 39.7604 83.0444 39.9264C82.8785 40.0923 82.7852 40.3173 82.7849 40.5519V60.3122C82.7852 60.5469 82.8785 60.7718 83.0444 60.9378C83.2104 61.1037 83.4353 61.197 83.67 61.1973H163.33C163.565 61.197 163.79 61.1037 163.956 60.9378C164.121 60.7718 164.215 60.5469 164.215 60.3122V40.5519C164.215 40.3173 164.121 40.0923 163.956 39.9264C163.79 39.7604 163.565 39.6671 163.33 39.6668L83.67 39.6668Z" fill="#313236"/>
<path d="M96.0476 55.683C99.3663 55.683 102.057 52.9926 102.057 49.6739C102.057 46.3551 99.3663 43.6647 96.0476 43.6647C92.7288 43.6647 90.0384 46.3551 90.0384 49.6739C90.0384 52.9926 92.7288 55.683 96.0476 55.683Z" fill="#313236"/>
<path d="M109.926 45.6678C109.794 45.6676 109.664 45.6933 109.542 45.7436C109.42 45.7938 109.31 45.8676 109.217 45.9606C109.123 46.0536 109.049 46.1641 108.999 46.2857C108.949 46.4073 108.923 46.5377 108.923 46.6693C108.923 46.801 108.949 46.9313 108.999 47.0529C109.049 47.1746 109.123 47.285 109.217 47.3781C109.31 47.4711 109.42 47.5448 109.542 47.595C109.664 47.6453 109.794 47.671 109.926 47.6708H157.14C157.406 47.6708 157.661 47.5653 157.848 47.3775C158.036 47.1897 158.142 46.9349 158.142 46.6693C158.142 46.4037 158.036 46.149 157.848 45.9611C157.661 45.7733 157.406 45.6678 157.14 45.6678H109.926Z" fill="#313236"/>
<path d="M109.926 51.6769C109.66 51.6769 109.405 51.7824 109.218 51.9702C109.03 52.1581 108.924 52.4128 108.924 52.6784C108.924 52.944 109.03 53.1988 109.218 53.3866C109.405 53.5744 109.66 53.6799 109.926 53.6799H130.242C130.508 53.6799 130.763 53.5744 130.95 53.3866C131.138 53.1988 131.244 52.944 131.244 52.6784C131.244 52.4128 131.138 52.1581 130.95 51.9702C130.763 51.7824 130.508 51.6769 130.242 51.6769H109.926Z" fill="#313236"/>
<path d="M65.8805 52.082L51.1547 59.9109L50.9683 53.3869C55.7747 52.5845 60.3475 51.1875 64.5757 48.9132L66.1158 45.1082C66.2836 44.6936 66.5564 44.3297 66.9073 44.0524C67.2582 43.775 67.6752 43.5937 68.1174 43.5261C68.5596 43.4586 69.0117 43.5072 69.4294 43.6672C69.8471 43.8272 70.216 44.0931 70.4999 44.4387C70.9153 44.9444 71.1229 45.5891 71.0808 46.2422C71.0386 46.8952 70.7498 47.5079 70.2728 47.9559L65.8805 52.082Z" fill="#FFB8B8"/>
<path d="M29.8995 97.2832C29.7921 96.8892 29.7693 96.4769 29.8326 96.0735C29.8959 95.6701 30.0439 95.2846 30.2669 94.9424L33.5017 89.978C34.2668 88.8038 35.4408 87.9556 36.7959 87.5981C38.151 87.2406 39.5907 87.3992 40.8354 88.0432C39.4759 90.3573 39.6655 92.3874 41.305 94.1516C38.7598 95.3941 36.4075 96.9977 34.3209 98.9128C33.94 99.1725 33.5026 99.3374 33.045 99.3938C32.5874 99.4502 32.123 99.3964 31.6905 99.237C31.2579 99.0775 30.8697 98.817 30.5581 98.4772C30.2466 98.1374 30.0208 97.728 29.8995 97.2832Z" fill="#2F2E41"/>
<path d="M66.5512 90.7921C66.0617 91.608 65.3707 92.2843 64.5446 92.7562C63.7184 93.2281 62.7849 93.4797 61.8335 93.4869L40.3434 93.6497L39.4114 88.244L48.9179 85.448L40.9026 79.2967L49.6635 69.0446L65.576 83.8757C66.506 84.7425 67.1103 85.9024 67.2878 87.1613C67.4653 88.4202 67.2053 89.7019 66.5512 90.7921Z" fill="#2F2E41"/>
<path d="M36.9882 127.761H31.9553C27.4365 96.7869 22.8369 65.7258 36.429 54.1325L52.4595 56.7421L50.4091 70.3494L41.4618 80.6015L36.9882 127.761Z" fill="#2F2E41"/>
<path d="M41.4123 134.778C41.0183 134.885 40.606 134.908 40.2026 134.845C39.7991 134.782 39.4137 134.634 39.0715 134.411L33.6069 133.676C32.4326 132.911 31.5844 131.737 31.2268 130.382C30.8692 129.027 31.0277 127.587 31.6716 126.343C33.9858 127.702 36.0159 127.512 37.78 125.873C39.0265 128.39 41.0802 128.236 43.0416 130.356C43.3013 130.737 43.4663 131.175 43.5227 131.632C43.5791 132.09 43.5254 132.554 43.366 132.987C43.2065 133.419 42.9461 133.808 42.6062 134.119C42.2664 134.431 41.8571 134.657 41.4123 134.778Z" fill="#2F2E41"/>
<path d="M48.9179 33.4418L39.5978 31.205C41.1457 28.0365 41.2732 24.511 40.5298 20.7665L46.8675 20.5801C47.066 25.2364 47.6668 29.5866 48.9179 33.4418Z" fill="#FFB8B8"/>
<path d="M51.4794 62.3545C44.6947 66.9778 39.9008 62.5127 36.2426 55.6237C36.7509 51.4082 35.9278 46.3635 34.4034 40.8821C33.7254 38.4644 33.9785 35.8804 35.1127 33.6402C36.247 31.4 38.1798 29.6664 40.5298 28.7818L48.5451 32.137C55.351 37.6846 56.6906 43.6938 54.1371 50.0316L51.4794 62.3545Z" fill="#00C7FD"/>
<path d="M31.9553 38.1019L24.4992 42.0163L37.7338 49.8452L39.5753 54.3876C39.6982 54.6908 39.7581 55.0158 39.7513 55.3429C39.7444 55.67 39.6711 55.9922 39.5357 56.29C39.4002 56.5878 39.2056 56.8549 38.9636 57.075C38.7215 57.2952 38.4372 57.4637 38.128 57.5703C37.7764 57.6915 37.4015 57.7297 37.0328 57.6819C36.664 57.6341 36.3112 57.5015 36.0022 57.2946C35.6932 57.0877 35.4363 56.8121 35.2516 56.4894C35.0669 56.1666 34.9594 55.8055 34.9376 55.4342L34.7513 52.2684L17.9304 46.7175C17.3636 46.5305 16.8469 46.217 16.4193 45.8007C15.9917 45.3843 15.6644 44.8762 15.4622 44.3147C15.1676 43.4962 15.1526 42.6031 15.4196 41.7751C15.6866 40.9472 16.2205 40.2311 16.9379 39.739L30.4641 30.4594L31.9553 38.1019Z" fill="#FFB8B8"/>
<path d="M39.4114 38.8475C36.3017 37.4847 33.4741 38.9651 29.9049 40.1523L29.3457 30.273C32.8897 28.3841 36.2687 27.8748 39.4114 29.341L39.4114 38.8475Z" fill="#00C7FD"/>
<path d="M43.1312 25.4737C46.4176 25.4737 49.0818 22.8095 49.0818 19.5231C49.0818 16.2367 46.4176 13.5726 43.1312 13.5726C39.8449 13.5726 37.1807 16.2367 37.1807 19.5231C37.1807 22.8095 39.8449 25.4737 43.1312 25.4737Z" fill="#FFB8B8"/>
<path d="M50.25 18.7723C44.3585 19.3493 39.8692 18.3858 37 15.6423V13.4329H49.75L50.25 18.7723Z" fill="#2F2E41"/>
</g>
<defs>
<clipPath id="clip0_39033_68740">
<rect width="198.25" height="137.933" fill="white"/>
</clipPath>
</defs>
</svg>
