<svg width="400" height="400" viewBox="0 0 1218 1122" fill="none" xmlns="http://www.w3.org/2000/svg">
<path opacity="0.04" d="M833.16 790.35C637.09 805.36 392.93 808.63 206.73 742.091C162.32 726.221 117.97 707.74 80.6401 677.81C43.3101 647.88 13.3001 604.98 6.68009 556.01C0.060091 507.04 20.8401 452.68 62.4901 429.96C121.4 397.83 199.41 434.54 256.85 399.57C303.17 371.36 317.09 308.23 321.09 251.96C325.09 195.69 325.08 134.74 357.26 89.6705C403.01 25.5905 495.52 22.2405 566.41 51.2905C637.29 80.3405 696.73 215.79 765.51 250.01C850.11 292.11 865.28 288.43 955.47 292.3C1049.38 296.33 1126.8 335.57 1172.55 402.99C1225.5 481.02 1217.54 545.461 1177.2 616.961C1136.77 688.62 1033.4 746.81 975.44 767.581C854.66 810.851 1004.35 790.36 833.18 790.36" fill="white"/>
<path opacity="0.04" d="M1134.27 269.66C1074.99 208.62 1014.98 146.95 943.42 96.3298C871.86 45.7099 786.55 6.40985 703.53 0.799847C620.51 -4.80015 542.13 28.8498 522.47 92.6498C501.85 159.59 546.36 240.61 595.68 310.88C686.28 439.97 817 572.17 978.88 608.33C1093.95 634.03 1046.65 517 1137.7 504.62C1278.07 485.53 1204.92 342.4 1134.27 269.65V269.66Z" fill="white"/>
<path opacity="0.08" d="M1135.95 1060.34C787.93 1018.68 477.05 1044.34 122.76 1047.9C95.4502 1048.17 67.1902 1048.55 42.4102 1053.81C17.6302 1059.08 -2.77982 1070.66 0.84018 1082.74C4.65018 1095.43 33.3602 1104.01 61.7602 1105.66C90.1602 1107.3 118.72 1103.73 146.86 1101.11C306.42 1086.23 470.37 1101.4 630.75 1112.53C791.13 1123.66 962.29 1130.13 1110.82 1099.74C1127.21 1096.39 1143.8 1092.37 1154.23 1085.79C1164.66 1079.21 1167.48 1067.74 1154.78 1063.55C1150.23 1062.05 1140.69 1060.91 1135.96 1060.34H1135.95Z" fill="white"/>
<path d="M1074.36 177.209L1082.04 192.769C1082.72 194.149 1084.04 195.109 1085.57 195.339L1102.75 197.839C1106.6 198.399 1108.14 203.129 1105.35 205.839L1092.92 217.949C1091.81 219.029 1091.31 220.579 1091.57 222.099L1094.5 239.209C1095.16 243.039 1091.13 245.969 1087.69 244.159L1072.33 236.079C1070.96 235.359 1069.33 235.359 1067.96 236.079L1052.6 244.159C1049.16 245.969 1045.13 243.049 1045.79 239.209L1048.72 222.099C1048.98 220.579 1048.48 219.019 1047.37 217.949L1034.94 205.839C1032.16 203.129 1033.69 198.399 1037.54 197.839L1054.72 195.339C1056.25 195.119 1057.57 194.159 1058.25 192.769L1065.93 177.209C1067.65 173.719 1072.62 173.719 1074.35 177.209H1074.36Z" fill="#FEC91B"/>
<path d="M214.97 570.83L219.16 579.32C219.52 580.06 220.23 580.57 221.04 580.68L230.41 582.04C232.46 582.34 233.27 584.85 231.79 586.29L225.01 592.9C224.42 593.47 224.15 594.3 224.29 595.11L225.89 604.44C226.24 606.48 224.1 608.03 222.27 607.07L213.89 602.66C213.16 602.28 212.3 602.28 211.57 602.66L203.19 607.07C201.36 608.03 199.22 606.48 199.57 604.44L201.17 595.11C201.31 594.3 201.04 593.48 200.45 592.9L193.67 586.29C192.19 584.85 193.01 582.33 195.05 582.04L204.42 580.68C205.23 580.56 205.93 580.05 206.3 579.32L210.49 570.83C211.4 568.98 214.05 568.98 214.96 570.83H214.97Z" fill="#00C7FD"/>
<path d="M427.45 745.229H924.18C931.16 745.229 936.83 750.9 936.83 757.88V764.299H417.41V755.28C417.41 749.74 421.91 745.24 427.45 745.24V745.229Z" fill="#6DDCFF"/>
<path d="M936.83 763.81H417.41V860.21H298.63V956.91H178.9V1040.42C178.9 1047.81 184.89 1053.8 192.28 1053.8H439.57V1053.55H936.83V763.81Z" fill="#D2F9FF"/>
<path d="M314.21 841.24H417.47V860.31H298.57V856.89C298.57 848.26 305.58 841.25 314.21 841.25V841.24Z" fill="#6DDCFF"/>
<path d="M194.55 938.03H298.63V957.1H178.9V953.68C178.9 945.05 185.91 938.04 194.54 938.04L194.55 938.03Z" fill="#6DDCFF"/>
<path d="M619.25 1082.86H556.88C545.66 1082.86 537.3 1072.49 539.69 1061.52C539.69 1061.52 564.95 1051.94 564.95 945.44C564.95 933.88 611.19 933.88 611.19 945.44C611.19 1052.36 636.45 1061.52 636.45 1061.52C638.84 1072.49 630.48 1082.86 619.26 1082.86H619.25Z" fill="#005B85"/>
<path d="M655.07 812.1H526.23C510.473 812.1 497.7 824.873 497.7 840.63V919.91C497.7 935.666 510.473 948.44 526.23 948.44H655.07C670.827 948.44 683.6 935.666 683.6 919.91V840.63C683.6 824.873 670.827 812.1 655.07 812.1Z" fill="#00C7FD"/>
<path d="M651.57 828.24H529.73C520.187 828.24 512.45 835.977 512.45 845.52V915.02C512.45 924.564 520.187 932.3 529.73 932.3H651.57C661.114 932.3 668.85 924.564 668.85 915.02V845.52C668.85 835.977 661.114 828.24 651.57 828.24Z" fill="white"/>
<path d="M611.63 848.689H546.5C544.114 848.689 542.18 850.624 542.18 853.009C542.18 855.395 544.114 857.329 546.5 857.329H611.63C614.016 857.329 615.95 855.395 615.95 853.009C615.95 850.624 614.016 848.689 611.63 848.689Z" fill="#A0EBFF"/>
<path d="M611.63 862.37H546.5C544.114 862.37 542.18 864.304 542.18 866.69C542.18 869.076 544.114 871.01 546.5 871.01H611.63C614.016 871.01 615.95 869.076 615.95 866.69C615.95 864.304 614.016 862.37 611.63 862.37Z" fill="#A0EBFF"/>
<path d="M634.81 891.26H598.31C595.924 891.26 593.99 893.194 593.99 895.58V904.8C593.99 907.186 595.924 909.12 598.31 909.12H634.81C637.196 909.12 639.13 907.186 639.13 904.8V895.58C639.13 893.194 637.196 891.26 634.81 891.26Z" fill="#0095CA"/>
<path d="M583 891.26H546.5C544.114 891.26 542.18 893.194 542.18 895.58V904.8C542.18 907.186 544.114 909.12 546.5 909.12H583C585.386 909.12 587.32 907.186 587.32 904.8V895.58C587.32 893.194 585.386 891.26 583 891.26Z" fill="#FF5662"/>
<path d="M136.46 1050.99C98.7404 1062.36 57.4504 1054.2 28.3104 1027.68C15.3604 1015.89 7.63038 1002.86 11.9604 991.589C18.7904 973.839 45.8104 1012.15 57.0104 992.959C66.5704 976.579 18.7904 921.969 36.5304 901.489C54.2804 881.009 63.8304 936.979 81.5804 906.949C99.3304 876.919 67.9304 831.869 102.06 833.229C136.19 834.589 122.54 900.119 132.09 916.499C141.65 932.879 149.84 890.559 168.95 902.849C188.06 915.139 137.55 975.199 153.93 984.759C170.31 994.319 190.79 973.839 193.52 1009.33C195.02 1028.83 164.37 1042.57 136.45 1050.98L136.46 1050.99Z" fill="#FEC91B"/>
<path d="M84.65 1054.7C84.32 1054.7 84 1054.58 83.75 1054.33C83.25 1053.83 83.25 1053.02 83.75 1052.52C121.82 1014.45 104.33 897.15 104.15 895.97C104.04 895.27 104.52 894.62 105.22 894.51C105.92 894.4 106.57 894.88 106.68 895.58C106.73 895.88 111.24 925.75 110.93 959.99C110.5 1006.17 101.97 1037.91 85.56 1054.32C85.31 1054.57 84.98 1054.69 84.66 1054.69L84.65 1054.7Z" fill="#333333"/>
<path d="M110.08 966.91L71.8003 947.11C71.1703 946.79 70.9303 946.01 71.2503 945.39C71.5703 944.76 72.3503 944.52 72.9703 944.84L109.88 963.93L139.03 943.61C139.61 943.21 140.41 943.35 140.81 943.93C141.21 944.51 141.07 945.31 140.49 945.71L110.07 966.92L110.08 966.91Z" fill="#333333"/>
<path d="M115.88 1080.24C93.0203 1070.76 76.2003 1050.37 72.5903 1025.89C70.9903 1015.01 72.4103 1005.6 79.0003 1001.85C89.3803 995.94 87.2703 1025.31 100.35 1020.44C111.51 1016.28 110.01 970.73 126.79 967.84C143.56 964.95 125.94 995.95 146.51 988.42C167.08 980.88 169.75 946.5 185.79 960.74C201.83 974.98 169.13 1001.4 167.26 1013.16C165.39 1024.92 186.2 1007.61 190.61 1021.19C195.01 1034.76 146.57 1043.86 150.73 1055.03C154.89 1066.19 172.99 1064.39 160.2 1082.72C153.17 1092.8 132.81 1087.28 115.89 1080.26L115.88 1080.24Z" fill="#00C7FD"/>
<path d="M98.6602 1070.02C98.4502 1070.02 98.2402 1069.97 98.0502 1069.86C97.4302 1069.52 97.2102 1068.74 97.5502 1068.12C116.58 1033.51 151.74 999.56 152.09 999.22C152.6 998.73 153.41 998.75 153.9 999.26C154.39 999.77 154.37 1000.58 153.86 1001.07C153.51 1001.41 118.63 1035.09 99.7902 1069.36C99.5602 1069.78 99.1202 1070.02 98.6702 1070.02H98.6602Z" fill="#333333"/>
<path d="M158.36 1031.06C158.36 1031.06 158.33 1031.06 158.31 1031.06L125.43 1029.78L123.8 996.78C123.77 996.07 124.31 995.47 125.01 995.44C125.73 995.41 126.32 995.95 126.35 996.65L127.86 1027.31L158.4 1028.5C159.11 1028.53 159.66 1029.12 159.63 1029.83C159.6 1030.52 159.04 1031.06 158.35 1031.06H158.36Z" fill="#333333"/>
<path d="M139.29 1064.26C139.23 1064.26 139.16 1064.26 139.1 1064.25L104.11 1058.94L90.5702 1028.95C90.2802 1028.31 90.5702 1027.55 91.2102 1027.26C91.8502 1026.97 92.6101 1027.26 92.9001 1027.9L105.87 1056.62L139.49 1061.72C140.19 1061.83 140.67 1062.48 140.56 1063.18C140.46 1063.81 139.92 1064.27 139.3 1064.27L139.29 1064.26Z" fill="#333333"/>
<path d="M1083.4 614.79C1083.44 629.5 1066.21 637.7 1054.97 628.21C1049.58 623.65 1045.25 617.76 1042.54 610.91C1017.44 547.48 956.51 503.85 886.66 502.06L886.16 336.32L929.08 336.19C1013.84 335.93 1082.76 404.44 1083.02 489.2L1083.4 614.8V614.79Z" fill="#FF5662"/>
<path d="M670.63 502.779L670.13 337.039L627.21 337.169C542.45 337.429 473.94 406.349 474.2 491.109L474.65 640.509L507.21 640.409C523.3 562.159 591 505.309 670.63 502.789V502.779Z" fill="#FF5662"/>
<path d="M899.03 700.35L886.41 664.85L662.29 665.53L649.81 701.31C646.3 711.37 644.51 721.94 644.51 732.6C644.51 739.49 650.1 745.08 656.99 745.08H904.54L904.52 732.03C904.5 721.24 902.65 710.53 899.03 700.36V700.35Z" fill="#0095CA"/>
<mask id="mask0_40585_13087" style="mask-type:luminance" maskUnits="userSpaceOnUse" x="644" y="664" width="261" height="82">
<path d="M899.03 700.35L886.41 664.85L662.29 665.53L649.81 701.31C646.3 711.37 644.51 721.94 644.51 732.6C644.51 739.49 650.1 745.08 656.99 745.08H892.04C898.94 745.08 904.53 739.48 904.52 732.58V732.03C904.5 721.24 902.64 710.53 899.03 700.36V700.35Z" fill="white"/>
</mask>
<g mask="url(#mask0_40585_13087)">
<path d="M908.51 753.02L628.89 753.859L628.8 724.34C628.8 724.34 714.9 714.979 770.64 714.979C826.38 714.979 908.42 723.49 908.42 723.49L908.51 753.01V753.02Z" fill="#005B85"/>
</g>
<path d="M883.33 666.949C901.58 666.889 917.79 655.189 923.47 637.839C945.65 570.089 958.62 486.499 958.35 396.059C957.83 224.279 850.84 77.5791 799.8 17.3391C785.93 0.979134 760.73 1.04914 746.97 17.4991C696.29 78.0491 590.19 225.389 590.71 397.169C590.98 487.599 604.46 571.119 627.05 638.729C632.83 656.039 649.11 667.649 667.37 667.599L883.33 666.949Z" fill="#D2F9FF"/>
<mask id="mask1_40585_13087" style="mask-type:luminance" maskUnits="userSpaceOnUse" x="590" y="5" width="369" height="663">
<path d="M883.33 666.949C901.58 666.889 917.79 655.189 923.47 637.839C945.65 570.089 958.62 486.499 958.35 396.059C957.83 224.279 850.84 77.5791 799.8 17.3391C785.93 0.979134 760.73 1.04914 746.97 17.4991C696.29 78.0491 590.19 225.389 590.71 397.169C590.98 487.599 604.46 571.119 627.05 638.729C632.83 656.039 649.11 667.649 667.37 667.599L883.33 666.949Z" fill="white"/>
</mask>
<g mask="url(#mask1_40585_13087)">
<path d="M996.22 96.7897C996.25 107.19 989.63 116.44 979.76 119.7C949.54 129.67 878.37 148.47 770.74 148.79C684.17 149.05 624.66 131.33 598.17 121.41C588.79 117.9 582.58 108.96 582.55 98.9397L581.55 4.33972C581.51 -8.95028 592.25 -19.7603 605.54 -19.8003L971.09 -20.9003C984.38 -20.9403 995.19 -10.2003 995.23 3.08972L996.22 96.7897Z" fill="#00C7FD"/>
<path d="M709.12 724.41H945.59L961.84 711.11L973.921 466.8L933.22 222.85C967.23 339.58 967.19 524.75 668.56 597.58C575.34 620.32 629.511 674.75 709.131 724.41H709.12Z" fill="#A0EBFF"/>
</g>
<path d="M772.06 343.58C821.125 343.58 860.9 303.805 860.9 254.74C860.9 205.675 821.125 165.9 772.06 165.9C722.995 165.9 683.22 205.675 683.22 254.74C683.22 303.805 722.995 343.58 772.06 343.58Z" fill="#A0EBFF"/>
<path d="M773.74 320.661C810.152 320.661 839.67 291.143 839.67 254.731C839.67 218.319 810.152 188.801 773.74 188.801C737.328 188.801 707.81 218.319 707.81 254.731C707.81 291.143 737.328 320.661 773.74 320.661Z" fill="#005B85"/>
<path d="M772.06 294.16C793.831 294.16 811.48 276.511 811.48 254.74C811.48 232.969 793.831 215.32 772.06 215.32C750.289 215.32 732.64 232.969 732.64 254.74C732.64 276.511 750.289 294.16 772.06 294.16Z" fill="white"/>
<path d="M661.21 253.41H636.97C628.913 253.41 622.38 259.942 622.38 268V357.28C622.38 365.338 628.913 371.87 636.97 371.87H661.21C669.268 371.87 675.8 365.338 675.8 357.28V268C675.8 259.942 669.268 253.41 661.21 253.41Z" fill="#A0EBFF"/>
<path d="M648.32 289.03C654.307 289.03 659.16 284.176 659.16 278.19C659.16 272.203 654.307 267.35 648.32 267.35C642.333 267.35 637.48 272.203 637.48 278.19C637.48 284.176 642.333 289.03 648.32 289.03Z" fill="#E96115"/>
<path d="M648.32 322.91C654.307 322.91 659.16 318.057 659.16 312.07C659.16 306.084 654.307 301.23 648.32 301.23C642.333 301.23 637.48 306.084 637.48 312.07C637.48 318.057 642.333 322.91 648.32 322.91Z" fill="#005B85"/>
<path d="M648.32 356.789C654.307 356.789 659.16 351.936 659.16 345.949C659.16 339.963 654.307 335.109 648.32 335.109C642.333 335.109 637.48 339.963 637.48 345.949C637.48 351.936 642.333 356.789 648.32 356.789Z" fill="#00C7FD"/>
<path d="M720.11 541.39C719.84 453.5 743.99 382.18 774.04 382.09C804.09 382 828.67 453.17 828.93 541.06C829.11 602.27 802.88 655.49 786.94 682.16C781.51 691.24 768.43 691.28 762.95 682.23C746.85 655.66 720.29 602.6 720.11 541.39Z" fill="#00C7FD"/>
<path d="M1105.63 1012.41L1105.27 1012.58C1084.51 1022.26 1061.87 1027.27 1038.97 1027.27H746.27C714.69 1027.27 689.22 999.71 693.59 968.44C694.72 960.34 697.72 952.56 702.95 945.6C711.2 934.6 724.03 928.8 737.51 927.67C749.13 926.7 759.74 919.66 763.52 908.63C763.8 907.83 764.1 907.03 764.44 906.25C773.39 885.66 800.11 876.13 821.29 883.56C825.2 884.93 828.88 886.79 832.3 889.04C839.18 893.57 848.15 887.87 847.47 879.66C843.45 830.97 855.23 780.91 882.03 739.88C888.61 729.81 898.78 722.34 910.62 720.24C942.25 714.64 958.51 749.67 964.4 778.54C967.17 792.09 969.42 805.75 971.17 819.47C972.54 830.25 986.28 834.02 993.05 825.52C1000.71 815.91 1010.29 808.08 1021.69 803.34C1028.75 800.4 1036.37 798.71 1044.02 798.72C1083.09 798.72 1109.72 843.52 1105.6 882.37C1103.5 902.16 1095.97 920.42 1085.91 937.65C1083.57 941.65 1087.78 946.41 1091.95 944.39C1097.45 941.72 1103.51 939.91 1110.27 939.26C1124.46 937.9 1138.44 945.53 1143.41 958.89C1152.23 982.57 1127.52 1002.21 1105.65 1012.42L1105.63 1012.41Z" fill="#FEC91B"/>
<path d="M790.28 1020.91C796 1013.28 805.41 1009.84 814.83 1010.1C819.98 1010.24 824.73 1006.63 825.69 1001.57C825.96 1000.15 826.38 998.76 826.96 997.43C832.3 985.15 848.24 979.46 860.87 983.89C860.95 983.92 861.03 983.949 861.12 983.979C868.55 986.659 876.24 981.359 876.06 973.469C875.47 947.009 882.61 920.34 897.14 898.13C900.91 892.37 906.7 888.009 913.44 886.619C932.77 882.619 942.67 903.83 946.23 921.26C948.29 931.36 949.88 941.55 950.99 951.79C951.49 956.44 957.53 957.799 960.05 953.859C965.05 946.049 971.87 939.6 980.4 936.05C984.61 934.3 989.15 933.29 993.72 933.29C1017.02 933.29 1032.91 960.009 1030.45 983.189C1029.15 995.399 1024.36 1006.63 1018.04 1017.21C1026.29 1014.57 1035.54 1014.86 1042.54 1019.24C1050.35 1022.2 1055.99 1029.15 1053.47 1039.64C1053.35 1040.13 1053.18 1040.6 1053.03 1041.08C1052.92 1043.47 1052.54 1045.86 1051.86 1048.14C1049.23 1056.95 1042.9 1064.3 1035.51 1069.77C1015.91 1084.28 989.76 1086.37 965.45 1084.33C941.15 1082.29 917.02 1076.68 892.66 1077.88C872.81 1078.86 853.2 1084.35 833.35 1083.23C820.49 1082.5 806.98 1077.93 797.53 1069.63H797.3C797.03 1069.34 796.78 1069.02 796.52 1068.72C791.87 1064.37 788.3 1059.07 786.47 1052.8C786.59 1052.67 786.7 1052.54 786.82 1052.41C783 1041.68 783.4 1030.1 790.29 1020.91H790.28Z" fill="#E96115"/>
<path d="M893.97 1078.55C893.8 1078.55 893.64 1078.52 893.48 1078.45C892.85 1078.18 892.55 1077.44 892.83 1076.81C913.22 1029.5 917.46 954.23 917.42 899.41C917.38 839.95 912.44 791.07 912.39 790.58C912.32 789.89 912.82 789.28 913.51 789.21C914.19 789.14 914.81 789.64 914.88 790.33C914.93 790.82 919.89 839.8 919.93 899.39C919.97 954.45 915.7 1030.09 895.14 1077.8C894.94 1078.27 894.48 1078.56 893.99 1078.56L893.97 1078.55Z" fill="#333333"/>
<path d="M928.89 1030.64C917.17 1030.64 908.92 1027.82 908.46 1027.66C907.81 1027.43 907.46 1026.72 907.69 1026.07C907.92 1025.42 908.63 1025.07 909.28 1025.3C909.42 1025.35 923.65 1030.19 940.91 1027.08C964 1022.92 981.32 1007.26 992.38 980.55C992.64 979.91 993.37 979.61 994.01 979.87C994.65 980.13 994.95 980.87 994.69 981.5C986.83 1000.47 971.19 1024.21 941.24 1029.56C936.85 1030.34 932.68 1030.64 928.88 1030.64H928.89Z" fill="#333333"/>
<path d="M907.49 861.05C903.22 861.05 898.22 860.23 893.94 857.33C888.45 853.61 885.32 847.26 884.63 838.45C884.58 837.76 885.09 837.16 885.78 837.11C886.47 837.05 887.07 837.57 887.12 838.26C887.75 846.26 890.51 851.98 895.33 855.26C903.93 861.1 916.42 857.35 916.55 857.31C917.21 857.11 917.91 857.48 918.11 858.14C918.31 858.8 917.94 859.5 917.29 859.7C916.98 859.8 912.8 861.06 907.49 861.06V861.05Z" fill="#333333"/>
<path d="M886.24 1025.33C888.77 1018.47 889.26 1008.63 882.44 1006C876.23 1003.61 870.24 1009.68 866.33 1015.06C851.04 1036.11 835.76 1057.16 820.47 1078.21C829.67 1052.14 835.14 1024.77 836.67 997.17C837.12 989.09 836.07 979.08 828.6 975.95C824.12 974.07 818.76 975.68 815.07 978.84C811.38 982 809.08 986.46 807.19 990.94C795.69 1018.25 796.96 1050.63 810.56 1076.95C804.65 1057.82 792.73 1040.58 776.91 1028.3C770.71 1023.49 762.57 1019.27 755.3 1022.21C748.66 1024.9 745.43 1032.98 746.44 1040.07C747.44 1047.16 751.78 1053.33 756.63 1058.61C772.48 1075.85 804.73 1094.56 828.48 1084.04C853.84 1072.81 876.57 1051.53 886.23 1025.34L886.24 1025.33Z" fill="#005B85"/>
<path d="M789.26 998.09C785.89 994.3 781.09 990.56 776.34 992.17C770.19 994.26 769.8 1002.97 770.99 1009.5C774.58 1029.29 791.22 1061.32 801.5 1078.47C793.23 1071.82 770.57 1057.63 760.35 1055.09C756.24 1054.07 751.28 1053.65 748.4 1056.82C744.48 1061.14 747.57 1068.19 751.39 1072.6C764.03 1087.22 799.62 1101.15 807.47 1074.3C814.95 1048.7 806.51 1017.5 789.26 998.08V998.09Z" fill="#00C7FD"/>
<path d="M527.95 172.62C526.29 177.68 532.13 187.54 536.53 188.98C540.93 190.42 542.22 182.91 543.88 177.85C545.54 172.79 543.32 167.51 538.92 166.07C534.52 164.63 529.61 167.56 527.94 172.62H527.95Z" fill="#FFC599"/>
<path d="M488.44 203.52L466.43 247.49L489.54 257.2L507.46 210.38L488.44 203.52Z" fill="#FFBB8D"/>
<path d="M478.18 170.29C489.46 147.78 515.3 137.88 535.89 148.18C552.31 156.4 557.6 169.8 551.88 189.24C550.43 194.17 548.27 199.48 545.4 205.2C534.12 227.71 518.24 250.92 506.09 231.36C483.16 194.47 466.91 192.79 478.19 170.28L478.18 170.29Z" fill="#FFBB8D"/>
<path d="M545.39 187.609L548.37 212.589C548.62 214.679 546.86 216.449 544.77 216.219L537.71 215.429L545.39 187.609Z" fill="#FFBB8D"/>
<path d="M304.14 774.2L322.4 787.09L347.42 736.42L329.16 723.53L304.14 774.2Z" fill="#DD9F76"/>
<path d="M363.43 838.06C362.54 830.98 357.11 829.06 352.54 826.87C349.71 825.51 348.64 823.49 346.37 820.18L331.39 790.92C329.04 786.33 324.81 783.13 319.91 781.53C319.88 781.52 319.85 781.51 319.82 781.5C311.49 778.68 310.92 775.92 307.44 767.85C306.54 765.78 303.71 765.52 302.45 767.4L284.13 784.68C281.3 788.04 281.97 793.11 285.58 795.61C285.58 795.61 309.06 821.79 341.58 839.6C345.14 841.55 356.91 840.77 361.6 840.36C362.76 840.26 363.57 839.22 363.42 838.07L363.43 838.06Z" fill="#005B85"/>
<path d="M412.05 481.521C403.65 569.431 407.52 654.741 379.32 739.071C376.78 746.661 373.66 754.851 366.36 759.051C358 763.861 342.09 761.791 332.53 759.561L315.98 757.321C304.25 754.581 297.62 743.131 301.68 732.621C316.24 694.881 336.66 656.731 346.16 617.671C349.48 604.041 353.02 579.051 352.58 582.091C350.76 594.771 355.54 544.521 352.38 519.831C347.8 484.041 337.48 468.221 348.27 433.551C350.86 425.231 350.81 423.781 356.53 417.631C368.04 405.261 393.04 411.281 410.36 413.731L412.05 481.521Z" fill="#0095CA"/>
<path d="M422.7 720.14L444.64 716.47L461.21 676.32L439.28 679.99L422.7 720.14Z" fill="#FFBB8D"/>
<path d="M514.49 740.48C517.29 733.61 504.65 731.74 495.01 730.31C490.9 729.7 486.89 728.58 483.05 726.98L446.56 711.69C446.56 711.69 444.87 713.86 440.82 714.64C437.3 715.32 433.66 714.44 430.6 712.58L426.3 709.96C424.37 708.78 421.91 710.21 421.97 712.47L416.98 737.16C416.61 741.54 420.08 745.29 424.47 745.25H506.96C510.18 745.25 513.28 743.47 514.49 740.49V740.48Z" fill="#005B85"/>
<path d="M439.76 497.619C448.94 501.479 488.13 526.299 496.9 531.309C520.02 544.519 512.75 545.179 492.94 571.599C467.53 605.479 453.31 609.909 421.6 676.629C413.23 696.469 432.86 696.969 440.76 698.259C449.44 699.679 470.98 696.279 478.41 695.119C490.18 693.289 484.47 677.929 490.3 667.379C506.9 637.319 512.76 633.689 536.23 602.649C544.33 591.929 551.45 576.019 558.21 564.559C565.18 552.719 578.24 541.849 575.51 528.009C571.83 509.319 556.24 499.789 538.52 485.069C521.59 471.019 508.86 464.589 490.3 453.359C471.27 441.849 462.56 432.219 435.8 415.379C415.42 402.549 411.43 382.109 386.92 388.629C368.65 393.489 340.68 426.279 348.28 448.079C361.81 486.919 390.22 476.809 439.77 497.619H439.76Z" fill="#00C7FD"/>
<path d="M344.77 416.13C339.72 431.53 356.24 426.91 372.87 431.6C407.64 441.39 453.96 437.52 448.68 409.77C444.84 389.62 444.22 384.43 455.29 368.82C462.95 358.01 480.91 351.15 484.74 341.17C489.25 329.44 491.31 315.85 494.75 294.67C498.59 271.09 521.5 265.44 486.33 247.61C486.33 247.61 478.87 243.85 472.93 241.35C468.22 239.37 459.4 236.75 459.4 236.75C450.85 234.82 430.83 239.93 414.99 294.51C400.41 344.76 379.42 360 359.79 394.43C356.52 400.16 344.77 416.14 344.77 416.14V416.13Z" fill="#FF8F51"/>
<path d="M510.59 314.28C511.85 328.27 514.39 340.58 516.61 353.95C517.34 358.37 518.84 366.32 523.28 374.12C524.47 376.21 534.98 368.7 539.7 364.17C552.73 351.68 585.65 323.42 585.65 323.42C585.65 323.42 590.27 318.33 598.49 304.59C603.01 297.04 614.57 286.93 624.38 280.01C627.96 277.49 630.8 275.23 633.2 275.4C636.35 275.63 636.38 277.75 632.68 280.7C626.99 285.25 620.83 291.48 616.76 295.8L620.25 295.4C624.76 294.88 628.94 297.24 630.63 301.26L635.8 313.5C636.28 314.63 636.21 315.93 635.62 317.06L631.77 324.43C630.78 326.33 628.82 327.58 626.7 327.67L619 328.1C615.62 334.51 609.52 334.92 605.95 334.52C604.08 334.31 602.24 334.99 601 336.4L593.72 344.65C576.69 362.67 572.13 371.35 544.6 394.57C538.17 399.99 525.18 408.48 516.77 408.28C506.89 408.05 497.83 398.9 494.12 385.08C489.73 368.7 481.01 333.78 482.12 314.7L510.59 314.27V314.28Z" fill="#FFBB8D"/>
<path d="M487.61 329.119C487.67 329.229 487.79 329.439 487.92 329.669C487.76 329.389 487.66 329.219 487.61 329.119Z" fill="#FFBB8D"/>
<path d="M468.78 299.12C468 294.16 467.5 288.65 467.84 283.25C467.8 281.74 467.78 280.24 467.87 278.73C468.59 266.67 474.76 254.04 491.12 253.64C494.06 253.57 497.01 254.01 499.79 254.96C508.73 258.03 512.04 263.96 513.97 272.91C516 282.33 514.42 284.78 516.26 302.3C516.77 309.36 517.28 308.3 517.78 315.37C517.99 318.23 516.08 320.82 513.29 321.46C509.21 322.4 504.7 323.04 500.46 322.65C495.08 322.16 490.3 318.67 484.92 318.18C478.9 317.64 471.95 327.09 466.7 324.36C464.6 323.27 464.24 320.38 465.91 318.71C467.67 316.95 468.9 314.59 469.51 312.16C469.78 311.07 469.93 309.95 470.02 308.83C469.62 305.1 469.21 301.8 468.78 299.12Z" fill="#E96115"/>
<path d="M504.04 197.94C505.4 198.68 503.83 202.61 502.68 204.26C498.06 212.85 500.42 208.83 493.1 218.05C483.2 230.53 495.74 233.24 488.81 248.6C486 254.83 477.42 258.51 470.1 259.41C464.77 260.06 459.25 257.27 456.65 252.65C455.79 251.11 453.7 250.97 452.35 252.12C447.06 256.63 438.22 257.06 433.02 252.22C429.06 248.53 428.01 242.5 429.56 237.37C430.63 233.83 429.11 230.1 425.74 228.58C419.37 225.71 414.51 219.05 415 211.98C415.69 202.05 426.72 194.38 436.27 196.79C436.63 196.88 436.87 196.51 436.65 196.22C431.22 188.95 435.06 177.37 442.58 171.93C446.34 169.21 450.65 167.6 455.18 166.6C462.5 164.97 467.24 151.62 469.35 144.42C471.71 136.39 478.39 130.21 485.82 126.74C493.59 123.11 497.71 121.79 510.59 125.75C514.56 126.97 520.67 129.64 524.79 130.14C532.18 131.04 539.65 131.97 546.58 134.7C559.02 139.61 569.52 153.52 564.6 165.96C563.39 169.02 561.34 171.71 558.94 173.97C549.39 182.94 539.82 177.27 527 170.61C526.72 170.47 528.09 155 527.85 154.82C527.32 154.42 522.42 166.49 521.91 166.1L514.06 180.75L504.03 197.97L504.04 197.94Z" fill="#FFE17A"/>
<path d="M519.26 190.12C519.83 196.48 515.88 202.03 510.43 202.52C504.98 203.01 502.03 195.71 501.46 189.35C500.89 182.99 502.91 179.98 508.36 179.49C513.81 179 518.69 183.76 519.26 190.12Z" fill="#FFBB8D"/>
<path d="M136.46 1050.99C98.7404 1062.36 57.4504 1054.2 28.3104 1027.68C15.3604 1015.89 7.63038 1002.86 11.9604 991.589C18.7904 973.839 45.8104 1012.15 57.0104 992.959C66.5704 976.579 18.7904 921.969 36.5304 901.489C54.2804 881.009 63.8304 936.979 81.5804 906.949C99.3304 876.919 67.9304 831.869 102.06 833.229C136.19 834.589 122.54 900.119 132.09 916.499C141.65 932.879 149.84 890.559 168.95 902.849C188.06 915.139 137.55 975.199 153.93 984.759C170.31 994.319 190.79 973.839 193.52 1009.33C195.02 1028.83 164.37 1042.57 136.45 1050.98L136.46 1050.99Z" fill="#FEC91B"/>
<path d="M84.65 1054.7C84.32 1054.7 84 1054.58 83.75 1054.33C83.25 1053.83 83.25 1053.02 83.75 1052.52C121.82 1014.45 104.33 897.15 104.15 895.97C104.04 895.27 104.52 894.62 105.22 894.51C105.92 894.4 106.57 894.88 106.68 895.58C106.73 895.88 111.24 925.75 110.93 959.99C110.5 1006.17 101.97 1037.91 85.56 1054.32C85.31 1054.57 84.98 1054.69 84.66 1054.69L84.65 1054.7Z" fill="#333333"/>
<path d="M110.08 966.91L71.8003 947.11C71.1703 946.79 70.9303 946.01 71.2503 945.39C71.5703 944.76 72.3503 944.52 72.9703 944.84L109.88 963.93L139.03 943.61C139.61 943.21 140.41 943.35 140.81 943.93C141.21 944.51 141.07 945.31 140.49 945.71L110.07 966.92L110.08 966.91Z" fill="#333333"/>
<path d="M115.88 1080.24C93.0203 1070.76 76.2003 1050.37 72.5903 1025.89C70.9903 1015.01 72.4103 1005.6 79.0003 1001.85C89.3803 995.94 87.2703 1025.31 100.35 1020.44C111.51 1016.28 110.01 970.73 126.79 967.84C143.56 964.95 125.94 995.95 146.51 988.42C167.08 980.88 169.75 946.5 185.79 960.74C201.83 974.98 169.13 1001.4 167.26 1013.16C165.39 1024.92 186.2 1007.61 190.61 1021.19C195.01 1034.76 146.57 1043.86 150.73 1055.03C154.89 1066.19 172.99 1064.39 160.2 1082.72C153.17 1092.8 132.81 1087.28 115.89 1080.26L115.88 1080.24Z" fill="#00C7FD"/>
<path d="M98.6602 1070.02C98.4502 1070.02 98.2402 1069.97 98.0502 1069.86C97.4302 1069.52 97.2102 1068.74 97.5502 1068.12C116.58 1033.51 151.74 999.56 152.09 999.22C152.6 998.73 153.41 998.75 153.9 999.26C154.39 999.77 154.37 1000.58 153.86 1001.07C153.51 1001.41 118.63 1035.09 99.7902 1069.36C99.5602 1069.78 99.1202 1070.02 98.6702 1070.02H98.6602Z" fill="#333333"/>
<path d="M158.36 1031.06C158.36 1031.06 158.33 1031.06 158.31 1031.06L125.43 1029.78L123.8 996.78C123.77 996.07 124.31 995.47 125.01 995.44C125.73 995.41 126.32 995.95 126.35 996.65L127.86 1027.31L158.4 1028.5C159.11 1028.53 159.66 1029.12 159.63 1029.83C159.6 1030.52 159.04 1031.06 158.35 1031.06H158.36Z" fill="#333333"/>
<path d="M139.29 1064.26C139.23 1064.26 139.16 1064.26 139.1 1064.25L104.11 1058.94L90.5702 1028.95C90.2802 1028.31 90.5702 1027.55 91.2102 1027.26C91.8502 1026.97 92.6101 1027.26 92.9001 1027.9L105.87 1056.62L139.49 1061.72C140.19 1061.83 140.67 1062.48 140.56 1063.18C140.46 1063.81 139.92 1064.27 139.3 1064.27L139.29 1064.26Z" fill="#333333"/>
<path d="M886.24 1025.33C888.77 1018.47 889.26 1008.63 882.44 1006C876.23 1003.61 870.24 1009.68 866.33 1015.06C851.04 1036.11 835.76 1057.16 820.47 1078.21C829.67 1052.14 835.14 1024.77 836.67 997.17C837.12 989.09 836.07 979.08 828.6 975.95C824.12 974.07 818.76 975.68 815.07 978.84C811.38 982 809.08 986.46 807.19 990.94C795.69 1018.25 796.96 1050.63 810.56 1076.95C804.65 1057.82 792.73 1040.58 776.91 1028.3C770.71 1023.49 762.57 1019.27 755.3 1022.21C748.66 1024.9 745.43 1032.98 746.44 1040.07C747.44 1047.16 751.78 1053.33 756.63 1058.61C772.48 1075.85 804.73 1094.56 828.48 1084.04C853.84 1072.81 876.57 1051.53 886.23 1025.34L886.24 1025.33Z" fill="#005B85"/>
<path d="M789.26 998.09C785.89 994.3 781.09 990.56 776.34 992.17C770.19 994.26 769.8 1002.97 770.99 1009.5C774.58 1029.29 791.22 1061.32 801.5 1078.47C793.23 1071.82 770.57 1057.63 760.35 1055.09C756.24 1054.07 751.28 1053.65 748.4 1056.82C744.48 1061.14 747.57 1068.19 751.39 1072.6C764.03 1087.22 799.62 1101.15 807.47 1074.3C814.95 1048.7 806.51 1017.5 789.26 998.08V998.09Z" fill="#00C7FD"/>
<path d="M136.46 1050.99C98.7404 1062.36 57.4504 1054.2 28.3104 1027.68C15.3604 1015.89 7.63038 1002.86 11.9604 991.589C18.7904 973.839 45.8104 1012.15 57.0104 992.959C66.5704 976.579 18.7904 921.969 36.5304 901.489C54.2804 881.009 63.8304 936.979 81.5804 906.949C99.3304 876.919 67.9304 831.869 102.06 833.229C136.19 834.589 122.54 900.119 132.09 916.499C141.65 932.879 149.84 890.559 168.95 902.849C188.06 915.139 137.55 975.199 153.93 984.759C170.31 994.319 190.79 973.839 193.52 1009.33C195.02 1028.83 164.37 1042.57 136.45 1050.98L136.46 1050.99Z" fill="#FEC91B"/>
<path d="M84.6503 1054.67C84.3303 1054.67 84.0103 1054.55 83.7703 1054.3C83.2803 1053.81 83.2803 1053.02 83.7703 1052.53C121.85 1014.45 104.36 897.14 104.18 895.96C104.08 895.28 104.54 894.64 105.23 894.53C105.91 894.43 106.55 894.89 106.66 895.58C106.71 895.88 111.22 925.74 110.91 959.99C110.48 1006.17 101.95 1037.9 85.5503 1054.3C85.3103 1054.54 84.9903 1054.67 84.6703 1054.67H84.6503Z" fill="#333333"/>
<path d="M110.07 966.88L71.8101 947.09C71.2001 946.77 70.9601 946.02 71.2701 945.41C71.5901 944.8 72.3401 944.56 72.9501 944.87L109.87 963.97L139.04 943.64C139.61 943.25 140.39 943.38 140.78 943.95C141.17 944.52 141.04 945.3 140.47 945.69L110.07 966.89V966.88Z" fill="#333333"/>
<path d="M115.88 1080.24C93.0203 1070.76 76.2003 1050.37 72.5903 1025.89C70.9903 1015.01 72.4103 1005.6 79.0003 1001.85C89.3803 995.94 87.2703 1025.31 100.35 1020.44C111.51 1016.28 110.01 970.73 126.79 967.84C143.56 964.95 125.94 995.95 146.51 988.42C167.08 980.88 169.75 946.5 185.79 960.74C201.83 974.98 169.13 1001.4 167.26 1013.16C165.39 1024.92 186.2 1007.61 190.61 1021.19C195.01 1034.76 146.57 1043.86 150.73 1055.03C154.89 1066.19 172.99 1064.39 160.2 1082.72C153.17 1092.8 132.81 1087.28 115.89 1080.26L115.88 1080.24Z" fill="#00C7FD"/>
<path d="M98.66 1069.99C98.46 1069.99 98.25 1069.94 98.06 1069.84C97.46 1069.51 97.23 1068.75 97.57 1068.14C116.6 1033.53 151.75 999.59 152.11 999.25C152.61 998.77 153.4 998.79 153.88 999.29C154.36 999.79 154.34 1000.58 153.84 1001.06C153.49 1001.4 118.6 1035.08 99.76 1069.35C99.53 1069.76 99.1 1070 98.66 1070V1069.99Z" fill="#333333"/>
<path d="M158.36 1031.04C158.36 1031.04 158.33 1031.04 158.31 1031.04L125.46 1029.76L123.84 996.79C123.81 996.1 124.34 995.51 125.03 995.48C125.72 995.45 126.31 995.98 126.34 996.67L127.85 1027.36L158.41 1028.55C159.1 1028.58 159.64 1029.16 159.61 1029.85C159.58 1030.52 159.03 1031.05 158.36 1031.05V1031.04Z" fill="#333333"/>
<path d="M139.29 1064.23C139.23 1064.23 139.16 1064.23 139.1 1064.22L104.12 1058.92L90.5902 1028.95C90.3102 1028.32 90.5902 1027.58 91.2102 1027.3C91.8402 1027.02 92.5802 1027.3 92.8602 1027.92L105.83 1056.65L139.47 1061.75C140.15 1061.85 140.62 1062.49 140.52 1063.17C140.43 1063.79 139.89 1064.23 139.29 1064.23Z" fill="#333333"/>
<path d="M886.24 1025.33C888.77 1018.47 889.26 1008.63 882.44 1006C876.23 1003.61 870.24 1009.68 866.33 1015.06C851.04 1036.11 835.76 1057.16 820.47 1078.21C829.67 1052.14 835.14 1024.77 836.67 997.17C837.12 989.09 836.07 979.08 828.6 975.95C824.12 974.07 818.76 975.68 815.07 978.84C811.38 982 809.08 986.46 807.19 990.94C795.69 1018.25 796.96 1050.63 810.56 1076.95C804.65 1057.82 792.73 1040.58 776.91 1028.3C770.71 1023.49 762.57 1019.27 755.3 1022.21C748.66 1024.9 745.43 1032.98 746.44 1040.07C747.44 1047.16 751.78 1053.33 756.63 1058.61C772.48 1075.85 804.73 1094.56 828.48 1084.04C853.84 1072.81 876.57 1051.53 886.23 1025.34L886.24 1025.33Z" fill="#005B85"/>
<path d="M789.26 998.09C785.89 994.3 781.09 990.56 776.34 992.17C770.19 994.26 769.8 1002.97 770.99 1009.5C774.58 1029.29 791.22 1061.32 801.5 1078.47C793.23 1071.82 770.57 1057.63 760.35 1055.09C756.24 1054.07 751.28 1053.65 748.4 1056.82C744.48 1061.14 747.57 1068.19 751.39 1072.6C764.03 1087.22 799.62 1101.15 807.47 1074.3C814.95 1048.7 806.51 1017.5 789.26 998.08V998.09Z" fill="#00C7FD"/>
</svg>
