<svg width="444" height="250" viewBox="0 0 444 250" fill="none" xmlns="http://www.w3.org/2000/svg">
<path opacity="0.05" d="M170.185 146.941C182.896 151.558 194.213 159.667 205.755 167.049C224.366 178.954 223.343 177.055 244.959 178.928C266.572 180.802 290.06 172.845 303.522 153.838C316.985 134.831 316.774 104.178 299.931 89.4708C280.933 72.8808 265.943 95.5655 244.71 82.5945C232.999 75.4405 225.318 62.6375 217.047 51.0735C204.709 33.8231 196.385 16.4235 178.05 7.6198C159.713 -1.1862 137.543 -2.40187 119.642 8.14713C101.74 18.6961 89.753 42.3071 94.4093 63.7528C96.0611 71.3595 99.6223 79.0921 97.5297 86.6475C94.7526 96.6738 83.6862 100.633 74.2067 101.312C64.7295 101.991 54.3661 101.263 46.6753 107.531C14.2115 133.984 67.488 165.213 87.0549 169.24C100.889 172.087 110.269 165.22 121.152 156.349C136.524 143.821 151.903 140.302 170.187 146.943L170.185 146.941Z" fill="white"/>
<path opacity="0.04" d="M331.437 117.156C338.977 117.385 344.737 118.817 351.433 120.808C358.129 122.798 364.678 125.533 371.745 125.95C384.853 126.723 397.62 118.712 402.601 108.019C407.582 97.3251 405.352 84.7041 398.383 74.9928C391.414 65.2815 380.164 58.3281 367.933 54.2028C355.702 50.0798 342.48 48.6051 329.351 48.1525C296.706 47.0255 263.607 52.1331 233.712 63.9281C203.816 75.7231 177.222 94.2825 158.328 117.786C152.115 125.516 146.524 134.626 148.187 143.917C149.537 151.465 155.688 157.891 163.279 161.615C170.87 165.339 179.76 166.627 188.49 166.723C219.149 167.064 247.676 153.731 274.915 141.187C302.152 128.641 300.908 114.862 331.437 117.158" fill="white"/>
<path opacity="0.08" d="M422.448 209.953C300.019 191.251 218.014 201.221 94.3908 207.419C84.8626 207.897 75.0026 208.438 66.4673 211.626C57.932 214.813 51.0602 221.419 52.5914 228.008C54.1991 234.929 64.4141 239.299 74.3646 239.859C84.3174 240.421 94.0915 237.253 103.977 236.341C163.439 230.864 202.34 242.512 258.584 246.703C314.826 250.893 374.728 252.394 425.919 233.93C431.566 231.893 437.271 229.488 440.767 225.75C444.263 222.012 444.994 215.681 440.468 213.534C438.846 212.764 424.116 210.205 422.45 209.951L422.448 209.953Z" fill="white"/>
<path d="M422.629 172.344C418.23 167.626 410.686 167.143 404.679 169.456C404.347 169.584 404.034 169.743 403.709 169.883C407.066 164.061 409.577 157.892 410.282 151.214C411.683 137.953 402.642 122.663 389.383 122.661C386.787 122.661 384.203 123.237 381.806 124.238C377.939 125.855 374.689 128.529 372.088 131.81C369.789 134.71 365.128 133.424 364.662 129.745C364.07 125.062 363.304 120.4 362.365 115.773C360.365 105.921 354.843 93.9629 344.111 95.8739C340.09 96.5903 336.641 99.1383 334.406 102.578C331.261 107.424 328.725 112.639 326.808 118.078C325.753 116.93 324.635 115.84 323.437 114.83C318.531 110.686 312.127 107.961 305.764 108.705C299.4 109.449 293.347 114.244 292.326 120.607C291.642 124.875 293.173 129.196 295.194 133.009C299.101 140.387 304.996 146.661 312.021 151.123C305.181 149.639 297.293 152.908 294.502 159.366C294.386 159.635 294.282 159.905 294.189 160.181C292.906 163.951 289.301 166.345 285.355 166.681C283.399 166.847 281.492 167.323 279.719 168.088C273.641 170.352 269.381 177.457 269.732 185.698C269.982 191.592 272.509 196.35 276.239 199.514C277.395 200.69 278.673 201.763 279.991 202.736C297.435 215.632 323.509 215.04 340.357 201.366C361.205 213.705 388.418 214.361 409.83 203.037C415.497 200.039 420.947 196.065 423.972 190.39C426.998 184.713 427.007 177.046 422.627 172.349L422.629 172.344Z" fill="#FF8F51"/>
<path d="M305.511 188.071C307.571 185.308 310.958 184.065 314.35 184.158C316.204 184.209 317.914 182.903 318.259 181.071C318.357 180.558 318.507 180.056 318.716 179.571C320.639 175.126 326.377 173.065 330.924 174.668C330.954 174.678 330.984 174.689 331.012 174.701C333.687 175.672 336.455 173.754 336.39 170.895C336.177 161.312 338.747 151.657 343.979 143.614C345.336 141.528 347.422 139.951 349.848 139.444C356.808 137.998 360.372 145.674 361.655 151.986C362.397 155.642 362.968 159.331 363.367 163.041C363.548 164.724 365.722 165.216 366.629 163.793C368.429 160.965 370.886 158.629 373.955 157.346C375.473 156.711 377.108 156.347 378.751 156.347C387.14 156.347 392.861 166.023 391.975 174.414C391.509 178.836 389.782 182.9 387.509 186.734C390.478 185.777 393.81 185.882 396.329 187.471C399.144 188.545 401.171 191.058 400.264 194.859C400.222 195.038 400.16 195.209 400.104 195.381C400.065 196.249 399.928 197.11 399.682 197.936C398.733 201.126 396.457 203.786 393.794 205.767C386.736 211.019 377.322 211.778 368.571 211.04C359.822 210.303 351.136 208.271 342.366 208.702C335.218 209.057 328.159 211.047 321.013 210.639C316.385 210.375 311.52 208.719 308.116 205.713H308.035C307.937 205.606 307.847 205.492 307.752 205.384C306.079 203.809 304.794 201.891 304.135 199.621C304.177 199.574 304.219 199.528 304.26 199.481C302.887 195.596 303.028 191.403 305.511 188.076V188.071Z" fill="#E96115"/>
<path d="M365.397 181.481C365.286 181.481 365.179 181.416 365.133 181.308C365.068 181.161 365.133 180.989 365.279 180.923C378.032 175.204 383.888 165.477 386.556 158.323C389.451 150.557 389.321 144.059 389.319 143.996C389.314 143.835 389.442 143.702 389.602 143.697C389.604 143.697 389.606 143.697 389.609 143.697C389.764 143.697 389.894 143.823 389.899 143.982C389.899 144.047 390.033 150.639 387.105 158.507C384.403 165.773 378.461 175.65 365.515 181.458C365.476 181.474 365.437 181.483 365.397 181.483V181.481Z" fill="#333333"/>
<path d="M373.324 200.099C370.102 200.099 367.202 199.353 364.65 197.857C357.46 193.645 355.602 184.83 355.583 184.744C355.551 184.585 355.653 184.431 355.808 184.401C355.964 184.368 356.119 184.471 356.149 184.627C356.168 184.713 357.98 193.279 364.945 197.358C369.429 199.983 375.055 200.216 381.669 198.051C381.823 198.002 381.985 198.086 382.036 198.237C382.085 198.391 382.001 198.555 381.85 198.606C378.802 199.605 375.955 200.102 373.324 200.102V200.099Z" fill="#333333"/>
<path d="M116.503 211.29H371.953L352.785 123.888H103.613L116.503 211.29Z" fill="#00C7FD"/>
<path d="M339.701 226.025H80.4104L94.7782 123.888H352.785L339.701 226.025Z" fill="#005B85"/>
<path d="M140.993 202.008H99.6362V185.418L132.279 134.243H162.135V184.715H174.913V202.008H162.135V216.029H140.993V202.008ZM141.923 150.483L120.781 184.715H141.923V150.483Z" fill="#00C7FD"/>
<path d="M181.697 177.353V173.146C181.697 160.607 184.95 150.676 191.455 143.354C197.96 136.034 206.749 132.371 217.824 132.371C228.9 132.371 237.649 135.992 244.077 143.237C250.504 150.48 253.719 160.373 253.719 172.913V177.12C253.719 189.661 250.467 199.592 243.961 206.912C237.456 214.234 228.666 217.895 217.592 217.895C206.519 217.895 197.765 214.273 191.337 207.028C184.908 199.786 181.695 189.895 181.695 177.353H181.697ZM217.708 150.363C212.985 150.363 209.363 152.291 206.846 156.145C204.329 160.002 203.069 165.591 203.069 172.913V177.12C203.069 184.596 204.308 190.263 206.786 194.12C209.263 197.975 212.903 199.902 217.706 199.902C222.508 199.902 226.051 197.975 228.568 194.12C231.083 190.263 232.345 184.677 232.345 177.353V173.146C232.345 165.668 231.106 160.002 228.628 156.145C226.148 152.291 222.511 150.363 217.708 150.363Z" fill="#D2F9FF"/>
<path d="M298.89 201.601C302.142 201.601 304.813 200.687 306.905 198.855C308.996 197.026 310.042 194.709 310.042 191.904C310.042 189.099 309.093 187.153 307.195 185.828C305.297 184.505 302.335 183.842 298.31 183.842H290.642V168.302H297.147C300.787 168.302 303.574 167.563 305.511 166.083C307.446 164.604 308.416 162.502 308.416 159.774C308.416 157.438 307.525 155.567 305.743 154.167C303.961 152.765 301.521 152.065 298.423 152.065C294.939 152.065 292.092 153.215 289.886 155.511C287.679 157.809 286.459 160.906 286.227 164.8H266.013C266.321 155.532 269.477 148.093 275.481 142.484C281.483 136.877 289.438 134.072 299.354 134.072C308.258 134.072 315.559 136.254 321.252 140.615C326.945 144.978 329.79 150.471 329.79 157.088C329.79 161.139 328.804 164.742 326.827 167.896C324.853 171.051 321.927 173.641 318.055 175.666C322.623 177.302 325.992 179.659 328.161 182.734C330.328 185.812 331.414 189.844 331.414 194.825C331.414 201.914 328.335 207.815 322.178 212.526C316.021 217.239 308.102 219.594 298.421 219.594C288.74 219.594 280.163 216.693 274.084 210.89C268.003 205.09 264.809 197.163 264.5 187.116H284.946C285.102 191.556 286.436 195.08 288.955 197.688C291.47 200.299 294.781 201.601 298.887 201.601H298.89Z" fill="#FFE17A"/>
<path d="M56.1943 115.27C58.3031 113.282 60.3239 111.096 61.463 108.424C62.6021 105.753 62.7297 102.498 61.1637 100.055C59.4539 97.3899 56.0272 96.1999 52.8906 96.5196C49.7539 96.8392 46.8795 98.4399 44.3646 100.353C36.4116 106.401 30.6139 116.899 30.5026 127.159C30.484 128.979 32.456 130.138 34.029 129.24C41.5806 124.926 49.5405 121.54 56.1966 115.27H56.1943Z" fill="#A0EBFF"/>
<path d="M8.99855 126.062C5.77607 123.25 2.49327 120.203 1.02239 116.173C-0.446174 112.143 0.549107 106.87 4.31447 104.852C8.11231 102.815 13.1003 105.013 15.4574 108.636C17.8145 112.26 18.1208 116.838 17.9537 121.164C17.5756 130.934 16.2184 132.364 8.99855 126.062Z" fill="#A0EBFF"/>
<path d="M37.1749 141.581C38.6179 140.568 40.163 139.553 41.9123 139.369C43.6639 139.184 45.6614 140.118 46.0837 141.835C46.5106 143.569 45.1325 145.354 43.4551 145.937C41.7754 146.52 39.9241 146.182 38.2189 145.678C34.37 144.542 33.9385 143.851 37.1726 141.581H37.1749Z" fill="#A0EBFF"/>
<path d="M22.0139 89.044C21.058 86.5846 20.7123 83.605 22.2273 81.4466C23.9487 78.992 27.6607 78.5416 30.2823 79.9813C32.9016 81.421 34.4792 84.3213 35.0314 87.273C35.8387 91.5943 33.8064 100.806 28.7836 102.363C25.1899 103.476 26.0344 100.965 25.4683 98.3376C24.7398 94.9473 23.2643 92.2616 22.0139 89.044Z" fill="#A0EBFF"/>
<path d="M18.4596 154.398C17.1094 155.648 15.2696 156.631 13.4879 156.19C11.4625 155.688 10.2283 153.371 10.4951 151.29C10.7619 149.208 12.2374 147.44 14.0075 146.329C16.599 144.703 23.0764 143.692 25.3593 146.586C26.9926 148.655 25.1528 148.739 23.5961 149.778C21.587 151.115 20.2228 152.764 18.4596 154.4V154.398Z" fill="#A0EBFF"/>
<path d="M110.888 226.461C96.1423 226.461 82.503 221.465 70.3462 211.614C60.3377 203.503 51.3431 192.294 42.8542 177.346C28.1593 151.474 23.2502 119.918 29.3843 90.7681C29.4168 90.6094 29.5722 90.5091 29.7277 90.5441C29.8854 90.5767 29.9852 90.7331 29.9504 90.8894C23.8441 119.902 28.7301 151.309 43.3553 177.057C51.8094 191.939 60.7553 203.095 70.7081 211.159C82.7582 220.924 96.2769 225.875 110.886 225.875C111.046 225.875 111.176 226.006 111.176 226.167C111.176 226.328 111.046 226.458 110.886 226.458L110.888 226.461Z" fill="#005B85"/>
<path d="M29.9598 129.63C29.0968 129.63 28.2987 129.186 27.5841 128.311C27.4821 128.188 27.5006 128.003 27.6236 127.901C27.7465 127.798 27.9298 127.817 28.0319 127.94C28.6792 128.734 29.3566 129.093 30.099 129.039C32.6905 128.855 35.7181 123.838 38.6459 118.987C41.5969 114.101 44.3856 109.481 46.8958 109.481C46.926 109.481 46.9585 109.481 46.9886 109.481C47.1487 109.488 47.2717 109.626 47.2647 109.787C47.2577 109.948 47.1209 110.072 46.9608 110.065C44.7684 109.967 41.9078 114.706 39.1401 119.288C36.1357 124.265 33.0292 129.413 30.1385 129.618C30.0781 129.623 30.0155 129.625 29.9552 129.625L29.9598 129.63Z" fill="#005B85"/>
<path d="M27.1757 136.338C23.4776 136.338 20.3734 135.193 17.9351 132.922C12.3254 127.696 12.1699 118.159 12.1699 118.064C12.1699 117.903 12.2975 117.772 12.4576 117.77C12.62 117.77 12.7476 117.898 12.7499 118.059C12.7499 118.152 12.903 127.444 18.3318 132.498C20.9233 134.91 24.3128 135.991 28.4146 135.713C28.5746 135.701 28.7138 135.823 28.7231 135.984C28.7347 136.145 28.6141 136.282 28.454 136.294C28.0202 136.324 27.5933 136.338 27.1757 136.338Z" fill="#005B85"/>
<path d="M15.6801 152.209C15.5966 152.209 15.5154 152.174 15.4574 152.104C15.3553 151.98 15.3716 151.796 15.4945 151.693C15.5896 151.614 25.0088 143.823 31.6696 148.938C31.7972 149.036 31.8204 149.218 31.7252 149.346C31.6278 149.474 31.4445 149.498 31.3192 149.402C25.0251 144.572 15.9585 152.067 15.8657 152.144C15.8124 152.19 15.7451 152.211 15.6801 152.211V152.209Z" fill="#005B85"/>
<path d="M31.4932 149.461C31.4677 149.461 31.4422 149.456 31.4143 149.449C31.2589 149.407 31.1707 149.246 31.2125 149.09C32.7321 143.593 38.0519 142.382 42.5271 143.079C42.6849 143.105 42.7939 143.254 42.7684 143.413C42.7429 143.571 42.5944 143.679 42.4367 143.656C38.2119 142.995 33.1868 144.115 31.7693 149.246C31.7345 149.374 31.6162 149.461 31.4909 149.461H31.4932Z" fill="#005B85"/>
<path d="M213.525 220.366C215.163 218.171 217.859 217.179 220.555 217.254C222.028 217.293 223.39 216.255 223.664 214.797C223.74 214.388 223.861 213.989 224.028 213.604C225.557 210.069 230.12 208.429 233.739 209.705C233.763 209.715 233.786 209.722 233.811 209.731C235.939 210.503 238.14 208.977 238.089 206.702C237.92 199.082 239.964 191.4 244.126 185.005C245.205 183.346 246.864 182.09 248.794 181.689C254.329 180.539 257.164 186.645 258.185 191.664C258.774 194.571 259.229 197.507 259.547 200.456C259.691 201.795 261.419 202.187 262.141 201.053C263.572 198.804 265.526 196.947 267.969 195.925C269.175 195.421 270.477 195.129 271.783 195.131C278.455 195.131 283.005 202.827 282.302 209.502C281.93 213.019 280.557 216.253 278.75 219.3C281.111 218.539 283.761 218.623 285.765 219.886C288.004 220.74 289.617 222.739 288.895 225.761C288.86 225.903 288.812 226.039 288.767 226.176C288.737 226.867 288.626 227.553 288.431 228.209C287.677 230.747 285.865 232.861 283.749 234.436C278.135 238.615 270.648 239.217 263.688 238.629C256.728 238.041 249.819 236.427 242.845 236.77C237.161 237.052 231.545 238.634 225.863 238.31C222.181 238.1 218.314 236.784 215.606 234.392H215.541C215.462 234.308 215.393 234.217 215.316 234.131C213.987 232.878 212.964 231.354 212.439 229.546C212.472 229.508 212.507 229.471 212.539 229.434C211.446 226.344 211.56 223.008 213.535 220.362L213.525 220.366Z" fill="#00C7FD"/>
<path d="M243.216 236.9C243.177 236.9 243.14 236.893 243.103 236.876C242.957 236.813 242.887 236.641 242.952 236.494C254.137 210.395 251.26 197.429 251.23 197.301C251.193 197.144 251.288 196.986 251.445 196.948C251.601 196.911 251.759 197.007 251.796 197.166C251.828 197.299 252.564 200.509 251.912 207.017C251.313 212.997 249.364 223.007 243.485 236.725C243.439 236.834 243.332 236.902 243.219 236.902L243.216 236.9Z" fill="#333333"/>
<path d="M248.423 229.741C247.258 229.741 246.527 229.636 246.455 229.627C246.297 229.604 246.188 229.454 246.212 229.296C246.235 229.137 246.381 229.027 246.541 229.051C246.583 229.058 250.859 229.66 255.564 227.842C261.772 225.443 265.929 219.911 267.588 211.845C267.621 211.686 267.774 211.586 267.931 211.618C268.089 211.651 268.189 211.805 268.156 211.964C266.969 217.739 263.853 225.278 255.749 228.395C252.851 229.51 250.158 229.741 248.425 229.741H248.423Z" fill="#333333"/>
<path d="M94.0266 51.3186C94.7226 52.4083 93.9524 55.0823 93.0128 55.6913C92.0709 56.3003 91.3145 54.611 90.6185 53.5213C89.9225 52.4316 90.1221 51.0549 91.064 50.4483C92.0059 49.8393 93.3329 50.2313 94.0289 51.3186H94.0266Z" fill="#FFC599"/>
<path d="M105.139 56.1738L112.953 65.1712L108.139 68.8648L101.107 58.9458L105.139 56.1738Z" fill="#FFBB8D"/>
<path d="M105.522 47.7322C101.518 43.1262 94.878 42.3749 90.6881 46.0546C87.345 48.9899 86.9227 52.4642 89.4399 56.6852C90.0779 57.7562 90.9062 58.8739 91.9223 60.0452C95.9267 64.6512 101.047 69.1405 102.701 63.7995C105.824 53.7242 109.524 52.3382 105.52 47.7345L105.522 47.7322Z" fill="#FFBB8D"/>
<path d="M90.8574 55.9062L91.6764 61.9636C91.746 62.4699 92.2657 62.7802 92.7389 62.5959L94.3421 61.9799L90.8574 55.9062Z" fill="#FFBB8D"/>
<path d="M101.154 55.8128C100.88 56.0718 101.485 56.8978 101.854 57.2152C103.457 58.9535 102.662 58.1508 104.931 59.8728C108.002 62.2038 105.234 63.6062 107.789 66.7958C108.826 68.0908 111.055 68.4315 112.819 68.1958C114.106 68.0255 115.227 67.0315 115.554 65.7855C115.663 65.3702 116.143 65.2115 116.526 65.3982C118.036 66.1355 120.131 65.6968 121.052 64.2432C121.755 63.1325 121.635 61.6508 120.959 60.5402C120.493 59.7725 120.623 58.8042 121.321 58.2395C122.639 57.1755 123.37 55.3135 122.827 53.6802C122.064 51.3888 119.018 50.2548 116.932 51.4052C116.853 51.4472 116.776 51.3772 116.809 51.2932C117.637 49.2515 116.039 46.7642 113.948 45.9428C112.904 45.5322 111.798 45.4178 110.677 45.4575C108.865 45.5205 106.949 42.6715 106.019 41.1058C104.982 39.3605 103.042 38.3152 101.093 37.9535C99.0563 37.5755 98.0123 37.5148 95.2399 39.2322C94.3861 39.7618 93.1194 40.7605 92.1844 41.1315C90.5117 41.7942 88.8204 42.4685 87.3658 43.5325C84.7558 45.4458 83.1434 49.3588 85.0481 51.9838C85.5167 52.6302 86.1594 53.1388 86.8577 53.5215C89.6347 55.0475 91.5279 53.1318 94.1216 50.7822C94.1773 50.7308 92.9199 47.1772 92.9663 47.1188C93.066 46.9928 94.9429 49.5338 95.0403 49.4078L97.764 52.3735L101.154 55.8105V55.8128Z" fill="#FFE17A"/>
<path d="M97.1191 54.9021C97.372 56.4328 98.6317 57.4968 99.9356 57.2798C101.239 57.0628 101.488 55.1658 101.235 53.6351C100.982 52.1044 100.328 51.5211 99.0238 51.7381C97.72 51.9551 96.8662 53.3714 97.1191 54.9021Z" fill="#FFBB8D"/>
<path d="M116.545 148.798L114.132 152.534L105.214 145.312L108.612 140.051L116.545 148.798Z" fill="#FFC599"/>
<path d="M108.341 168.057C108.188 167.143 109.315 164.902 109.754 163.831C110.065 163.073 110.348 162.198 110.489 161.391C110.802 159.597 111.812 154.316 111.812 154.316C111.895 153.25 112.431 152.272 113.28 151.628C113.603 151.383 113.902 151.15 114.076 151C115.445 149.827 115.665 148.756 115.716 146.95C115.73 146.485 116.247 146.219 116.628 146.483L121.094 148.886C121.885 149.313 122.027 150.216 121.646 151.084C119.899 155.086 113.408 165.264 110.431 168.449C109.682 169.25 108.513 169.075 108.343 168.057H108.341Z" fill="#FF8F51"/>
<path d="M49.4942 172.315L47.2229 168.491L54.7467 158.819L57.6142 163.647L49.4942 172.315Z" fill="#DD9F76"/>
<path d="M36.073 157.182C36.892 157.427 38.2863 159.287 38.9939 160.092C39.495 160.661 40.1029 161.256 40.7153 161.704C42.0725 162.7 46.0328 165.701 46.0328 165.701C46.8819 166.207 47.4712 167.057 47.6591 168.03C47.731 168.401 47.8006 168.748 47.854 168.951C48.2669 170.575 49.0627 171.198 50.5382 171.98C50.9164 172.181 50.9257 172.724 50.5521 172.934L46.7357 175.692C46.0583 176.182 45.2533 175.928 44.6895 175.256C42.0888 172.157 36.3143 162.563 34.8945 158.766C34.5372 157.812 35.1613 156.904 36.0707 157.177L36.073 157.182Z" fill="#E96115"/>
<path d="M98.3927 112.377C95.4045 115.919 92.015 119.1 88.303 121.86C74.9375 131.798 63.6785 140.653 52.2966 153.983C51.1343 155.346 49.9233 156.89 49.9534 158.78C49.9882 160.946 51.589 162.889 53.0321 164.544C53.6469 165.248 55.4657 167.304 55.4657 167.304C57.3333 169.25 60.2844 169.208 61.8365 167.215C67.3998 160.066 72.3716 151.741 78.7655 145.413C80.9973 143.203 83.141 141.227 84.8462 140.081C87.2219 138.483 90.7437 136.392 96.7965 132.953C103.805 128.967 114.322 125.638 119.73 119.566C121.027 118.11 121.484 118.145 121.834 116.143C122.486 112.408 113.461 110.702 111.009 107.648C109.928 106.301 108.64 104.836 107.014 104.719C105.838 104.635 104.794 105.293 103.831 105.928L98.3927 112.375V112.377Z" fill="#0095CA"/>
<path d="M124.606 81.6168C124.901 95.8501 122.34 99.6908 123.347 108.527L125.198 116.306C125.198 119.944 121.841 115.704 117.987 115.539C109.932 115.193 100.543 122.76 99.2024 114.496C98.5482 110.457 101.843 109.071 102.903 105.743C104.23 101.578 106.074 99.8704 105.446 96.4404C105.446 96.4404 104.408 83.9991 105.151 79.2437C105.979 73.9471 104.088 69.0844 108.914 65.6988C108.914 65.6988 110.705 64.5134 112.146 64.2054C120.05 62.5161 124.609 81.6144 124.609 81.6144L124.606 81.6168Z" fill="#FF8F51"/>
<path d="M95.5509 145.007C88.28 138.98 80.1136 133.524 72.8427 127.497C70.5482 125.593 68.2143 123.65 66.6066 121.132C64.9988 118.614 64.2077 115.385 65.2586 112.587C66.3792 109.608 68.799 108.334 71.8915 107.648C74.9841 106.962 81.3826 106.658 84.5286 107.02C90.0896 107.657 95.653 108.296 101.214 108.933C109.049 109.832 117.519 111.026 123.099 116.629C121.201 130.281 99.5297 124.991 81.1785 119.209C89.679 124.961 102.4 130.265 109.037 138.112C110.185 139.467 111.362 141.017 111.327 142.797C111.28 145.28 108.573 146.367 106.362 147.473C103.729 148.787 103.158 151.68 99.9705 149.9C98.1771 148.896 97.1331 146.32 95.5486 145.007H95.5509Z" fill="#00C7FD"/>
<path d="M122.409 100.444C121.934 105.127 119.841 115.639 117.783 119.867C113.761 128.124 107.958 127.27 103.021 129.865C103.051 126.514 102.708 126.129 105.694 125.492C106.559 125.308 107.898 125.124 108.919 124.622C113.663 122.284 114.361 113.604 114.733 108.303C115.101 103.039 114.401 99.0417 114.496 93.6424C114.538 91.3114 110.793 81.0074 112.079 79.7264C114.03 77.7827 118.929 81.3061 119.709 82.8671C121.994 87.4451 122.922 95.3994 122.412 100.442L122.409 100.444Z" fill="#FFC599"/>
<path d="M118.974 76.0796C118.742 74.9759 118.407 73.7813 117.906 72.6753C117.795 72.3556 117.679 72.0383 117.54 71.7303C116.428 69.2593 114.139 67.1056 110.698 68.3306C110.081 68.55 109.499 68.879 108.995 69.3013C107.374 70.6616 107.158 72.1689 107.466 74.1989C107.793 76.3363 108.251 77.3373 109.327 80.5456C109.782 82.067 110.239 83.5883 110.696 85.1096C110.881 85.7256 111.482 86.1176 112.116 86.029C113.041 85.8983 114.032 85.6719 114.886 85.2519C115.969 84.7199 116.686 83.6046 117.769 83.0726C118.98 82.4776 120.537 82.2 121.414 81.2083C121.767 80.8116 121.611 80.1769 121.129 79.9599C120.623 79.7313 120.178 79.3346 119.857 78.8726C119.714 78.6649 119.593 78.4433 119.486 78.2169C119.273 77.4026 119.096 76.677 118.971 76.082L118.974 76.0796Z" fill="#E96115"/>
<path d="M182.843 17.126H254.325C262.964 17.126 268.363 26.5316 264.043 34.0566L228.301 96.317C223.981 103.842 213.182 103.842 208.864 96.317L173.125 34.0566C168.805 26.5316 174.203 17.126 182.843 17.126Z" fill="#FF5662"/>
<path d="M208.468 46.3671C206.577 42.0691 199.717 33.8394 202.208 29.8704C205.134 25.2107 209.955 25.1174 216.335 24.7161C221.518 24.3917 227.496 24.3101 231.102 27.4951C235.38 31.2774 233.584 37.1877 231.856 42.0621C227.99 52.9587 224.645 60.0334 221.216 69.0681C220.534 70.8647 217.251 72.2274 216.026 70.5521C211.539 64.4131 213.53 57.8867 208.465 46.3671H208.468Z" fill="white"/>
<path d="M215.513 77.5848C214.07 78.7095 213.374 80.5061 213.91 82.0718C214.098 82.6178 214.414 83.1125 214.859 83.4998C216.339 84.7925 218.975 84.7295 220.652 83.4065C222.218 82.1721 222.824 79.9905 222.056 78.3618C221.979 78.1985 221.889 78.0421 221.787 77.8951C220.534 76.0681 217.699 75.8768 215.771 77.3818L215.511 77.5848H215.513Z" fill="white"/>
<path d="M156.038 98.2934C157.153 98.2934 158.056 97.3845 158.056 96.2634C158.056 95.1423 157.153 94.2334 156.038 94.2334C154.923 94.2334 154.02 95.1423 154.02 96.2634C154.02 97.3845 154.923 98.2934 156.038 98.2934Z" fill="#FF5662"/>
<path d="M291.394 86.2924C292.508 86.2924 293.412 85.3836 293.412 84.2624C293.412 83.1413 292.508 82.2324 291.394 82.2324C290.279 82.2324 289.375 83.1413 289.375 84.2624C289.375 85.3836 290.279 86.2924 291.394 86.2924Z" fill="#00C7FD"/>
<path d="M286.51 16.4487C287.625 16.4487 288.529 15.5398 288.529 14.4187C288.529 13.2975 287.625 12.3887 286.51 12.3887C285.395 12.3887 284.492 13.2975 284.492 14.4187C284.492 15.5398 285.395 16.4487 286.51 16.4487Z" fill="#FF5662"/>
<path d="M145.951 49.5922C147.065 49.5922 147.969 48.6834 147.969 47.5622C147.969 46.4411 147.065 45.5322 145.951 45.5322C144.836 45.5322 143.932 46.4411 143.932 47.5622C143.932 48.6834 144.836 49.5922 145.951 49.5922Z" fill="#00C7FD"/>
<path d="M278.216 74.4446C280.472 74.4446 282.301 72.6049 282.301 70.3356C282.301 68.0662 280.472 66.2266 278.216 66.2266C275.96 66.2266 274.13 68.0662 274.13 70.3356C274.13 72.6049 275.96 74.4446 278.216 74.4446Z" fill="#FF5662"/>
<path d="M168.144 86.1692C170.4 86.1692 172.229 84.3295 172.229 82.0602C172.229 79.7908 170.4 77.9512 168.144 77.9512C165.887 77.9512 164.058 79.7908 164.058 82.0602C164.058 84.3295 165.887 86.1692 168.144 86.1692Z" fill="#00C7FD"/>
</svg>
