<svg width="65" height="26" viewBox="0 0 65 26" fill="none" xmlns="http://www.w3.org/2000/svg">
<path d="M4.68324 0.839355H0V5.51507H4.68324V0.839355Z" fill="#00C7FD"/>
<path d="M4.5603 25.1606V8.34314H0.122559V25.1606H4.5603ZM33.9721 25.3303V21.2108C33.3207 21.2108 32.7825 21.1731 32.367 21.1071C31.9138 21.0317 31.555 20.8808 31.3284 20.6452C31.0923 20.4095 30.9413 20.0701 30.8657 19.6365C30.7996 19.2217 30.7619 18.675 30.7619 18.0151V12.1327H33.9721V8.34314H30.7619V1.8009H26.3241V18.0528C26.3241 19.4197 26.4469 20.5886 26.6829 21.5219C26.919 22.4363 27.3155 23.1904 27.8632 23.756C28.4108 24.3216 29.1473 24.727 30.0254 24.9721C30.9224 25.2172 32.0554 25.3397 33.4056 25.3397H33.9721V25.3303ZM59.3995 25.1606V0.5H54.9617V25.1606H59.3995ZM22.0469 10.0023C20.8194 8.67308 19.0821 8.00377 16.8821 8.00377C15.8246 8.00377 14.8426 8.22059 13.974 8.65422C13.1053 9.08786 12.3594 9.69118 11.774 10.4453L11.5285 10.7564V10.4736V8.34314H7.14741V25.1606H11.5568V16.2051V16.8273C11.5568 16.7236 11.5568 16.6199 11.5568 16.5256C11.604 14.9514 11.9912 13.7824 12.7276 13.0377C13.5113 12.2459 14.4555 11.8405 15.5414 11.8405C16.8255 11.8405 17.798 12.2364 18.4495 13C19.0821 13.7541 19.4031 14.8382 19.4126 16.224V16.2617V16.2711V25.1606H23.8881V15.6207C23.8975 13.2168 23.2744 11.3314 22.0469 10.0023ZM52.6484 16.7236C52.6484 15.517 52.4313 14.3763 52.0064 13.3205C51.5815 12.2741 50.9772 11.3409 50.2218 10.5396C49.4665 9.74774 48.5412 9.11614 47.4742 8.67308C46.4167 8.23002 45.227 8.00377 43.9524 8.00377C42.7438 8.00377 41.5919 8.23944 40.5343 8.69193C39.4674 9.15385 38.5326 9.77602 37.749 10.5584C36.9653 11.3409 36.3327 12.2741 35.8794 13.3394C35.4168 14.3952 35.1902 15.5452 35.1902 16.7519C35.1902 17.9585 35.4073 19.1086 35.8511 20.1644C36.2854 21.2296 36.8992 22.1629 37.6734 22.9359C38.4477 23.7183 39.3919 24.3499 40.4871 24.8024C41.5824 25.2643 42.8004 25.4906 44.094 25.4906C47.8519 25.4906 50.1935 23.7843 51.5909 22.1912L48.3995 19.7591C47.7292 20.5603 46.1335 21.635 44.1318 21.635C42.876 21.635 41.8468 21.3428 41.0725 20.7771C40.2889 20.2021 39.7507 19.4197 39.4674 18.4393L39.4202 18.279H52.6484V16.7236ZM39.458 15.1776C39.458 13.9427 40.8743 11.7934 43.924 11.7934C46.9738 11.7934 48.3901 13.9427 48.3901 15.1682L39.458 15.1776Z" fill="white"/>
<path d="M64.451 23.0395C64.366 22.8416 64.2433 22.6719 64.1016 22.5211C63.9506 22.3702 63.7806 22.2571 63.5823 22.1723C63.384 22.0874 63.1669 22.0403 62.9403 22.0403C62.7137 22.0403 62.4965 22.0874 62.2982 22.1723C62.0999 22.2571 61.93 22.3796 61.7789 22.5211C61.6278 22.6719 61.5145 22.8416 61.4296 23.0395C61.3446 23.2375 61.2974 23.4543 61.2974 23.6806C61.2974 23.9068 61.3446 24.1236 61.4296 24.3216C61.5145 24.5195 61.6373 24.6892 61.7789 24.8401C61.93 24.9909 62.0999 25.104 62.2982 25.1889C62.4965 25.2737 62.7137 25.3208 62.9403 25.3208C63.1669 25.3208 63.384 25.2737 63.5823 25.1889C63.7806 25.104 63.9506 24.9815 64.1016 24.8401C64.2527 24.6892 64.366 24.5195 64.451 24.3216C64.536 24.1236 64.5832 23.9068 64.5832 23.6806C64.5832 23.4543 64.536 23.2469 64.451 23.0395ZM64.1866 24.2085C64.1205 24.3687 64.0167 24.5195 63.8939 24.6421C63.7712 24.7646 63.6295 24.8589 63.4596 24.9343C63.2991 25.0003 63.1197 25.038 62.9308 25.038C62.742 25.038 62.572 25.0003 62.4021 24.9343C62.2416 24.8683 62.0905 24.7646 61.9677 24.6421C61.845 24.5195 61.7506 24.3781 61.675 24.2085C61.609 24.0482 61.5712 23.8691 61.5712 23.6806C61.5712 23.492 61.609 23.3223 61.675 23.1527C61.7411 22.9924 61.845 22.8416 61.9677 22.719C62.0905 22.5965 62.2321 22.5022 62.4021 22.4268C62.5626 22.3608 62.742 22.3231 62.9308 22.3231C63.1197 22.3231 63.2896 22.3608 63.4596 22.4268C63.6201 22.4928 63.7712 22.5965 63.8939 22.719C64.0167 22.8416 64.1111 22.983 64.1866 23.1527C64.2527 23.3129 64.2905 23.492 64.2905 23.6806C64.2905 23.8691 64.2527 24.0388 64.1866 24.2085ZM63.2519 23.8125C63.3841 23.7937 63.4879 23.7465 63.5729 23.6711C63.6579 23.5863 63.6956 23.4637 63.6956 23.3035C63.6956 23.1244 63.639 22.983 63.5351 22.8887C63.4313 22.7944 63.2613 22.7473 63.0347 22.7473H62.3077V24.6232H62.6476V23.8597H62.9025L63.3746 24.6232H63.7334L63.2519 23.8125ZM63.063 23.5392C63.0064 23.5392 62.9592 23.5486 62.9025 23.5486H62.6476V23.0207H62.9025C62.9592 23.0207 63.0064 23.0207 63.063 23.0207C63.1197 23.0207 63.1669 23.0301 63.2047 23.049C63.2519 23.0678 63.2802 23.0961 63.3085 23.1244C63.3368 23.1621 63.3463 23.2092 63.3463 23.2658C63.3463 23.3223 63.3368 23.3789 63.3085 23.4072C63.2802 23.4449 63.2519 23.4732 63.2047 23.4826C63.1669 23.5297 63.1197 23.5392 63.063 23.5392Z" fill="white"/>
</svg>
