<svg width="248" height="181" viewBox="0 0 1066 1130" fill="none" xmlns="http://www.w3.org/2000/svg">
<path opacity="0.04" d="M489.97 608.17C533.64 638.6 568.47 680.81 604.88 720.5C663.6 784.51 661.64 776.28 741.96 805.41C822.28 834.54 919.68 828.4 990.16 770.24C1060.64 712.08 1090.92 595.94 1041.76 523.13C986.32 441.01 906.3 511.52 838.68 440.81C801.39 401.81 785.15 345.55 765.41 293.38C735.97 215.56 721.95 141.26 661.13 89.2601C600.31 37.2601 517.21 10.0501 438.42 31.6901C359.63 53.3301 290.09 130.4 286.06 216.27C284.63 246.73 290.33 279.6 274.71 306.04C253.98 341.13 207.87 344.82 171.12 337.72C134.38 330.62 95.7 317.3 60.09 333.16C-90.22 400.1 80.77 572.54 151.12 607.73C200.86 632.61 243.5 616.19 293.9 593.74C365.08 562.03 427.15 564.41 489.96 608.17H489.97Z" fill="white"/>
<path opacity="0.04" d="M705.66 546.18C733.77 545.36 755.53 549.37 780.88 555.25C806.24 561.13 831.21 569.8 857.61 569.77C906.56 569.72 952.31 537.25 968.49 496.58C984.67 455.91 973.59 409.7 945.51 375.31C917.43 340.92 874.04 317.68 827.61 305.14C781.18 292.6 731.65 290.07 682.69 291.31C560.95 294.38 438.9 320.62 330.25 370.89C221.6 421.17 126.72 495.74 61.59 586.89C40.17 616.87 21.38 651.82 29.61 685.83C36.3 713.46 60.61 735.87 89.68 747.97C118.75 760.07 152.12 762.86 184.63 761.28C298.8 755.74 402.03 700.08 500.62 647.62C599.22 595.16 591.55 544.45 705.67 546.18" fill="white"/>
<path opacity="0.07" d="M873.73 1051.67C873.34 1051.57 868.39 1050.75 868 1050.72C625.69 1031.47 412.52 1048.51 168.19 1061.25C149.34 1062.23 129.84 1063.35 112.98 1070C96.12 1076.65 82.59 1090.46 85.68 1104.25C88.93 1118.73 109.18 1127.89 128.87 1129.08C148.56 1130.27 168.11 1125.47 187.42 1121.77C296.9 1100.78 410.88 1114.2 522.19 1123.06C633.51 1131.93 752.04 1135.17 853.14 1096.63C864.29 1092.38 875.56 1087.36 882.44 1079.54C888.29 1072.9 889.86 1063.89 884.98 1057.18C882.12 1053.25 877.71 1052.64 873.71 1051.66L873.73 1051.67Z" fill="white"/>
<path d="M776.62 989.779C782.67 978.059 785.85 960.959 772.12 955.019C765.82 952.289 758.46 953.449 752.87 957.439C741.92 965.239 732.35 974.829 724.37 985.609C731.83 962.679 736.48 938.839 738.04 914.779C738.26 911.339 737.24 907.809 734.84 905.329C728.54 898.829 719.76 904.499 714.31 910.249C695.53 930.069 683.2 967.499 678.39 994.349C678.39 994.349 678.65 965.639 677.22 956.709C676.33 951.169 674.1 945.729 669.18 943.019C657.73 936.709 648.46 949.529 645.65 960.569C640.69 980.109 643.3 1001.34 651.77 1019.81C650.6 1019.81 649.43 1019.77 648.26 1019.85C640.07 1020.36 631.82 1022.87 626.68 1027.64C617.34 1036.29 621.28 1050 632.03 1057.69C642.78 1065.39 658.32 1068.16 673.21 1068.89C678.57 1069.15 689.28 1069.02 703.58 1067.54C706.84 1067.2 715.08 1067.39 718.36 1067.46C727.36 1067.64 734.13 1066.88 750.06 1063.7C755.76 1062.56 761.09 1059.56 764.49 1054.84C774.34 1041.18 759.98 1028.28 746.51 1028.35C758.79 1017.47 769.1 1004.36 776.62 989.779Z" fill="#FF5662"/>
<path d="M691.6 1069.12C690.97 1069.12 690.43 1068.65 690.36 1068.01C683.36 1006.39 712.11 955.87 712.4 955.36C712.74 954.76 713.51 954.56 714.11 954.9C714.71 955.25 714.91 956.01 714.57 956.61C714.28 957.11 685.94 1006.95 692.85 1067.72C692.93 1068.41 692.43 1069.03 691.75 1069.1C691.7 1069.1 691.65 1069.1 691.61 1069.1L691.6 1069.12Z" fill="#333333"/>
<path d="M689.67 1040.66C687.33 1040.66 678.55 1040.23 672.14 1034.11C667.6 1029.78 665.3 1023.61 665.3 1015.75C665.3 1015.06 665.86 1014.5 666.55 1014.5C667.24 1014.5 667.8 1015.06 667.8 1015.75C667.8 1022.88 669.84 1028.45 673.85 1032.28C680.37 1038.51 690.04 1038.14 690.14 1038.14C690.82 1038.11 691.41 1038.64 691.45 1039.33C691.48 1040.02 690.95 1040.6 690.26 1040.64C690.21 1040.64 690 1040.65 689.68 1040.65L689.67 1040.66Z" fill="#333333"/>
<path d="M699.15 1023.92C696.13 1023.92 694.06 1023.51 693.86 1023.47C693.18 1023.33 692.75 1022.67 692.89 1022C693.03 1021.32 693.68 1020.89 694.36 1021.02C694.47 1021.04 705.15 1023.11 713.46 1017.31C718.58 1013.74 721.8 1007.91 723.03 999.99C723.14 999.31 723.77 998.84 724.46 998.95C725.14 999.06 725.61 999.69 725.5 1000.38C724.16 1009.01 720.59 1015.41 714.87 1019.39C709.49 1023.13 703.39 1023.93 699.16 1023.93L699.15 1023.92Z" fill="#333333"/>
<path d="M350.74 596.959C353.8 526.739 406.7 466.619 478.81 456.899C485.81 455.959 492.76 455.549 499.63 455.589C479.75 438.909 453.81 429.569 426.57 431.379C366.84 435.349 323.74 488.299 330.53 546.519H330.48L330.54 546.629C330.61 547.209 330.65 547.789 330.73 548.369C333.2 566.679 340.32 583.199 350.74 596.939V596.959Z" fill="#00C7FD"/>
<path d="M815.34 588.589L817.7 604.129C819.08 613.179 826.18 620.289 835.24 621.669L850.78 624.029C852.93 624.359 852.93 627.449 850.78 627.779L835.24 630.139C826.19 631.519 819.08 638.619 817.7 647.679L815.34 663.219C815.01 665.369 811.92 665.369 811.59 663.219L809.23 647.679C807.85 638.629 800.75 631.519 791.69 630.139L776.15 627.779C774 627.449 774 624.359 776.15 624.029L791.69 621.669C800.74 620.289 807.85 613.189 809.23 604.129L811.59 588.589C811.92 586.439 815.01 586.439 815.34 588.589Z" fill="#00C7FD"/>
<path d="M670.57 560.129L671.77 568.029C672.47 572.629 676.08 576.249 680.69 576.949L688.59 578.149C689.68 578.319 689.68 579.889 688.59 580.049L680.69 581.249C676.09 581.949 672.47 585.559 671.77 590.169L670.57 598.069C670.4 599.159 668.83 599.159 668.67 598.069L667.47 590.169C666.77 585.569 663.16 581.949 658.55 581.249L650.65 580.049C649.56 579.879 649.56 578.309 650.65 578.149L658.55 576.949C663.15 576.249 666.77 572.639 667.47 568.029L668.67 560.129C668.84 559.039 670.41 559.039 670.57 560.129Z" fill="#FF5662"/>
<path d="M908.25 441.009L909.79 451.139C910.69 457.039 915.32 461.679 921.22 462.569L931.35 464.109C932.75 464.319 932.75 466.339 931.35 466.549L921.22 468.089C915.32 468.989 910.68 473.619 909.79 479.519L908.25 489.649C908.04 491.049 906.02 491.049 905.81 489.649L904.27 479.519C903.37 473.619 898.74 468.979 892.84 468.089L882.71 466.549C881.31 466.339 881.31 464.319 882.71 464.109L892.84 462.569C898.74 461.669 903.38 457.039 904.27 451.139L905.81 441.009C906.02 439.609 908.04 439.609 908.25 441.009Z" fill="#FF5662"/>
<path d="M601.55 705.899L633.75 605.009L543.59 594.279L625.16 532.029L550.03 465.489L654.97 471.789C619.34 422.339 562.81 388.739 498.96 384.419C377.62 376.209 276.51 471.119 274.39 590.189H274.3L274.39 590.419C274.37 591.609 274.3 592.789 274.3 593.979C274.3 636.689 287.07 676.409 308.98 709.559C327.79 738.019 344.63 767.729 357.19 799.439L414.18 943.309H553.42L607.17 807.609C620.9 772.959 639.36 740.539 659.87 709.419C670.73 692.939 679.32 674.849 685.23 655.579L601.55 705.919V705.899Z" fill="#0095CA"/>
<path d="M511.82 863.929H508.82V700.879H449.48V863.929H446.48V700.879H419.41C402.83 700.879 389.34 687.389 389.34 670.809C389.34 654.229 402.83 640.739 419.41 640.739C435.99 640.739 449.48 654.229 449.48 670.809V697.879H508.82V670.809C508.82 654.229 522.31 640.739 538.89 640.739C555.47 640.739 568.96 654.229 568.96 670.809C568.96 687.389 555.47 700.879 538.89 700.879H511.82V863.929ZM511.82 697.879H538.89C553.82 697.879 565.96 685.739 565.96 670.809C565.96 655.879 553.82 643.739 538.89 643.739C523.96 643.739 511.82 655.879 511.82 670.809V697.879ZM419.41 643.729C404.48 643.729 392.34 655.869 392.34 670.799C392.34 685.729 404.48 697.869 419.41 697.869H446.48V670.799C446.48 655.869 434.34 643.729 419.41 643.729Z" fill="#D2F9FF"/>
<path d="M341.41 594.54C345.03 600.5 354.12 598.06 354.65 591.1C359.36 529.11 403.09 474.39 466.74 458.68C466.81 458.66 466.88 458.65 466.95 458.63C473.86 456.94 474.52 447.55 467.92 444.9C450.61 437.94 431.35 435.56 412.05 438.96C353.09 449.35 315.96 506.64 329 563.8H328.96L329.03 563.91C329.16 564.48 329.27 565.05 329.41 565.62C332 576.09 336.1 585.79 341.42 594.54H341.41Z" fill="#00C7FD"/>
<path d="M294.93 137.73C264.95 102.94 268.61 50.5798 303.1 20.7898C303.21 20.6898 303.33 20.5998 303.44 20.5098C288.39 22.6498 273.77 28.9498 261.44 39.6098C226.95 69.3998 223.29 121.76 253.27 156.55C283.15 191.23 335.17 195.35 369.66 165.88C342.63 169.72 314.19 160.08 294.93 137.73Z" fill="#00C7FD"/>
<path d="M242.36 181.998C257.69 181.998 270.19 168.598 270.6 153.678C271.04 137.218 257.47 123.748 240.67 123.748C236.76 123.748 233.04 124.498 229.62 125.828C226.17 113.438 214.57 104.318 200.76 104.318C194.64 104.318 188.97 106.118 184.25 109.198C181.09 111.258 177.26 110.888 174.4 108.338C170.31 104.678 165.14 102.488 159.51 102.488C148.44 102.488 139.14 110.928 136.34 122.408C135.64 125.298 132.98 126.848 130.47 125.868L130.42 125.848C126.97 124.498 123.21 123.748 119.27 123.748C101.59 123.748 87.49 138.678 89.53 156.298C90.53 164.948 95.6 172.568 102.79 177.228C107.62 180.358 113.38 181.748 119.14 181.758C119.14 181.758 211.67 181.998 242.36 181.998Z" fill="#005B85"/>
<path d="M402.42 965.02H562.28V1040.14C562.28 1053.03 551.81 1063.5 538.92 1063.5H425.78C412.89 1063.5 402.42 1053.03 402.42 1040.14V965.02Z" fill="#1A1A1A"/>
<path d="M385.42 863.619H579.29C588.25 863.619 595.53 870.899 595.53 879.859V988.989C595.53 1007.24 580.71 1022.06 562.46 1022.06H402.25C384 1022.06 369.18 1007.24 369.18 988.989V879.859C369.18 870.899 376.46 863.619 385.42 863.619Z" fill="#005B85"/>
<path d="M594.62 886.709H369.18C363.177 886.709 358.31 891.573 358.31 897.574C358.31 903.575 363.177 908.439 369.18 908.439H594.62C600.623 908.439 605.49 903.575 605.49 897.574C605.49 891.573 600.623 886.709 594.62 886.709Z" fill="#00C7FD"/>
<path d="M594.62 929.709H369.18C363.177 929.709 358.31 934.573 358.31 940.574C358.31 946.575 363.177 951.439 369.18 951.439H594.62C600.623 951.439 605.49 946.575 605.49 940.574C605.49 934.573 600.623 929.709 594.62 929.709Z" fill="#00C7FD"/>
<path d="M594.62 974.979H369.18C363.177 974.979 358.31 979.844 358.31 985.844C358.31 991.845 363.177 996.709 369.18 996.709H594.62C600.623 996.709 605.49 991.845 605.49 985.844C605.49 979.844 600.623 974.979 594.62 974.979Z" fill="#00C7FD"/>
<path d="M462.98 932.499C457.76 930.259 452.14 928.869 446.38 928.379C434.75 927.399 424.13 920.379 420.35 909.339C420.07 908.539 419.77 907.739 419.43 906.959C410.48 886.369 383.76 876.839 362.58 884.269C358.67 885.639 354.99 887.499 351.57 889.749C344.69 894.279 335.72 888.579 336.4 880.369C340.42 831.679 328.64 781.619 301.84 740.589C295.26 730.519 285.09 723.049 273.25 720.949C241.62 715.349 225.36 750.379 219.47 779.249C216.7 792.799 214.45 806.459 212.7 820.179C211.33 830.959 197.59 834.729 190.82 826.229C183.16 816.619 173.58 808.789 162.18 804.049C155.12 801.109 147.5 799.419 139.85 799.429C100.78 799.429 74.15 844.229 78.27 883.079C80.35 902.649 87.74 920.719 97.63 937.779C96.68 937.369 95.75 936.899 94.77 936.529C77.07 929.759 54.84 931.169 41.88 944.989C28.97 958.749 29 981.219 37.92 997.849C46.84 1014.48 62.89 1026.12 79.59 1034.9C142.68 1068.07 222.86 1066.16 284.29 1030.01C333.93 1070.07 410.77 1071.8 462.16 1034.02C466.04 1031.16 469.81 1028.03 473.21 1024.58C484.2 1015.31 491.65 1001.37 492.39 984.099C493.42 959.959 480.87 939.139 462.96 932.509L462.98 932.499Z" fill="#FFE17A"/>
<path d="M376.73 1018.33C371.01 1010.7 361.6 1007.26 352.18 1007.52C347.03 1007.66 342.28 1004.05 341.32 998.989C341.05 997.569 340.63 996.179 340.05 994.849C334.71 982.569 318.77 976.88 306.14 981.31C306.06 981.34 305.98 981.369 305.89 981.399C298.46 984.079 290.77 978.779 290.95 970.889C291.54 944.429 284.4 917.759 269.87 895.549C266.1 889.789 260.31 885.429 253.57 884.039C234.24 880.039 224.34 901.249 220.78 918.679C218.72 928.779 217.13 938.969 216.02 949.209C215.52 953.859 209.48 955.219 206.96 951.279C201.96 943.469 195.14 937.019 186.61 933.469C182.4 931.719 177.86 930.709 173.29 930.709C149.99 930.709 134.1 957.429 136.56 980.609C137.86 992.819 142.65 1004.05 148.97 1014.63C140.72 1011.99 131.47 1012.28 124.47 1016.66C116.66 1019.62 111.02 1026.57 113.54 1037.06C113.66 1037.55 113.83 1038.02 113.98 1038.5C114.09 1040.89 114.47 1043.28 115.15 1045.56C117.78 1054.37 124.11 1061.72 131.5 1067.19C151.1 1081.7 177.25 1083.79 201.56 1081.75C225.86 1079.71 249.99 1074.1 274.35 1075.3C294.2 1076.28 313.81 1081.77 333.66 1080.65C346.52 1079.92 360.03 1075.35 369.48 1067.05H369.71C369.98 1066.76 370.23 1066.44 370.49 1066.14C375.14 1061.79 378.71 1056.49 380.54 1050.22C380.42 1050.09 380.31 1049.96 380.19 1049.83C384.01 1039.1 383.61 1027.52 376.72 1018.33H376.73Z" fill="#FEC91B"/>
<path d="M244.77 1077.93C244.57 1077.93 244.36 1077.88 244.17 1077.77C243.57 1077.44 243.34 1076.68 243.68 1076.07C269.13 1029.8 271.35 957.029 268.73 904.139C265.89 846.719 256.89 799.679 256.8 799.209C256.67 798.529 257.11 797.879 257.79 797.749C258.47 797.619 259.12 798.059 259.25 798.739C259.34 799.209 268.37 846.399 271.22 903.989C273.86 957.219 271.6 1030.5 245.86 1077.29C245.63 1077.7 245.2 1077.94 244.76 1077.94L244.77 1077.93Z" fill="#333333"/>
<path d="M253.35 1026.55C248.11 1026.55 240.78 1025.93 232.16 1023.49C216.3 1019 192.95 1007.19 171.8 976.459C171.41 975.889 171.55 975.109 172.12 974.719C172.69 974.329 173.47 974.47 173.86 975.04C194.54 1005.09 217.27 1016.64 232.7 1021.04C249.41 1025.8 261.41 1023.45 261.53 1023.42C262.21 1023.28 262.87 1023.72 263.01 1024.39C263.15 1025.07 262.72 1025.73 262.04 1025.87C261.79 1025.92 258.62 1026.55 253.36 1026.55H253.35Z" fill="#333333"/>
<path d="M269.89 865.42C269.05 865.42 268.57 865.37 268.53 865.37C267.84 865.29 267.35 864.67 267.44 863.98C267.53 863.29 268.15 862.81 268.83 862.89C269.79 863 292.63 865.22 300.87 831.79C301.04 831.12 301.71 830.71 302.38 830.87C303.05 831.04 303.46 831.71 303.3 832.38C295.69 863.29 275.35 865.42 269.9 865.42H269.89Z" fill="#333333"/>
<path d="M535.17 86.8086L500.77 121.939L519.81 138.249L551.19 99.1586L535.17 86.8086Z" fill="#FFC599"/>
<path d="M535.57 52.029C553.19 34.049 580.82 32.5191 597.27 48.6291C610.4 61.4791 611.33 75.849 599.94 92.609C597.05 96.859 593.37 101.259 588.89 105.829C571.27 123.809 549.05 141.049 543.46 118.719C532.91 76.579 517.95 70.019 535.57 52.039V52.029Z" fill="#FFC599"/>
<path d="M597.16 87.7988L592.36 112.489C591.96 114.549 589.74 115.699 587.82 114.839L581.34 111.929L597.16 87.7988Z" fill="#FFC599"/>
<path d="M521.44 87.7692C522.25 78.7192 512.78 75.7492 513.2 66.6692C513.56 58.8692 519.23 60.0692 517.81 45.8792C517.39 41.7192 519.21 37.6492 522.33 34.8692C523.16 34.1292 523.76 33.5892 523.83 33.5492C529.07 29.7792 529.16 22.1992 531.38 16.1392C534.28 8.18923 541.82 2.13923 550.2 1.01923C558.46 -0.0807738 565.22 2.25923 572.89 5.52923C581.33 9.12923 585.68 9.76923 594.12 13.3692C599.58 15.6992 605.43 18.3792 608.28 23.5892C612.12 30.6092 609.41 40.3992 614.74 46.3592C617.15 49.0492 620.89 49.8692 623.53 52.6092C623.54 52.6292 623.56 52.6392 623.58 52.6592C637.27 66.9592 623.66 80.8292 612.08 79.6492C609.79 79.3592 607.83 78.0692 603.36 77.6092C579.44 75.1092 576.39 39.0492 567.1 66.4292C559.55 88.6592 531.16 100.839 527.09 97.8792C526.04 97.1192 524.25 98.3092 523.86 98.3992C520.81 99.0692 521.23 90.3092 521.46 87.7892L521.44 87.7692Z" fill="#005B85"/>
<path d="M550.11 68.5199C545.86 74.3799 549.53 83.9999 553.28 86.7199C557.03 89.4399 560.55 82.6798 563.68 78.3699C566.81 74.0599 566.31 68.3599 562.56 65.6399C558.81 62.9199 553.24 64.2099 550.11 68.5199Z" fill="#FFC599"/>
<path d="M782.33 601.989L792.51 584.949L758.8 541.859L745.94 563.369L782.33 601.989Z" fill="#DD9F76"/>
<path d="M842.47 534.559C838.8 535.649 832.55 543.939 829.38 547.529C827.13 550.069 824.41 552.719 821.67 554.719C815.58 559.159 797.84 572.529 797.84 572.529C794.04 574.789 791.39 578.569 790.55 582.909C790.23 584.559 789.91 586.109 789.68 587.019C787.83 594.259 784.26 597.039 777.65 600.519C775.95 601.409 775.92 603.829 777.59 604.769L794.69 617.059C797.72 619.239 801.33 618.109 803.86 615.119C815.51 601.309 841.39 558.559 847.75 541.649C849.35 537.399 846.55 533.359 842.47 534.569V534.559Z" fill="#005B85"/>
<path d="M563.21 334.928C576.6 350.708 591.78 364.878 608.43 377.188C668.33 421.468 718.78 460.928 769.78 520.318C774.99 526.388 780.42 533.268 780.28 541.698C780.12 551.348 772.95 559.998 766.48 567.378C763.73 570.518 755.57 579.678 755.57 579.678C747.2 588.348 733.97 588.158 727.03 579.288C702.1 547.438 679.82 510.338 651.17 482.148C641.17 472.308 631.56 463.498 623.92 458.388C613.28 451.268 597.49 441.958 570.37 426.628C538.96 408.878 491.84 394.028 467.6 366.978C461.78 360.488 459.74 360.648 458.17 351.728C455.24 335.088 495.69 327.488 506.68 313.878C511.53 307.878 517.3 301.358 524.59 300.828C529.86 300.448 534.54 303.378 538.85 306.218L563.22 334.948L563.21 334.928Z" fill="#E96115"/>
<path d="M481.86 497.21L492.68 513.859L532.64 481.68L517.41 458.229L481.86 497.21Z" fill="#FFC599"/>
<path d="M518.63 583.019C519.32 578.949 514.26 568.959 512.3 564.189C510.91 560.809 509.64 556.919 509.01 553.319C507.61 545.319 503.09 521.799 503.09 521.799C502.71 517.049 500.31 512.689 496.51 509.819C495.07 508.729 493.72 507.679 492.95 507.029C486.82 501.799 485.83 497.029 485.6 488.979C485.54 486.909 483.22 485.729 481.51 486.899L461.5 497.609C457.95 499.509 457.32 503.539 459.02 507.399C466.85 525.229 495.93 570.579 509.27 584.769C512.62 588.339 517.86 587.549 518.63 583.029V583.019Z" fill="#005B85"/>
<path d="M575.95 480.319C608.53 453.459 645.13 429.159 677.71 402.299C688 393.819 698.45 385.149 705.65 373.939C712.85 362.719 716.4 348.339 711.69 335.869C706.67 322.599 695.82 316.919 681.97 313.859C668.11 310.799 639.44 309.459 625.34 311.059C600.42 313.899 575.49 316.749 550.57 319.589C515.47 323.589 477.51 328.919 452.5 353.879C461 414.699 558.11 391.139 640.35 365.379C602.26 391.009 545.26 414.639 515.51 449.599C510.37 455.639 505.1 462.539 505.24 470.469C505.45 481.529 517.58 486.379 527.49 491.299C539.29 497.149 541.85 510.049 556.13 502.109C564.17 497.639 568.85 486.159 575.95 480.309V480.319Z" fill="#FF8F51"/>
<path d="M445.75 197.879C444.43 261.289 455.9 278.409 451.4 317.789L443.11 352.449C443.11 368.649 458.16 349.769 475.42 349.029C511.51 347.489 564.26 380.849 570.26 344.029C573.2 326.029 543.41 320.949 543.01 305.389C542.63 290.659 531.24 274.618 531.62 263.939C531.62 263.939 536.27 208.509 532.94 187.319C529.23 163.719 536.64 130.539 515.2 122.019C515.2 122.019 507.58 122.018 501.96 119.178C469.53 102.768 445.75 197.879 445.75 197.879Z" fill="#0095CA"/>
<path d="M455.59 281.77C457.72 302.64 467.09 349.47 476.32 368.31C494.35 405.1 520.35 401.3 542.48 412.86C542.35 397.94 543.88 396.22 530.51 393.37C526.63 392.54 520.63 391.73 516.06 389.49C494.8 379.08 491.67 340.4 490.01 316.78C488.36 293.33 491.5 275.52 491.07 251.46C490.88 241.08 507.67 195.17 501.9 189.46C493.16 180.8 471.2 196.5 467.71 203.46C457.47 223.85 453.31 259.3 455.6 281.77H455.59Z" fill="#FFC599"/>
<path d="M470.98 173.21C472.02 168.29 473.52 162.97 475.76 158.04C476.26 156.62 476.78 155.2 477.4 153.83C482.38 142.82 492.64 133.22 508.06 138.68C510.83 139.66 513.43 141.12 515.69 143C522.95 149.06 523.93 155.77 522.54 164.82C521.08 174.34 519.02 178.81 514.2 193.1C512.16 199.88 510.11 206.66 508.07 213.44C507.24 216.18 504.54 217.93 501.7 217.53C497.56 216.95 493.11 215.94 489.29 214.07C484.44 211.7 481.22 206.73 476.37 204.36C470.94 201.71 463.97 200.47 460.04 196.06C458.46 194.29 459.16 191.47 461.32 190.5C463.59 189.49 465.58 187.72 467.02 185.66C467.67 184.73 468.2 183.75 468.68 182.73C469.63 179.1 470.43 175.87 470.99 173.21H470.98Z" fill="#00C7FD"/>
</svg>
