<svg width="1596" height="1166" viewBox="0 0 1596 1166" fill="none" xmlns="http://www.w3.org/2000/svg">
<path opacity="0.13" d="M788.7 769.079C854.26 784.379 914.95 817.659 976.32 847.239C1075.29 894.939 1180.73 934.189 1288.74 930.799C1396.75 927.409 1508.32 874.579 1563.9 773.239C1619.48 671.899 1600.66 521.249 1508.81 458.729C1405.21 388.209 1264.18 447.959 1151.62 396.539C1089.54 368.179 1044.11 309.679 996.49 257.629C925.45 179.979 842.62 111.829 746.81 79.2093C651 46.5893 540.61 53.5293 458.17 115.859C375.73 178.189 330.12 301.309 365.59 404.089C378.17 440.539 400.27 476.499 394.3 514.879C386.37 565.819 333.92 591.749 287.43 600.609C240.93 609.469 189.26 611.939 154.84 647.249C9.58998 796.299 291.24 918.829 390.38 927.229C460.47 933.169 502.89 893.909 551.59 843.929C620.37 773.339 694.41 747.069 788.72 769.069L788.7 769.079Z" fill="white"/>
<path opacity="0.1" d="M406.27 330.43C374.77 320.51 352.34 306.87 326.68 289.44C301.02 272.01 276.95 251.16 247.68 240.88C193.42 221.83 129.22 245.55 94.39 291.31C59.56 337.07 52.64 400.58 69.47 455.57C86.3 510.57 124.73 557.27 170.98 591.47C217.22 625.66 271.06 648.24 325.83 665.77C462.02 709.38 608.18 723.43 749.48 701.48C890.78 679.53 1026.92 621.09 1136.98 529.79C1173.18 499.76 1208.53 462.35 1213.53 415.58C1217.6 377.59 1199.97 339.4 1172.78 312.56C1145.59 285.72 1109.77 269.12 1073.08 258.44C944.25 220.95 806.73 251.91 675.66 280.59C544.59 309.27 532.02 377.2 406.27 330.42" fill="white"/>
<path d="M230.56 873.2C175.28 931.02 65.12 918.01 24.83 848.91C-15.46 779.81 27.48 677.53 105.02 657.9C42.06 655.44 -10.08 588.6 2.87002 526.94C15.82 465.28 90.44 425.05 149.07 448.12C122.54 392.66 100.61 331.67 109.38 270.83C118.16 209.99 166.77 151.15 228.24 150.05C280.68 149.11 326.64 189.83 348.23 237.63C369.82 285.43 372.06 339.38 373.95 391.8C374.11 358.71 396.71 326.88 427.9 315.81C459.09 304.74 496.69 315.21 517.68 340.79C540.23 368.28 542.24 408.2 531.74 442.16C521.24 476.12 499.99 505.56 479.08 534.31C490.69 499.05 526.45 473.24 563.57 473.33C600.69 473.43 636.32 499.42 647.75 534.74C659.21 570.17 647.03 609.84 625.05 639.89C603.06 669.94 572.33 692.23 542.12 713.99C579.1 688.2 633.19 731.46 631.6 776.52C630.01 821.58 593.27 857.58 554.65 880.85C480.18 925.73 388.84 941.8 303.52 925.02" fill="#005B85"/>
<path d="M343.57 614.51C343 614.51 342.48 614.12 342.35 613.54C322.78 527.49 231.39 279.57 230.47 277.08C230.23 276.43 230.56 275.71 231.21 275.47C231.86 275.23 232.58 275.56 232.82 276.21C233.74 278.71 325.19 526.77 344.79 612.98C344.94 613.65 344.52 614.32 343.85 614.48C343.76 614.5 343.66 614.51 343.57 614.51Z" fill="#333333"/>
<path d="M223.26 571.14C212.42 571.14 202.6 569.95 194.1 568.24C161.81 561.75 140.96 546.55 140.76 546.4C140.2 545.99 140.09 545.21 140.5 544.65C140.91 544.09 141.69 543.98 142.25 544.39C142.45 544.54 162.93 559.44 194.71 565.81C224 571.68 269.17 571.28 318.08 536.07C318.64 535.67 319.42 535.789 319.83 536.349C320.23 536.909 320.11 537.689 319.55 538.099C284.04 563.659 250.44 571.14 223.28 571.14H223.26Z" fill="#333333"/>
<path d="M268.34 390.45C267.75 390.45 267.23 390.04 267.11 389.44C266.98 388.76 267.42 388.11 268.1 387.97C268.41 387.91 299.25 381.63 315.06 357.87C323.99 344.45 326.53 328 322.61 308.96C322.47 308.28 322.91 307.62 323.58 307.48C324.26 307.34 324.92 307.78 325.06 308.45C329.12 328.18 326.45 345.27 317.13 359.27C300.73 383.9 268.9 390.36 268.58 390.42C268.5 390.44 268.42 390.44 268.34 390.44V390.45Z" fill="#333333"/>
<path opacity="0.16" d="M788.7 769.079C854.26 784.379 914.95 817.659 976.32 847.239C1075.29 894.939 1180.73 934.189 1288.74 930.799C1396.75 927.409 1508.32 874.579 1563.9 773.239C1619.48 671.899 1600.66 521.249 1508.81 458.729C1405.21 388.209 1264.18 447.959 1151.62 396.539C1089.54 368.179 1044.11 309.679 996.49 257.629C925.45 179.979 842.62 111.829 746.81 79.2093C651 46.5893 540.61 53.5293 458.17 115.859C375.73 178.189 330.12 301.309 365.59 404.089C378.17 440.539 400.27 476.499 394.3 514.879C386.37 565.819 333.92 591.749 287.43 600.609C240.93 609.469 189.26 611.939 154.84 647.249C9.58998 796.299 291.24 918.829 390.38 927.229C460.47 933.169 502.89 893.909 551.59 843.929C620.37 773.339 694.41 747.069 788.72 769.069L788.7 769.079Z" fill="black"/>
<path opacity="0.16" d="M406.27 330.43C374.77 320.51 352.34 306.87 326.68 289.44C301.02 272.01 276.95 251.16 247.68 240.88C193.42 221.83 129.22 245.55 94.39 291.31C59.56 337.07 52.64 400.58 69.47 455.57C86.3 510.57 124.73 557.27 170.98 591.47C217.22 625.66 271.06 648.24 325.83 665.77C462.02 709.38 608.18 723.43 749.48 701.48C890.78 679.53 1026.92 621.09 1136.98 529.79C1173.18 499.76 1208.53 462.35 1213.53 415.58C1217.6 377.59 1199.97 339.4 1172.78 312.56C1145.59 285.72 1109.77 269.12 1073.08 258.44C944.25 220.95 806.73 251.91 675.66 280.59C544.59 309.27 532.02 377.2 406.27 330.42" fill="black"/>
<path opacity="0.08" d="M1514.85 1075.99C1514.19 1075.87 1505.82 1074.81 1505.15 1074.76C1093.94 1048.06 730.48 1065.46 314.21 1077.23C282.1 1078.14 248.87 1079.2 219.86 1086.96C190.85 1094.72 167.14 1111.14 171.72 1127.77C176.52 1145.24 210.51 1156.56 243.95 1158.28C277.39 1160 310.89 1154.51 343.92 1150.34C531.2 1126.68 724.41 1144.48 913.32 1156.77C1102.23 1169.06 1303.7 1174.69 1477.6 1129.79C1496.78 1124.84 1516.2 1118.96 1528.29 1109.65C1538.57 1101.74 1541.7 1090.92 1533.73 1082.78C1529.06 1078.01 1521.59 1077.21 1514.84 1075.98L1514.85 1075.99Z" fill="white"/>
<path d="M1157.85 358.22H336.12C277.843 358.22 230.6 405.463 230.6 463.74V981.66C230.6 1039.94 277.843 1087.18 336.12 1087.18H1157.85C1216.13 1087.18 1263.37 1039.94 1263.37 981.66V463.74C1263.37 405.463 1216.13 358.22 1157.85 358.22Z" fill="#00C7FD"/>
<path d="M1161.13 392.7H332.83C296.191 392.7 266.49 422.402 266.49 459.04V989.22C266.49 1025.86 296.191 1055.56 332.83 1055.56H1161.13C1197.77 1055.56 1227.47 1025.86 1227.47 989.22V459.04C1227.47 422.402 1197.77 392.7 1161.13 392.7Z" fill="#A0EBFF"/>
<mask id="mask0_40585_14060" style="mask-type:luminance" maskUnits="userSpaceOnUse" x="266" y="392" width="962" height="664">
<path d="M1161.13 392.7H332.83C296.191 392.7 266.49 422.402 266.49 459.04V989.22C266.49 1025.86 296.191 1055.56 332.83 1055.56H1161.13C1197.77 1055.56 1227.47 1025.86 1227.47 989.22V459.04C1227.47 422.402 1197.77 392.7 1161.13 392.7Z" fill="white"/>
</mask>
<g mask="url(#mask0_40585_14060)">
<path d="M1166.9 857.13H327.06C293.608 857.13 266.49 884.248 266.49 917.7V1048.2C266.49 1081.65 293.608 1108.77 327.06 1108.77H1166.9C1200.35 1108.77 1227.47 1081.65 1227.47 1048.2V917.7C1227.47 884.248 1200.35 857.13 1166.9 857.13Z" fill="#D2F9FF"/>
</g>
<path opacity="0.65" d="M1087.39 888.96C863.61 841.09 714.3 862.79 488.98 874.4C471.61 875.29 453.64 876.33 438.16 883.73C422.67 891.13 410.31 906.73 413.27 922.52C416.38 939.1 435.12 949.81 453.29 951.41C471.46 953.01 489.2 945.69 507.21 943.77C615.52 932.23 686.78 961.07 789.47 972.54C892.16 984.01 1001.45 989.15 1094.34 946.36C1104.59 941.64 1114.93 936.04 1121.21 927.19C1127.49 918.35 1128.66 903.24 1120.35 897.99C1117.37 896.11 1090.44 889.61 1087.39 888.96Z" fill="#6DDCFF"/>
<path d="M445.86 698.75H1051.42V727.21C1051.42 833.59 965.05 919.96 858.67 919.96H638.61C532.23 919.96 445.86 833.59 445.86 727.21V698.75Z" fill="#0095CA"/>
<mask id="mask1_40585_14060" style="mask-type:luminance" maskUnits="userSpaceOnUse" x="445" y="698" width="607" height="222">
<path d="M445.86 698.75H1051.42V727.21C1051.42 833.59 965.05 919.96 858.67 919.96H638.61C532.23 919.96 445.86 833.59 445.86 727.21V698.75Z" fill="white"/>
</mask>
<g mask="url(#mask1_40585_14060)">
<path d="M696.83 729.39C678.42 728.23 659.7 726.79 641.72 730.92C623.74 735.05 606.26 745.77 598.86 762.67C586.25 791.47 607.15 824.28 631.95 843.6C666.24 870.31 709.17 884.29 752.36 889.28C795.54 894.27 839.26 890.74 882.39 885.36C927.8 879.7 974.49 871.43 1012.63 846.14C1037.08 829.93 1057.39 805.26 1065.97 776.96C1072.42 755.7 1075.49 713.82 1050.87 701.94C1027.03 690.44 980.91 713.2 956.45 717.72C916.91 725.02 876.84 729.2 836.69 731.08C790.09 733.26 743.37 732.31 696.83 729.38V729.39Z" fill="#00C7FD"/>
</g>
<path d="M748.64 733.15C915.861 733.15 1051.42 717.748 1051.42 698.75C1051.42 679.751 915.861 664.35 748.64 664.35C581.419 664.35 445.86 679.751 445.86 698.75C445.86 717.748 581.419 733.15 748.64 733.15Z" fill="#005B85"/>
<mask id="mask2_40585_14060" style="mask-type:luminance" maskUnits="userSpaceOnUse" x="435" y="314" width="648" height="420">
<path d="M435.38 314.029V698.739H445.86C445.86 717.739 581.42 733.139 748.64 733.139C915.86 733.139 1051.42 717.739 1051.42 698.739H1082.42V314.029H435.38Z" fill="white"/>
</mask>
<g mask="url(#mask2_40585_14060)">
<path d="M733.77 603.719C728.23 589.979 717.83 577.659 703.94 572.509C689 566.969 672.4 570.229 656.81 573.549C653.28 574.299 649.77 575.299 646.26 576.429C626.68 582.699 605.82 583.699 585.73 579.329C582.13 578.549 578.54 577.879 574.95 577.469C559.12 575.659 542.29 573.999 527.94 580.939C514.6 587.389 505.43 600.649 501.23 614.849C497.02 629.059 497.27 644.209 498.87 658.939C502.19 689.489 511.22 719.419 525.34 746.709C531.75 759.089 539.54 771.289 551.09 779.089C568.17 790.599 591.01 790.519 610.51 783.859C615.69 782.089 620.68 779.919 625.53 777.449C630.6 779.439 635.77 781.139 641.1 782.399C661.14 787.159 683.89 785.069 699.79 771.979C710.55 763.119 717.14 750.229 722.34 737.289C733.8 708.769 739.92 678.119 740.31 647.389C740.5 632.579 739.3 617.469 733.76 603.729L733.77 603.719Z" fill="#FF5662"/>
<mask id="mask3_40585_14060" style="mask-type:luminance" maskUnits="userSpaceOnUse" x="497" y="569" width="244" height="220">
<path d="M733.77 603.719C728.23 589.979 717.83 577.659 703.94 572.509C689 566.969 672.4 570.229 656.81 573.549C653.28 574.299 649.77 575.299 646.26 576.429C626.68 582.699 605.82 583.699 585.73 579.329C582.13 578.549 578.54 577.879 574.95 577.469C559.12 575.659 542.29 573.999 527.94 580.939C514.6 587.389 505.43 600.649 501.23 614.849C497.02 629.059 497.27 644.209 498.87 658.939C502.19 689.489 511.22 719.419 525.34 746.709C531.75 759.089 539.54 771.289 551.09 779.089C568.17 790.599 591.01 790.519 610.51 783.859C615.69 782.089 620.68 779.919 625.53 777.449C630.6 779.439 635.77 781.139 641.1 782.399C661.14 787.159 683.89 785.069 699.79 771.979C710.55 763.119 717.14 750.229 722.34 737.289C733.8 708.769 739.92 678.119 740.31 647.389C740.5 632.579 739.3 617.469 733.76 603.729L733.77 603.719Z" fill="white"/>
</mask>
<g mask="url(#mask3_40585_14060)">
<path d="M586.88 562.469C565.73 561.999 544.65 572.639 532.47 589.929C520.29 607.219 517.38 630.659 524.95 650.409C534.53 675.399 558.08 691.69 579.39 707.88C600.7 724.07 622.45 744.309 625.31 770.919C628.23 798.06 608.54 824.69 582.82 833.82C557.1 842.95 527.46 836.319 505.14 820.609C482.82 804.9 467.2 781.1 456.93 755.82C434.69 701.07 437.38 634.28 472.93 587.07C508.48 539.87 579.33 519.42 630.56 548.87" fill="#FF8F51"/>
<path d="M613.77 593.33C624.755 593.33 633.66 584.425 633.66 573.44C633.66 562.455 624.755 553.55 613.77 553.55C602.785 553.55 593.88 562.455 593.88 573.44C593.88 584.425 602.785 593.33 613.77 593.33Z" fill="#FF8F51"/>
</g>
<path d="M614.35 587.679C613.24 587.679 612.32 586.809 612.26 585.689C610.99 559.159 619.44 545.929 619.8 545.379C620.43 544.409 621.73 544.139 622.7 544.779C623.66 545.409 623.94 546.709 623.31 547.669C623.2 547.839 615.25 560.489 616.44 585.489C616.49 586.639 615.61 587.619 614.45 587.679C614.42 587.679 614.38 587.679 614.35 587.679Z" fill="#005B85"/>
<path d="M581.63 528.369C578.6 527.429 575.43 526.829 572.27 526.789C570.35 526.619 568.38 526.729 566.4 527.189C556.42 529.519 550.22 539.489 552.55 549.469C554.88 559.449 564.85 565.649 574.83 563.319C575.6 563.139 576.41 562.919 577.16 562.739C578.26 562.489 579.32 562.369 580.44 562.219C591.65 560.699 603.33 562.829 613.28 568.209C611.98 550.239 598.84 533.709 581.63 528.369Z" fill="#005B85"/>
<path d="M1001.71 632.899C999.29 618.279 991.84 603.999 979.4 595.939C966.02 587.269 949.12 586.839 933.18 586.679C929.57 586.639 925.93 586.859 922.26 587.189C901.79 589.039 881.21 585.469 862.56 576.819C859.22 575.269 855.85 573.839 852.45 572.659C837.39 567.439 821.33 562.149 805.81 565.799C791.39 569.189 779.55 580.129 772.35 593.069C765.15 606.019 762.09 620.859 760.44 635.579C757.02 666.119 759.31 697.289 767.14 727.009C770.7 740.489 775.64 754.099 785.22 764.219C799.38 779.179 821.69 784.079 842.17 781.829C847.61 781.229 852.95 780.199 858.23 778.839C862.74 781.889 867.43 784.669 872.34 787.059C890.86 796.079 913.52 798.989 931.89 789.679C944.32 783.379 953.56 772.229 961.45 760.739C978.85 735.409 991.51 706.829 998.59 676.919C1002 662.499 1004.13 647.499 1001.71 632.879V632.899Z" fill="#FF5662"/>
<mask id="mask4_40585_14060" style="mask-type:luminance" maskUnits="userSpaceOnUse" x="758" y="564" width="245" height="232">
<path d="M1001.71 632.899C999.29 618.279 991.84 603.999 979.4 595.939C966.02 587.269 949.12 586.839 933.18 586.679C929.57 586.639 925.93 586.859 922.26 587.189C901.79 589.039 881.21 585.469 862.56 576.819C859.22 575.269 855.85 573.839 852.45 572.659C837.39 567.439 821.33 562.149 805.81 565.799C791.39 569.189 779.55 580.129 772.35 593.069C765.15 606.019 762.09 620.859 760.44 635.579C757.02 666.119 759.31 697.289 767.14 727.009C770.7 740.489 775.64 754.099 785.22 764.219C799.38 779.179 821.69 784.079 842.17 781.829C847.61 781.229 852.95 780.199 858.23 778.839C862.74 781.889 867.43 784.669 872.34 787.059C890.86 796.079 913.52 798.989 931.89 789.679C944.32 783.379 953.56 772.229 961.45 760.739C978.85 735.409 991.51 706.829 998.59 676.919C1002 662.499 1004.13 647.499 1001.71 632.879V632.899Z" fill="white"/>
</mask>
<g mask="url(#mask4_40585_14060)">
<path d="M830.38 628.52C841.92 639.19 852.97 651.11 867.46 657.18C875.91 660.72 885.12 662.08 893.68 665.33C912.84 672.61 927.91 689.81 932.6 709.76C937.29 729.71 931.46 751.83 917.55 766.87C903.03 782.58 880.93 789.98 859.54 789.58C838.15 789.18 817.4 781.63 798.71 771.21C789.93 766.31 781.32 760.59 775.39 752.47C770.61 745.92 767.82 738.14 765.54 730.36C757.01 701.13 750.13 657.02 758.64 626.72C768.73 590.77 812.43 611.92 830.38 628.51V628.52Z" fill="#FF8F51"/>
</g>
<path d="M888.64 590.03C887.72 590.03 886.87 589.42 886.62 588.48C879.69 562.84 885.1 548.1 885.34 547.49C885.75 546.41 886.96 545.87 888.04 546.28C889.12 546.69 889.66 547.9 889.25 548.97C889.18 549.15 884.12 563.21 890.66 587.39C890.96 588.5 890.3 589.65 889.19 589.95C889.01 590 888.82 590.02 888.64 590.02V590.03Z" fill="#005B85"/>
<path d="M923.36 538.15C926.48 537.61 929.71 537.43 932.85 537.79C934.77 537.87 936.71 538.24 938.61 538.95C948.2 542.55 953.06 553.24 949.47 562.83C945.87 572.42 935.18 577.28 925.59 573.69C924.85 573.41 924.08 573.09 923.35 572.82C922.29 572.43 921.26 572.17 920.17 571.88C909.25 568.92 897.39 569.53 886.83 573.57C890.45 555.92 905.61 541.23 923.36 538.16V538.15Z" fill="#005B85"/>
</g>
<path d="M1104.55 586.35C1109.43 584.67 1114.59 588.08 1114.95 593.23C1116.69 618.07 1121.49 642.7 1129.22 666.36C1135.13 684.44 1142.75 702.01 1146.95 720.56C1159.18 774.53 1140.22 833.05 1103.36 874.33C1066.5 915.61 1013.51 940.5 958.91 949.55C887.08 961.46 811.14 946.75 748.96 908.88C734.51 900.08 711.97 881.79 724.81 868.95C735.85 857.91 721 861.65 760.7 861.65C811.43 861.65 873.38 857.48 922.17 843.58C970.96 829.69 1023.94 805.76 1054.33 765.14C1089.15 718.6 1098.81 654.49 1080.02 599.59C1078.28 594.52 1082.01 589.2 1087.37 589.16C1093.9 589.11 1098.23 588.5 1104.54 586.33L1104.55 586.35Z" fill="#FEC91B"/>
<mask id="mask5_40585_14060" style="mask-type:luminance" maskUnits="userSpaceOnUse" x="720" y="585" width="431" height="369">
<path d="M1104.55 586.35C1109.43 584.67 1114.59 588.08 1114.95 593.23C1116.69 618.07 1121.49 642.7 1129.22 666.36C1135.13 684.44 1142.75 702.01 1146.95 720.56C1159.18 774.53 1140.22 833.05 1103.36 874.33C1066.5 915.61 1013.51 940.5 958.91 949.55C887.08 961.46 811.14 946.75 748.96 908.88C734.51 900.08 711.97 881.79 724.81 868.95C735.85 857.91 721 861.65 760.7 861.65C811.43 861.65 873.38 857.48 922.17 843.58C970.96 829.69 1023.94 805.76 1054.33 765.14C1089.15 718.6 1098.81 654.49 1080.02 599.59C1078.28 594.52 1082.01 589.2 1087.37 589.16C1093.9 589.11 1098.23 588.5 1104.54 586.33L1104.55 586.35Z" fill="white"/>
</mask>
<g mask="url(#mask5_40585_14060)">
<path d="M1070.98 652.36C1075.9 641.26 1092.83 640.5 1102.13 648.3C1111.43 656.1 1114.68 668.89 1116.27 680.93C1125.27 749.04 1093.34 822.781 1033.56 856.641C1003.39 873.721 968.46 880.311 934 884.021C882.73 889.531 829.91 889.08 780.82 873.31C764.26 867.99 747.88 860.721 735.37 848.641C722.86 836.561 714.72 818.94 717.45 801.76C722.01 773.081 752.38 757.29 778.91 745.47C859.5 709.58 938.16 669.34 1014.43 624.98" fill="#FFE17A"/>
<path d="M1048.08 615.53H1150.66V568.11H1048.08V615.53Z" fill="#DD9F76"/>
</g>
<path d="M909.6 986.73C846.49 986.73 785.02 969.6 731.81 937.2C713.6 926.11 691.27 907.71 688.31 883.05C686.64 869.11 691.32 855.83 701.48 845.66C701.54 845.6 701.6 845.54 701.64 845.5L701.68 845.44C709.14 833.92 720.02 828.07 734.02 828.07C735.85 828.07 737.8 828.15 740.06 828.25C744.21 828.42 750.49 828.69 760.74 828.69C820.98 828.69 875.11 822.72 913.16 811.89C950.86 801.15 1001.37 780.91 1027.91 745.44C1055.88 708.06 1064.08 655.05 1048.79 610.4C1044.54 597.97 1046.53 584.16 1054.13 573.45C1061.71 562.76 1074.07 556.32 1087.17 556.22C1090.64 556.2 1091.3 556.05 1093.81 555.19C1098.11 553.71 1102.6 552.96 1107.14 552.96C1128.53 552.96 1146.46 569.68 1147.95 591.02C1149.5 613.19 1153.78 635.11 1160.67 656.19C1162.48 661.73 1164.5 667.3 1166.63 673.2C1171.23 685.9 1175.97 698.99 1179.22 713.36C1193.24 775.24 1173.64 845.39 1128.05 896.44C1088.4 940.85 1030.26 971.33 964.35 982.25C946.42 985.22 928 986.73 909.59 986.73H909.6ZM734.02 840.32C724.17 840.32 717.16 844.06 711.95 852.1C711.34 853.05 711.01 853.44 710.13 854.33C702.68 861.78 699.25 871.46 700.46 881.6C702.83 901.38 722.27 917.07 738.17 926.75C789.46 957.98 848.74 974.49 909.6 974.49C927.33 974.49 945.08 973.04 962.35 970.17C1025.51 959.7 1081.12 930.62 1118.92 888.28C1161.91 840.13 1180.44 774.14 1167.28 716.05C1164.19 702.43 1159.59 689.7 1155.13 677.4C1152.95 671.37 1150.9 665.71 1149.03 659.99C1141.83 637.96 1137.36 615.04 1135.74 591.87C1134.7 576.91 1122.13 565.2 1107.14 565.2C1103.96 565.2 1100.82 565.73 1097.8 566.77C1093.89 568.12 1091.92 568.44 1087.26 568.47C1078.09 568.53 1069.43 573.05 1064.12 580.54C1058.79 588.05 1057.39 597.73 1060.37 606.45C1076.93 654.82 1068.04 712.26 1037.71 752.79C1009.13 790.99 956.02 812.43 916.51 823.68C877.41 834.82 822.09 840.95 760.74 840.95C750.24 840.95 743.81 840.68 739.55 840.5C737.34 840.41 735.59 840.33 734.02 840.33V840.32Z" fill="#FF5662"/>
<path d="M656.67 455.029L839.29 455.029C874.918 455.029 903.8 426.147 903.8 390.519V191.279C903.8 155.651 874.918 126.769 839.29 126.769L656.67 126.769C621.042 126.769 592.16 155.651 592.16 191.279V390.519C592.16 426.147 621.042 455.029 656.67 455.029Z" fill="#FF5662"/>
<path d="M643.46 302.799L737.66 396.999C742.85 402.189 751.26 402.189 756.45 396.999L850.65 302.799C859.02 294.429 853.09 280.119 841.25 280.119H798.04V211.989C798.04 201.399 789.46 192.819 778.87 192.819H715.22C704.63 192.819 696.05 201.399 696.05 211.989V280.119H652.84C641 280.119 635.07 294.429 643.44 302.799H643.46Z" fill="white"/>
<path d="M282.93 942.23C329.17 809.27 247.27 722.52 232.14 865.08C219.61 680.12 57.87 694.97 150.97 876.18C144.1 867.4 135.04 857.44 125.12 850.59C103.47 835.65 75.0801 853.119 78.7701 879.16C84.1001 916.82 123.09 959.43 146.89 980.99C114.47 943.21 50.82 959.41 87.01 1012.63C182.34 1142.92 340.73 1137.41 368.95 958.829C376.59 910.499 340.28 890.1 313.44 909.44C300.09 919.06 297.68 923.74 282.94 942.219L282.93 942.23Z" fill="#0095CA"/>
<path d="M257.28 1114.35C257.19 1114.35 257.1 1114.35 257.01 1114.32C256.34 1114.17 255.91 1113.51 256.05 1112.83C268.32 1056.6 248.12 979.87 229.01 925.4C208.27 866.29 184.31 819.92 184.07 819.46C183.75 818.85 183.99 818.09 184.6 817.77C185.21 817.45 185.97 817.69 186.29 818.3C186.53 818.76 210.57 865.26 231.36 924.53C250.58 979.31 270.89 1056.54 258.49 1113.35C258.36 1113.93 257.84 1114.33 257.27 1114.33L257.28 1114.35Z" fill="#A0EBFF"/>
<path d="M226.56 1059.17C208.58 1059.17 181.05 1053.77 150.09 1028.74C149.55 1028.31 149.47 1027.52 149.9 1026.98C150.33 1026.44 151.12 1026.36 151.66 1026.79C182.59 1051.81 209.92 1056.82 227.45 1056.66C246.41 1056.46 258.22 1050.28 258.34 1050.21C258.95 1049.89 259.71 1050.11 260.03 1050.72C260.36 1051.33 260.13 1052.09 259.52 1052.41C259.02 1052.68 247.16 1058.91 227.63 1059.15C227.28 1059.15 226.92 1059.15 226.55 1059.15L226.56 1059.17Z" fill="#A0EBFF"/>
<path d="M227.93 912.479C227.25 912.479 226.7 911.939 226.68 911.259C226.66 910.569 227.21 909.999 227.9 909.979C229.06 909.949 255.67 908.719 259.13 865.859C259.19 865.169 259.78 864.659 260.48 864.709C261.17 864.769 261.68 865.369 261.63 866.059C257.98 911.279 228.27 912.469 227.97 912.479C227.97 912.479 227.95 912.479 227.94 912.479H227.93Z" fill="#A0EBFF"/>
<path d="M262.66 1079.1C262.12 1079.1 261.62 1078.74 261.46 1078.2C261.27 1077.54 261.65 1076.85 262.31 1076.65C263.4 1076.33 288.83 1068.31 281.14 1025.98C281.02 1025.3 281.47 1024.65 282.15 1024.53C282.84 1024.4 283.48 1024.86 283.6 1025.54C291.71 1070.18 263.3 1078.97 263.01 1079.05C262.89 1079.08 262.78 1079.1 262.66 1079.1Z" fill="#A0EBFF"/>
<path d="M1281.56 877.53L1283.34 896.93L1332.77 887.26L1330.26 859.93L1281.56 877.53Z" fill="#FFC599"/>
<path d="M1274.26 968.879C1276.72 965.659 1276.89 954.669 1277.37 949.629C1277.71 946.059 1278.39 942.099 1279.48 938.679C1281.92 931.089 1288.75 908.59 1288.75 908.59C1290.6 904.29 1290.5 899.409 1288.51 895.169C1287.76 893.559 1287.06 892.039 1286.69 891.109C1283.75 883.769 1285.08 879.169 1288.56 872.069C1289.46 870.249 1287.98 868.16 1285.96 868.39L1263.68 868.539C1259.73 868.569 1257.34 871.779 1257.05 875.909C1255.7 894.979 1260.22 947.669 1265.32 966.099C1266.6 970.729 1271.51 972.449 1274.25 968.869L1274.26 968.879Z" fill="#005B85"/>
<path d="M1512.33 1085.2L1527.03 1072.41L1508.71 1021.92L1490.15 1038.07L1512.33 1085.2Z" fill="#DD9F76"/>
<path d="M1592.77 1088.69C1589.95 1086.2 1579.8 1085.3 1575.17 1084.52C1571.89 1083.97 1568.27 1083.08 1565.18 1081.83C1558.32 1079.07 1537.96 1071.23 1537.96 1071.23C1534.11 1069.23 1529.58 1069 1525.53 1070.55C1523.99 1071.14 1522.54 1071.68 1521.65 1071.96C1514.66 1074.18 1510.49 1072.65 1504.16 1068.95C1502.53 1068 1500.5 1069.23 1500.59 1071.11L1499.24 1091.73C1499 1095.39 1501.81 1097.81 1505.62 1098.36C1523.17 1100.89 1572.23 1100.24 1589.62 1096.75C1593.99 1095.87 1595.91 1091.45 1592.78 1088.68L1592.77 1088.69Z" fill="#005B85"/>
<path d="M1389.29 769.19C1396.97 788 1406.82 805.85 1418.6 822.41C1460.99 881.99 1496.04 934.19 1525.52 1005.16C1528.53 1012.41 1531.5 1020.49 1528.8 1028.31C1525.71 1037.27 1516.38 1043.16 1508.09 1048.06C1504.56 1050.15 1494.16 1056.21 1494.16 1056.21C1483.71 1061.75 1471.42 1057.54 1467.64 1047.14C1454.09 1009.81 1444.61 968.41 1426.47 933.37C1420.14 921.14 1413.86 909.99 1408.29 902.89C1400.53 893 1388.64 879.5 1368 856.92C1344.1 830.78 1304.66 802.56 1290.29 769.93C1286.84 762.1 1284.88 761.62 1286.14 752.82C1288.48 736.4 1328.54 741.63 1342.95 732.29C1349.3 728.17 1336.2 723.45 1343.16 725.18C1348.19 726.44 1351.67 730.6 1354.82 734.55L1389.28 769.18L1389.29 769.19Z" fill="#E96115"/>
<path d="M1311.02 488.2L1285.59 529.22L1307.32 540.77L1329.01 496.6L1311.02 488.2Z" fill="#FFC599"/>
<path d="M1303.96 454.79C1316.99 433.79 1343.13 426.42 1362.34 438.32C1377.66 447.82 1381.64 461.39 1374.31 479.88C1372.45 484.57 1369.87 489.57 1366.55 494.91C1353.52 515.91 1335.92 537.18 1325.79 516.99C1306.66 478.88 1290.92 475.79 1303.96 454.79Z" fill="#FFC599"/>
<path d="M1370.62 475.87L1371.3 500.56C1371.36 502.62 1369.48 504.2 1367.45 503.79L1360.62 502.39L1370.61 475.88L1370.62 475.87Z" fill="#FFC599"/>
<path d="M1298.07 492.06C1296.91 483.21 1287.2 482.4 1285.66 473.61C1284.33 466.06 1290.03 466 1285.63 452.7C1284.34 448.81 1285.21 444.52 1287.6 441.18C1288.24 440.29 1288.7 439.65 1288.75 439.59C1292.97 434.85 1291.43 427.58 1292.25 421.29C1293.33 413.06 1299.25 405.64 1307.04 402.77C1314.72 399.94 1321.7 400.74 1329.75 402.24C1338.61 403.89 1342.91 403.56 1351.77 405.21C1357.5 406.27 1363.68 407.59 1367.52 411.97C1372.7 417.87 1372.2 427.84 1378.59 432.4C1381.47 434.46 1385.23 434.45 1388.35 436.51C1388.37 436.52 1388.39 436.53 1388.4 436.54C1404.57 447.31 1394.51 463.52 1383.16 464.86C1380.91 465.08 1378.75 464.26 1374.37 464.77C1350.91 467.49 1340.28 433.6 1337.23 461.82C1334.76 484.74 1310.17 502.48 1305.63 500.52C1304.47 500.02 1303 501.54 1302.64 501.71C1299.86 503 1298.39 494.52 1298.06 492.06H1298.07Z" fill="#005B85"/>
<path d="M1321.42 467.48C1318.6 474 1324.18 482.44 1328.35 484.24C1332.52 486.04 1334.45 478.81 1336.53 474.01C1338.61 469.21 1336.91 463.85 1332.73 462.05C1328.56 460.25 1323.49 462.68 1321.42 467.48Z" fill="#FFC599"/>
<path d="M1260.78 633.93C1271.94 678.52 1279.41 685.99 1279.41 722.16L1278.85 754.46C1282.32 769.98 1300.63 756.61 1317.01 752.21C1351.26 743.01 1380.1 772.81 1368.41 738.1C1364.67 726.99 1361.59 729.64 1357.88 714.82C1355.27 704.39 1355 693.44 1353.58 682.88C1352.95 678.14 1353.07 673.89 1352.51 669.14C1350.65 653.47 1342.82 605.3 1337.51 584.97C1331.59 562.28 1320.66 530.22 1309.35 528.42C1309.35 528.42 1296.83 525.97 1290.71 526.82C1267.65 530.04 1260 565.06 1257.47 589.65C1255.95 604.48 1257.16 619.47 1260.78 633.93Z" fill="#0095CA"/>
<path d="M1356.85 908.74C1395.44 893.61 1437 882.09 1475.59 866.97C1487.77 862.19 1500.17 857.29 1510.31 849.02C1520.45 840.75 1528.15 828.41 1527.55 815.33C1526.92 801.41 1518.52 792.81 1506.52 785.73C1494.52 778.65 1468.18 768.65 1454.53 765.86C1430.41 760.91 1406.28 755.97 1382.16 751.02C1348.18 744.05 1311.14 737.45 1280.19 753.11C1269.58 812.46 1367.38 820.08 1451.97 821.12C1408.62 833.42 1348.22 838.09 1309.8 861.65C1303.16 865.72 1306.02 870.55 1303.74 878C1300.56 888.39 1308.05 898.14 1315.8 905.76C1325.02 914.82 1315.95 926.1 1331.69 923.04C1340.55 921.32 1348.42 912.04 1356.83 908.74H1356.85Z" fill="#FF8F51"/>
<path d="M1276.51 692.01C1283.02 711.55 1302.02 754.41 1314.9 770.48C1340.05 801.87 1364.14 792.66 1387.82 799C1384.5 784.73 1385.6 782.76 1372.18 782.89C1368.29 782.93 1362.36 783.43 1357.51 782.27C1334.92 776.84 1323.64 740.46 1316.99 718.19C1310.39 696.08 1304.75 688.16 1299.19 665.2C1296.79 655.29 1307.87 597.9 1301.13 593.67C1290.9 587.25 1273.22 599.58 1271.37 606.99C1265.93 628.72 1269.52 670.98 1276.53 692.02L1276.51 692.01Z" fill="#FFC599"/>
<path d="M1268.02 579.719C1267.96 574.789 1268.26 569.369 1269.35 564.169C1269.52 562.699 1269.72 561.239 1270.02 559.779C1272.43 548.159 1280.21 536.769 1296.15 538.699C1299.01 539.049 1301.82 539.889 1304.39 541.209C1312.64 545.459 1315.01 551.679 1315.62 560.649C1316.26 570.089 1315.24 574.799 1313.68 589.519C1313.17 596.449 1312.67 603.379 1312.16 610.319C1311.96 613.119 1309.74 615.369 1306.94 615.599C1302.85 615.929 1298.37 615.909 1294.31 614.939C1289.16 613.709 1285.01 609.629 1279.85 608.399C1274.08 607.019 1267.14 607.329 1262.43 603.939C1260.54 602.579 1260.6 599.729 1262.46 598.339C1264.42 596.879 1265.95 594.759 1266.88 592.479C1267.3 591.459 1267.6 590.399 1267.85 589.319C1267.99 585.639 1268.06 582.379 1268.02 579.709V579.719Z" fill="#00C7FD"/>
<path d="M1365.31 761.66C1363.72 770.82 1342.83 782.59 1341.24 791.75C1341.08 792.69 1340.94 793.76 1341.51 794.53C1342.03 795.24 1342.98 795.45 1343.85 795.62C1354.74 797.71 1365.63 799.8 1376.52 801.9C1378.69 802.32 1380.9 802.73 1383.08 802.44C1387.68 801.83 1391.43 798.08 1393.07 793.75C1394.72 789.42 1394.56 784.6 1393.79 780.02C1392.98 775.21 1391.32 770.2 1387.48 767.2C1384.31 764.72 1380.16 763.98 1376.19 763.32L1365.32 761.66H1365.31Z" fill="#E96115"/>
<path d="M1144.13 145.859L1146.91 164.139C1148.53 174.789 1156.89 183.149 1167.54 184.769L1185.82 187.549C1188.35 187.929 1188.35 191.569 1185.82 191.959L1167.54 194.739C1156.89 196.359 1148.53 204.719 1146.91 215.369L1144.13 233.649C1143.75 236.179 1140.11 236.179 1139.72 233.649L1136.94 215.369C1135.32 204.719 1126.96 196.359 1116.31 194.739L1098.03 191.959C1095.5 191.579 1095.5 187.939 1098.03 187.549L1116.31 184.769C1126.96 183.149 1135.32 174.789 1136.94 164.139L1139.72 145.859C1140.1 143.329 1143.74 143.329 1144.13 145.859Z" fill="#FF5662"/>
<path d="M1050.73 3.3898L1054.99 31.4398C1057.47 47.7798 1070.3 60.6098 1086.64 63.0898L1114.69 67.3498C1118.56 67.9398 1118.56 73.5198 1114.69 74.1098L1086.64 78.3698C1070.3 80.8498 1057.47 93.6798 1054.99 110.02L1050.73 138.07C1050.14 141.94 1044.56 141.94 1043.97 138.07L1039.71 110.02C1037.23 93.6798 1024.4 80.8498 1008.06 78.3698L980.01 74.1098C976.14 73.5198 976.14 67.9398 980.01 67.3498L1008.06 63.0898C1024.4 60.6098 1037.23 47.7798 1039.71 31.4398L1043.97 3.3898C1044.56 -0.480195 1050.14 -0.480195 1050.73 3.3898Z" fill="#FFE17A"/>
</svg>
