<svg width="248" height="181" viewBox="0 0 1246 918" fill="none" xmlns="http://www.w3.org/2000/svg">
<path opacity="0.07" d="M554.99 540.901C594.44 568.391 625.91 606.521 658.8 642.381C711.85 700.201 771.43 754.121 843.99 780.441C916.55 806.761 1004.55 801.211 1068.22 748.671C1131.89 696.131 1159.25 591.201 1114.84 525.431C1064.75 451.241 955.38 453.591 894.29 389.711C860.6 354.481 845.93 303.651 828.1 256.521C801.5 186.211 764.57 119.091 709.62 72.1209C654.67 25.1409 579.6 0.560946 508.42 20.1109C437.24 39.6609 374.42 109.291 370.77 186.861C369.48 214.371 374.63 244.071 360.52 267.961C341.79 299.661 300.13 302.991 266.94 296.581C233.75 290.161 198.81 278.131 166.64 292.461C30.8501 352.941 185.32 508.721 248.87 540.511C293.8 562.981 332.33 548.161 377.86 527.881C442.16 499.231 498.24 501.381 554.98 540.921L554.99 540.901Z" fill="white"/>
<path opacity="0.05" d="M402.99 499.54C383 483.85 370.23 468.48 356.04 449.73C341.85 430.98 329.53 410.52 311.2 395.27C277.21 366.99 226.67 363.06 191.92 381.93C157.17 400.79 138.13 439.27 137.72 479.38C137.31 519.48 153.99 560.71 178.95 596.28C203.91 631.84 236.82 662.24 271.51 689.71C357.76 758 419.73 750.93 525.36 779.58C626.39 806.98 716.81 751.99 823.17 753.35C856.46 753.78 888.63 731.55 902.59 703.19C913.93 680.15 910.03 650.53 896.85 625.32C883.67 600.11 862.13 578.87 838.66 561.16C756.23 498.97 702.74 568.38 603.97 547.76C505.2 527.13 481.19 566.76 403 499.55" fill="white"/>
<path d="M329.57 592.411C276.16 629.321 190.73 600.951 170.01 539.421C149.29 477.891 200.17 403.621 265.02 400.711C215.38 388.451 184.87 326.781 205.26 279.881C225.64 232.981 291.55 213.221 334.38 241.151C322.37 192.721 314.92 140.651 331.85 93.7208C348.79 46.7908 397.06 7.98082 446.1 17.1608C487.94 25.0008 517.81 64.8908 527.14 106.421C536.48 147.951 529.43 191.211 522.35 233.181C527.9 206.901 551.07 185.301 577.67 181.601C604.28 177.911 632.46 192.381 644.95 216.161C658.37 241.701 653.44 273.771 639.54 299.051C625.63 324.331 603.92 344.251 582.59 363.681C597.59 337.551 630.24 322.891 659.74 329.041C689.24 335.191 713.3 361.691 716.6 391.641C719.91 421.681 703.74 451.221 681.34 471.511C658.94 491.801 630.86 504.481 603.28 516.841C636.9 502.391 658.01 545.631 649.36 581.191C640.71 616.751 620.43 639.351 585.93 651.531C519.39 675.021 444.14 672.841 379.07 645.541" fill="#005B85"/>
<path d="M461.96 405.53C461.28 405.53 460.72 404.99 460.71 404.31C459.24 332.72 427.17 120.7 426.85 118.57C426.75 117.89 427.22 117.25 427.9 117.15C428.58 117.05 429.22 117.52 429.32 118.2C429.64 120.33 461.73 332.51 463.21 404.27C463.22 404.96 462.68 405.53 461.99 405.55C461.99 405.55 461.97 405.55 461.96 405.55V405.53Z" fill="#333333"/>
<path d="M399.61 351.871C380.45 351.871 364.46 347.421 352.38 342.291C327.73 331.821 313.61 316.301 313.47 316.141C313.01 315.631 313.05 314.841 313.56 314.381C314.07 313.921 314.86 313.961 315.33 314.471C315.47 314.621 329.29 329.791 353.46 340.031C375.73 349.461 411.63 356.521 456.19 336.581C456.82 336.301 457.56 336.581 457.84 337.211C458.12 337.841 457.84 338.581 457.21 338.861C435.91 348.391 416.53 351.871 399.61 351.871Z" fill="#333333"/>
<path d="M443.49 213.42C443.42 213.42 443.36 213.42 443.33 213.42C442.64 213.42 442.09 212.85 442.09 212.16C442.09 211.47 442.66 210.92 443.34 210.92C443.34 210.92 443.34 210.92 443.38 210.92C444.4 210.92 469.31 210.72 485.44 194.75C494.69 185.59 499.37 172.98 499.37 157.27C499.37 156.58 499.93 156.02 500.62 156.02C501.31 156.02 501.87 156.58 501.87 157.27C501.87 173.68 496.93 186.89 487.18 196.54C470.54 213.01 445.9 213.42 443.48 213.42H443.49Z" fill="#333333"/>
<path opacity="0.12" d="M554.99 540.901C594.44 568.391 625.91 606.521 658.8 642.381C711.85 700.201 771.43 754.121 843.99 780.441C916.55 806.761 1004.55 801.211 1068.22 748.671C1131.89 696.131 1159.25 591.201 1114.84 525.431C1064.75 451.241 955.38 453.591 894.29 389.711C860.6 354.481 845.93 303.651 828.1 256.521C801.5 186.211 764.57 119.091 709.62 72.1209C654.67 25.1409 579.6 0.560946 508.42 20.1109C437.24 39.6609 374.42 109.291 370.77 186.861C369.48 214.371 374.63 244.071 360.52 267.961C341.79 299.661 300.13 302.991 266.94 296.581C233.75 290.161 198.81 278.131 166.64 292.461C30.8501 352.941 185.32 508.721 248.87 540.511C293.8 562.981 332.33 548.161 377.86 527.881C442.16 499.231 498.24 501.381 554.98 540.921L554.99 540.901Z" fill="black"/>
<path opacity="0.4" d="M603.96 537.75C505.19 517.12 481.18 556.75 402.99 489.54L603.96 537.75Z" fill="#2E2F33"/>
<path opacity="0.12" d="M402.99 499.54C383 483.85 370.23 468.48 356.04 449.73C341.85 430.98 329.53 410.52 311.2 395.27C277.21 366.99 226.67 363.06 191.92 381.93C157.17 400.79 138.13 439.27 137.72 479.38C137.31 519.48 153.99 560.71 178.95 596.28C203.91 631.84 236.82 662.24 271.51 689.71C357.76 758 419.73 750.93 525.36 779.58" fill="black"/>
<path d="M596.32 747.33C610.52 691.39 665.24 642.73 713.91 611.71C726.04 603.98 739.41 597.24 753.78 596.5C768.15 595.76 783.67 602.29 789.94 615.24C798.72 633.38 786.89 654.41 774.84 670.56C748.24 706.21 718.33 739.39 685.61 769.52C705.65 746 733.25 729.02 763.27 721.72C774.13 719.08 789.31 720.25 791.66 731.17C793.63 740.32 784.43 747.65 776.4 752.46C756.37 764.48 736.34 776.49 716.31 788.51C724.25 781.63 732.69 774.51 742.98 772.41C753.27 770.31 765.82 775.33 768.25 785.55C770.97 797.01 760.41 807.1 750.36 813.23C711.07 837.2 640.54 843.84 596.32 831.09V747.33Z" fill="#005B85"/>
<path d="M539.75 863.71C783.17 825.44 753.86 493.63 633.87 654.42C659.37 601.72 678.61 518.73 653.8 479.11C636.08 450.81 613.07 454.15 594.85 470.22C586.83 477.29 574.56 471.62 574.56 460.93C574.56 261.29 483.74 285.91 481.95 384.82C481.75 395.96 467.21 414.11 461.97 404.28C414.5 315.18 349.89 413.21 420.66 539.86C401.58 505.72 352 482.11 336.8 529.94C326.61 581.37 352.51 629.78 382.62 673.42C353.74 633.05 274.05 616.16 279.71 685.99C296.02 796.78 418.12 882.83 539.75 863.71Z" fill="#2E2F33"/>
<path d="M543.16 772.78C542.98 772.78 542.8 772.74 542.62 772.66C542 772.36 541.73 771.62 542.03 770.99C542.35 770.32 550.05 754.47 567.97 739.75C584.51 726.17 613.19 711.19 655.89 716.99C656.57 717.08 657.05 717.71 656.96 718.4C656.87 719.08 656.24 719.56 655.55 719.47C613.8 713.81 585.78 728.39 569.64 741.62C552.11 755.99 544.36 771.92 544.28 772.08C544.07 772.53 543.62 772.79 543.15 772.79L543.16 772.78Z" fill="#00C7FD"/>
<path d="M466.58 495.789C466.23 495.789 465.88 495.639 465.64 495.359C454.58 482.649 446.31 466.939 441.06 448.659C440.87 447.999 441.25 447.299 441.92 447.109C442.58 446.919 443.28 447.299 443.47 447.969C448.62 465.889 456.71 481.279 467.53 493.709C467.98 494.229 467.93 495.019 467.41 495.469C467.17 495.679 466.88 495.779 466.59 495.779L466.58 495.789Z" fill="#00C7FD"/>
<path opacity="0.08" d="M1097.9 856.13C1097.36 856.05 1090.53 855.32 1089.99 855.3C754.41 837.18 457.56 849.14 117.63 857.28C91.4101 857.91 64.2701 858.64 40.5401 863.94C16.8101 869.24 -2.63989 880.46 1.00011 891.81C4.82011 903.74 32.5101 911.45 59.8001 912.62C87.0901 913.79 114.47 910.03 141.46 907.18C294.5 890.98 452.14 903.09 606.31 911.43C760.48 919.77 924.93 923.57 1067.18 892.87C1082.87 889.48 1098.76 885.47 1108.68 879.11C1117.12 873.71 1119.74 866.32 1113.28 860.77C1109.5 857.52 1103.4 856.97 1097.89 856.13H1097.9Z" fill="white"/>
<path d="M335.04 714.38C378.43 589.62 301.58 508.23 287.38 641.99C275.62 468.44 123.86 482.37 211.22 652.4C204.77 644.16 196.27 634.81 186.97 628.39C166.66 614.37 140.02 630.76 143.48 655.2C148.48 690.54 185.07 730.52 207.39 750.75C176.97 715.3 117.24 730.5 151.2 780.44C240.65 902.7 389.26 897.52 415.74 729.96C422.91 684.61 388.84 665.47 363.65 683.62C351.12 692.65 348.86 697.04 335.03 714.37L335.04 714.38Z" fill="#0095CA"/>
<path d="M47.3601 865.5L629.69 350.34L649.38 378.98L517.89 865.89C517.89 865.89 282.55 867.29 204 866.69C164.84 866.39 47.3501 865.5 47.3501 865.5H47.3601Z" fill="#FFE17A"/>
<path d="M282.93 875.35C412.701 875.35 517.9 871.114 517.9 865.89C517.9 860.665 412.701 856.43 282.93 856.43C153.16 856.43 47.9602 860.665 47.9602 865.89C47.9602 871.114 153.16 875.35 282.93 875.35Z" fill="#FF8F51"/>
<mask id="mask0_40585_13178" style="mask-type:luminance" maskUnits="userSpaceOnUse" x="47" y="350" width="603" height="516">
<path d="M47.3601 865.5L629.69 350.34L649.38 378.98L584.93 865.93L47.3601 865.5Z" fill="white"/>
</mask>
<g mask="url(#mask0_40585_13178)">
<path d="M335.04 714.379C378.43 589.619 301.58 508.229 287.38 641.989C275.62 468.439 123.86 482.369 211.22 652.399C204.77 644.159 196.27 634.809 186.97 628.389C166.66 614.369 140.02 630.759 143.48 655.199C148.48 690.539 185.07 730.519 207.39 750.749C176.97 715.299 117.24 730.499 151.2 780.439C240.65 902.699 389.26 897.519 415.74 729.959C422.91 684.609 388.84 665.469 363.65 683.619C351.12 692.649 348.86 697.039 335.03 714.369L335.04 714.379Z" fill="#FEC91B"/>
<path d="M295.78 864.119C295.69 864.119 295.6 864.119 295.51 864.089C294.84 863.939 294.41 863.279 294.56 862.599C306.07 809.869 287.12 741.109 269.2 692.719C249.75 640.189 227.27 599.659 227.04 599.249C226.7 598.649 226.92 597.889 227.52 597.549C228.12 597.209 228.88 597.429 229.22 598.029C229.45 598.429 252.01 639.109 271.53 691.809C289.57 740.519 308.64 809.789 297 863.119C296.87 863.699 296.35 864.099 295.78 864.099V864.119Z" fill="#333333"/>
<path d="M266.13 808.909C249.25 808.909 223.4 803.839 194.33 780.339C193.79 779.909 193.71 779.119 194.14 778.579C194.57 778.039 195.36 777.959 195.9 778.389C224.91 801.849 250.55 806.579 266.96 806.399C284.73 806.219 295.81 800.419 295.92 800.359C296.53 800.039 297.29 800.269 297.61 800.869C297.94 801.479 297.71 802.229 297.1 802.559C296.63 802.809 285.48 808.669 267.14 808.889C266.81 808.889 266.47 808.889 266.13 808.889V808.909Z" fill="#333333"/>
<path d="M278.89 712.87C278.29 712.87 277.76 712.44 277.66 711.83C277.54 711.15 278 710.51 278.68 710.39C279.66 710.22 302.71 705.76 301.07 670.58C301.04 669.89 301.57 669.31 302.26 669.27C302.95 669.23 303.53 669.77 303.57 670.46C304.07 681.22 302.49 696.08 292.1 705.78C285.83 711.64 279.37 712.8 279.1 712.85C279.03 712.86 278.96 712.87 278.89 712.87Z" fill="#333333"/>
</g>
<path d="M438.5 798.27C443.96 787.69 446.84 772.24 434.43 766.87C428.74 764.41 422.09 765.45 417.04 769.05C407.15 776.1 398.51 784.76 391.29 794.5C398.03 773.79 402.23 752.25 403.64 730.51C403.84 727.4 402.91 724.22 400.75 721.98C395.06 716.11 387.13 721.23 382.2 726.42C365.24 744.33 354.1 778.14 349.75 802.4C349.75 802.4 349.99 776.46 348.69 768.39C347.89 763.38 345.87 758.47 341.43 756.02C331.08 750.32 322.71 761.9 320.17 771.87C315.69 789.52 318.04 808.71 325.7 825.39C324.64 825.39 323.59 825.36 322.53 825.42C315.13 825.88 307.68 828.15 303.03 832.46C294.59 840.28 298.15 852.66 307.86 859.61C317.57 866.56 331.61 869.07 345.06 869.73C349.9 869.97 359.58 869.85 372.5 868.51C375.45 868.21 382.89 868.38 385.85 868.44C393.98 868.6 400.1 867.92 414.49 865.04C419.64 864.01 424.45 861.3 427.53 857.04C436.43 844.7 423.46 833.05 411.28 833.11C422.37 823.28 431.69 811.44 438.48 798.27H438.5Z" fill="#FF5662"/>
<path d="M361.69 870.07C361.06 870.07 360.52 869.6 360.45 868.96C354.12 813.25 380.11 767.57 380.38 767.12C380.73 766.52 381.49 766.32 382.09 766.66C382.69 767.01 382.89 767.77 382.55 768.37C382.29 768.82 356.71 813.81 362.94 868.68C363.02 869.37 362.52 869.99 361.84 870.06C361.79 870.06 361.74 870.06 361.7 870.06L361.69 870.07Z" fill="#333333"/>
<path d="M359.95 844.35C357.82 844.35 349.85 843.961 344.02 838.401C339.9 834.471 337.8 828.86 337.8 821.73C337.8 821.04 338.36 820.48 339.05 820.48C339.74 820.48 340.3 821.04 340.3 821.73C340.3 828.14 342.13 833.141 345.73 836.581C351.58 842.171 360.27 841.851 360.36 841.841C361.05 841.811 361.63 842.341 361.67 843.031C361.7 843.721 361.17 844.301 360.48 844.341C360.43 844.341 360.25 844.35 359.95 844.35Z" fill="#333333"/>
<path d="M368.51 829.23C365.77 829.23 363.89 828.86 363.71 828.82C363.03 828.68 362.6 828.02 362.74 827.35C362.88 826.67 363.54 826.24 364.21 826.37C364.31 826.39 373.91 828.24 381.37 823.04C385.97 819.83 388.86 814.59 389.96 807.47C390.07 806.79 390.71 806.32 391.39 806.43C392.07 806.54 392.54 807.17 392.43 807.86C391.22 815.69 387.97 821.5 382.78 825.11C377.9 828.51 372.36 829.24 368.51 829.24V829.23Z" fill="#333333"/>
<path d="M949.24 215.86C942.65 205.92 936.61 195.26 934.57 183.51C932.53 171.76 935.1 158.64 943.7 150.38C953.09 141.37 967.98 139.89 980.27 144.15C992.57 148.41 1002.59 157.55 1010.88 167.58C1040.55 203.49 1053.72 259.53 1036.28 303.67C1007.31 274.26 973.04 251.8 949.24 215.87V215.86Z" fill="#E96115"/>
<path d="M955.38 300.32C954.38 289.04 949.16 276.33 938.17 273.59C931.06 271.82 923.44 274.96 918.04 279.91C912.64 284.86 909.02 291.41 905.5 297.84C901.13 305.82 896.85 316.05 902.21 323.4C906.07 328.69 913.3 329.94 919.8 330.76C927.89 331.79 952.01 338.82 957.14 332.19C960.21 328.22 955.87 305.59 955.38 300.32Z" fill="#E96115"/>
<path d="M1031.16 408.39C1017.61 399.34 1003.16 390.3 986.92 388.92C970.69 387.54 952.38 396.5 948.78 412.39C945.15 428.42 958.22 444.58 973.86 449.63C989.5 454.68 1006.57 451.22 1022.24 446.28C1057.63 435.11 1061.5 428.68 1031.16 408.4V408.39Z" fill="#E96115"/>
<path d="M1089.45 213.731C1080.28 197.761 1071 177.921 1080.11 161.911C1089.76 144.961 1113.31 143.771 1132.79 144.681C1151.02 145.531 1173.55 149.551 1178.77 167.041C1182.44 179.321 1175.15 191.931 1168.16 202.681C1160.76 214.071 1137.88 263.431 1124.41 264.201C1110.85 264.971 1095.76 223.791 1089.45 213.731Z" fill="#E96115"/>
<path d="M1148.12 444.371C1155.59 444.561 1164.41 446.761 1169.53 441.321C1173.72 436.871 1172.67 429.431 1169.26 424.351C1162.45 414.181 1148.01 410.821 1136.5 414.951C1127 418.361 1100.41 444.271 1108.92 456.551C1114.14 464.071 1138.14 444.121 1148.11 444.371H1148.12Z" fill="#E96115"/>
<path d="M1206.99 324.32C1218.82 321.67 1231.05 315.34 1235.37 304.01C1240.27 291.12 1232.4 275.75 1220.16 269.41C1207.91 263.07 1192.8 264.48 1180.14 269.94C1161.61 277.94 1131.78 309.37 1138.82 332.59C1143.86 349.21 1151.23 339.53 1162.7 334.95C1177.48 329.04 1191.52 327.79 1206.99 324.32Z" fill="#E96115"/>
<path d="M1079.45 875.75C1079.38 875.75 1079.32 875.75 1079.25 875.73C1078.61 875.62 1078.18 875.01 1078.29 874.37C1094.01 782.28 1099.59 690.69 1094.87 602.15C1091.1 531.32 1080.76 462.27 1064.16 396.91C1035.88 285.63 998.71 222.86 998.34 222.24C998.01 221.68 998.19 220.96 998.74 220.63C999.3 220.3 1000.02 220.48 1000.35 221.03C1000.72 221.65 1038.04 284.64 1066.41 396.22C1083.06 461.73 1093.43 530.95 1097.21 601.94C1101.94 690.68 1096.35 782.47 1080.6 874.76C1080.5 875.33 1080.01 875.74 1079.44 875.74L1079.45 875.75Z" fill="#0095CA"/>
<path d="M1025.98 360.57C999.27 360.57 977.08 349.57 961.77 338.82C939.9 323.46 926.99 305.27 926.87 305.09C926.5 304.56 926.62 303.83 927.16 303.45C927.69 303.08 928.42 303.2 928.8 303.74C928.93 303.92 941.64 321.82 963.19 336.94C983 350.84 1014.57 365.16 1052.48 354.51C1053.11 354.33 1053.75 354.7 1053.93 355.32C1054.11 355.94 1053.74 356.59 1053.12 356.77C1043.66 359.43 1034.59 360.57 1025.98 360.57Z" fill="#0095CA"/>
<path d="M1031.36 434.85C1015.1 434.85 998.81 426.55 982.89 410.13C982.44 409.66 982.45 408.92 982.92 408.47C983.39 408.02 984.13 408.03 984.58 408.5C1001.09 425.53 1017.91 433.57 1034.56 432.39C1055.63 430.9 1068.83 414.98 1068.95 414.82C1102.36 368.92 1115.79 311.23 1121.18 270.92C1127.11 226.51 1125.08 190.38 1124.01 184.65C1123.89 184.01 1124.31 183.4 1124.95 183.28C1125.58 183.16 1126.2 183.58 1126.32 184.22C1127.46 190.27 1129.56 225.91 1123.51 271.24C1118.09 311.82 1104.56 369.91 1070.86 416.21C1070.74 416.38 1057.19 433.16 1034.74 434.74C1033.62 434.82 1032.5 434.86 1031.37 434.86L1031.36 434.85Z" fill="#0095CA"/>
<path d="M1085.91 495.589C1085.78 495.589 1085.64 495.569 1085.51 495.519C1084.9 495.299 1084.59 494.619 1084.81 494.009C1095.58 464.469 1112.42 447.979 1124.65 439.349C1137.95 429.959 1148.56 427.629 1149.01 427.529C1149.65 427.389 1150.27 427.799 1150.4 428.429C1150.54 429.059 1150.13 429.689 1149.5 429.819C1149.08 429.909 1107.18 439.499 1087.01 494.799C1086.84 495.279 1086.39 495.569 1085.91 495.569V495.589Z" fill="#0095CA"/>
<path d="M1110.53 362.37C1107.11 362.37 1103.8 361.2 1100.62 358.56C1100.12 358.15 1100.05 357.4 1100.47 356.91C1100.89 356.41 1101.63 356.34 1102.12 356.76C1115.68 368.04 1133.37 347.26 1150.47 327.17C1164.39 310.81 1177.54 295.37 1189.71 294.28C1190.36 294.22 1190.93 294.7 1190.99 295.35C1191.05 296 1190.57 296.57 1189.92 296.63C1178.71 297.63 1165.26 313.43 1152.26 328.71C1138.11 345.33 1123.59 362.39 1110.52 362.39L1110.53 362.37Z" fill="#0095CA"/>
<path d="M654.35 377.109C649.55 381.329 639.74 378.019 632.43 369.709C625.12 361.399 623.1 351.249 627.9 347.029" fill="#FEC91B"/>
<path d="M673.43 344.311L655.61 380.231L624.88 345.271L660.83 329.971L673.43 344.311Z" fill="#0095CA"/>
<path d="M660.831 330.013L709.836 286.946C713.795 283.467 719.827 283.864 723.3 287.815C726.779 291.773 726.382 297.806 722.431 301.278L673.426 344.345L660.824 330.006L660.831 330.013Z" fill="#0095CA"/>
<path d="M1031.59 845.13H1009.98L988.54 789.58H1015.81L1031.59 845.13Z" fill="#DD9F76"/>
<path d="M935.02 863.681C938.09 860.861 949.32 859.651 954.44 858.681C958.07 858.001 962.06 856.931 965.46 855.491C973 852.281 995.4 843.171 995.4 843.171C999.63 840.881 1004.64 840.521 1009.16 842.151C1010.88 842.771 1012.5 843.341 1013.49 843.631C1021.28 845.951 1025.87 844.161 1032.81 839.921C1034.59 838.831 1036.87 840.151 1036.82 842.241L1038.76 865.071C1039.1 869.121 1036.04 871.871 1031.83 872.551C1012.43 875.731 958.05 876.041 938.7 872.551C933.83 871.671 931.62 866.801 935.03 863.671L935.02 863.681Z" fill="#005B85"/>
<path d="M904.38 491.371C911.65 512.691 916.41 534.781 918.62 557.201C926.56 637.871 935.26 707.021 962.28 787.821C965.04 796.081 968.44 804.991 976.39 809.561C985.49 814.801 997.58 812.931 1008.08 811.001C1012.55 810.181 1025.66 807.681 1025.66 807.681C1038.43 804.701 1045.64 792.241 1041.22 780.801C1025.37 739.731 1003.15 698.211 992.81 655.711C989.2 640.871 986.33 626.991 985.82 617.001C985.11 603.081 985.22 583.141 986.04 549.241C986.99 509.991 999.42 457.681 987.67 419.941C984.85 410.881 986.14 409.061 978.68 402.621C964.76 390.601 935.09 424.141 916.24 426.811C907.93 427.991 898.61 429.741 894.06 436.261C890.77 440.971 890.89 446.981 891.13 452.591L904.37 491.391L904.38 491.371Z" fill="#0095CA"/>
<path d="M855.27 848.81H833.67L839.34 793.26H869.77L855.27 848.81Z" fill="#FFC599"/>
<path d="M755.17 866.11C758.48 863.07 770.59 861.76 776.1 860.73C780.01 859.99 784.32 858.85 787.97 857.29C796.1 853.83 820.25 844.01 820.25 844.01C824.81 841.54 830.21 841.15 835.09 842.91C836.94 843.58 838.69 844.19 839.75 844.51C848.15 847.01 853.1 845.08 860.58 840.51C862.5 839.34 864.96 840.76 864.9 843.01L866.99 867.62C867.36 871.98 864.05 874.95 859.52 875.69C838.61 879.12 779.98 879.45 759.13 875.69C753.89 874.74 751.5 869.5 755.17 866.12V866.11Z" fill="#0095CA"/>
<path d="M895.91 417.51C848.33 540.34 819.9 663.91 813.4 794.5C813.2 798.62 813.04 802.88 814.68 806.7C819.12 817.03 833.51 818.96 845.34 819.32C861.09 819.8 880.03 818.7 887.81 805.81C893.17 796.94 890.84 785.95 889.61 775.82C886.43 749.52 891.81 723.05 897.17 697.07C903.32 667.29 906.09 644.54 912.23 614.77C915.61 598.41 924.02 555.16 931.28 539.96C939.45 522.87 950.21 500.99 961.65 485.67C986.96 451.77 984.93 437.99 986.97 420.4L895.89 417.53L895.91 417.51Z" fill="#00C7FD"/>
<path d="M811.9 193.16L840.39 238.45L816.38 251.41L792.02 202.6L811.9 193.16Z" fill="#FFBB8D"/>
<path d="M819.5 156.081C804.9 132.891 775.87 124.901 754.66 138.231C737.74 148.871 733.43 163.941 741.68 184.391C743.77 189.571 746.67 195.101 750.38 201.001C764.98 224.191 784.63 247.651 795.72 225.181C816.66 182.801 834.08 179.271 819.48 156.081H819.5Z" fill="#FFBB8D"/>
<path d="M748.53 181.939L747.95 209.309C747.9 211.599 750 213.329 752.24 212.859L759.8 211.259L748.54 181.939H748.53Z" fill="#FFBB8D"/>
<path d="M989.98 408.25C997.08 424.39 978.69 421.14 961.17 427.97C924.54 442.25 873.97 442.95 876.76 412.34C878.79 390.11 878.91 384.42 865.28 368.68C855.85 357.79 835.66 352.24 830.46 341.85C824.34 329.62 820.67 315.11 814.7 292.55C808.05 267.42 782.64 263.72 818.85 240.69C818.85 240.69 826.53 235.83 832.7 232.49C837.59 229.85 846.87 226.08 846.87 226.08C855.93 223.09 878.15 226.51 901.07 283.95C922.18 336.84 946.52 351.13 971.41 386.34C975.56 392.2 989.98 408.26 989.98 408.26V408.25Z" fill="#005B85"/>
<path d="M682.67 306.681L678.84 306.621C673.91 306.541 669.62 309.541 668.21 314.061L663.91 327.861C663.51 329.131 663.72 330.531 664.48 331.701L669.43 339.281C670.7 341.231 672.96 342.381 675.27 342.261L683.65 341.911C687.99 348.501 694.64 348.291 698.46 347.481C700.46 347.061 702.53 347.591 704.02 348.991L712.77 357.161C733.12 374.881 738.98 383.791 771.25 406.041C778.78 411.231 793.75 419.051 802.84 417.951C813.52 416.651 822.37 405.791 824.92 390.431C827.95 372.221 833.7 333.481 830.48 312.931L799.6 315.471C799.71 330.761 798.26 344.351 797.27 359.071C796.94 363.941 796.16 372.701 792.18 381.621C791.11 384.011 778.93 376.981 773.35 372.581C757.92 360.421 719.28 333.301 719.28 333.301C719.28 333.301 713.74 328.281 703.38 314.271" fill="#FFBB8D"/>
<path d="M826.07 329.1C826.01 329.23 825.91 329.46 825.79 329.73C825.93 329.41 826.02 329.21 826.07 329.1Z" fill="#FFBB8D"/>
<path d="M843.29 294.619C843.62 289.159 843.57 283.139 842.63 277.329C842.51 275.689 842.38 274.059 842.12 272.439C840.06 259.449 832.05 246.429 814.29 247.719C811.1 247.949 807.95 248.739 805.04 250.069C795.68 254.339 792.72 261.109 791.58 271.009C790.38 281.429 792.35 283.919 792.21 303.079C792.41 310.779 791.74 309.689 791.94 317.389C792.02 320.509 794.35 323.109 797.45 323.509C801.97 324.089 806.92 324.309 811.47 323.449C817.24 322.359 822.05 318.069 827.82 316.969C834.28 315.739 842.81 325.239 848.21 321.739C850.37 320.339 850.46 317.169 848.47 315.539C846.38 313.819 844.8 311.389 843.88 308.819C843.47 307.659 843.19 306.469 842.98 305.269C843.02 301.189 843.12 297.569 843.29 294.619Z" fill="#0095CA"/>
<path d="M794.41 188.76C793.01 189.71 795.13 193.79 796.55 195.46C802.47 204.27 799.49 200.17 808.38 209.38C820.42 221.85 807.12 226.11 816.26 242.02C819.97 248.47 829.65 251.55 837.66 251.75C843.51 251.9 849.19 248.29 851.51 243C852.28 241.24 854.53 240.87 856.11 241.97C862.31 246.3 871.94 245.83 877.05 240.04C880.95 235.62 881.45 228.98 879.23 223.59C877.69 219.87 878.95 215.67 882.44 213.67C889.04 209.89 893.6 202.16 892.32 194.55C890.52 183.87 877.76 176.72 867.68 180.35C867.3 180.49 867.01 180.11 867.21 179.77C872.32 171.32 866.94 159.19 858.22 154.09C853.86 151.54 849.02 150.26 844.01 149.64C835.9 148.65 829.37 134.69 826.32 127.12C822.92 118.67 815.02 112.68 806.61 109.71C797.81 106.6 793.21 105.6 779.68 111.25C775.51 112.99 769.17 116.53 764.76 117.51C756.86 119.27 748.85 121.06 741.65 124.75C728.7 131.39 718.79 147.56 725.44 160.51C727.08 163.7 729.58 166.4 732.42 168.59C743.71 177.29 753.47 170.15 766.65 161.57C766.93 161.39 763.82 144.78 764.06 144.56C764.6 144.08 771.17 156.63 771.69 156.15L781.74 171.19L794.42 188.78L794.41 188.76Z" fill="#0095CA"/>
<path d="M777.1 181.901C777.15 188.851 782.02 194.441 787.98 194.401C793.93 194.351 796.36 186.141 796.31 179.191C796.26 172.241 793.75 169.201 787.79 169.241C781.84 169.291 777.05 174.951 777.1 181.901Z" fill="#FFBB8D"/>
<path d="M920.02 86.9607C922.986 86.9607 925.39 84.5565 925.39 81.5907C925.39 78.6249 922.986 76.2207 920.02 76.2207C917.054 76.2207 914.65 78.6249 914.65 81.5907C914.65 84.5565 917.054 86.9607 920.02 86.9607Z" fill="#E96115"/>
<path d="M984.64 18.2802C989.506 18.2802 993.45 14.3358 993.45 9.47015C993.45 4.60453 989.506 0.660156 984.64 0.660156C979.775 0.660156 975.83 4.60453 975.83 9.47015C975.83 14.3358 979.775 18.2802 984.64 18.2802Z" fill="#E96115"/>
<path d="M1030.96 92.4301C1035.11 92.4301 1038.47 89.0678 1038.47 84.9202C1038.47 80.7725 1035.11 77.4102 1030.96 77.4102C1026.81 77.4102 1023.45 80.7725 1023.45 84.9202C1023.45 89.0678 1026.81 92.4301 1030.96 92.4301Z" fill="#0095CA"/>
<path d="M1237.94 393.29C1242.09 393.29 1245.45 389.927 1245.45 385.78C1245.45 381.632 1242.09 378.27 1237.94 378.27C1233.79 378.27 1230.43 381.632 1230.43 385.78C1230.43 389.927 1233.79 393.29 1237.94 393.29Z" fill="#0095CA"/>
<path d="M625.67 90.7309C629.818 90.7309 633.18 87.3686 633.18 83.2209C633.18 79.0733 629.818 75.7109 625.67 75.7109C621.523 75.7109 618.16 79.0733 618.16 83.2209C618.16 87.3686 621.523 90.7309 625.67 90.7309Z" fill="#0095CA"/>
<path d="M984.64 18.2802C989.506 18.2802 993.45 14.3358 993.45 9.47015C993.45 4.60453 989.506 0.660156 984.64 0.660156C979.775 0.660156 975.83 4.60453 975.83 9.47015C975.83 14.3358 979.775 18.2802 984.64 18.2802Z" fill="#E96115"/>
</svg>
