<svg width="316" height="261" viewBox="0 0 1256 996" fill="none" xmlns="http://www.w3.org/2000/svg">
<path opacity="0.12" d="M570.61 125.69C469.69 130.65 381.78 197.09 300.36 260.96C212.99 329.5 118.89 409.11 99.8 523.09C82.42 626.82 134.06 730.81 201.29 807.93C301.07 922.39 443.36 998.76 589.76 995.82C736.15 992.88 882.61 902.99 943.19 760.62C1007.58 609.29 947.61 488.16 876.42 359C808.66 236.06 719.6 118.37 570.62 125.7L570.61 125.69Z" fill="white"/>
<path opacity="0.05" d="M608.57 787.641C661.93 800.091 711.93 829.421 762.37 855.271C843.7 896.971 929.99 930.621 1017.01 924.531C1104.03 918.44 1192.38 866.25 1234.03 770.43C1275.69 674.62 1255.78 534.951 1179.73 479.26C1093.95 416.451 982.06 475.88 889.64 431.1C838.67 406.4 800.19 353.2 760.15 306.06C700.41 235.73 631.46 174.57 553.15 146.82C474.84 119.07 386.01 128.53 321.47 188.77C256.92 249.01 223.99 364.82 255.83 459.49C267.12 493.07 286.08 525.93 282.46 561.8C277.66 609.42 236.17 634.97 198.94 644.48C161.71 653.99 120.1 657.69 93.4502 691.48C-19.0498 834.12 212 940.49 292.23 945.61C348.96 949.23 381.94 911.55 419.66 863.72C472.93 796.16 531.83 769.701 608.59 787.62L608.57 787.641Z" fill="white"/>
<path d="M427.51 680.64C400.46 732.58 320.36 745.94 277.92 705.59C235.48 665.24 244.77 584.57 295.27 554.93C250.51 566.06 200.2 529.72 196.7 483.73C193.2 437.74 237.45 394.21 283.38 398.45C253.4 364.88 225.52 326.48 219.26 281.92C213 237.35 235.16 186.06 278.14 172.73C314.82 161.36 355.44 180.6 380.38 209.79C405.32 238.98 417.92 276.46 429.96 312.92C423.31 289.62 432.7 262.63 452.36 248.48C472.03 234.33 500.6 234 520.58 247.7C542.04 262.42 551.62 290.07 551.18 316.09C550.74 342.11 541.81 367.15 532.98 391.63C533.94 364.47 553.81 339.02 579.92 331.5C606.04 323.98 636.4 334.98 651.64 357.48C666.93 380.05 666.48 410.42 657.16 436.04C647.84 461.66 630.79 483.6 614 505.08C634.73 479.39 681.59 498.76 689.68 530.76C697.76 562.76 679.29 595.58 656.9 619.83C613.72 666.59 552.78 696.55 489.38 702.19" fill="#0095CA"/>
<path d="M371.62 714.36L369.36 713.28C395.79 658.02 408.29 598.63 406.52 536.79C405.1 487.29 394.58 436.1 375.26 384.65C342.36 297.01 294.69 238.28 294.22 237.7L296.15 236.12C296.63 236.71 344.55 295.76 377.6 383.78C397.02 435.49 407.59 486.95 409.01 536.73C410.8 598.98 398.21 658.75 371.61 714.37L371.62 714.36Z" fill="#6DDCFF"/>
<path d="M1038.9 351.871H1019.78C1011.26 351.871 1003.65 346.671 1000.41 338.781C1000.25 338.391 1000.09 338.001 999.92 337.611C996.61 329.73 998.3 320.651 1004.34 314.611L1017.86 301.091C1025.12 293.831 1025.12 282.051 1017.86 274.791L975.48 232.411C968.22 225.151 956.44 225.151 949.18 232.411L935.66 245.931C929.62 251.971 920.54 253.661 912.67 250.351C912.28 250.191 911.89 250.021 911.5 249.861C903.62 246.621 898.41 239.021 898.41 230.491V211.371C898.41 201.101 890.08 192.771 879.81 192.771H819.87C809.6 192.771 801.27 201.101 801.27 211.371V230.491C801.27 239.011 796.07 246.621 788.18 249.861C787.79 250.021 787.4 250.181 787.01 250.351C779.13 253.651 770.05 251.971 764.02 245.931L750.5 232.411C743.24 225.151 731.46 225.151 724.2 232.411L681.82 274.791C674.56 282.051 674.56 293.831 681.82 301.091L695.34 314.611C701.38 320.651 703.07 329.731 699.76 337.601C699.6 337.991 699.43 338.381 699.27 338.771C696.03 346.651 688.43 351.861 679.9 351.861H660.78C650.51 351.861 642.18 360.191 642.18 370.461V430.401C642.18 440.671 650.51 449.001 660.78 449.001H679.9C688.42 449.001 696.03 454.201 699.27 462.091C699.43 462.481 699.59 462.871 699.76 463.261C703.07 471.141 701.38 480.221 695.34 486.251L681.82 499.771C674.56 507.031 674.56 518.811 681.82 526.071L724.2 568.451C731.46 575.711 743.24 575.711 750.5 568.451L764.02 554.931C770.06 548.891 779.14 547.201 787.01 550.511C787.4 550.671 787.79 550.841 788.18 551.001C796.06 554.241 801.27 561.841 801.27 570.371V589.491C801.27 599.76 809.6 608.091 819.87 608.091H879.81C890.08 608.091 898.41 599.76 898.41 589.491V570.371C898.41 561.851 903.61 554.241 911.5 551.001C911.89 550.841 912.28 550.681 912.67 550.511C920.55 547.211 929.63 548.891 935.66 554.931L949.18 568.451C956.44 575.711 968.22 575.711 975.48 568.451L1017.86 526.071C1025.12 518.811 1025.12 507.031 1017.86 499.771L1004.34 486.251C998.3 480.211 996.61 471.131 999.92 463.261C1000.08 462.871 1000.25 462.481 1000.41 462.091C1003.65 454.211 1011.25 449.001 1019.78 449.001H1038.9C1049.17 449.001 1057.5 440.671 1057.5 430.401V370.461C1057.5 360.191 1049.17 351.861 1038.9 351.861V351.871ZM849.83 509.301C789.71 509.301 740.97 460.561 740.97 400.441C740.97 340.321 789.71 291.581 849.83 291.581C909.95 291.581 958.69 340.321 958.69 400.441C958.69 460.561 909.95 509.301 849.83 509.301Z" fill="#005B85"/>
<path d="M1018.81 101.421H1013.12C1010.58 101.421 1008.32 99.8706 1007.36 97.5206C1007.31 97.4006 1007.26 97.2905 1007.21 97.1705C1006.23 94.8305 1006.73 92.1206 1008.53 90.3306L1012.56 86.3006C1014.72 84.1406 1014.72 80.6306 1012.56 78.4706L999.94 65.8506C997.78 63.6906 994.27 63.6906 992.11 65.8506L988.08 69.8806C986.28 71.6806 983.58 72.1805 981.24 71.2005C981.12 71.1505 981.01 71.1006 980.89 71.0506C978.54 70.0906 976.99 67.8205 976.99 65.2905V59.6006C976.99 56.5406 974.51 54.0605 971.45 54.0605H953.61C950.55 54.0605 948.07 56.5406 948.07 59.6006V65.2905C948.07 67.8305 946.52 70.0906 944.17 71.0506C944.05 71.1006 943.94 71.1505 943.82 71.2005C941.48 72.1805 938.77 71.6806 936.98 69.8806L932.95 65.8506C930.79 63.6906 927.28 63.6906 925.12 65.8506L912.5 78.4706C910.34 80.6306 910.34 84.1406 912.5 86.3006L916.53 90.3306C918.33 92.1306 918.83 94.8305 917.85 97.1705C917.8 97.2905 917.75 97.4006 917.7 97.5206C916.74 99.8706 914.47 101.421 911.94 101.421H906.25C903.19 101.421 900.71 103.901 900.71 106.961V124.801C900.71 127.861 903.19 130.341 906.25 130.341H911.94C914.48 130.341 916.74 131.891 917.7 134.241C917.75 134.361 917.8 134.471 917.85 134.591C918.83 136.931 918.33 139.641 916.53 141.431L912.5 145.461C910.34 147.621 910.34 151.131 912.5 153.291L925.12 165.911C927.28 168.071 930.79 168.071 932.95 165.911L936.98 161.881C938.78 160.081 941.48 159.581 943.82 160.561C943.94 160.611 944.05 160.661 944.17 160.711C946.52 161.671 948.07 163.941 948.07 166.471V172.161C948.07 175.221 950.55 177.701 953.61 177.701H971.45C974.51 177.701 976.99 175.221 976.99 172.161V166.471C976.99 163.931 978.54 161.671 980.89 160.711C981.01 160.661 981.12 160.611 981.24 160.561C983.58 159.581 986.29 160.081 988.08 161.881L992.11 165.911C994.27 168.071 997.78 168.071 999.94 165.911L1012.56 153.291C1014.72 151.131 1014.72 147.621 1012.56 145.461L1008.53 141.431C1006.73 139.631 1006.23 136.931 1007.21 134.591C1007.26 134.471 1007.31 134.361 1007.36 134.241C1008.32 131.891 1010.59 130.341 1013.12 130.341H1018.81C1021.87 130.341 1024.35 127.861 1024.35 124.801V106.961C1024.35 103.901 1021.87 101.421 1018.81 101.421ZM962.53 148.281C944.63 148.281 930.13 133.771 930.13 115.881C930.13 97.9906 944.64 83.4805 962.53 83.4805C980.42 83.4805 994.93 97.9906 994.93 115.881C994.93 133.771 980.42 148.281 962.53 148.281Z" fill="#FF5662"/>
<path opacity="0.18" d="M570.61 125.69C469.69 130.65 381.78 197.09 300.36 260.96C212.99 329.5 118.89 409.11 99.8 523.09C82.42 626.82 134.06 730.81 201.29 807.93C301.07 922.39 443.36 998.76 589.76 995.82C736.15 992.88 882.61 902.99 943.19 760.62C1007.58 609.29 947.61 488.16 876.42 359C808.66 236.06 719.6 118.37 570.62 125.7L570.61 125.69Z" fill="black"/>
<path opacity="0.1" d="M608.57 787.641C661.93 800.091 711.93 829.421 762.37 855.271C843.7 896.971 929.99 930.621 1017.01 924.531C1104.03 918.44 1192.38 866.25 1234.03 770.43C1275.69 674.62 1255.78 534.951 1179.73 479.26C1093.95 416.451 982.06 475.88 889.64 431.1C838.67 406.4 800.19 353.2 760.15 306.06C700.41 235.73 631.46 174.57 553.15 146.82C474.84 119.07 386.01 128.53 321.47 188.77C256.92 249.01 223.99 364.82 255.83 459.49C267.12 493.07 286.08 525.93 282.46 561.8C277.66 609.42 236.17 634.97 198.94 644.48C161.71 653.99 120.1 657.69 93.4502 691.48C-19.0498 834.12 212 940.49 292.23 945.61C348.96 949.23 381.94 911.55 419.66 863.72C472.93 796.16 531.83 769.701 608.59 787.62L608.57 787.641Z" fill="black"/>
<path d="M533.59 59.5504C550.004 59.5504 563.31 46.2443 563.31 29.8304C563.31 13.4165 550.004 0.110352 533.59 0.110352C517.176 0.110352 503.87 13.4165 503.87 29.8304C503.87 46.2443 517.176 59.5504 533.59 59.5504Z" fill="#00C7FD"/>
<path d="M662.12 52.5308C672.47 52.5308 680.86 44.1406 680.86 33.7908C680.86 23.441 672.47 15.0508 662.12 15.0508C651.77 15.0508 643.38 23.441 643.38 33.7908C643.38 44.1406 651.77 52.5308 662.12 52.5308Z" fill="#00C7FD"/>
<path d="M771.11 44.99C776.285 44.99 780.48 40.7949 780.48 35.62C780.48 30.4451 776.285 26.25 771.11 26.25C765.935 26.25 761.74 30.4451 761.74 35.62C761.74 40.7949 765.935 44.99 771.11 44.99Z" fill="#00C7FD"/>
<path d="M32.6003 613.26C24.6403 605.21 17.0603 596.401 13.0003 585.831C8.94033 575.261 8.92033 562.58 15.4203 553.3C22.5003 543.18 36.1003 539.071 48.3303 540.781C60.5603 542.491 71.5803 549.15 81.1403 556.97C115.36 584.96 137.92 634.711 129.79 679.021C97.4203 656.961 61.3803 642.34 32.6203 613.25L32.6003 613.26Z" fill="#E96115"/>
<path d="M50.7901 690.041C48.1701 679.621 41.3801 668.481 30.6801 667.561C23.7501 666.961 17.0801 671.041 12.7601 676.491C8.43015 681.931 6.02015 688.611 3.68015 695.161C0.780147 703.291 -1.70985 713.521 4.41015 719.611C8.81015 723.991 15.7801 724.081 21.9901 723.891C29.7301 723.651 53.3801 726.631 57.2001 719.651C59.4901 715.471 52.0401 694.911 50.7901 690.041Z" fill="#E96115"/>
<path d="M138.56 780.98C124.75 774.03 110.07 767.21 94.6199 767.81C79.1699 768.41 62.9799 778.98 61.4399 794.36C59.8899 809.88 74.0899 823.58 89.4099 826.51C104.73 829.44 120.4 824.19 134.59 817.7C166.62 803.04 169.51 796.54 138.57 780.98H138.56Z" fill="#E96115"/>
<path d="M163.53 588.89C152.55 575.29 140.9 558.08 147.05 541.72C153.57 524.39 175.46 519.77 193.85 517.72C211.06 515.8 232.78 516.2 240.28 531.81C245.55 542.77 240.6 555.68 235.65 566.8C230.41 578.58 216.34 628.26 203.82 630.99C191.22 633.73 170.94 597.39 163.52 588.9L163.53 588.89Z" fill="#E96115"/>
<path d="M252.93 796.31C259.96 795.37 268.56 796.12 272.55 790.26C275.81 785.46 273.72 778.65 269.77 774.39C261.87 765.88 247.84 764.87 237.66 770.47C229.27 775.08 208.21 803.34 218.02 813.57C224.03 819.84 243.55 797.56 252.94 796.31H252.93Z" fill="#E96115"/>
<path d="M290.19 675.001C300.89 670.751 311.4 663.001 313.76 651.731C316.43 638.921 306.76 625.681 294.34 621.571C281.92 617.461 267.96 621.031 256.91 628.041C240.74 638.301 217.47 672.211 227.53 692.921C234.73 707.751 240.2 697.571 250.26 691.571C263.23 683.831 276.2 680.561 290.19 675.001Z" fill="#E96115"/>
<path d="M299.94 922.32C291.44 922.32 283.33 921.33 275.55 919.36C256.47 914.53 239.85 903.86 224.74 886.75C196.82 855.13 178.39 805.47 160.56 757.44C139.38 700.38 117.48 641.38 79.4799 610.72C78.9399 610.29 78.8599 609.5 79.2899 608.96C79.7199 608.42 80.5099 608.34 81.0499 608.77C119.59 639.86 141.61 699.19 162.9 756.57C180.65 804.38 199 853.82 226.61 885.09C241.37 901.81 257.58 912.23 276.16 916.93C297.03 922.21 320.41 920.24 347.62 910.89C348.27 910.66 348.98 911.01 349.21 911.67C349.44 912.33 349.09 913.03 348.43 913.26C330.82 919.31 314.77 922.32 299.93 922.32H299.94Z" fill="#0095CA"/>
<path d="M111.29 737.27C92.1903 737.27 75.2603 731.54 62.4803 725.29C39.6703 714.15 24.8403 699.01 24.7003 698.85C24.2203 698.35 24.2303 697.56 24.7303 697.08C25.2303 696.6 26.0203 696.61 26.5003 697.11C26.6403 697.26 41.2203 712.13 63.6603 723.07C84.2703 733.12 115.96 741.83 149.85 726.21C150.48 725.92 151.22 726.2 151.51 726.82C151.8 727.45 151.53 728.19 150.9 728.48C137.15 734.81 123.77 737.26 111.31 737.26L111.29 737.27Z" fill="#0095CA"/>
<path d="M172.33 787.801C172.13 787.801 171.92 787.751 171.73 787.651C171.13 787.321 170.91 786.561 171.24 785.951C197.8 737.711 202.48 680.191 201.73 640.441C200.91 596.741 193.4 561.951 191.46 556.521C191.23 555.871 191.57 555.151 192.22 554.921C192.87 554.691 193.59 555.031 193.82 555.681C195.87 561.421 203.4 595.761 204.24 640.391C205 680.451 200.26 738.431 173.44 787.161C173.21 787.571 172.78 787.811 172.34 787.811L172.33 787.801Z" fill="#0095CA"/>
<path d="M203.05 851.53C202.97 851.53 202.89 851.53 202.81 851.51C202.13 851.38 201.69 850.72 201.82 850.04C207.52 820.7 220.61 803.31 230.58 793.89C241.44 783.63 250.86 780.38 251.25 780.25C251.9 780.03 252.61 780.38 252.83 781.03C253.05 781.68 252.7 782.39 252.05 782.61C251.68 782.74 214.9 795.79 204.27 850.51C204.15 851.11 203.63 851.52 203.04 851.52L203.05 851.53Z" fill="#0095CA"/>
<path d="M203.32 725.37C200.78 725.37 198.19 724.65 195.54 723.08C194.95 722.73 194.75 721.96 195.1 721.37C195.45 720.78 196.22 720.58 196.81 720.93C211.1 729.41 224.53 707.36 237.53 686.03C248.15 668.6 258.19 652.14 269.48 649.29C270.15 649.12 270.83 649.53 271 650.2C271.17 650.87 270.76 651.55 270.09 651.72C259.79 654.32 249.56 671.11 239.66 687.34C228.23 706.09 216.48 725.38 203.31 725.38L203.32 725.37Z" fill="#0095CA"/>
<path d="M138.12 804.691C133.28 804.691 128.09 804.101 122.58 802.921C105.12 799.171 90.3703 790.651 90.2303 790.561C89.7103 790.261 89.5303 789.581 89.8303 789.061C90.1303 788.541 90.8103 788.361 91.3303 788.661C91.4703 788.741 105.96 797.101 123.09 800.781C145.78 805.641 162.09 800.421 171.58 785.241C171.9 784.731 172.58 784.571 173.09 784.891C173.6 785.211 173.76 785.891 173.44 786.401C165.88 798.501 153.82 804.691 138.12 804.691Z" fill="#0095CA"/>
<path d="M347.43 872.11C387.32 848.06 402.79 828.16 411.29 764.04C414.67 738.52 427.45 689.5 412.81 668.33L363.05 688.55C344.35 711.17 328.19 729.96 312.02 754.45C295.85 778.94 288.09 812.41 303.63 837.3L347.42 872.11H347.43Z" fill="#DD9F76"/>
<path d="M391.1 942.71C403.53 926.16 419.99 898.47 428.59 879.57C437.19 860.67 441.64 839.16 437.09 818.86C433.74 803.91 425.76 790.47 421.04 775.9C406.9 732.23 423.35 685.07 439.63 642.17C447.04 622.65 455.2 602.09 471.67 589.52C490.14 575.42 514.96 574.41 538.07 573.96C559.71 573.54 583.29 573.76 600.23 587.42C612.51 597.33 619.07 612.64 625.16 627.31C634.63 650.15 632.47 672.99 641.94 695.82C649.73 714.59 656 734.8 652.05 754.77C644.59 792.49 628.7 807.23 626.09 833.68C624.45 850.29 624.79 861.59 634.02 875.41C643.24 889.23 662 905.63 661.76 922.32C661.52 939.01 645.91 943.77 629.2 942.5L391.11 942.69L391.1 942.71Z" fill="#FF8F51"/>
<path d="M738.73 718.1C737.03 706.51 738.58 669.39 730.8 660.63C723.02 651.87 726.54 652.99 714.95 654.68L641.93 695.81C658.94 752.32 685.15 812.34 686.45 871.46C647.64 871.37 591.69 884.5 550.2 894.23C486.79 909.09 504.46 909.19 437.25 914.05C406.6 916.26 326.28 873.43 311.42 947.74C352.28 952.39 346.81 950.01 387.94 949.94C502.64 949.76 575.05 948.84 689.75 948.66C700.14 948.64 722.79 948.71 730.54 941.8C737.03 936 745 926.55 745.22 916.18C748.56 907.36 749.99 897.75 750.36 888.3C752.62 831.06 748.66 785.48 738.75 718.11L738.73 718.1Z" fill="#FFBB8D"/>
<path d="M697.29 578.741C711.3 592.661 720.33 610.691 728.99 628.431C731.47 633.511 744.71 666.011 743.93 671.611C740.53 696.141 649.02 730.171 646.73 711.241C643.53 684.821 606.35 661.451 598.68 640.631C577.29 582.621 654.88 536.581 697.3 578.731L697.29 578.741Z" fill="#E96115"/>
<path d="M368.86 578.741C354.85 592.661 345.82 610.691 337.16 628.431C334.68 633.511 321.44 666.011 322.22 671.611C325.62 696.141 417.13 730.171 419.42 711.241C422.62 684.821 459.8 661.451 467.47 640.631C488.86 582.621 411.27 536.581 368.85 578.731L368.86 578.741Z" fill="#E96115"/>
<path d="M505.84 251.72C480.05 248.4 453.13 261.6 437.14 285.42C429.9 296.19 424.12 307.91 419.99 320.87C406.76 362.32 385.64 369.99 363.18 392.23C361.5 393.9 359.84 395.63 358.28 397.5C345.81 412.45 345.69 435.21 355.91 452.33C365.49 468.37 375.64 480.78 366.31 503.03C364.16 508.15 358.22 513.1 351.48 516.52C327.91 528.48 328.02 547.61 338.78 559.72C349.22 571.47 395.22 564.4 407.74 572.96C416.32 578.83 418 592.28 423.68 601.8C430.71 613.6 444.92 618.76 456.45 613.71C467.98 608.66 475.76 593.86 474.37 579.59C472.17 591.35 482.17 602.87 492.5 603.05C502.83 603.23 512.1 594.7 517.26 584.27C522.42 573.84 524.24 561.69 525.97 549.82C527.16 541.69 528.35 533.55 529.54 525.42L520.53 497.89C509.54 464.31 466.78 506.92 477.4 397.66L480.94 325.51" fill="#FFE17A"/>
<path d="M574.49 253.211C600.28 249.891 627.2 263.091 643.19 286.911C650.43 297.681 656.21 309.401 660.34 322.361C673.57 363.811 694.69 371.481 717.15 393.721C718.83 395.391 720.49 397.121 722.05 398.991C734.52 413.941 734.64 436.701 724.42 453.821C714.84 469.861 704.69 482.271 714.02 504.521C716.17 509.641 722.11 514.591 728.85 518.011C752.42 529.971 752.31 549.101 741.55 561.211C731.11 572.961 685.11 565.891 672.59 574.451C664.01 580.321 662.33 593.771 656.65 603.291C649.62 615.091 635.41 620.251 623.88 615.201C612.35 610.151 604.57 595.351 605.96 581.081C608.16 592.841 598.16 604.361 587.83 604.541C577.5 604.721 568.23 596.191 563.07 585.761C557.91 575.331 556.09 563.181 554.36 551.311C553.17 543.181 551.98 535.041 550.79 526.911L559.8 499.381C570.79 465.801 613.55 508.411 602.93 399.151L599.39 327.001" fill="#FFE17A"/>
<path d="M574.5 598.79C589.69 610.39 478.85 611.15 493.22 598.79C521.61 574.38 506.73 469.92 506.73 469.92H562.49C562.49 469.92 543.16 574.84 574.51 598.79H574.5Z" fill="#FFBB8D"/>
<path d="M636.84 393.101C636.84 467.241 579.65 550.73 533.93 550.73C488.21 550.73 431.02 467.231 431.02 393.101C431.02 318.971 488.21 300.771 533.93 300.771C579.65 300.771 636.84 318.961 636.84 393.101Z" fill="#FFBB8D"/>
<path d="M659.81 344.581C659.81 285.451 611.87 237.511 552.74 237.511H526.73C467.6 237.511 419.66 285.451 419.66 344.581V360.501L432.9 350.051L420.65 387.261C420.65 387.261 475.15 381.011 475.15 316.681L485.06 360.501H583.15L591.08 316.681C591.08 381.001 645.58 387.261 645.58 387.261L627.17 331.331L659.82 344.581H659.81Z" fill="#FFE17A"/>
<path d="M675.39 920.211C662.74 920.211 650.22 918.651 638.18 915.541C614.04 909.301 591.27 896.661 572.32 879.001C556.9 864.621 544.62 847.491 536.32 828.861C529.64 828.611 522.87 827.771 516.16 826.311C466.23 815.481 425.49 802.151 432.74 748.571C435.22 730.221 447.55 715.901 459.48 702.051C484.2 673.351 507.54 646.241 445.6 584.301L450.05 579.851C479.86 609.651 492.98 633.991 491.35 656.451C489.9 676.371 476.86 691.511 464.25 706.161C452.4 719.921 441.21 732.911 438.98 749.411C435.96 771.761 441.65 787.361 456.88 798.521C470.57 808.541 491.01 814.411 517.5 820.161C522.76 821.301 528.18 822.071 533.64 822.431C532.79 820.261 532 818.081 531.26 815.871C523.81 793.621 523.33 773.151 529.88 756.651C535.65 742.121 547.99 730.481 562.08 726.281C573.88 722.761 585.55 724.721 595.83 731.951C613.21 744.171 619.59 767.901 611 788.361C603.82 805.481 589.94 817.891 570.88 824.241C562.35 827.081 552.98 828.641 543.27 828.901C561.67 867.861 598.08 898.671 639.75 909.441C686.65 921.561 740.03 908.261 775.76 875.541C797.94 855.231 810.65 829.881 810.96 805.591C794.38 795.801 780.5 782.121 771.16 766.171C767.48 759.881 769.81 753.511 773.76 749.991C778.48 745.781 785.01 745.491 790.03 749.261C806.05 761.291 816.4 781.371 817.21 801.861C839.19 813.881 865 818.351 888.6 812.631C919.5 805.131 946.37 780.421 958.72 748.131C967.85 724.261 991.69 708.381 1018.07 708.611C1044.01 708.871 1068.51 697.241 1081.92 678.321C1091.51 664.781 1095.11 642.111 1091.81 616.101C1090.58 606.451 1088.42 597.151 1085.69 589.111C1081.61 589.371 1077.34 589.011 1073.03 588.001C1062.83 585.611 1055.01 579.961 1053.1 573.601C1051.92 569.691 1053 565.711 1056.12 562.401C1062.23 555.921 1069.62 555.381 1076.38 560.921C1081.51 565.131 1086.19 572.681 1089.95 582.171C1094.72 581.191 1099.77 578.961 1104.01 574.441C1116.5 561.111 1120.27 540.971 1113.61 523.131L1119.51 520.931C1127 540.991 1122.73 563.691 1108.61 578.751C1104.22 583.441 1098.52 586.631 1092.13 588.161C1101.7 617.031 1103.33 659.031 1087.07 681.971C1072.63 702.341 1046.55 714.921 1018.85 714.921C1018.57 714.921 1018.3 714.921 1018.02 714.921C1017.84 714.921 1017.67 714.921 1017.49 714.921C993.95 714.921 972.74 729.121 964.6 750.391C951.52 784.581 922.97 810.781 890.08 818.761C868.38 824.021 844.31 821.441 822.3 811.501C820.56 810.711 818.84 809.881 817.14 809.011C815.76 834.001 802.47 859.631 780.01 880.201C761.62 897.041 738.62 909.251 713.49 915.521C700.9 918.661 688.08 920.231 675.39 920.231V920.211ZM540.51 822.651H540.55C567.58 822.651 594.22 812.121 605.21 785.931C612.66 768.171 607.2 747.641 592.22 737.101C581.29 729.411 570.78 730.251 563.89 732.311C551.79 735.921 540.74 746.391 535.74 758.971C528.16 778.041 532.37 799.351 537.24 813.861C538.23 816.821 539.33 819.751 540.52 822.641L540.51 822.651ZM782.4 752.931C780.64 752.931 779.05 753.711 777.96 754.691C776.08 756.371 774.59 759.551 776.6 762.991C784.95 777.241 796.84 789.141 810.62 797.951C808.77 780.791 799.72 764.401 786.26 754.291C784.96 753.321 783.64 752.931 782.4 752.931ZM1066.87 563.401C1064.79 563.401 1062.78 564.501 1060.69 566.721C1059.11 568.391 1058.6 570.051 1059.12 571.791C1060.35 575.891 1066.66 580.041 1074.46 581.871C1076.13 582.261 1079.39 582.871 1083.33 582.851C1080.09 575.061 1076.3 569.001 1072.39 565.791C1070.45 564.201 1068.64 563.401 1066.87 563.401Z" fill="url(#paint0_linear_40585_13723)"/>
<path d="M370.19 462.861C363.4 443.281 357.66 422.681 359.88 402.081C362.1 381.481 373.92 360.741 393.28 353.351C412.64 345.961 427.85 354.891 429.32 375.561C432.23 416.531 420.66 395.351 413.06 413.591C400.43 443.931 417.16 507.871 444.88 525.511C460.64 535.541 464.67 517.791 473.2 534.411C495.33 577.491 452.04 601.181 423.99 582.211C412 574.101 410.31 553.441 403.97 540.561C391.44 515.091 379.5 489.751 370.19 462.871V462.861Z" fill="#FF5662"/>
<path d="M335.85 877.101C360.79 869.851 365.47 854.391 370.32 843.911C388.04 805.651 392.33 751.271 390.79 728.611C384.01 629.091 383.79 589.081 396.62 531.601C399 520.931 388.81 506.561 385.72 500.881C377.46 485.731 376.94 463.081 387.7 451.341C398.6 439.451 406.51 441.681 411.81 430.201C415.77 421.611 424.51 410.731 402.56 415.671C366.94 423.681 341.04 439.821 339.88 476.311C339 503.861 354.87 523.071 357.17 550.541C365.38 648.551 291.78 735.211 287.75 827.701C287.56 832.011 287.32 835.961 287.1 839.671C285.57 865.551 311.3 885.481 335.84 877.101H335.85Z" fill="#FFC599"/>
<defs>
<linearGradient id="paint0_linear_40585_13723" x1="431.9" y1="720.571" x2="1123.14" y2="720.571" gradientUnits="userSpaceOnUse">
<stop stop-color="#A0EBFF"/>
<stop offset="0.13" stop-color="#A0EBFF" stop-opacity="0.99"/>
<stop offset="0.26" stop-color="#A0EBFF" stop-opacity="0.94"/>
<stop offset="0.38" stop-color="#A0EBFF" stop-opacity="0.86"/>
<stop offset="0.51" stop-color="#A0EBFF" stop-opacity="0.76"/>
<stop offset="0.63" stop-color="#A0EBFF" stop-opacity="0.62"/>
<stop offset="0.75" stop-color="#A0EBFF" stop-opacity="0.45"/>
<stop offset="0.87" stop-color="#A0EBFF" stop-opacity="0.25"/>
<stop offset="0.99" stop-color="#A0EBFF" stop-opacity="0.03"/>
<stop offset="1" stop-color="#A0EBFF" stop-opacity="0"/>
</linearGradient>
</defs>
</svg>
