<svg width="136" height="136" viewBox="0 0 136 136" fill="none" xmlns="http://www.w3.org/2000/svg">
<path fill-rule="evenodd" clip-rule="evenodd" d="M104.96 67.5674C103.541 66.9581 101.097 66.8827 97.5234 68.9019C93.6097 71.1134 90.5244 73.0935 88.3859 74.7996C87.316 75.6532 86.5385 76.3948 86.0216 77.0187C85.597 77.5311 85.4285 77.8683 85.3664 78.0413C85.5189 78.1645 85.8743 78.3861 86.6009 78.6214C88.4043 79.2054 91.5513 79.5824 96.4148 79.5824C100.862 79.5824 103.699 78.2423 105.353 76.6353C107.023 75.0129 107.638 72.9869 107.467 71.2574C107.296 69.5254 106.369 68.1731 104.96 67.5674ZM108.493 79.8679C105.835 82.4504 101.786 84.0895 96.4148 84.0895C91.4605 84.0895 87.7214 83.7217 85.2124 82.9092C83.9624 82.5044 82.7784 81.9155 81.9425 80.9895C81.011 79.9577 80.6593 78.6658 80.9032 77.3338C81.1219 76.1389 81.788 75.0639 82.5511 74.143C83.336 73.1958 84.3695 72.2383 85.5751 71.2765C87.9876 69.3517 91.3112 67.2354 95.3062 64.978C99.6415 62.5284 103.606 62.0806 106.739 63.4263C109.88 64.7758 111.646 67.7061 111.952 70.8152C112.259 73.927 111.136 77.3008 108.493 79.8679Z" fill="#6B6E76"/>
<path d="M31 56H99C99 80.6886 91.1173 94 73.9298 94C56.7423 94 73.2577 94 56.0702 94C38.8827 94 31 80.6886 31 56Z" fill="#6B6E76"/>
<path d="M31 96H99C99 98.2091 97.2091 100 95 100H35C32.7909 100 31 98.2091 31 96Z" fill="#6B6E76"/>
<path d="M61.074 34C61.7158 29.126 67 25 67 25C67 25 66.8565 27.7562 67 29.5C67.5175 35.7873 73.7442 36.7868 72.926 43C72.2842 47.874 67 52 67 52C67 52 67.1435 49.2438 67 47.5C66.4825 41.2127 60.2558 40.2132 61.074 34Z" fill="#6B6E76"/>
<path d="M57.037 41.7151C57.3579 38.93 60 36.5723 60 36.5723C60 36.5723 59.9282 38.1472 60 39.1437C60.2587 42.7364 63.3721 43.3076 62.963 46.858C62.6421 49.6431 60 52.0008 60 52.0008C60 52.0008 60.0718 50.4259 60 49.4294C59.7413 45.8367 56.6279 45.2655 57.037 41.7151Z" fill="#6B6E76"/>
</svg>
