<svg width="314" height="246" viewBox="0 0 314 246" fill="none" xmlns="http://www.w3.org/2000/svg">
<path opacity="0.04" d="M143.066 149.801C156.934 153.034 169.772 160.067 182.754 166.315C203.69 176.393 225.993 184.685 248.839 183.969C271.685 183.252 295.287 172.091 307.042 150.68C318.799 129.268 314.818 97.4411 295.388 84.2309C273.474 69.331 243.642 81.9542 219.831 71.0922C206.698 65.1002 197.09 52.7415 187.017 41.7443C171.989 25.3382 154.469 10.9404 134.202 4.04857C113.935 -2.84136 90.5861 -1.3757 73.1474 11.792C55.7087 24.9617 46.0614 50.9727 53.5647 72.6872C56.2269 80.3882 60.8997 87.9868 59.6373 96.0933C57.9611 106.855 46.8657 112.333 37.0308 114.206C27.1959 116.079 16.2649 116.599 8.98393 124.06C-21.7406 155.55 37.837 181.439 58.8059 183.214C73.6327 184.469 82.6053 176.175 92.9061 165.614C107.454 150.701 123.118 145.149 143.064 149.799L143.066 149.801Z" fill="white"/>
<path opacity="0.04" d="M92.8768 61.7556C86.2145 59.6585 81.4682 56.7774 76.0413 53.0949C70.6144 49.4124 65.522 45.0077 59.3315 42.8353C47.8533 38.8091 34.2736 43.8221 26.9056 53.4908C19.5377 63.1595 18.0742 76.5763 21.6334 88.1953C25.1927 99.8144 33.3224 109.682 43.105 116.906C52.8858 124.13 64.275 128.9 75.8615 132.605C104.668 141.818 135.586 144.788 165.475 140.15C195.365 135.511 224.162 123.164 247.441 103.875C255.097 97.5319 262.575 89.6262 263.635 79.7471C264.495 71.7217 260.767 63.6519 255.016 57.9804C249.264 52.309 241.687 48.8022 233.927 46.5468C206.677 38.6276 177.586 45.168 149.862 51.2276C122.138 57.2872 119.478 71.6386 92.8768 61.7556Z" fill="white"/>
<path opacity="0.07" d="M262.21 226.868C262.088 226.841 260.557 226.608 260.435 226.598C185.165 220.62 118.679 224.186 42.529 226.509C36.6556 226.689 30.5752 226.899 25.2779 228.56C19.9786 230.221 15.6596 233.751 16.516 237.346C17.415 241.121 23.6462 243.582 29.769 243.97C35.89 244.36 42.0128 243.192 48.0506 242.307C82.29 237.296 117.662 241.241 152.244 243.993C186.823 246.745 223.692 248.065 255.463 238.464C258.968 237.404 262.513 236.145 264.715 234.145C266.587 232.443 267.148 230.109 265.68 228.348C264.822 227.316 263.451 227.139 262.216 226.87L262.21 226.868Z" fill="white"/>
<path d="M222.221 202.197C291.811 215.896 316.686 123.403 268.352 154.976C280.455 143.262 293.859 122.753 291.069 109.606C289.076 100.214 282.524 98.8445 276.01 101.384C273.143 102.502 270.303 99.727 271.444 96.871C283.448 66.8144 266.744 51.1364 252.98 71.8486C251.206 74.5192 247.049 73.629 246.604 70.4564C242.577 41.711 215.422 61.8015 222.035 102.988C220.253 91.887 209.181 80.6155 200.343 92.0299C192.506 104.912 194.721 120.54 198.549 135.297C194.733 121.544 174.858 109.116 169.486 128.532C162.943 160.06 187.446 195.35 222.219 202.195L222.221 202.197Z" fill="#FF8F51"/>
<path d="M217.134 226.345C217.078 226.345 217.02 226.326 216.974 226.284C216.873 226.195 216.865 226.042 216.954 225.944C223.1 219.032 228.875 208.611 234.122 194.968C238.323 184.042 242.194 171.042 245.628 156.33C251.476 131.271 254.057 109.643 254.082 109.427C254.098 109.294 254.217 109.199 254.351 109.215C254.484 109.23 254.579 109.35 254.562 109.483C254.536 109.699 251.953 131.348 246.099 156.434C242.66 171.17 238.784 184.193 234.573 195.14C229.306 208.837 223.499 219.309 217.314 226.264C217.266 226.318 217.2 226.345 217.132 226.345H217.134Z" fill="#333333"/>
<path d="M238.381 184.929H238.377C238.327 184.929 233.355 184.794 227.17 181.424C221.474 178.323 213.544 171.761 208.1 158.126C208.049 158.003 208.111 157.862 208.235 157.813C208.359 157.763 208.5 157.825 208.548 157.949C213.932 171.435 221.759 177.921 227.375 180.988C233.459 184.309 238.337 184.446 238.387 184.448C238.521 184.45 238.627 184.56 238.623 184.693C238.621 184.825 238.513 184.931 238.381 184.931V184.929Z" fill="#333333"/>
<path d="M254.264 130.414C252.58 130.414 251.483 130.035 251.418 130.01C251.292 129.966 251.226 129.827 251.271 129.701C251.315 129.576 251.454 129.51 251.58 129.555C251.603 129.562 253.896 130.352 256.922 129.603C260.93 128.61 264.412 125.374 266.987 120.241C267.047 120.122 267.192 120.073 267.312 120.133C267.431 120.193 267.48 120.338 267.42 120.458C265.574 124.136 262.269 128.792 257.011 130.078C255.994 130.327 255.062 130.412 254.264 130.412V130.414Z" fill="#333333"/>
<path d="M241.904 173.895C241.78 173.895 241.674 173.8 241.664 173.675C241.652 173.542 241.751 173.426 241.884 173.414C241.925 173.41 246.074 173.014 250.271 169.693C254.148 166.627 258.865 160.364 259.321 147.944C259.327 147.811 259.443 147.706 259.571 147.712C259.704 147.718 259.808 147.83 259.803 147.963C259.545 154.93 257.732 164.423 250.546 170.091C246.236 173.49 242.097 173.882 241.923 173.897C241.915 173.897 241.91 173.897 241.902 173.897L241.904 173.895Z" fill="#333333"/>
<path d="M183.122 151.833C183.095 151.852 183.045 151.887 182.986 151.928C183.054 151.88 183.097 151.851 183.122 151.833Z" fill="#FFBB8D"/>
<path d="M178.091 226.875H130.606L142.419 162.593H166.276L178.091 226.875Z" fill="#0095CA"/>
<mask id="mask0_40585_34998" style="mask-type:luminance" maskUnits="userSpaceOnUse" x="130" y="162" width="49" height="65">
<path d="M178.091 226.875H130.606L142.419 162.593H166.276L178.091 226.875Z" fill="white"/>
</mask>
<g mask="url(#mask0_40585_34998)">
<path d="M186.791 191.057C173.913 189.527 161.128 196.041 152.022 205.265C142.918 214.49 136.851 226.205 130.923 237.726H116.553L126.515 182.444L189.729 181.071L186.789 191.057H186.791Z" fill="#005B85"/>
</g>
<path d="M188.574 226.479H118.962C117.651 226.479 116.588 227.54 116.588 228.849C116.588 230.158 117.651 231.219 118.962 231.219H188.574C189.885 231.219 190.948 230.158 190.948 228.849C190.948 227.54 189.885 226.479 188.574 226.479Z" fill="#6DDCFF"/>
<path d="M232.752 76.6729H75.9411C70.3408 76.6729 65.8008 81.2074 65.8008 86.8011V182.022C65.8008 187.616 70.3408 192.151 75.9411 192.151H232.752C238.352 192.151 242.892 187.616 242.892 182.022V86.8011C242.892 81.2074 238.352 76.6729 232.752 76.6729Z" fill="#A0EBFF"/>
<mask id="mask1_40585_34998" style="mask-type:luminance" maskUnits="userSpaceOnUse" x="65" y="76" width="178" height="117">
<path d="M236.435 76.6729H72.2581C68.6918 76.6729 65.8008 79.5605 65.8008 83.1225V185.701C65.8008 189.263 68.6918 192.151 72.2581 192.151H236.435C240.001 192.151 242.892 189.263 242.892 185.701V83.1225C242.892 79.5605 240.001 76.6729 236.435 76.6729Z" fill="white"/>
</mask>
<g mask="url(#mask1_40585_34998)">
<path d="M258.035 65.4482H57.6426V179.777H258.035V65.4482Z" fill="#6DDCFF"/>
</g>
<path d="M233.226 82.0098H75.085C73.6638 82.0098 72.5117 83.1605 72.5117 84.58V170.312C72.5117 171.732 73.6638 172.882 75.085 172.882H233.226C234.647 172.882 235.799 171.732 235.799 170.312V84.58C235.799 83.1605 234.647 82.0098 233.226 82.0098Z" fill="#005B85"/>
<mask id="mask2_40585_34998" style="mask-type:luminance" maskUnits="userSpaceOnUse" x="72" y="82" width="164" height="91">
<path d="M233.226 82.0098H75.085C73.6638 82.0098 72.5117 83.1605 72.5117 84.58V170.312C72.5117 171.732 73.6638 172.882 75.085 172.882H233.226C234.647 172.882 235.799 171.732 235.799 170.312V84.58C235.799 83.1605 234.647 82.0098 233.226 82.0098Z" fill="white"/>
</mask>
<g mask="url(#mask2_40585_34998)">
<path d="M313.144 145.435C298.411 154.346 280.104 149.708 265.447 140.626C250.791 131.545 238.22 118.427 223.612 109.237C210.684 101.104 196.23 96.1719 181.546 95.2856C152.695 93.5438 125.012 107.113 98.21 119.636C71.4082 132.159 42.8084 144.091 14.2627 138.935V183.472H315.472L313.144 145.435Z" fill="#0095CA"/>
<path d="M28.774 94.9492C44.5558 98.9445 60.3357 102.942 76.1175 106.937C91.5552 110.845 107.281 114.876 120.766 123.343C139.912 135.366 153.188 156.285 155.908 178.71C157.188 189.269 155.707 201.187 147.78 208.289C140.621 214.704 130.177 215.537 120.561 215.683C93.9429 216.089 67.2822 213.702 41.159 208.573C29.2767 206.241 16.5032 202.705 9.34211 192.953C2.90991 184.194 2.57544 172.276 4.87998 161.659C7.18451 151.042 11.809 141.062 14.5138 130.542C17.2204 120.022 17.8198 108.269 12.4238 98.8364" fill="#00C7FD"/>
</g>
<path d="M198.021 103.061H110.288C107.559 103.061 105.347 105.27 105.347 107.996V128.272C105.347 130.998 107.559 133.208 110.288 133.208H198.021C200.75 133.208 202.963 130.998 202.963 128.272V107.996C202.963 105.27 200.75 103.061 198.021 103.061Z" fill="#D2F9FF"/>
<path d="M189.633 110.628H139.67C138.071 110.628 136.775 111.922 136.775 113.518C136.775 115.114 138.071 116.408 139.67 116.408H189.633C191.231 116.408 192.527 115.114 192.527 113.518C192.527 111.922 191.231 110.628 189.633 110.628Z" fill="#A0EBFF"/>
<path d="M189.633 120.463H139.67C138.071 120.463 136.775 121.757 136.775 123.353C136.775 124.949 138.071 126.242 139.67 126.242H189.633C191.231 126.242 192.527 124.949 192.527 123.353C192.527 121.757 191.231 120.463 189.633 120.463Z" fill="#A0EBFF"/>
<path d="M120.899 127.28C125.983 127.28 130.104 123.164 130.104 118.086C130.104 113.009 125.983 108.893 120.899 108.893C115.815 108.893 111.694 113.009 111.694 118.086C111.694 123.164 115.815 127.28 120.899 127.28Z" fill="#00C7FD"/>
<path d="M169.901 124.136H164.44V114.784C164.44 109.227 159.912 104.704 154.348 104.704C148.783 104.704 144.256 109.227 144.256 114.784V124.136H138.794V114.784C138.794 106.218 145.771 99.249 154.348 99.249C162.924 99.249 169.901 106.218 169.901 114.784V124.136Z" fill="#FF5662"/>
<path d="M169.301 124.07H139.393C136.074 124.07 133.384 126.757 133.384 130.072V152.439C133.384 155.754 136.074 158.441 139.393 158.441H169.301C172.62 158.441 175.31 155.754 175.31 152.439V130.072C175.31 126.757 172.62 124.07 169.301 124.07Z" fill="#FF5662"/>
<path d="M159.627 137.493C159.627 134.234 156.667 131.665 153.286 132.322C151.198 132.727 149.529 134.427 149.154 136.518C148.818 138.393 149.475 140.129 150.687 141.293C151.143 141.732 151.29 142.402 151.128 143.014L149.635 148.647C149.371 149.643 150.123 150.618 151.155 150.618H157.543C158.573 150.618 159.325 149.643 159.062 148.647L157.552 142.948C157.388 142.328 157.607 141.693 158.063 141.243C159.031 140.287 159.631 138.961 159.631 137.493H159.627Z" fill="#333333"/>
<path d="M51.2025 144.469C52.4708 143.819 51.7497 144.827 53.0179 144.176C54.6864 144.469 54.7753 146.487 53.1649 147.559C48.7472 150.5 46.2919 146.887 44.3295 146.823C35.2003 146.53 35.2255 144.232 30.6357 139.323L33.7387 136.164C33.7387 136.164 35.4633 139.292 36.4918 140.548C38.69 143.232 51.2025 144.471 51.2025 144.471V144.469Z" fill="#FFBB8D"/>
<path d="M98.8668 128.575V124.91H94.219V128.448H88.7148V134.05C88.7148 135.22 89.6641 136.168 90.8357 136.168H92.6704C93.5269 136.168 94.219 136.861 94.219 137.715V138.549C94.219 139.719 95.1683 140.667 96.3399 140.667H96.4927C97.3491 140.667 98.0412 141.361 98.0412 142.214C98.0412 143.384 98.9905 144.332 100.162 144.332H100.64C101.771 144.332 102.689 143.417 102.689 142.286V128.575H98.8668Z" fill="#005B85"/>
<path d="M104.382 129.649H53.2051V121.097H104.382C106.747 121.097 108.665 123.012 108.665 125.374C108.665 127.736 106.749 129.651 104.382 129.651V129.649Z" fill="#005B85"/>
<path d="M53.2051 129.649H104.382C106.747 129.649 108.665 127.736 108.665 125.372H53.2921L53.207 129.649H53.2051Z" fill="#0095CA"/>
<path d="M48.5826 127.716C42.1948 127.716 36.998 122.525 36.998 116.145C36.998 109.765 42.1948 104.574 48.5826 104.574C54.9703 104.574 60.1671 109.765 60.1671 116.145C60.1671 122.525 54.9703 127.716 48.5826 127.716ZM48.5826 110.124C45.2592 110.124 42.5545 112.826 42.5545 116.145C42.5545 119.464 45.2592 122.166 48.5826 122.166C51.906 122.166 54.6107 119.464 54.6107 116.145C54.6107 112.826 51.906 110.124 48.5826 110.124Z" fill="#0095CA"/>
<path d="M31.2154 136.871C24.8277 136.871 19.6309 131.68 19.6309 125.3C19.6309 118.92 24.8277 113.729 31.2154 113.729C37.6031 113.729 42.7999 118.92 42.7999 125.3C42.7999 131.68 37.6031 136.871 31.2154 136.871ZM31.2154 119.279C27.892 119.279 25.1873 121.981 25.1873 125.3C25.1873 128.62 27.892 131.321 31.2154 131.321C34.5388 131.321 37.2435 128.62 37.2435 125.3C37.2435 121.981 34.5388 119.279 31.2154 119.279Z" fill="#00C7FD"/>
<path d="M48.5826 146.296C42.1948 146.296 36.998 141.105 36.998 134.725C36.998 128.345 42.1948 123.154 48.5826 123.154C54.9703 123.154 60.1671 128.345 60.1671 134.725C60.1671 141.105 54.9703 146.296 48.5826 146.296ZM48.5826 128.704C45.2592 128.704 42.5545 131.406 42.5545 134.725C42.5545 138.045 45.2592 140.746 48.5826 140.746C51.906 140.746 54.6107 138.045 54.6107 134.725C54.6107 131.406 51.906 128.704 48.5826 128.704Z" fill="#0095CA"/>
<path d="M29.2454 136.805C27.7374 134.598 27.0298 131.86 27.2773 129.199C27.3024 128.93 27.3372 128.654 27.2638 128.396C27.1516 127.986 26.7746 127.677 26.357 127.59C25.9414 127.503 25.4967 127.619 25.141 127.853C24.6151 128.197 24.2768 128.772 24.095 129.373C23.9152 129.973 23.8766 130.607 23.8398 131.234C23.6929 133.746 23.5479 136.259 23.401 138.771C23.3836 139.063 23.37 139.37 23.4899 139.636C23.7509 140.206 24.4836 140.347 25.1081 140.41C25.9414 140.497 26.8326 140.575 27.5731 140.185C28.2498 139.829 28.6886 139.126 28.8994 138.393C29.1101 137.659 29.1198 136.884 29.1275 136.122" fill="#DD9F76"/>
<path d="M32.8165 127.09C33.004 126.154 33.1393 125.111 33.1161 124.084C33.1355 123.798 33.1509 123.512 33.1451 123.224C33.0987 120.928 32.0238 118.484 28.9169 118.283C28.3601 118.246 27.7937 118.308 27.2581 118.468C25.5336 118.982 24.8608 120.082 24.4258 121.768C23.9676 123.541 24.2499 124.02 23.7665 127.332C23.6157 128.668 23.5268 128.463 23.3779 129.801C23.318 130.342 23.6583 130.85 24.1841 130.993C24.9517 131.201 25.8062 131.358 26.6143 131.317C27.6409 131.265 28.5766 130.639 29.6013 130.587C30.7497 130.529 31.9986 132.377 33.0175 131.9C33.4254 131.709 33.5163 131.165 33.2108 130.834C32.8899 130.487 32.6734 130.029 32.5767 129.562C32.5322 129.351 32.5129 129.139 32.5052 128.927C32.6096 128.222 32.714 127.598 32.8145 127.092L32.8165 127.09Z" fill="#E96115"/>
<path d="M12.7168 228.864H16.4926L20.2413 219.164H15.4737L12.7168 228.864Z" fill="#DD9F76"/>
<path d="M29.5992 232.103C29.0617 231.611 27.0994 231.399 26.2043 231.231C25.5701 231.111 24.8722 230.925 24.2787 230.672C22.9601 230.112 19.0432 228.521 19.0432 228.521C18.3027 228.122 17.4289 228.058 16.6362 228.344C16.3365 228.452 16.0523 228.552 15.8803 228.602C14.5173 229.006 13.7149 228.695 12.5027 227.956C12.1915 227.766 11.7932 227.996 11.8029 228.361L11.4645 232.349C11.4046 233.055 11.9401 233.534 12.6767 233.656C16.0678 234.21 25.5759 234.266 28.9593 233.656C29.8099 233.503 30.1966 232.652 29.6011 232.105L29.5992 232.103Z" fill="#005B85"/>
<path d="M34.9542 167.09C33.6821 170.813 32.8508 174.671 32.4641 178.585C31.076 192.672 29.5544 204.747 24.8313 218.857C24.348 220.299 23.7544 221.854 22.3644 222.653C20.7732 223.569 18.6601 223.242 16.8234 222.904C16.0424 222.761 13.7494 222.323 13.7494 222.323C11.5164 221.802 10.2559 219.627 11.0273 217.629C13.7978 210.457 17.6818 203.208 19.4914 195.785C20.1217 193.193 20.6244 190.77 20.7133 189.024C20.839 186.593 20.8177 183.112 20.6746 177.193C20.5084 170.34 18.3353 161.206 20.3885 154.615C20.8815 153.034 20.6553 152.715 21.9603 151.589C24.3924 149.49 29.5815 155.347 32.8759 155.813C34.3298 156.019 35.9576 156.324 36.7542 157.462C37.3303 158.284 37.3071 159.335 37.2665 160.312L34.9523 167.086L34.9542 167.09Z" fill="#0095CA"/>
<path d="M43.5424 229.506H47.3182L46.3264 219.807H41.0078L43.5424 229.506Z" fill="#FFC599"/>
<path d="M61.0429 232.529C60.4649 231.998 58.3479 231.77 57.3831 231.589C56.7007 231.461 55.9467 231.26 55.3067 230.988C53.8857 230.384 49.6633 228.669 49.6633 228.669C48.8668 228.236 47.9214 228.169 47.0688 228.478C46.7459 228.595 46.4385 228.702 46.2529 228.756C44.7836 229.192 43.9194 228.854 42.6105 228.059C42.2741 227.854 41.8449 228.103 41.8546 228.495L41.4892 232.794C41.4254 233.556 42.0015 234.072 42.7942 234.203C46.4501 234.802 56.7007 234.86 60.3469 234.203C61.2633 234.037 61.6809 233.122 61.0391 232.531L61.0429 232.529Z" fill="#005B85"/>
<path d="M36.4374 154.192C44.7546 175.64 49.7252 197.219 50.862 220.023C50.8987 220.741 50.9258 221.487 50.6377 222.153C49.8605 223.957 47.3472 224.294 45.2766 224.356C42.5235 224.439 39.2117 224.248 37.8506 221.997C36.913 220.448 37.3209 218.528 37.5355 216.76C38.0923 212.168 37.1508 207.545 36.2131 203.009C35.1382 197.808 34.6529 193.836 33.5799 188.636C32.9902 185.78 31.519 178.226 30.2488 175.573C28.822 172.587 26.9389 168.768 24.9398 166.091C20.5144 160.171 20.8702 157.765 20.5125 154.694C20.1336 151.438 21.5178 152.896 23.7257 150.365C26.7378 146.91 29.6668 149.146 34.417 149.03" fill="#00C7FD"/>
<path d="M18.3973 154.519C18.202 157.591 21.0247 155.956 24.3113 156.023C31.1824 156.166 39.5286 153.244 37.2299 148.394C35.5614 144.872 35.1999 143.945 36.4913 140.546C37.3865 138.194 40.3657 136.074 40.5958 134.056C40.8665 131.683 40.5958 129.083 40.2207 125.024C39.8012 120.504 43.7529 118.372 36.4217 116.769C36.4217 116.769 34.8673 116.433 33.6551 116.256C32.6943 116.115 30.9427 116.055 30.9427 116.055C29.2761 116.107 25.8329 118.003 25.5216 128.798C25.2355 138.737 22.0977 142.541 20.1257 149.809C19.797 151.02 18.3953 154.519 18.3953 154.519H18.3973Z" fill="#FF8F51"/>
<path d="M62.7456 119.416L63.3701 119.177C64.1744 118.868 65.0579 119.101 65.5625 119.76L67.0976 121.764C67.2387 121.95 67.289 122.191 67.2348 122.429L66.8772 123.968C66.7844 124.364 66.4847 124.688 66.098 124.806L64.7002 125.252C64.3851 126.594 63.2792 126.959 62.6045 127.055C62.2507 127.106 61.9433 127.318 61.7809 127.637L60.8355 129.502C58.56 133.629 58.1327 135.442 54.1732 141.028C53.2491 142.332 51.2616 144.514 49.7034 144.877C47.8725 145.306 45.7671 144.056 44.4234 141.689C42.8323 138.885 39.5592 132.877 38.8516 129.315L44.0735 127.878C44.9744 130.39 46.0281 132.534 47.076 134.888C47.422 135.666 48.0774 137.056 49.2664 138.281C49.5854 138.609 51.163 136.724 51.8146 135.668C53.6184 132.748 58.3318 125.982 58.3318 125.982C58.3318 125.982 58.9389 124.825 59.7992 121.905" fill="#FFBB8D"/>
<path d="M40.5498 131.701C40.5673 131.719 40.5983 131.752 40.6333 131.789C40.5906 131.744 40.5634 131.717 40.5498 131.701Z" fill="#FFBB8D"/>
<path d="M35.6503 127.081C35.2695 126.206 34.9157 125.216 34.7185 124.206C34.6392 123.931 34.5638 123.655 34.5077 123.373C34.065 121.12 34.5986 118.503 37.5914 117.65C38.1289 117.497 38.6934 117.435 39.2521 117.48C41.0463 117.617 41.9375 118.552 42.7205 120.106C43.5441 121.742 43.3701 122.269 44.5456 125.403C44.9767 126.677 45.0193 126.459 45.4504 127.734C45.6244 128.249 45.3982 128.817 44.9149 129.068C44.2092 129.435 43.4069 129.767 42.6084 129.898C41.5953 130.066 40.5475 129.651 39.5344 129.817C38.3995 130.005 37.5701 132.075 36.4739 131.824C36.0351 131.723 35.8301 131.21 36.0583 130.821C36.298 130.414 36.4121 129.922 36.4082 129.445C36.4082 129.23 36.3811 129.018 36.3425 128.807C36.0892 128.139 35.8572 127.552 35.6503 127.079V127.081Z" fill="#E96115"/>
<path d="M34.7066 108.56L32.752 117.697L37.4712 118.381L38.5365 108.913L34.7066 108.56Z" fill="#FFBB8D"/>
<path d="M31.2304 102.935C32.2338 98.2562 36.5181 95.2032 40.8023 96.1166C44.2185 96.8446 45.8329 99.0576 45.7072 102.906C45.6743 103.881 45.5313 104.963 45.2761 106.152C44.2727 110.831 42.4573 115.858 39.2847 112.839C33.301 107.147 30.227 107.614 31.2304 102.935Z" fill="#FFBB8D"/>
<path d="M44.4356 102.916L46.1756 107.369C46.3206 107.742 46.0809 108.151 45.6845 108.209L44.3467 108.4L44.4337 102.916H44.4356Z" fill="#FFBB8D"/>
<path d="M37.3126 106.787C37.5988 106.859 37.4982 107.655 37.3629 108.014C36.9221 109.813 37.1638 108.962 36.257 111.007C35.0294 113.774 37.4692 113.675 36.924 116.831C36.7036 118.111 35.2981 119.196 33.995 119.71C33.0438 120.085 31.8935 119.835 31.1956 119.107C30.9636 118.866 30.5711 118.939 30.3797 119.214C29.6218 120.295 28.0133 120.797 26.8243 120.154C25.9176 119.664 25.4362 118.605 25.4787 117.588C25.5077 116.885 25.0495 116.271 24.3554 116.153C23.0446 115.929 21.8324 114.935 21.585 113.612C21.2389 111.752 22.9035 109.815 24.7769 109.804C24.8465 109.804 24.8736 109.725 24.8194 109.68C23.4738 108.601 23.6266 106.289 24.7518 104.93C25.3144 104.25 26.0316 103.748 26.8185 103.348C28.0906 102.699 28.3246 100.019 28.369 98.5941C28.4193 97.0049 29.355 95.5489 30.5595 94.5563C31.8181 93.5193 32.5122 93.0771 35.0738 93.193C35.8626 93.2278 37.1154 93.4266 37.8984 93.3243C39.302 93.1389 40.723 92.9516 42.1286 93.1235C44.6535 93.4344 47.2519 95.4909 46.9387 98.0148C46.8614 98.6366 46.6139 99.2294 46.2794 99.7585C44.9493 101.863 42.9174 101.278 40.2378 100.662C40.1798 100.649 39.6945 97.7386 39.6404 97.7174C39.5244 97.6711 39.1976 100.123 39.0836 100.075L38.3373 103.144L37.3126 106.789V106.787Z" fill="#FFE17A"/>
<path d="M39.7434 104.625C40.1533 105.768 39.6893 106.977 38.7091 107.326C37.7289 107.676 36.8376 106.475 36.4278 105.332C36.0179 104.188 36.248 103.54 37.2282 103.19C38.2084 102.841 39.3355 103.482 39.7434 104.625Z" fill="#FFBB8D"/>
<path d="M236.342 196.167C247.38 164.469 227.832 143.79 224.22 177.776C221.229 133.681 182.625 137.222 204.846 180.421C203.205 178.328 201.043 175.953 198.677 174.321C193.511 170.761 186.735 174.924 187.615 181.132C188.887 190.111 198.194 200.269 203.872 205.409C196.135 196.403 180.941 200.265 189.579 212.952C212.332 244.014 250.137 242.699 256.872 200.128C258.695 188.605 250.03 183.743 243.623 188.354C240.437 190.648 239.861 191.762 236.342 196.167Z" fill="#FEC91B"/>
<path d="M186.766 203.455C189.339 198.366 196.908 197.797 201.736 200.834C206.565 203.872 209.295 209.257 211.797 214.38C211.416 209.528 211.06 204.488 212.791 199.938C214.521 195.389 218.979 191.482 223.82 192.044C228.462 192.585 231.859 197.044 232.721 201.63C233.584 206.216 232.48 210.918 231.381 215.454C230.303 211.704 232.975 207.379 236.775 206.481C240.576 205.583 244.805 208.089 246.019 211.799C247.233 215.506 245.435 219.905 242.067 221.883C244.209 217.159 254.935 226.666 241.945 232.708C235.494 235.709 230.084 237.393 217.564 237.393C194.343 237.393 180.022 216.783 186.762 203.455H186.766Z" fill="#FFE17A"/>
<path d="M230.219 237.144C230.202 237.144 230.184 237.144 230.167 237.138C230.037 237.109 229.954 236.981 229.981 236.85C231.6 229.443 231.793 215.672 223.526 192.135C218.575 178.04 212.854 166.983 212.796 166.873C212.734 166.755 212.781 166.609 212.898 166.547C213.016 166.485 213.163 166.531 213.225 166.649C213.283 166.759 219.017 177.842 223.98 191.967C226.896 200.267 228.98 207.981 230.173 214.894C231.667 223.549 231.762 230.97 230.455 236.952C230.43 237.064 230.329 237.142 230.219 237.142V237.144Z" fill="#333333"/>
<path d="M222.888 223.988C218.606 223.988 212.048 222.703 204.672 216.744C204.568 216.661 204.552 216.509 204.635 216.404C204.718 216.3 204.871 216.285 204.976 216.368C212.374 222.346 218.917 223.551 223.108 223.501C227.644 223.453 230.472 221.973 230.499 221.958C230.617 221.894 230.764 221.941 230.826 222.057C230.89 222.174 230.846 222.321 230.728 222.383C230.61 222.447 227.789 223.928 223.143 223.984C223.058 223.984 222.973 223.984 222.888 223.984V223.988Z" fill="#333333"/>
<path d="M222.705 189.187C222.573 189.187 222.467 189.083 222.463 188.951C222.459 188.818 222.565 188.708 222.699 188.704C222.73 188.704 224.392 188.64 226.132 187.327C228.452 185.576 229.862 182.397 230.206 178.134C230.216 178 230.332 177.904 230.467 177.912C230.6 177.923 230.699 178.039 230.689 178.172C230.44 181.254 229.495 185.416 226.399 187.731C224.53 189.129 222.784 189.185 222.71 189.185C222.71 189.185 222.707 189.185 222.705 189.185V189.187Z" fill="#333333"/>
<path d="M231.503 228.738C231.399 228.738 231.302 228.669 231.271 228.564C231.234 228.437 231.308 228.302 231.436 228.265C231.463 228.257 233.056 227.769 234.399 226.052C236.192 223.764 236.735 220.33 235.969 216.123C235.946 215.991 236.033 215.866 236.164 215.843C236.298 215.819 236.422 215.906 236.445 216.038C236.998 219.081 237.154 223.345 234.761 226.376C233.315 228.209 231.64 228.709 231.571 228.73C231.548 228.736 231.526 228.74 231.503 228.74V228.738Z" fill="#333333"/>
<path d="M132.462 56.0992C134.597 56.0992 136.327 54.3709 136.327 52.239C136.327 50.1071 134.597 48.3789 132.462 48.3789C130.328 48.3789 128.598 50.1071 128.598 52.239C128.598 54.3709 130.328 56.0992 132.462 56.0992Z" fill="#FF5662"/>
<path d="M155.389 55.1302C156.988 55.1302 158.284 53.8359 158.284 52.2394C158.284 50.6429 156.988 49.3486 155.389 49.3486C153.791 49.3486 152.495 50.6429 152.495 52.2394C152.495 53.8359 153.791 55.1302 155.389 55.1302Z" fill="#FF5662"/>
<path d="M178.319 54.0179C179.302 54.0179 180.099 53.2216 180.099 52.2394C180.099 51.2572 179.302 50.4609 178.319 50.4609C177.335 50.4609 176.538 51.2572 176.538 52.2394C176.538 53.2216 177.335 54.0179 178.319 54.0179Z" fill="#FF5662"/>
</svg>
