<svg width="212" height="120" viewBox="0 0 1542 516" fill="none" xmlns="http://www.w3.org/2000/svg">
<path d="M256.23 300.21C237.93 270.32 215.42 241.87 207.11 207.82C202.24 187.88 202.55 167.08 199.98 146.71C197.41 126.34 191.31 105.29 176.46 91.1098C167.33 82.3998 154.16 77.3698 141.78 77.9198C129.39 77.3698 116.22 82.3998 107.1 91.1098C92.25 105.29 86.15 126.34 83.58 146.71C81.01 167.08 81.32 187.88 76.45 207.82C68.14 241.87 45.63 270.32 27.33 300.21C9.02998 330.1 -5.80002 365.76 3.51998 399.55C14.12 437.99 54.07 462.46 93.64 467.3C109.71 469.27 131.61 462.03 141.78 462.03C151.3 462.03 173.86 469.27 189.92 467.3C229.5 462.45 269.44 437.98 280.04 399.55C289.36 365.76 274.53 330.1 256.23 300.21Z" fill="#FFE17A"/>
<path d="M256.23 300.21C237.93 270.32 215.42 241.87 207.11 207.82C202.24 187.88 202.55 167.08 199.98 146.71C197.41 126.34 191.31 105.29 176.46 91.1098C167.33 82.3998 154.16 77.3698 141.78 77.9198C129.39 77.3698 116.22 82.3998 107.1 91.1098C92.25 105.29 86.15 126.34 83.58 146.71C81.01 167.08 81.32 187.88 76.45 207.82C68.14 241.87 45.63 270.32 27.33 300.21C9.02998 330.1 -5.80002 365.76 3.51998 399.55C14.12 437.99 54.07 462.46 93.64 467.3C109.71 469.27 131.61 462.03 141.78 462.03C151.3 462.03 173.86 469.27 189.92 467.3C229.5 462.45 269.44 437.98 280.04 399.55C289.36 365.76 274.53 330.1 256.23 300.21Z" fill="#FFE17A"/>
<mask id="mask0_40585_14310" style="mask-type:luminance" maskUnits="userSpaceOnUse" x="0" y="77" width="283" height="391">
<path d="M256.23 300.21C237.93 270.32 215.42 241.87 207.11 207.82C202.24 187.88 202.55 167.08 199.98 146.71C197.41 126.34 191.31 105.29 176.46 91.1098C167.33 82.3998 154.16 77.3698 141.78 77.9198C129.39 77.3698 116.22 82.3998 107.1 91.1098C92.25 105.29 86.15 126.34 83.58 146.71C81.01 167.08 81.32 187.88 76.45 207.82C68.14 241.87 45.63 270.32 27.33 300.21C9.02998 330.1 -5.80002 365.76 3.51998 399.55C14.12 437.99 54.07 462.46 93.64 467.3C109.71 469.27 131.61 462.03 141.78 462.03C151.3 462.03 173.86 469.27 189.92 467.3C229.5 462.45 269.44 437.98 280.04 399.55C289.36 365.76 274.53 330.1 256.23 300.21Z" fill="white"/>
</mask>
<g mask="url(#mask0_40585_14310)">
<path d="M152.22 45.7998C122.99 70.3898 111.61 111.08 112.77 149.26C113.93 187.44 125.85 224.34 135.91 261.2C145.97 298.05 154.29 336.54 148.09 374.24C141.89 411.94 118.19 448.95 81.84 460.71C57.88 468.47 31.74 464.57 7.35004 458.29C-14.18 452.74 -36.2 444.79 -51.16 428.34C-66.65 411.3 -72.33 387.6 -75.18 364.75C-89.84 247.22 -40 123.66 52.09 49.1998L152.22 45.8098V45.7998Z" fill="#FEC91B"/>
<path d="M140.92 513.51C157.98 513.51 171.81 499.68 171.81 482.62C171.81 465.559 157.98 451.729 140.92 451.729C123.86 451.729 110.03 465.559 110.03 482.62C110.03 499.68 123.86 513.51 140.92 513.51Z" fill="#DD9F76"/>
</g>
<path d="M139.48 90.8703C137.69 90.8703 136.23 89.4203 136.23 87.6203C136.23 46.3703 150.32 26.4803 150.92 25.6503C151.97 24.2003 154 23.8803 155.46 24.9303C156.91 25.9803 157.23 28.0103 156.19 29.4603C156.06 29.6503 142.73 48.6803 142.73 87.6203C142.73 89.4103 141.28 90.8703 139.48 90.8703Z" fill="#A0EBFF"/>
<path d="M814.04 300.21C795.74 270.32 773.23 241.87 764.92 207.82C760.05 187.88 760.36 167.08 757.79 146.71C755.22 126.34 749.12 105.29 734.27 91.1098C725.14 82.3998 711.97 77.3698 699.59 77.9198C687.2 77.3698 674.03 82.3998 664.91 91.1098C650.06 105.29 643.96 126.34 641.39 146.71C638.82 167.08 639.13 187.88 634.26 207.82C625.95 241.87 603.44 270.32 585.14 300.21C566.84 330.1 552.01 365.76 561.33 399.55C571.93 437.99 611.88 462.46 651.45 467.3C667.52 469.27 689.42 462.03 699.59 462.03C709.11 462.03 731.67 469.27 747.73 467.3C787.31 462.45 827.25 437.98 837.85 399.55C847.17 365.76 832.34 330.1 814.04 300.21Z" fill="#FFE17A"/>
<path d="M814.04 300.21C795.74 270.32 773.23 241.87 764.92 207.82C760.05 187.88 760.36 167.08 757.79 146.71C755.22 126.34 749.12 105.29 734.27 91.1098C725.14 82.3998 711.97 77.3698 699.59 77.9198C687.2 77.3698 674.03 82.3998 664.91 91.1098C650.06 105.29 643.96 126.34 641.39 146.71C638.82 167.08 639.13 187.88 634.26 207.82C625.95 241.87 603.44 270.32 585.14 300.21C566.84 330.1 552.01 365.76 561.33 399.55C571.93 437.99 611.88 462.46 651.45 467.3C667.52 469.27 689.42 462.03 699.59 462.03C709.11 462.03 731.67 469.27 747.73 467.3C787.31 462.45 827.25 437.98 837.85 399.55C847.17 365.76 832.34 330.1 814.04 300.21Z" fill="#FFE17A"/>
<mask id="mask1_40585_14310" style="mask-type:luminance" maskUnits="userSpaceOnUse" x="558" y="77" width="283" height="391">
<path d="M814.04 300.21C795.74 270.32 773.23 241.87 764.92 207.82C760.05 187.88 760.36 167.08 757.79 146.71C755.22 126.34 749.12 105.29 734.27 91.1098C725.14 82.3998 711.97 77.3698 699.59 77.9198C687.2 77.3698 674.03 82.3998 664.91 91.1098C650.06 105.29 643.96 126.34 641.39 146.71C638.82 167.08 639.13 187.88 634.26 207.82C625.95 241.87 603.44 270.32 585.14 300.21C566.84 330.1 552.01 365.76 561.33 399.55C571.93 437.99 611.88 462.46 651.45 467.3C667.52 469.27 689.42 462.03 699.59 462.03C709.11 462.03 731.67 469.27 747.73 467.3C787.31 462.45 827.25 437.98 837.85 399.55C847.17 365.76 832.34 330.1 814.04 300.21Z" fill="white"/>
</mask>
<g mask="url(#mask1_40585_14310)">
<path d="M710.03 45.7998C680.8 70.3898 669.42 111.08 670.58 149.26C671.74 187.44 683.66 224.34 693.72 261.2C703.78 298.05 712.1 336.54 705.9 374.24C699.7 411.94 676 448.95 639.65 460.71C615.69 468.47 589.55 464.57 565.16 458.29C543.63 452.74 521.61 444.79 506.65 428.34C491.16 411.3 485.48 387.6 482.63 364.75C467.97 247.22 517.81 123.66 609.9 49.1998L710.03 45.8098V45.7998Z" fill="#FEC91B"/>
<path d="M698.72 513.51C715.78 513.51 729.61 499.68 729.61 482.62C729.61 465.559 715.78 451.729 698.72 451.729C681.66 451.729 667.83 465.559 667.83 482.62C667.83 499.68 681.66 513.51 698.72 513.51Z" fill="#DD9F76"/>
</g>
<path d="M697.29 90.8703C695.5 90.8703 694.04 89.4203 694.04 87.6203C694.04 46.3703 708.13 26.4803 708.73 25.6503C709.78 24.2003 711.81 23.8803 713.27 24.9303C714.72 25.9803 715.04 28.0103 713.99 29.4603C713.79 29.7403 700.53 48.7703 700.53 87.6203C700.53 89.4103 699.08 90.8703 697.28 90.8703H697.29Z" fill="#6DDCFF"/>
<path d="M1494.03 156.31C1485.79 132.69 1469.25 111.08 1446.24 101.27C1421.48 90.7196 1393.23 94.8696 1366.67 99.2096C1360.66 100.19 1354.65 101.6 1348.65 103.21C1315.13 112.2 1279.86 112.2 1246.33 103.21C1240.32 101.6 1234.31 100.19 1228.31 99.2096C1201.75 94.8696 1173.5 90.7096 1148.74 101.27C1125.73 111.08 1109.19 132.69 1100.95 156.31C1092.71 179.93 1091.91 205.51 1093.42 230.48C1096.55 282.28 1109.36 333.48 1130.99 380.65C1140.8 402.05 1152.95 423.26 1171.81 437.34C1199.68 458.14 1238.22 459.84 1271.64 450.18C1280.51 447.62 1289.11 444.35 1297.49 440.57C1305.88 444.34 1314.47 447.61 1323.34 450.18C1356.75 459.83 1395.29 458.13 1423.17 437.34C1442.03 423.26 1454.19 402.05 1463.99 380.65C1485.61 333.48 1498.42 282.28 1501.56 230.48C1503.07 205.51 1502.27 179.93 1494.03 156.31Z" fill="#FF5662"/>
<mask id="mask2_40585_14310" style="mask-type:luminance" maskUnits="userSpaceOnUse" x="1092" y="94" width="411" height="362">
<path d="M1494.03 156.31C1485.79 132.69 1469.25 111.08 1446.24 101.27C1421.48 90.7196 1393.23 94.8696 1366.67 99.2096C1360.66 100.19 1354.65 101.6 1348.65 103.21C1315.13 112.2 1279.86 112.2 1246.33 103.21C1240.32 101.6 1234.31 100.19 1228.31 99.2096C1201.75 94.8696 1173.5 90.7096 1148.74 101.27C1125.73 111.08 1109.19 132.69 1100.95 156.31C1092.71 179.93 1091.91 205.51 1093.42 230.48C1096.55 282.28 1109.36 333.48 1130.99 380.65C1140.8 402.05 1152.95 423.26 1171.81 437.34C1199.68 458.14 1238.22 459.84 1271.64 450.18C1280.51 447.62 1289.11 444.35 1297.49 440.57C1305.88 444.34 1314.47 447.61 1323.34 450.18C1356.75 459.83 1395.29 458.13 1423.17 437.34C1442.03 423.26 1454.19 402.05 1463.99 380.65C1485.61 333.48 1498.42 282.28 1501.56 230.48C1503.07 205.51 1502.27 179.93 1494.03 156.31Z" fill="white"/>
</mask>
<g mask="url(#mask2_40585_14310)">
<path d="M1249.62 74.8792C1213.99 72.3692 1177.57 88.6191 1155.63 116.809C1133.69 144.999 1126.89 184.289 1138.06 218.219C1152.2 261.139 1190.6 290.519 1225.24 319.539C1259.88 348.559 1294.92 384.459 1297.6 429.569C1300.33 475.569 1264.97 518.899 1220.86 532.229C1176.74 545.549 1127.28 531.969 1090.9 503.679C1054.52 475.389 1030.1 433.989 1014.82 390.509C981.72 296.379 991.66 183.939 1055.42 107.189C1119.18 30.4391 1240.33 1.68914 1324.36 55.4791L1249.61 74.8792H1249.62Z" fill="#FF8F51"/>
<path d="M1294.08 129.149C1312.63 129.149 1327.67 114.11 1327.67 95.5587C1327.67 77.0075 1312.63 61.9688 1294.08 61.9688C1275.53 61.9688 1260.49 77.0075 1260.49 95.5587C1260.49 114.11 1275.53 129.149 1294.08 129.149Z" fill="#FF8F51"/>
</g>
<path d="M1294.08 119.62C1292.13 119.62 1290.55 118.04 1290.55 116.09C1290.55 71.2302 1305.87 49.6102 1306.53 48.7102C1307.68 47.1302 1309.88 46.7802 1311.46 47.9302C1313.04 49.0702 1313.39 51.2802 1312.25 52.8502C1312.1 53.0502 1297.62 73.7502 1297.62 116.09C1297.62 118.04 1296.04 119.62 1294.09 119.62H1294.08Z" fill="#6DDCFF"/>
<path d="M1541.13 515.91H1513.68V508.37H1533.59V488.46H1541.13V515.91Z" fill="#00C7FD"/>
<path d="M1464.21 515.91H1414.74V508.37H1464.21V515.91ZM1365.26 515.91H1315.79V508.37H1365.26V515.91ZM1266.31 515.91H1216.84V508.37H1266.31V515.91ZM1167.36 515.91H1117.89V508.37H1167.36V515.91Z" fill="#00C7FD"/>
<path d="M1068.42 515.91H1040.98V488.46H1048.52V508.37H1068.42V515.91Z" fill="#00C7FD"/>
<path d="M1048.52 437.25H1040.98V386.04H1048.52V437.25ZM1048.52 334.82H1040.98V283.61H1048.52V334.82ZM1048.52 232.39H1040.98V181.18H1048.52V232.39ZM1048.52 129.96H1040.98V78.75H1048.52V129.96Z" fill="#00C7FD"/>
<path d="M1048.52 27.5398H1040.98V0.0898438H1068.42V7.62984H1048.52V27.5398Z" fill="#00C7FD"/>
<path d="M1464.21 7.62984H1414.74V0.0898438H1464.21V7.62984ZM1365.26 7.62984H1315.79V0.0898438H1365.26V7.62984ZM1266.31 7.62984H1216.84V0.0898438H1266.31V7.62984ZM1167.36 7.62984H1117.89V0.0898438H1167.36V7.62984Z" fill="#00C7FD"/>
<path d="M1541.13 27.5398H1533.59V7.62984H1513.68V0.0898438H1541.13V27.5398Z" fill="#00C7FD"/>
<path d="M1541.13 437.25H1533.59V386.04H1541.13V437.25ZM1541.13 334.82H1533.59V283.61H1541.13V334.82ZM1541.13 232.39H1533.59V181.18H1541.13V232.39ZM1541.13 129.96H1533.59V78.75H1541.13V129.96Z" fill="#00C7FD"/>
</svg>
