<svg width="212" height="120" viewBox="0 0 1502 444" fill="none" xmlns="http://www.w3.org/2000/svg">
<path d="M255.82 276.21C237.52 246.32 215.01 217.87 206.7 183.82C201.83 163.88 202.14 143.08 199.57 122.71C197 102.34 190.9 81.2898 176.05 67.1098C166.92 58.3998 153.75 53.3698 141.37 53.9198C128.98 53.3698 115.81 58.3998 106.69 67.1098C91.8401 81.2898 85.7401 102.34 83.1701 122.71C80.6001 143.08 80.9101 163.88 76.0401 183.82C67.7301 217.87 45.2201 246.32 26.9201 276.21C8.62007 306.1 -6.20993 341.76 3.11007 375.55C13.7101 413.99 53.6601 438.46 93.2301 443.3C109.3 445.27 131.2 438.03 141.37 438.03C150.89 438.03 173.45 445.27 189.51 443.3C229.09 438.45 269.03 413.98 279.63 375.55C288.95 341.76 274.12 306.1 255.82 276.21Z" fill="#FFE17A"/>
<path d="M255.82 276.21C237.52 246.32 215.01 217.87 206.7 183.82C201.83 163.88 202.14 143.08 199.57 122.71C197 102.34 190.9 81.2898 176.05 67.1098C166.92 58.3998 153.75 53.3698 141.37 53.9198C128.98 53.3698 115.81 58.3998 106.69 67.1098C91.8401 81.2898 85.7401 102.34 83.1701 122.71C80.6001 143.08 80.9101 163.88 76.0401 183.82C67.7301 217.87 45.2201 246.32 26.9201 276.21C8.62007 306.1 -6.20993 341.76 3.11007 375.55C13.7101 413.99 53.6601 438.46 93.2301 443.3C109.3 445.27 131.2 438.03 141.37 438.03C150.89 438.03 173.45 445.27 189.51 443.3C229.09 438.45 269.03 413.98 279.63 375.55C288.95 341.76 274.12 306.1 255.82 276.21Z" fill="#FFE17A"/>
<mask id="mask0_40585_14379" style="mask-type:luminance" maskUnits="userSpaceOnUse" x="0" y="53" width="283" height="391">
<path d="M255.82 276.21C237.52 246.32 215.01 217.87 206.7 183.82C201.83 163.88 202.14 143.08 199.57 122.71C197 102.34 190.9 81.2898 176.05 67.1098C166.92 58.3998 153.75 53.3698 141.37 53.9198C128.98 53.3698 115.81 58.3998 106.69 67.1098C91.8401 81.2898 85.7401 102.34 83.1701 122.71C80.6001 143.08 80.9101 163.88 76.0401 183.82C67.7301 217.87 45.2201 246.32 26.9201 276.21C8.62007 306.1 -6.20993 341.76 3.11007 375.55C13.7101 413.99 53.6601 438.46 93.2301 443.3C109.3 445.27 131.2 438.03 141.37 438.03C150.89 438.03 173.45 445.27 189.51 443.3C229.09 438.45 269.03 413.98 279.63 375.55C288.95 341.76 274.12 306.1 255.82 276.21Z" fill="white"/>
</mask>
<g mask="url(#mask0_40585_14379)">
<path d="M151.81 21.7998C122.58 46.3898 111.2 87.0798 112.36 125.26C113.52 163.44 125.44 200.34 135.5 237.2C145.56 274.05 153.88 312.54 147.68 350.24C141.48 387.94 117.78 424.95 81.4301 436.71C57.4701 444.47 31.3301 440.57 6.94012 434.29C-14.5899 428.74 -36.6099 420.79 -51.5699 404.34C-67.0599 387.3 -72.7399 363.6 -75.5899 340.75C-90.2499 223.22 -40.4099 99.6598 51.6801 25.1998L151.81 21.8098V21.7998Z" fill="#FEC91B"/>
<path d="M140.51 489.51C157.57 489.51 171.4 475.68 171.4 458.62C171.4 441.559 157.57 427.729 140.51 427.729C123.45 427.729 109.62 441.559 109.62 458.62C109.62 475.68 123.45 489.51 140.51 489.51Z" fill="#DD9F76"/>
</g>
<path d="M139.07 66.8703C137.28 66.8703 135.82 65.4203 135.82 63.6203C135.82 22.3703 149.91 2.48029 150.51 1.65029C151.56 0.200295 153.59 -0.119706 155.05 0.930294C156.5 1.98029 156.82 4.01029 155.78 5.46029C155.58 5.74029 142.32 24.7703 142.32 63.6203C142.32 65.4103 140.87 66.8703 139.07 66.8703Z" fill="#A0EBFF"/>
<path d="M813.63 276.21C795.33 246.32 772.82 217.87 764.51 183.82C759.64 163.88 759.95 143.08 757.38 122.71C754.81 102.34 748.71 81.2898 733.86 67.1098C724.73 58.3998 711.56 53.3698 699.18 53.9198C686.79 53.3698 673.62 58.3998 664.5 67.1098C649.65 81.2898 643.55 102.34 640.98 122.71C638.41 143.08 638.72 163.88 633.85 183.82C625.54 217.87 603.03 246.32 584.73 276.21C566.43 306.1 551.6 341.76 560.92 375.55C571.52 413.99 611.47 438.46 651.04 443.3C667.11 445.27 689.01 438.03 699.18 438.03C708.7 438.03 731.26 445.27 747.32 443.3C786.9 438.45 826.84 413.98 837.44 375.55C846.76 341.76 831.93 306.1 813.63 276.21Z" fill="#FFE17A"/>
<path d="M813.63 276.21C795.33 246.32 772.82 217.87 764.51 183.82C759.64 163.88 759.95 143.08 757.38 122.71C754.81 102.34 748.71 81.2898 733.86 67.1098C724.73 58.3998 711.56 53.3698 699.18 53.9198C686.79 53.3698 673.62 58.3998 664.5 67.1098C649.65 81.2898 643.55 102.34 640.98 122.71C638.41 143.08 638.72 163.88 633.85 183.82C625.54 217.87 603.03 246.32 584.73 276.21C566.43 306.1 551.6 341.76 560.92 375.55C571.52 413.99 611.47 438.46 651.04 443.3C667.11 445.27 689.01 438.03 699.18 438.03C708.7 438.03 731.26 445.27 747.32 443.3C786.9 438.45 826.84 413.98 837.44 375.55C846.76 341.76 831.93 306.1 813.63 276.21Z" fill="#FFE17A"/>
<mask id="mask1_40585_14379" style="mask-type:luminance" maskUnits="userSpaceOnUse" x="558" y="53" width="283" height="391">
<path d="M813.63 276.21C795.33 246.32 772.82 217.87 764.51 183.82C759.64 163.88 759.95 143.08 757.38 122.71C754.81 102.34 748.71 81.2898 733.86 67.1098C724.73 58.3998 711.56 53.3698 699.18 53.9198C686.79 53.3698 673.62 58.3998 664.5 67.1098C649.65 81.2898 643.55 102.34 640.98 122.71C638.41 143.08 638.72 163.88 633.85 183.82C625.54 217.87 603.03 246.32 584.73 276.21C566.43 306.1 551.6 341.76 560.92 375.55C571.52 413.99 611.47 438.46 651.04 443.3C667.11 445.27 689.01 438.03 699.18 438.03C708.7 438.03 731.26 445.27 747.32 443.3C786.9 438.45 826.84 413.98 837.44 375.55C846.76 341.76 831.93 306.1 813.63 276.21Z" fill="white"/>
</mask>
<g mask="url(#mask1_40585_14379)">
<path d="M709.62 21.7998C680.39 46.3898 669.01 87.0798 670.17 125.26C671.33 163.44 683.25 200.34 693.31 237.2C703.37 274.05 711.69 312.54 705.49 350.24C699.29 387.94 675.59 424.95 639.24 436.71C615.28 444.47 589.14 440.57 564.75 434.29C543.22 428.74 521.2 420.79 506.24 404.34C490.75 387.3 485.07 363.6 482.22 340.75C467.56 223.22 517.4 99.6598 609.49 25.1998L709.62 21.8098V21.7998Z" fill="#FEC91B"/>
<path d="M698.31 489.51C715.37 489.51 729.2 475.68 729.2 458.62C729.2 441.559 715.37 427.729 698.31 427.729C681.25 427.729 667.42 441.559 667.42 458.62C667.42 475.68 681.25 489.51 698.31 489.51Z" fill="#DD9F76"/>
</g>
<path d="M696.88 66.8703C695.09 66.8703 693.63 65.4203 693.63 63.6203C693.63 22.3703 707.72 2.48029 708.32 1.65029C709.37 0.200295 711.4 -0.119706 712.86 0.930294C714.31 1.98029 714.63 4.01029 713.59 5.46029C713.39 5.74029 700.13 24.7703 700.13 63.6203C700.13 65.4103 698.68 66.8703 696.88 66.8703Z" fill="#6DDCFF"/>
<path d="M1493.62 132.311C1485.38 108.691 1468.84 87.0806 1445.83 77.2706C1421.07 66.7206 1392.82 70.8706 1366.26 75.2106C1360.25 76.1906 1354.24 77.6006 1348.24 79.2106C1314.72 88.2006 1279.45 88.2006 1245.92 79.2106C1239.91 77.6006 1233.9 76.1906 1227.9 75.2106C1201.34 70.8706 1173.09 66.7106 1148.33 77.2706C1125.32 87.0806 1108.78 108.691 1100.54 132.311C1092.3 155.931 1091.5 181.511 1093.01 206.481C1096.14 258.281 1108.95 309.481 1130.58 356.651C1140.39 378.051 1152.54 399.261 1171.4 413.341C1199.27 434.141 1237.81 435.841 1271.23 426.181C1280.1 423.621 1288.7 420.351 1297.08 416.571C1305.47 420.341 1314.06 423.611 1322.93 426.181C1356.34 435.831 1394.88 434.131 1422.76 413.341C1441.62 399.261 1453.78 378.051 1463.58 356.651C1485.2 309.481 1498.01 258.281 1501.15 206.481C1502.66 181.511 1501.86 155.931 1493.62 132.311Z" fill="#FF5662"/>
<mask id="mask2_40585_14379" style="mask-type:luminance" maskUnits="userSpaceOnUse" x="1092" y="70" width="410" height="362">
<path d="M1493.62 132.311C1485.38 108.691 1468.84 87.0806 1445.83 77.2706C1421.07 66.7206 1392.82 70.8706 1366.26 75.2106C1360.25 76.1906 1354.24 77.6006 1348.24 79.2106C1314.72 88.2006 1279.45 88.2006 1245.92 79.2106C1239.91 77.6006 1233.9 76.1906 1227.9 75.2106C1201.34 70.8706 1173.09 66.7106 1148.33 77.2706C1125.32 87.0806 1108.78 108.691 1100.54 132.311C1092.3 155.931 1091.5 181.511 1093.01 206.481C1096.14 258.281 1108.95 309.481 1130.58 356.651C1140.39 378.051 1152.54 399.261 1171.4 413.341C1199.27 434.141 1237.81 435.841 1271.23 426.181C1280.1 423.621 1288.7 420.351 1297.08 416.571C1305.47 420.341 1314.06 423.611 1322.93 426.181C1356.34 435.831 1394.88 434.131 1422.76 413.341C1441.62 399.261 1453.78 378.051 1463.58 356.651C1485.2 309.481 1498.01 258.281 1501.15 206.481C1502.66 181.511 1501.86 155.931 1493.62 132.311Z" fill="white"/>
</mask>
<g mask="url(#mask2_40585_14379)">
<path d="M1249.21 50.8807C1213.58 48.3707 1177.16 64.6206 1155.22 92.8106C1133.28 121.001 1126.48 160.291 1137.65 194.221C1151.79 237.141 1190.19 266.521 1224.83 295.541C1259.47 324.561 1294.51 360.461 1297.19 405.571C1299.92 451.571 1264.56 494.901 1220.45 508.231C1176.33 521.551 1126.87 507.971 1090.49 479.681C1054.11 451.391 1029.69 409.991 1014.41 366.511C981.31 272.381 991.25 159.941 1055.01 83.1907C1118.78 6.45065 1239.92 -22.3094 1323.95 31.4806L1249.2 50.8807H1249.21Z" fill="#FF8F51"/>
<path d="M1293.67 105.151C1312.22 105.151 1327.26 90.1119 1327.26 71.5607C1327.26 53.0095 1312.22 37.9707 1293.67 37.9707C1275.12 37.9707 1260.08 53.0095 1260.08 71.5607C1260.08 90.1119 1275.12 105.151 1293.67 105.151Z" fill="#FF8F51"/>
</g>
<path d="M1293.67 95.6202C1291.72 95.6202 1290.14 94.0402 1290.14 92.0902C1290.14 47.2302 1305.46 25.6102 1306.12 24.7102C1307.27 23.1302 1309.47 22.7802 1311.05 23.9302C1312.63 25.0702 1312.98 27.2802 1311.84 28.8502C1311.66 29.1102 1297.21 49.8002 1297.21 92.0902C1297.21 94.0402 1295.63 95.6202 1293.68 95.6202H1293.67Z" fill="#6DDCFF"/>
</svg>
