<svg width="212" height="120" viewBox="0 0 1534 462" fill="none" xmlns="http://www.w3.org/2000/svg">
<path d="M255.77 276.21C237.47 246.32 214.96 217.87 206.65 183.82C201.78 163.88 202.09 143.08 199.52 122.71C196.95 102.34 190.85 81.2898 176 67.1098C166.87 58.3998 153.7 53.3698 141.32 53.9198C128.93 53.3698 115.76 58.3998 106.64 67.1098C91.79 81.2898 85.69 102.34 83.12 122.71C80.55 143.08 80.86 163.88 75.99 183.82C67.68 217.87 45.17 246.32 26.87 276.21C8.57002 306.1 -6.25998 341.76 3.06002 375.55C13.66 413.99 53.61 438.46 93.18 443.3C109.25 445.27 131.15 438.03 141.32 438.03C150.84 438.03 173.4 445.27 189.46 443.3C229.04 438.45 268.98 413.98 279.58 375.55C288.9 341.76 274.07 306.1 255.77 276.21Z" fill="#FFE17A"/>
<path d="M255.77 276.21C237.47 246.32 214.96 217.87 206.65 183.82C201.78 163.88 202.09 143.08 199.52 122.71C196.95 102.34 190.85 81.2898 176 67.1098C166.87 58.3998 153.7 53.3698 141.32 53.9198C128.93 53.3698 115.76 58.3998 106.64 67.1098C91.79 81.2898 85.69 102.34 83.12 122.71C80.55 143.08 80.86 163.88 75.99 183.82C67.68 217.87 45.17 246.32 26.87 276.21C8.57002 306.1 -6.25998 341.76 3.06002 375.55C13.66 413.99 53.61 438.46 93.18 443.3C109.25 445.27 131.15 438.03 141.32 438.03C150.84 438.03 173.4 445.27 189.46 443.3C229.04 438.45 268.98 413.98 279.58 375.55C288.9 341.76 274.07 306.1 255.77 276.21Z" fill="#FFE17A"/>
<mask id="mask0_40585_14348" style="mask-type:luminance" maskUnits="userSpaceOnUse" x="0" y="53" width="283" height="391">
<path d="M255.77 276.21C237.47 246.32 214.96 217.87 206.65 183.82C201.78 163.88 202.09 143.08 199.52 122.71C196.95 102.34 190.85 81.2898 176 67.1098C166.87 58.3998 153.7 53.3698 141.32 53.9198C128.93 53.3698 115.76 58.3998 106.64 67.1098C91.79 81.2898 85.69 102.34 83.12 122.71C80.55 143.08 80.86 163.88 75.99 183.82C67.68 217.87 45.17 246.32 26.87 276.21C8.57002 306.1 -6.25998 341.76 3.06002 375.55C13.66 413.99 53.61 438.46 93.18 443.3C109.25 445.27 131.15 438.03 141.32 438.03C150.84 438.03 173.4 445.27 189.46 443.3C229.04 438.45 268.98 413.98 279.58 375.55C288.9 341.76 274.07 306.1 255.77 276.21Z" fill="white"/>
</mask>
<g mask="url(#mask0_40585_14348)">
<path d="M151.76 21.7998C122.53 46.3898 111.15 87.0798 112.31 125.26C113.47 163.44 125.39 200.34 135.45 237.2C145.51 274.05 153.83 312.54 147.63 350.24C141.43 387.94 117.73 424.95 81.3801 436.71C57.4201 444.47 31.2801 440.57 6.89007 434.29C-14.6399 428.74 -36.6599 420.79 -51.6199 404.34C-67.1099 387.3 -72.7899 363.6 -75.6399 340.75C-90.2999 223.22 -40.4599 99.6598 51.6301 25.1998L151.76 21.8098V21.7998Z" fill="#FEC91B"/>
<path d="M140.46 489.51C157.52 489.51 171.35 475.68 171.35 458.62C171.35 441.559 157.52 427.729 140.46 427.729C123.4 427.729 109.57 441.559 109.57 458.62C109.57 475.68 123.4 489.51 140.46 489.51Z" fill="#DD9F76"/>
</g>
<path d="M139.02 66.8703C137.23 66.8703 135.77 65.4203 135.77 63.6203C135.77 22.3703 149.86 2.48029 150.46 1.65029C151.51 0.200295 153.54 -0.119706 155 0.930294C156.45 1.98029 156.77 4.01029 155.73 5.46029C155.53 5.74029 142.27 24.7703 142.27 63.6203C142.27 65.4103 140.82 66.8703 139.02 66.8703Z" fill="#A0EBFF"/>
<path d="M813.58 276.21C795.28 246.32 772.77 217.87 764.46 183.82C759.59 163.88 759.9 143.08 757.33 122.71C754.76 102.34 748.66 81.2898 733.81 67.1098C724.68 58.3998 711.51 53.3698 699.13 53.9198C686.74 53.3698 673.57 58.3998 664.45 67.1098C649.6 81.2898 643.5 102.34 640.93 122.71C638.36 143.08 638.67 163.88 633.8 183.82C625.49 217.87 602.98 246.32 584.68 276.21C566.38 306.1 551.55 341.76 560.87 375.55C571.47 413.99 611.42 438.46 650.99 443.3C667.06 445.27 688.96 438.03 699.13 438.03C708.65 438.03 731.21 445.27 747.27 443.3C786.85 438.45 826.79 413.98 837.39 375.55C846.71 341.76 831.88 306.1 813.58 276.21Z" fill="#FFE17A"/>
<path d="M813.58 276.21C795.28 246.32 772.77 217.87 764.46 183.82C759.59 163.88 759.9 143.08 757.33 122.71C754.76 102.34 748.66 81.2898 733.81 67.1098C724.68 58.3998 711.51 53.3698 699.13 53.9198C686.74 53.3698 673.57 58.3998 664.45 67.1098C649.6 81.2898 643.5 102.34 640.93 122.71C638.36 143.08 638.67 163.88 633.8 183.82C625.49 217.87 602.98 246.32 584.68 276.21C566.38 306.1 551.55 341.76 560.87 375.55C571.47 413.99 611.42 438.46 650.99 443.3C667.06 445.27 688.96 438.03 699.13 438.03C708.65 438.03 731.21 445.27 747.27 443.3C786.85 438.45 826.79 413.98 837.39 375.55C846.71 341.76 831.88 306.1 813.58 276.21Z" fill="#FFE17A"/>
<mask id="mask1_40585_14348" style="mask-type:luminance" maskUnits="userSpaceOnUse" x="558" y="53" width="283" height="391">
<path d="M813.58 276.21C795.28 246.32 772.77 217.87 764.46 183.82C759.59 163.88 759.9 143.08 757.33 122.71C754.76 102.34 748.66 81.2898 733.81 67.1098C724.68 58.3998 711.51 53.3698 699.13 53.9198C686.74 53.3698 673.57 58.3998 664.45 67.1098C649.6 81.2898 643.5 102.34 640.93 122.71C638.36 143.08 638.67 163.88 633.8 183.82C625.49 217.87 602.98 246.32 584.68 276.21C566.38 306.1 551.55 341.76 560.87 375.55C571.47 413.99 611.42 438.46 650.99 443.3C667.06 445.27 688.96 438.03 699.13 438.03C708.65 438.03 731.21 445.27 747.27 443.3C786.85 438.45 826.79 413.98 837.39 375.55C846.71 341.76 831.88 306.1 813.58 276.21Z" fill="white"/>
</mask>
<g mask="url(#mask1_40585_14348)">
<path d="M709.57 21.7998C680.34 46.3898 668.96 87.0798 670.12 125.26C671.28 163.44 683.2 200.34 693.26 237.2C703.32 274.05 711.64 312.54 705.44 350.24C699.24 387.94 675.54 424.95 639.19 436.71C615.23 444.47 589.09 440.57 564.7 434.29C543.17 428.74 521.15 420.79 506.19 404.34C490.7 387.3 485.02 363.6 482.17 340.75C467.51 223.22 517.35 99.6598 609.44 25.1998L709.57 21.8098V21.7998Z" fill="#FEC91B"/>
<path d="M698.26 489.51C715.32 489.51 729.15 475.68 729.15 458.62C729.15 441.559 715.32 427.729 698.26 427.729C681.2 427.729 667.37 441.559 667.37 458.62C667.37 475.68 681.2 489.51 698.26 489.51Z" fill="#DD9F76"/>
</g>
<path d="M696.83 66.8703C695.04 66.8703 693.58 65.4203 693.58 63.6203C693.58 22.3703 707.67 2.48029 708.27 1.65029C709.32 0.200295 711.35 -0.119706 712.81 0.930294C714.26 1.98029 714.58 4.01029 713.54 5.46029C713.34 5.74029 700.08 24.7703 700.08 63.6203C700.08 65.4103 698.63 66.8703 696.83 66.8703Z" fill="#6DDCFF"/>
<path d="M1493.57 132.311C1485.33 108.691 1468.79 87.0806 1445.78 77.2706C1421.02 66.7206 1392.77 70.8706 1366.21 75.2106C1360.2 76.1906 1354.19 77.6006 1348.19 79.2106C1314.67 88.2006 1279.4 88.2006 1245.87 79.2106C1239.86 77.6006 1233.85 76.1906 1227.85 75.2106C1201.29 70.8706 1173.04 66.7106 1148.28 77.2706C1125.27 87.0806 1108.73 108.691 1100.49 132.311C1092.25 155.931 1091.45 181.511 1092.96 206.481C1096.09 258.281 1108.9 309.481 1130.53 356.651C1140.34 378.051 1152.49 399.261 1171.35 413.341C1199.22 434.141 1237.76 435.841 1271.18 426.181C1280.05 423.621 1288.65 420.351 1297.03 416.571C1305.42 420.341 1314.01 423.611 1322.88 426.181C1356.29 435.831 1394.83 434.131 1422.71 413.341C1441.57 399.261 1453.73 378.051 1463.53 356.651C1485.15 309.481 1497.96 258.281 1501.1 206.481C1502.61 181.511 1501.81 155.931 1493.57 132.311Z" fill="#FF5662"/>
<mask id="mask2_40585_14348" style="mask-type:luminance" maskUnits="userSpaceOnUse" x="1092" y="70" width="410" height="362">
<path d="M1493.57 132.311C1485.33 108.691 1468.79 87.0806 1445.78 77.2706C1421.02 66.7206 1392.77 70.8706 1366.21 75.2106C1360.2 76.1906 1354.19 77.6006 1348.19 79.2106C1314.67 88.2006 1279.4 88.2006 1245.87 79.2106C1239.86 77.6006 1233.85 76.1906 1227.85 75.2106C1201.29 70.8706 1173.04 66.7106 1148.28 77.2706C1125.27 87.0806 1108.73 108.691 1100.49 132.311C1092.25 155.931 1091.45 181.511 1092.96 206.481C1096.09 258.281 1108.9 309.481 1130.53 356.651C1140.34 378.051 1152.49 399.261 1171.35 413.341C1199.22 434.141 1237.76 435.841 1271.18 426.181C1280.05 423.621 1288.65 420.351 1297.03 416.571C1305.42 420.341 1314.01 423.611 1322.88 426.181C1356.29 435.831 1394.83 434.131 1422.71 413.341C1441.57 399.261 1453.73 378.051 1463.53 356.651C1485.15 309.481 1497.96 258.281 1501.1 206.481C1502.61 181.511 1501.81 155.931 1493.57 132.311Z" fill="white"/>
</mask>
<g mask="url(#mask2_40585_14348)">
<path d="M1249.16 50.8811C1213.53 48.3711 1177.11 64.6211 1155.17 92.8111C1133.23 121.001 1126.43 160.291 1137.6 194.221C1151.74 237.141 1190.14 266.521 1224.78 295.541C1259.42 324.561 1294.46 360.461 1297.14 405.571C1299.87 451.571 1264.51 494.901 1220.4 508.231C1176.28 521.551 1126.82 507.971 1090.44 479.681C1054.06 451.391 1029.64 409.991 1014.36 366.511C981.26 272.381 991.2 159.941 1054.96 83.1911C1118.72 6.4411 1239.87 -22.3089 1323.9 31.4811L1249.15 50.8811H1249.16Z" fill="#FF8F51"/>
<path d="M1293.62 105.151C1312.17 105.151 1327.21 90.1119 1327.21 71.5607C1327.21 53.0095 1312.17 37.9707 1293.62 37.9707C1275.07 37.9707 1260.03 53.0095 1260.03 71.5607C1260.03 90.1119 1275.07 105.151 1293.62 105.151Z" fill="#FF8F51"/>
</g>
<path d="M1293.62 95.6202C1291.67 95.6202 1290.09 94.0402 1290.09 92.0902C1290.09 47.2302 1305.41 25.6102 1306.07 24.7102C1307.22 23.1302 1309.42 22.7802 1311 23.9302C1312.58 25.0702 1312.93 27.2802 1311.79 28.8502C1311.61 29.1102 1297.16 49.8002 1297.16 92.0902C1297.16 94.0402 1295.58 95.6202 1293.63 95.6202H1293.62Z" fill="#6DDCFF"/>
<path d="M1223.44 461.03C1196.26 461.03 1171.13 453.61 1151.92 439.27C1128.75 421.98 1114.62 395.6 1104.89 374.56C1080.07 320.84 1065.47 263.59 1061.5 204.39C1059.82 179.28 1059.27 146.49 1070.07 115.54C1080.68 85.14 1101.22 61.54 1126.43 50.79C1156.45 38 1191.1 43.66 1218.94 48.21C1225.23 49.24 1231.86 50.71 1239.79 52.84C1244.33 54.06 1247.62 55.03 1250.27 55.8C1256.65 57.68 1259.68 58.57 1269.26 59.82C1271.87 41.4 1277.85 25.62 1287.07 12.86C1294.05 3.19998 1306.71 -0.600016 1317.87 3.60998C1324.83 6.23998 1330.39 11.71 1333.12 18.61C1335.85 25.51 1335.54 33.3 1332.26 39.97C1329.26 46.08 1327.2 52.74 1326.11 59.82C1334.75 59.03 1336.76 58.35 1341.14 56.84C1343.89 55.9 1347.65 54.61 1354.26 52.83C1362.2 50.7 1368.83 49.23 1375.11 48.2C1402.95 43.65 1437.6 37.99 1467.62 50.78C1492.83 61.53 1513.37 85.13 1523.98 115.53C1534.78 146.47 1534.23 179.26 1532.55 204.38C1528.58 263.58 1513.99 320.83 1489.17 374.55C1479.45 395.6 1465.31 421.97 1442.14 439.26C1412.56 461.34 1368.92 467.01 1325.42 454.45C1316.1 451.76 1306.79 448.34 1297.03 444.02C1287.27 448.34 1277.96 451.76 1268.64 454.45C1253.39 458.86 1238.12 461.02 1223.44 461.02V461.03ZM1169.48 50.26C1155.71 50.26 1141.95 52.11 1129.28 57.51C1105.95 67.45 1086.87 89.49 1076.94 117.95C1066.58 147.65 1067.13 179.49 1068.76 203.91C1072.67 262.22 1087.04 318.6 1111.49 371.51C1120.85 391.77 1134.4 417.13 1156.26 433.44C1184.03 454.16 1225.27 459.4 1266.6 447.47C1276.07 444.74 1285.53 441.22 1295.52 436.72L1297.02 436.05L1298.52 436.72C1308.52 441.22 1317.98 444.73 1327.44 447.47C1368.76 459.41 1410.01 454.16 1437.78 433.44C1459.64 417.13 1473.19 391.78 1482.55 371.51C1507 318.6 1521.37 262.22 1525.28 203.91C1526.92 179.49 1527.47 147.65 1517.1 117.95C1507.17 89.48 1488.09 67.45 1464.76 57.51C1436.69 45.55 1403.2 51.02 1376.29 55.41C1370.25 56.4 1363.85 57.82 1356.15 59.88C1349.78 61.59 1346.3 62.78 1343.51 63.74C1337.98 65.64 1335.69 66.43 1322.22 67.46L1317.9 67.79L1318.31 63.48C1319.23 53.9 1321.72 44.91 1325.72 36.77C1328.13 31.86 1328.35 26.37 1326.34 21.3C1324.33 16.22 1320.41 12.37 1315.29 10.43C1307.21 7.37998 1298.03 10.13 1292.98 17.13C1283.9 29.7 1278.2 45.57 1276.04 64.3L1275.62 67.94L1271.98 67.5C1258.86 65.92 1255.53 64.94 1248.22 62.79C1245.61 62.02 1242.35 61.07 1237.9 59.87C1230.2 57.81 1223.8 56.38 1217.76 55.4C1202.99 52.99 1186.23 50.25 1169.48 50.25V50.26Z" fill="#00C7FD"/>
</svg>
