<svg width="212" height="120" viewBox="0 0 554 892" fill="none" xmlns="http://www.w3.org/2000/svg">
<path opacity="0.08" d="M87.5799 794.199C55.3999 793.489 15.4899 796.909 3.33995 822.909C-6.05005 843.009 8.67995 866.799 30.0199 877.969C51.3599 889.139 77.34 890.7 102.22 891.34C182.25 893.41 262.48 888.889 341.56 877.999C373.85 873.549 549.06 855.449 553.45 824.259C558.35 789.439 377.43 800.629 348.59 799.989C261.59 798.059 174.58 796.129 87.5799 794.199Z" fill="white"/>
<path d="M128.99 256.8C116.15 241.13 103.67 224.5 97.7899 205.11C91.9099 185.72 93.7799 162.85 107.28 147.75C121.41 131.95 145.68 127.99 165.94 134.23C186.2 140.48 202.79 155.37 215.69 172.19C237.97 201.25 275.74 285 242.09 317.62C200.58 357.86 151.72 284.57 128.99 256.8Z" fill="#00C7FD"/>
<path d="M230.93 108.16C219.77 130.62 219.44 158.63 232.93 179.83C246.41 201.03 277.36 212.8 300.91 201.42C323.88 190.33 331.96 163.81 337.73 140.22C342.47 120.83 344.19 105.4 348.93 86.0095C354.08 64.9295 370.4 -25.1805 315.01 10.4595C299.46 20.4695 281.26 37.2895 269.46 51.8195C249.48 76.4195 246.5 76.8295 230.94 108.16H230.93Z" fill="#0095CA"/>
<path d="M118.64 381.07C107.25 360.21 88.0402 339.55 64.3302 341.2C54.2102 341.91 41.2802 345.55 35.9802 336.9C31.2202 329.14 38.2902 319.55 45.4202 313.9C86.5402 281.3 148.17 277.44 193.04 304.65C228.52 326.17 278.18 394.33 242.17 434.2C191.76 490.02 140.63 421.35 118.64 381.07Z" fill="#005B85"/>
<path d="M418.31 156.26C431.26 151.72 449.23 148.74 461.29 157.69C469.51 163.8 470.87 173.24 467.35 180.14C463.83 187.04 456.44 191.97 449.23 196.71C395.34 232.16 341.03 267.29 287.52 303.05C280.27 307.9 270.65 301.57 272.43 293.03C277.59 268.37 300.66 242.24 314.86 225.2C338.84 196.45 374.91 168.93 418.31 156.25V156.26Z" fill="#005B85"/>
<path d="M402.26 351.03C388.47 374.14 376.74 391.18 363.19 405.77C349.64 420.36 311.62 459.07 292.23 455.56C271.94 451.89 274.32 409.24 274.96 388.92C276.03 354.8 282.01 342.8 289.96 323.73C303.69 290.78 349.02 222.76 393.08 234.02C447.44 247.92 420.17 321.02 402.26 351.03Z" fill="#00C7FD"/>
<path d="M266.53 553.23C265.88 553.23 265.33 552.73 265.28 552.07C260.22 479.63 258.1 406.12 258.99 333.56C260.16 238.33 267.77 138.87 315.09 56.5603C315.43 55.9603 316.2 55.7503 316.8 56.1003C317.4 56.4403 317.6 57.2103 317.26 57.8103C270.22 139.63 262.66 238.71 261.49 333.6C260.6 406.09 262.71 479.53 267.77 551.9C267.82 552.59 267.3 553.19 266.61 553.23C266.58 553.23 266.55 553.23 266.52 553.23H266.53Z" fill="#6DDCFF"/>
<path d="M263.52 502.61C262.95 502.61 262.43 502.21 262.3 501.63C253.79 462.8 235.08 425.69 208.22 394.31C181.35 362.93 147.57 338.74 110.51 324.34C109.87 324.09 109.55 323.37 109.8 322.72C110.05 322.08 110.77 321.76 111.42 322.01C148.86 336.55 182.99 360.99 210.12 392.68C237.25 424.37 256.14 461.86 264.74 501.09C264.89 501.76 264.46 502.43 263.79 502.58C263.7 502.6 263.61 502.61 263.52 502.61Z" fill="#6DDCFF"/>
<path d="M261.43 540.24C261.37 540.24 261.31 540.24 261.25 540.23C260.57 540.13 260.09 539.5 260.19 538.81C267.05 491.19 279.98 456.43 297.48 412.52C316 366.07 338.95 327.73 371.88 288.21C372.32 287.68 373.11 287.61 373.64 288.05C374.17 288.49 374.24 289.28 373.8 289.81C341.04 329.12 318.22 367.25 299.8 413.45C282.36 457.2 269.48 491.82 262.66 539.17C262.57 539.79 262.04 540.24 261.42 540.24H261.43Z" fill="#6DDCFF"/>
<path d="M260 360.43C259.45 360.43 258.95 360.07 258.8 359.51C242.98 302.14 206.71 257.48 168.31 210.21C160.78 200.94 152.99 191.35 145.48 181.77C145.05 181.23 145.15 180.44 145.69 180.01C146.23 179.58 147.02 179.68 147.44 180.22C154.94 189.77 162.72 199.36 170.25 208.62C207.12 254.02 245.25 300.96 261.21 358.84C261.39 359.51 261 360.19 260.34 360.38C260.23 360.41 260.12 360.43 260.01 360.43H260Z" fill="#6DDCFF"/>
<path d="M260.8 332.19C260.63 332.19 260.46 332.15 260.29 332.08C259.66 331.8 259.38 331.06 259.66 330.43C274.75 296.85 296.37 266.94 323.92 241.52C351.04 216.5 382.53 197.07 417.52 183.77C418.17 183.52 418.89 183.85 419.13 184.49C419.38 185.14 419.05 185.86 418.41 186.1C383.72 199.28 352.5 218.54 325.62 243.35C298.32 268.54 276.9 298.18 261.94 331.45C261.73 331.91 261.28 332.19 260.8 332.19Z" fill="#6DDCFF"/>
<path d="M363.01 795.76C358.23 813.13 343.23 825.75 325.3 827.48C306.63 829.27 283.07 831.16 266.52 831.16C248.33 831.16 227.38 829.51 210.78 827.82C192.93 826.01 178.03 813.42 173.26 796.12L104.12 544.94C101 533.59 109.54 522.38 121.31 522.38H414.85C426.63 522.38 435.17 533.59 432.04 544.94L363 795.76H363.01Z" fill="#FF8F51"/>
<path d="M433.7 522.37H102.46C96.5893 522.37 91.8301 527.129 91.8301 533V598.2C91.8301 604.071 96.5893 608.83 102.46 608.83H433.7C439.571 608.83 444.33 604.071 444.33 598.2V533C444.33 527.129 439.571 522.37 433.7 522.37Z" fill="#FFC599"/>
<path d="M13.4498 139.82C18.3541 139.82 22.3298 135.844 22.3298 130.94C22.3298 126.035 18.3541 122.06 13.4498 122.06C8.54553 122.06 4.56982 126.035 4.56982 130.94C4.56982 135.844 8.54553 139.82 13.4498 139.82Z" fill="#0095CA"/>
<path d="M457.07 364.88C461.974 364.88 465.95 360.904 465.95 356C465.95 351.096 461.974 347.12 457.07 347.12C452.166 347.12 448.19 351.096 448.19 356C448.19 360.904 452.166 364.88 457.07 364.88Z" fill="#0095CA"/>
<path d="M458.8 438.18C465.648 438.18 471.2 432.628 471.2 425.78C471.2 418.932 465.648 413.38 458.8 413.38C451.952 413.38 446.4 418.932 446.4 425.78C446.4 432.628 451.952 438.18 458.8 438.18Z" fill="#FF8F51"/>
<path d="M61.0997 415.989C67.948 415.989 73.4997 410.438 73.4997 403.589C73.4997 396.741 67.948 391.189 61.0997 391.189C54.2514 391.189 48.6997 396.741 48.6997 403.589C48.6997 410.438 54.2514 415.989 61.0997 415.989Z" fill="#0095CA"/>
<path d="M142.42 29.2699C150.456 29.2699 156.97 22.7557 156.97 14.7199C156.97 6.68418 150.456 0.169922 142.42 0.169922C134.384 0.169922 127.87 6.68418 127.87 14.7199C127.87 22.7557 134.384 29.2699 142.42 29.2699Z" fill="#E96115"/>
</svg>
