<svg width="212" height="120" viewBox="0 0 1210 912" fill="none" xmlns="http://www.w3.org/2000/svg">
<path opacity="0.08" d="M1188.38 807.04C1187.79 806.89 1180.39 805.58 1179.8 805.52C815.97 771.23 494.78 789.73 126.85 801.2C98.4702 802.08 69.1002 803.14 43.5202 812.21C17.9402 821.27 -2.8698 840.67 1.3302 860.5C5.7402 881.33 35.9002 895.01 65.4802 897.26C95.0602 899.51 124.63 893.18 153.79 888.42C319.15 861.39 490.15 883.76 657.29 899.55C824.43 915.33 1002.61 923.26 1155.96 870.87C1172.88 865.09 1189.99 858.21 1200.59 847.21C1209.6 837.86 1212.27 825 1205.15 815.25C1200.98 809.55 1194.36 808.54 1188.38 807.04Z" fill="white"/>
<path d="M383.49 237.02C404.62 212.51 433.55 194.49 445.32 165.28C457.09 136.08 457.69 101.49 438.51 76.3201C419.32 51.1601 380.79 29.8801 349.79 59.2401C330.33 77.6701 321.25 103.04 318.94 128.61C315.07 171.48 316.31 214.65 322.65 257.1L383.5 237.02H383.49Z" fill="#0095CA"/>
<path d="M291.95 203.65C288.31 184.94 290.89 165.63 291.19 146.55C291.49 127.47 289.12 107.43 277.09 92.0401C265.06 76.6401 240.85 67.8901 222.13 76.9701C208.91 83.3801 201.35 97.1001 200.03 110.55C198.71 123.99 202.71 137.28 207.63 149.89C219.63 180.63 237.35 209.43 259.83 234.71L291.96 203.66L291.95 203.65Z" fill="#00C7FD"/>
<path d="M203.75 285.73C204.66 263 196.38 240.26 180.84 222.76C172.11 212.94 160.86 204.6 147.49 200.89C134.12 197.19 118.5 198.65 107.24 206.54C84.8703 222.21 89.5703 255.97 109.3 273.53C129.02 291.08 157.28 288.68 184.57 293.58L203.76 285.73H203.75Z" fill="#0095CA"/>
<path d="M383.73 299.011C397.6 281.191 416.13 266.331 437.31 256.051C446.3 251.681 456.77 248.071 466.35 250.801C479.15 254.451 485.1 268.241 484.21 280.491C483.01 297.041 471.81 312.921 455.65 320.971C439.49 329.021 418.93 328.961 403.23 320.821L383.73 299.021V299.011Z" fill="#00C7FD"/>
<path d="M365.99 538.841L239.76 548.101C227.93 512.601 177.01 409.071 180.09 331.821C181.75 290.171 192.74 245.041 227.37 218.531C272.67 183.851 345.16 196.651 383.49 237.021C421.82 277.401 427.41 320.911 416.28 374.541C405.38 427.051 365.99 498.791 365.99 538.841Z" fill="#00C7FD"/>
<path d="M352.914 274.333C358.257 273.712 362.133 269.286 361.57 264.447C361.008 259.609 356.221 256.19 350.877 256.811C345.534 257.432 341.658 261.858 342.221 266.697C342.783 271.535 347.571 274.954 352.914 274.333Z" fill="#A0EBFF"/>
<path d="M368.301 402.431C373.644 401.81 377.52 397.384 376.958 392.545C376.395 387.707 371.608 384.288 366.264 384.909C360.921 385.53 357.046 389.956 357.608 394.794C358.17 399.633 362.958 403.052 368.301 402.431Z" fill="#A0EBFF"/>
<path d="M288.949 357.025C294.292 356.404 298.168 351.978 297.605 347.14C297.043 342.301 292.255 338.882 286.912 339.503C281.569 340.124 277.693 344.55 278.256 349.389C278.818 354.227 283.606 357.646 288.949 357.025Z" fill="#A0EBFF"/>
<path d="M256.53 269.851C261.873 269.23 265.749 264.804 265.187 259.965C264.624 255.126 259.837 251.707 254.493 252.329C249.15 252.95 245.275 257.376 245.837 262.214C246.399 267.053 251.187 270.472 256.53 269.851Z" fill="#A0EBFF"/>
<path d="M222.565 421.827C227.908 421.206 231.784 416.78 231.221 411.942C230.659 407.103 225.871 403.684 220.528 404.305C215.185 404.926 211.309 409.352 211.871 414.191C212.434 419.029 217.221 422.448 222.565 421.827Z" fill="#A0EBFF"/>
<path d="M320.109 481.904C325.452 481.283 329.328 476.857 328.766 472.019C328.203 467.18 323.416 463.761 318.072 464.382C312.729 465.003 308.853 469.429 309.416 474.268C309.978 479.106 314.766 482.525 320.109 481.904Z" fill="#A0EBFF"/>
<path d="M387.755 102.09C393.098 101.469 396.973 97.0429 396.411 92.2043C395.849 87.3657 391.061 83.9468 385.718 84.5678C380.375 85.1889 376.499 89.6148 377.061 94.4534C377.624 99.292 382.411 102.711 387.755 102.09Z" fill="#A0EBFF"/>
<path d="M364.386 193.687C369.729 193.065 373.605 188.64 373.042 183.801C372.48 178.962 367.692 175.543 362.349 176.165C357.006 176.786 353.13 181.212 353.692 186.05C354.255 190.889 359.042 194.308 364.386 193.687Z" fill="#A0EBFF"/>
<path d="M415.373 151.402C420.716 150.781 424.592 146.355 424.03 141.517C423.467 136.678 418.68 133.259 413.336 133.88C407.993 134.501 404.118 138.927 404.68 143.766C405.242 148.604 410.03 152.023 415.373 151.402Z" fill="#A0EBFF"/>
<path d="M244.691 116.731C250.034 116.109 253.909 111.684 253.347 106.845C252.785 102.006 247.997 98.5874 242.654 99.2085C237.311 99.8295 233.435 104.255 233.997 109.094C234.56 113.933 239.347 117.352 244.691 116.731Z" fill="#A0EBFF"/>
<path d="M256.087 173.754C261.431 173.133 265.306 168.707 264.744 163.868C264.182 159.03 259.394 155.611 254.051 156.232C248.708 156.853 244.832 161.279 245.394 166.117C245.957 170.956 250.744 174.375 256.087 173.754Z" fill="#A0EBFF"/>
<path d="M132.263 261.037C137.606 260.416 141.482 255.99 140.919 251.152C140.357 246.313 135.569 242.894 130.226 243.515C124.883 244.136 121.007 248.562 121.57 253.401C122.132 258.239 126.92 261.658 132.263 261.037Z" fill="#A0EBFF"/>
<path d="M453.834 296.622C459.177 296.001 463.053 291.575 462.49 286.737C461.928 281.898 457.14 278.479 451.797 279.1C446.454 279.721 442.578 284.147 443.14 288.986C443.703 293.824 448.49 297.243 453.834 296.622Z" fill="#A0EBFF"/>
<path d="M399.11 796.191C394.33 813.561 379.33 826.181 361.4 827.911C342.73 829.701 319.17 831.591 302.62 831.591C284.43 831.591 263.48 829.941 246.88 828.251C229.03 826.441 214.13 813.851 209.36 796.551L142.17 552.461C138.06 537.541 149.29 522.801 164.77 522.801H443.6C459.08 522.801 470.3 537.531 466.2 552.461L399.11 796.191Z" fill="#FF8F51"/>
<path d="M469.8 522.811H138.56C132.689 522.811 127.93 527.57 127.93 533.441V598.641C127.93 604.511 132.689 609.271 138.56 609.271H469.8C475.671 609.271 480.43 604.511 480.43 598.641V533.441C480.43 527.57 475.671 522.811 469.8 522.811Z" fill="#FFC599"/>
<path d="M469.8 522.811H138.56C132.689 522.811 127.93 527.57 127.93 533.441V598.641C127.93 604.511 132.689 609.271 138.56 609.271H469.8C475.671 609.271 480.43 604.511 480.43 598.641V533.441C480.43 527.57 475.671 522.811 469.8 522.811Z" fill="#FFC599"/>
<path d="M769.69 257.24C756.85 241.57 744.37 224.94 738.49 205.55C732.61 186.16 734.48 163.29 747.98 148.19C762.11 132.39 786.38 128.43 806.64 134.67C826.9 140.92 843.49 155.81 856.39 172.63C878.67 201.69 916.44 285.44 882.79 318.06C841.28 358.3 792.42 285.01 769.69 257.24Z" fill="#00C7FD"/>
<path d="M871.64 108.59C860.48 131.05 860.15 159.06 873.64 180.26C887.12 201.46 918.07 213.23 941.62 201.85C964.59 190.76 972.67 164.24 978.44 140.65C983.18 121.26 984.9 105.83 989.64 86.4402C994.79 65.3602 1011.11 -24.7498 955.72 10.8902C940.17 20.9002 921.97 37.7202 910.17 52.2502C890.19 76.8502 887.21 77.2602 871.65 108.59H871.64Z" fill="#0095CA"/>
<path d="M759.34 381.501C747.95 360.641 728.74 339.981 705.03 341.631C694.91 342.341 681.98 345.981 676.68 337.331C671.92 329.571 678.99 319.981 686.12 314.331C727.24 281.731 788.87 277.871 833.74 305.081C869.22 326.601 918.88 394.761 882.87 434.631C832.46 490.451 781.33 421.781 759.34 381.501Z" fill="#005B85"/>
<path d="M1059.01 156.7C1071.96 152.16 1089.93 149.18 1101.99 158.13C1110.21 164.24 1111.57 173.68 1108.05 180.58C1104.53 187.48 1097.14 192.41 1089.93 197.15C1036.04 232.6 981.73 267.73 928.22 303.49C920.97 308.34 911.35 302.01 913.13 293.47C918.29 268.81 941.36 242.68 955.56 225.64C979.54 196.89 1015.61 169.37 1059.01 156.69V156.7Z" fill="#005B85"/>
<path d="M1042.97 351.471C1029.18 374.581 1017.45 391.621 1003.9 406.211C990.35 420.801 952.33 459.511 932.94 456.001C912.65 452.331 915.03 409.681 915.67 389.361C916.74 355.241 922.72 343.241 930.67 324.171C944.4 291.221 989.73 223.201 1033.79 234.461C1088.15 248.361 1060.88 321.461 1042.97 351.471Z" fill="#00C7FD"/>
<path d="M907.24 553.66C906.59 553.66 906.04 553.16 905.99 552.5C900.93 480.06 898.81 406.55 899.7 333.99C900.87 238.76 908.48 139.29 955.8 56.99C956.14 56.39 956.91 56.18 957.51 56.53C958.11 56.87 958.31 57.64 957.97 58.24C910.93 140.05 903.37 239.14 902.2 334.03C901.31 406.52 903.42 479.96 908.48 552.33C908.53 553.02 908.01 553.62 907.32 553.66C907.29 553.66 907.26 553.66 907.23 553.66H907.24Z" fill="#6DDCFF"/>
<path d="M904.22 503.051C903.65 503.051 903.13 502.651 903 502.071C894.49 463.241 875.78 426.131 848.92 394.751C822.05 363.371 788.27 339.181 751.21 324.781C750.57 324.531 750.25 323.811 750.5 323.161C750.75 322.511 751.48 322.201 752.12 322.451C789.56 336.991 823.69 361.431 850.82 393.121C877.95 424.811 896.84 462.301 905.44 501.531C905.59 502.201 905.16 502.871 904.49 503.021C904.4 503.041 904.31 503.051 904.22 503.051Z" fill="#6DDCFF"/>
<path d="M902.14 540.67C902.08 540.67 902.02 540.67 901.96 540.66C901.28 540.56 900.8 539.93 900.9 539.24C907.76 491.62 920.68 456.86 938.19 412.95C956.71 366.5 979.66 328.16 1012.59 288.64C1013.03 288.11 1013.82 288.04 1014.35 288.48C1014.88 288.92 1014.95 289.71 1014.51 290.24C981.75 329.55 958.93 367.68 940.51 413.88C923.07 457.63 910.19 492.26 903.37 539.6C903.28 540.22 902.75 540.67 902.13 540.67H902.14Z" fill="#6DDCFF"/>
<path d="M900.71 360.86C900.16 360.86 899.66 360.5 899.51 359.94C883.69 302.57 847.42 257.92 809.03 210.64C801.5 201.36 793.71 191.77 786.19 182.2C785.76 181.66 785.86 180.87 786.4 180.44C786.94 180.01 787.73 180.11 788.15 180.65C795.65 190.21 803.43 199.79 810.96 209.06C847.83 254.46 885.96 301.4 901.91 359.27C902.09 359.94 901.7 360.62 901.04 360.81C900.93 360.84 900.82 360.86 900.71 360.86Z" fill="#6DDCFF"/>
<path d="M901.51 332.631C901.34 332.631 901.17 332.591 901 332.521C900.37 332.241 900.09 331.501 900.37 330.871C915.46 297.291 937.08 267.381 964.63 241.961C991.75 216.941 1023.24 197.511 1058.23 184.211C1058.88 183.961 1059.6 184.291 1059.84 184.931C1060.09 185.581 1059.76 186.301 1059.12 186.541C1024.43 199.721 993.21 218.981 966.33 243.791C939.03 268.981 917.61 298.621 902.65 331.891C902.44 332.351 901.99 332.631 901.51 332.631Z" fill="#6DDCFF"/>
<path d="M1003.71 796.191C998.93 813.561 983.93 826.181 966 827.911C948.07 829.641 923.77 831.591 907.22 831.591C889.03 831.591 868.08 829.941 851.48 828.251C833.63 826.441 818.73 813.851 813.96 796.551L742.18 535.771C740.38 529.251 745.29 522.811 752.06 522.811H1065.51C1072.27 522.811 1077.18 529.251 1075.39 535.771L1003.71 796.191Z" fill="#FF8F51"/>
<path d="M1074.41 522.811H743.17C737.299 522.811 732.54 527.57 732.54 533.441V598.641C732.54 604.511 737.299 609.271 743.17 609.271H1074.41C1080.28 609.271 1085.04 604.511 1085.04 598.641V533.441C1085.04 527.57 1080.28 522.811 1074.41 522.811Z" fill="#FFC599"/>
<path d="M654.15 140.26C659.055 140.26 663.03 136.284 663.03 131.38C663.03 126.476 659.055 122.5 654.15 122.5C649.246 122.5 645.27 126.476 645.27 131.38C645.27 136.284 649.246 140.26 654.15 140.26Z" fill="#0095CA"/>
<path d="M1097.77 365.311C1102.67 365.311 1106.65 361.335 1106.65 356.431C1106.65 351.526 1102.67 347.551 1097.77 347.551C1092.87 347.551 1088.89 351.526 1088.89 356.431C1088.89 361.335 1092.87 365.311 1097.77 365.311Z" fill="#0095CA"/>
<path d="M1099.51 438.611C1106.36 438.611 1111.91 433.059 1111.91 426.211C1111.91 419.362 1106.36 413.811 1099.51 413.811C1092.66 413.811 1087.11 419.362 1087.11 426.211C1087.11 433.059 1092.66 438.611 1099.51 438.611Z" fill="#FF8F51"/>
<path d="M701.81 416.42C708.659 416.42 714.21 410.868 714.21 404.02C714.21 397.172 708.659 391.62 701.81 391.62C694.962 391.62 689.41 397.172 689.41 404.02C689.41 410.868 694.962 416.42 701.81 416.42Z" fill="#0095CA"/>
<path d="M783.12 29.7104C791.156 29.7104 797.67 23.1961 797.67 15.1604C797.67 7.12461 791.156 0.610352 783.12 0.610352C775.085 0.610352 768.57 7.12461 768.57 15.1604C768.57 23.1961 775.085 29.7104 783.12 29.7104Z" fill="#E96115"/>
</svg>
