<svg width="212" height="120" viewBox="0 0 1100 1100" fill="none" xmlns="http://www.w3.org/2000/svg">
<path d="M479.88 910.14C544.6 781.62 794.79 573.19 794.79 573.19L889.28 503.21C946.03 461.18 972.31 388.51 953.2 320.53C945.51 293.17 930.91 267.35 909.39 245.83L901.12 237.56L852.28 188.72L844.01 180.45C822.49 158.93 796.67 144.32 769.31 136.64C701.33 117.54 628.66 143.82 586.63 200.56L516.65 295.05C516.65 295.05 308.22 545.24 179.7 609.96C101.22 649.48 113.79 771.21 175.92 833.34L191.79 849.21L240.63 898.05L256.5 913.92C318.63 976.05 440.36 988.62 479.88 910.14Z" fill="#0095CA"/>
<path d="M862.98 461.5C888.2 427.01 920.96 364.8 917.51 322.22C914.35 283.29 889.3 268.33 858.4 232.3L858.47 232.24C858.31 232.1 858.15 231.96 857.99 231.82C857.85 231.66 857.71 231.5 857.57 231.34L857.51 231.41C821.48 200.52 806.52 175.46 767.59 172.3C725 168.85 662.79 201.61 628.31 226.83C589.6 255.13 537.57 333.26 506.21 369.53C411.77 478.79 337.64 546.54 243.2 655.81C230.17 670.89 216.76 686.65 211.43 705.86C205.17 728.47 212.91 753.5 228.79 770.55L228.64 770.7L319.74 861.8L319.91 861.63C336.95 877.09 361.62 884.56 383.93 878.38C403.14 873.06 418.9 859.65 433.98 846.61C543.24 752.17 611.38 678.42 720.64 583.98C756.92 552.62 834.66 500.21 862.96 461.5H862.98ZM846.12 243.69L844.73 245.18L844.62 245.07L846.12 243.68V243.69Z" fill="#00C7FD"/>
<path d="M236.29 619.809C255.58 644.399 294.49 569.389 315.38 548.499C362.98 500.899 371.98 502.439 397 477.259C421.38 452.729 444.71 427.149 466.89 400.609C477.92 387.419 516.71 342.009 536.87 312.309C539.3 308.729 534.57 304.659 531.39 307.589C437.49 394.109 312.53 526.289 236.29 619.799V619.809Z" fill="#005B85"/>
<path d="M472.15 855.66C447.56 836.37 522.57 797.46 543.46 776.57C591.06 728.97 589.52 719.97 614.7 694.95C639.23 670.57 664.81 647.24 691.35 625.06C704.54 614.03 749.95 575.24 779.65 555.08C783.23 552.65 787.3 557.38 784.37 560.56C697.85 654.46 565.67 779.42 472.16 855.66H472.15Z" fill="#005B85"/>
<path d="M506.34 255.1C496.08 255.54 486.03 259.2 477.75 265.26C471.1 270.13 471.19 279.96 477.94 284.71C487.07 291.13 497.46 295.75 508.36 298.16C553.44 308.13 553.68 253.09 506.34 255.1Z" fill="#00C7FD"/>
<path d="M836.18 584.94C835.74 595.42 831.92 605.68 825.63 614.05C820.96 620.26 811.37 620.07 806.86 613.74C800.29 604.51 795.57 593.969 793.12 582.909C783.15 537.829 838.19 537.59 836.18 584.93V584.94Z" fill="#00C7FD"/>
<mask id="mask0_40585_14509" style="mask-type:luminance" maskUnits="userSpaceOnUse" x="209" y="172" width="709" height="709">
<path d="M862.98 461.5C888.2 427.01 920.96 364.8 917.51 322.22C914.35 283.29 889.3 268.33 858.4 232.3L858.47 232.24C858.31 232.1 858.15 231.96 857.99 231.82C857.85 231.66 857.71 231.5 857.57 231.34L857.51 231.41C821.48 200.52 806.52 175.46 767.59 172.3C725 168.85 662.79 201.61 628.31 226.83C589.6 255.13 537.57 333.26 506.21 369.53C411.77 478.79 337.64 546.54 243.2 655.81C230.17 670.89 216.76 686.65 211.43 705.86C205.17 728.47 212.91 753.5 228.79 770.55L228.64 770.7L319.74 861.8L319.91 861.63C336.95 877.09 361.62 884.56 383.93 878.38C403.14 873.06 418.9 859.65 433.98 846.61C543.24 752.17 611.38 678.42 720.64 583.98C756.92 552.62 834.66 500.21 862.96 461.5H862.98ZM846.12 243.69L844.73 245.18L844.62 245.07L846.12 243.68V243.69Z" fill="white"/>
</mask>
<g mask="url(#mask0_40585_14509)">
<path d="M722.16 585.48C722.16 585.48 699.87 535.58 626.61 462.33C571.41 407.13 507.71 371.03 507.71 371.03L603.11 243.49C603.11 243.49 687.13 238.33 769.93 321.14C854.86 406.07 849.7 490.08 849.7 490.08L722.16 585.48Z" fill="#005B85"/>
<path d="M274.16 604.59C274.16 604.59 296.45 654.49 369.71 727.74C424.91 782.94 488.61 819.04 488.61 819.04L393.21 946.58C393.21 946.58 309.19 951.74 226.39 868.93C141.46 784 146.62 699.99 146.62 699.99L274.16 604.59Z" fill="#005B85"/>
</g>
<path d="M238 851.71C231.82 844.45 224.03 837.23 215.78 829.59C192.35 807.87 165.79 783.25 176 753.43C179.32 743.74 174.74 732.13 169.9 719.84C163.75 704.22 156.77 686.52 165.13 669.34C185.46 627.55 220.56 608.33 248.76 592.9C255.92 588.98 262.68 585.28 268.47 581.57L269.69 583.48C263.84 587.23 257.04 590.95 249.85 594.89C221.93 610.17 187.19 629.19 167.17 670.33C159.25 686.61 165.74 703.08 172.01 719C177.01 731.69 181.74 743.68 178.15 754.16C168.42 782.58 193.28 805.62 217.32 827.91C225.62 835.6 233.45 842.87 239.72 850.23L237.99 851.7L238 851.71Z" fill="#005B85"/>
<path d="M403.42 928.56C391.87 928.56 380.47 924.07 370 919.94C357.71 915.1 346.1 910.52 336.41 913.84C331.9 915.38 327.51 916.09 323.23 916.09C299.21 916.09 278.69 893.95 260.25 874.06C252.61 865.81 245.38 858.02 238.13 851.84L239.6 850.11C246.96 856.38 254.22 864.21 261.91 872.51C284.2 896.55 307.25 921.42 335.66 911.69C346.14 908.1 358.13 912.83 370.82 917.83C386.74 924.1 403.21 930.59 419.49 922.67C460.63 902.65 479.65 867.91 494.93 839.99C498.87 832.79 502.59 826 506.34 820.14L508.25 821.37C504.55 827.16 500.84 833.92 496.92 841.08C481.48 869.28 462.27 904.37 420.48 924.71C414.81 927.47 409.09 928.56 403.4 928.56H403.42Z" fill="#005B85"/>
<path d="M290.522 851.331L238.507 799.316C235.867 796.676 231.589 796.675 228.951 799.313C226.313 801.951 226.314 806.229 228.954 808.869L280.969 860.884C283.609 863.524 287.888 863.525 290.526 860.887C293.164 858.249 293.162 853.971 290.522 851.331Z" fill="#E96115"/>
<mask id="mask1_40585_14509" style="mask-type:luminance" maskUnits="userSpaceOnUse" x="125" y="130" width="835" height="835">
<path d="M479.88 910.14C544.6 781.62 794.79 573.19 794.79 573.19L889.28 503.21C946.03 461.18 972.31 388.51 953.2 320.53C945.51 293.17 930.91 267.35 909.39 245.83L901.12 237.56L852.28 188.72L844.01 180.45C822.49 158.93 796.67 144.32 769.31 136.64C701.33 117.54 628.66 143.82 586.63 200.56L516.65 295.05C516.65 295.05 308.22 545.24 179.7 609.96C101.22 649.48 113.79 771.21 175.92 833.34L191.79 849.21L240.63 898.05L256.5 913.92C318.63 976.05 440.36 988.62 479.88 910.14Z" fill="white"/>
</mask>
<g mask="url(#mask1_40585_14509)">
<path d="M772.59 155.69C811.244 155.69 842.58 135.525 842.58 110.65C842.58 85.7754 811.244 65.6104 772.59 65.6104C733.936 65.6104 702.6 85.7754 702.6 110.65C702.6 135.525 733.936 155.69 772.59 155.69Z" fill="#D2F9FF"/>
<path d="M978.54 386.59C1003.42 386.59 1023.58 355.255 1023.58 316.6C1023.58 277.946 1003.42 246.61 978.54 246.61C953.665 246.61 933.5 277.946 933.5 316.6C933.5 355.255 953.665 386.59 978.54 386.59Z" fill="#D2F9FF"/>
<path d="M129.808 822.122C146.026 817.777 153.562 793.315 146.641 767.484C139.719 741.654 120.962 724.237 104.744 728.582C88.527 732.928 80.991 757.39 87.9123 783.22C94.8335 809.051 113.591 826.468 129.808 822.122Z" fill="#FF8F51"/>
<path d="M360.608 984.44C364.954 968.223 347.536 949.465 321.706 942.544C295.876 935.623 271.413 943.159 267.068 959.376C262.722 975.593 280.139 994.351 305.97 1001.27C331.8 1008.19 356.263 1000.66 360.608 984.44Z" fill="#FF8F51"/>
</g>
<path d="M386.38 1099.87L358.04 1071.52L365.82 1063.73L386.38 1084.29L406.94 1063.73L414.73 1071.52L386.38 1099.87Z" fill="#FF5662"/>
<path d="M310.96 1024.44L263.88 977.36L271.67 969.57L318.75 1016.65L310.96 1024.44ZM216.8 930.28L169.72 883.2L177.51 875.41L224.59 922.49L216.8 930.28ZM122.64 836.12L75.5601 789.04L83.3501 781.25L130.43 828.33L122.64 836.12Z" fill="#FF5662"/>
<path d="M28.48 741.96L0.130005 713.62L28.48 685.27L36.27 693.06L15.71 713.62L36.27 734.18L28.48 741.96Z" fill="#FF5662"/>
<path d="M86.79 642.54L79 634.75L129.52 584.23L137.31 592.02L86.79 642.54ZM187.83 541.5L180.04 533.71L230.56 483.19L238.35 490.98L187.83 541.5ZM288.87 440.46L281.08 432.67L331.6 382.15L339.39 389.94L288.87 440.46ZM389.91 339.42L382.12 331.63L432.64 281.11L440.43 288.9L389.91 339.42ZM490.95 238.38L483.16 230.59L533.68 180.07L541.47 187.86L490.95 238.38ZM591.99 137.34L584.2 129.55L634.72 79.0303L642.51 86.8203L591.99 137.34Z" fill="#FF5662"/>
<path d="M693.06 36.2699L685.27 28.4799L713.62 0.129883L741.96 28.4799L734.18 36.2699L713.62 15.7099L693.06 36.2699Z" fill="#FF5662"/>
<path d="M1016.65 318.74L969.57 271.66L977.36 263.87L1024.44 310.95L1016.65 318.74ZM922.49 224.58L875.41 177.5L883.2 169.71L930.28 216.79L922.49 224.58ZM828.33 130.42L781.25 83.3398L789.04 75.5498L836.12 122.63L828.33 130.42Z" fill="#FF5662"/>
<path d="M1071.52 414.73L1063.73 406.94L1084.29 386.38L1063.73 365.82L1071.52 358.04L1099.87 386.38L1071.52 414.73Z" fill="#FF5662"/>
<path d="M465.25 1021L457.46 1013.21L507.98 962.69L515.77 970.48L465.25 1021ZM566.29 919.96L558.5 912.17L609.02 861.65L616.81 869.44L566.29 919.96ZM667.33 818.92L659.54 811.13L710.06 760.61L717.85 768.4L667.33 818.92ZM768.37 717.88L760.58 710.09L811.1 659.57L818.89 667.36L768.37 717.88ZM869.41 616.84L861.62 609.05L912.14 558.53L919.93 566.32L869.41 616.84ZM970.45 515.8L962.66 508.01L1013.18 457.49L1020.97 465.28L970.45 515.8Z" fill="#FF5662"/>
</svg>
