<svg width="212" height="120" viewBox="0 0 934 922" fill="none" xmlns="http://www.w3.org/2000/svg">
<path d="M404.2 822.151C468.92 693.631 719.11 485.201 719.11 485.201L813.6 415.221C870.35 373.191 896.63 300.521 877.52 232.541C869.83 205.181 855.23 179.361 833.71 157.841L825.44 149.571L776.6 100.731L768.33 92.4607C746.81 70.9407 720.99 56.3307 693.63 48.6507C625.65 29.5507 552.98 55.8307 510.95 112.571L440.97 207.061C440.97 207.061 232.54 457.251 104.02 521.971C25.54 561.491 38.11 683.221 100.24 745.351L116.11 761.221L164.95 810.061L180.82 825.931C242.95 888.061 364.68 900.631 404.2 822.151Z" fill="#0095CA"/>
<mask id="mask0_40585_14474" style="mask-type:luminance" maskUnits="userSpaceOnUse" x="49" y="42" width="835" height="835">
<path d="M404.2 822.151C468.92 693.631 719.11 485.201 719.11 485.201L813.6 415.221C870.35 373.191 896.63 300.521 877.52 232.541C869.83 205.181 855.23 179.361 833.71 157.841L825.44 149.571L776.6 100.731L768.33 92.4607C746.81 70.9407 720.99 56.3307 693.63 48.6507C625.65 29.5507 552.98 55.8307 510.95 112.571L440.97 207.061C440.97 207.061 232.54 457.251 104.02 521.971C25.54 561.491 38.11 683.221 100.24 745.351L116.11 761.221L164.95 810.061L180.82 825.931C242.95 888.061 364.68 900.631 404.2 822.151Z" fill="white"/>
</mask>
<g mask="url(#mask0_40585_14474)">
<path d="M696.91 67.7011C735.564 67.7011 766.9 47.536 766.9 22.6611C766.9 -2.21381 735.564 -22.3789 696.91 -22.3789C658.256 -22.3789 626.92 -2.21381 626.92 22.6611C626.92 47.536 658.256 67.7011 696.91 67.7011Z" fill="#D2F9FF"/>
<path d="M857.82 228.611C857.82 189.951 877.99 158.621 902.86 158.621C927.73 158.621 947.9 189.961 947.9 228.611C947.9 267.261 927.73 298.601 902.86 298.601C877.98 298.601 857.82 267.261 857.82 228.611Z" fill="#D2F9FF"/>
<path d="M54.1303 734.134C70.3477 729.789 77.8837 705.326 70.9625 679.496C64.0412 653.665 45.2837 636.248 29.0663 640.594C12.8489 644.939 5.31292 669.402 12.2342 695.232C19.1554 721.062 37.913 738.48 54.1303 734.134Z" fill="#FF8F51"/>
<path d="M284.928 896.451C289.274 880.233 271.857 861.476 246.026 854.555C220.196 847.633 195.733 855.169 191.388 871.387C187.042 887.604 204.459 906.362 230.29 913.283C256.12 920.204 280.583 912.668 284.928 896.451Z" fill="#FF8F51"/>
</g>
<path d="M787.3 373.51C812.52 339.02 845.28 276.81 841.83 234.23C838.67 195.3 813.62 180.34 782.72 144.31L782.79 144.25C782.63 144.11 782.47 143.97 782.31 143.83C782.17 143.67 782.03 143.51 781.89 143.35L781.83 143.42C745.8 112.53 730.84 87.4701 691.91 84.3101C649.32 80.8601 587.11 113.62 552.63 138.84C513.92 167.14 461.89 245.27 430.53 281.54C336.09 390.8 261.96 458.55 167.52 567.82C154.49 582.9 141.08 598.66 135.75 617.87C129.49 640.48 137.23 665.51 153.11 682.56L152.96 682.71L244.06 773.81L244.23 773.64C261.27 789.1 285.94 796.57 308.25 790.39C327.46 785.07 343.22 771.66 358.3 758.62C467.56 664.18 535.7 590.43 644.96 495.99C681.24 464.63 758.98 412.22 787.28 373.51H787.3ZM770.44 155.7L769.05 157.19L768.94 157.08L770.44 155.69V155.7Z" fill="#00C7FD"/>
<path d="M160.61 531.82C179.9 556.41 218.81 481.4 239.7 460.51C287.3 412.91 296.3 414.45 321.32 389.27C345.7 364.74 369.03 339.16 391.21 312.62C402.24 299.43 441.03 254.02 461.19 224.32C463.62 220.74 458.89 216.67 455.71 219.6C361.81 306.12 236.85 438.3 160.61 531.81V531.82Z" fill="#005B85"/>
<path d="M396.47 767.67C371.88 748.38 446.89 709.47 467.78 688.58C515.38 640.98 513.84 631.98 539.02 606.96C563.55 582.58 589.13 559.25 615.67 537.07C628.86 526.04 674.27 487.25 703.97 467.09C707.55 464.66 711.62 469.39 708.69 472.57C622.17 566.47 489.99 691.43 396.48 767.67H396.47Z" fill="#005B85"/>
<path d="M430.66 167.11C420.4 167.55 410.35 171.21 402.07 177.27C395.42 182.14 395.51 191.97 402.26 196.72C411.39 203.14 421.78 207.76 432.68 210.17C477.76 220.14 478 165.1 430.66 167.11Z" fill="#00C7FD"/>
<path d="M760.5 496.96C760.06 507.44 756.24 517.7 749.95 526.07C745.28 532.28 735.69 532.09 731.18 525.76C724.61 516.53 719.89 505.99 717.44 494.93C707.47 449.85 762.51 449.61 760.5 496.95V496.96Z" fill="#00C7FD"/>
<mask id="mask1_40585_14474" style="mask-type:luminance" maskUnits="userSpaceOnUse" x="133" y="84" width="710" height="709">
<path d="M787.3 373.51C812.52 339.02 845.28 276.81 841.83 234.23C838.67 195.3 813.62 180.34 782.72 144.31L782.79 144.25C782.63 144.11 782.47 143.97 782.31 143.83C782.17 143.67 782.03 143.51 781.89 143.35L781.83 143.42C745.8 112.53 730.84 87.4701 691.91 84.3101C649.32 80.8601 587.11 113.62 552.63 138.84C513.92 167.14 461.89 245.27 430.53 281.54C336.09 390.8 261.96 458.55 167.52 567.82C154.49 582.9 141.08 598.66 135.75 617.87C129.49 640.48 137.23 665.51 153.11 682.56L152.96 682.71L244.06 773.81L244.23 773.64C261.27 789.1 285.94 796.57 308.25 790.39C327.46 785.07 343.22 771.66 358.3 758.62C467.56 664.18 535.7 590.43 644.96 495.99C681.24 464.63 758.98 412.22 787.28 373.51H787.3ZM770.44 155.7L769.05 157.19L768.94 157.08L770.44 155.69V155.7Z" fill="white"/>
</mask>
<g mask="url(#mask1_40585_14474)">
<path d="M646.48 497.49C646.48 497.49 624.19 447.59 550.93 374.34C495.73 319.14 432.03 283.04 432.03 283.04L527.43 155.5C527.43 155.5 611.45 150.34 694.25 233.15C779.18 318.08 774.02 402.09 774.02 402.09L646.48 497.49Z" fill="#005B85"/>
<path d="M198.48 516.6C198.48 516.6 220.77 566.5 294.03 639.75C349.23 694.95 412.93 731.05 412.93 731.05L317.53 858.59C317.53 858.59 233.51 863.75 150.71 780.94C65.78 696.01 70.94 612 70.94 612L198.48 516.6Z" fill="#005B85"/>
</g>
<path d="M162.31 763.72C156.13 756.46 148.34 749.24 140.09 741.6C116.66 719.88 90.0999 695.26 100.31 665.44C103.63 655.75 99.0499 644.14 94.2099 631.85C88.0599 616.23 81.0799 598.53 89.4399 581.35C109.77 539.55 144.87 520.34 173.07 504.91C180.23 500.99 186.99 497.29 192.78 493.58L194 495.49C188.15 499.24 181.35 502.96 174.16 506.9C146.24 522.18 111.5 541.2 91.4799 582.35C83.5599 598.63 90.0499 615.1 96.3199 631.02C101.32 643.71 106.05 655.7 102.46 666.18C92.7299 694.6 117.59 717.64 141.63 739.93C149.93 747.62 157.76 754.89 164.03 762.25L162.3 763.72H162.31Z" fill="#005B85"/>
<path d="M327.74 840.571C316.18 840.571 304.78 836.081 294.32 831.951C282.03 827.111 270.42 822.531 260.73 825.851C256.22 827.391 251.83 828.101 247.55 828.101C223.53 828.101 203.01 805.961 184.57 786.071C176.92 777.821 169.7 770.031 162.45 763.851L163.92 762.121C171.28 768.391 178.54 776.231 186.24 784.521C208.53 808.561 231.58 833.421 259.99 823.691C270.47 820.101 282.46 824.831 295.15 829.831C311.07 836.101 327.54 842.591 343.82 834.671C384.96 814.651 403.98 779.911 419.26 751.991C423.2 744.791 426.92 738.001 430.67 732.141L432.58 733.371C428.88 739.161 425.17 745.921 421.25 753.081C405.81 781.281 386.6 816.381 344.81 836.711C339.14 839.471 333.42 840.561 327.73 840.561L327.74 840.571Z" fill="#005B85"/>
<path d="M214.844 763.342L162.829 711.327C160.189 708.687 155.911 708.685 153.273 711.323C150.635 713.961 150.636 718.24 153.276 720.88L205.291 772.895C207.931 775.535 212.209 775.536 214.847 772.898C217.485 770.26 217.484 765.982 214.844 763.342Z" fill="#E96115"/>
<path d="M933.28 921.18H883.22V907.42H919.53V871.12H933.28V921.18Z" fill="#FF5662"/>
<path d="M790.73 921.181H698.24V907.431H790.73V921.181ZM605.74 921.181H513.25V907.431H605.74V921.181ZM420.75 921.181H328.26V907.431H420.75V921.181ZM235.76 921.181H143.27V907.431H235.76V921.181Z" fill="#FF5662"/>
<path d="M50.78 921.18H0.719971V871.12H14.47V907.42H50.78V921.18Z" fill="#FF5662"/>
<path d="M14.47 779.98H0.719971V688.84H14.47V779.98ZM14.47 597.71H0.719971V506.57H14.47V597.71ZM14.47 415.44H0.719971V324.3H14.47V415.44ZM14.47 233.17H0.719971V142.03H14.47V233.17Z" fill="#FF5662"/>
<path d="M14.47 50.8803H0.719971V0.820312H50.78V14.5803H14.47V50.8803Z" fill="#FF5662"/>
<path d="M790.73 14.5801H698.24V0.830078H790.73V14.5801ZM605.74 14.5801H513.25V0.830078H605.74V14.5801ZM420.75 14.5801H328.26V0.830078H420.75V14.5801ZM235.76 14.5801H143.27V0.830078H235.76V14.5801Z" fill="#FF5662"/>
<path d="M933.28 50.8803H919.53V14.5803H883.22V0.820312H933.28V50.8803Z" fill="#FF5662"/>
<path d="M933.28 779.98H919.53V688.84H933.28V779.98ZM933.28 597.71H919.53V506.57H933.28V597.71ZM933.28 415.44H919.53V324.3H933.28V415.44ZM933.28 233.17H919.53V142.03H933.28V233.17Z" fill="#FF5662"/>
</svg>
