<svg width="212" height="120" viewBox="0 0 1124 874" fill="none" xmlns="http://www.w3.org/2000/svg">
<path opacity="0.1" d="M1089.3 807.3C1088.8 807.2 1082 806.2 1081.5 806.2C749 779.5 454.4 788.2 117.2 791.8C91.1998 792.1 64.2998 792.5 40.6998 798.2C17.0998 803.9 -2.30023 816.5 1.09977 829.7C4.69977 843.5 32.0998 852.9 59.0998 854.7C86.1998 856.5 113.3 852.7 140.2 849.8C292.2 833.7 448.3 850.4 601.1 862.7C753.9 875 916.9 882.2 1058.4 849.2C1074 845.6 1089.8 841.2 1099.7 834C1108.1 827.9 1110.8 819.4 1104.5 812.9C1100.8 809.1 1094.8 808.4 1089.3 807.3Z" fill="white"/>
<path opacity="0.07" d="M390.8 748.6C259.7 748.6 166.7 724 113.1 629C111.8 626.7 110.5 624.4 109.3 622.1C92.4 589.6 82.9 551.9 92 516.6C101.1 481.3 132.2 449.9 170 447.4C207.7 444.9 246 478.6 239.7 514.5C236 461.1 182.4 407.8 178.7 354.4C176.4 320.9 186.7 290.5 213.4 267.4C232.6 250.8 282.4 239.2 309.4 276.2C327.8 301.3 341.7 324.6 348.3 352.8C331.6 308.1 314.7 261 322.6 214.1C330.5 167.2 372.5 122 421.7 126.8C463.3 130.9 492.9 167.1 512.8 202.5C560.9 288 582.3 387.2 573.6 484.1C563.4 439.8 613.2 393.8 658.8 405.4C704.4 417 724.1 480.6 692.5 514.3C694.9 485.9 735 471.3 760.8 485.2C786.6 499.1 796.9 531.2 792.8 559.4C792.5 561.2 792.2 562.9 791.9 564.7C783.7 606.4 750.5 639.5 708.1 651.2L689 668.4C633 719.4 558.9 747.9 481.8 748.3L390.8 748.6Z" fill="white"/>
<path opacity="0.06" d="M507.1 759.2C450.1 736.1 401.7 686.2 367.9 641.7C269.6 512.3 436.2 556.4 413.1 515.7C379.8 457 435.1 404.6 498.4 407.1C454.2 359.4 496.7 347.6 505.7 314.1C514.7 280.6 471.4 261.5 504.7 241.2C546.3 215.7 588.1 235.4 600.4 222.2C608.8 213.2 569.3 182.5 598.3 147.7C636.9 101.3 680 171.4 721.2 127.3C730.4 117.4 726.5 91.2 759.2 70.3C797.2 46.1 827 61.1 840 67.5C857.2 76 877.7 96.9 878.3 113.5C880.2 166.5 867.1 182.1 847.7 209C832.7 229.8 854.7 257.2 878.2 246.9C878.4 246.8 878.6 246.7 878.8 246.6C898.5 238.1 922.9 231 942 240.5C964.1 251.5 965.1 278.8 953.8 298.1C942.5 317.3 922.7 332.2 909.5 350.6C896.3 369 891.5 395 909.7 410.2C921.7 420.3 940.8 422.9 952.5 433.3C966 445.3 965.6 464.7 956.9 479.5C948.2 494.3 932.9 505.5 918.1 516.4C901 529.1 882.5 548.3 893.5 565C908.6 588 956.9 573.8 978.7 592.7C996.7 608.3 984.3 634.1 969.4 651.8C933.9 693.7 894.1 719.3 840.9 745.3" fill="white"/>
<path opacity="0.05" d="M732.6 638.5C737.3 636.5 742.4 635.2 747.7 634.8C758.3 633.9 767.9 627.5 771.3 617.5C771.5 616.8 771.8 616 772.1 615.3C780.2 596.6 804.5 588 823.7 594.7C827.2 595.9 830.6 597.6 833.7 599.7C839.9 603.8 848.1 598.6 847.5 591.2C843.9 547 854.5 501.6 878.9 464.4C884.9 455.3 894.1 448.5 904.8 446.6C933.5 441.5 948.2 473.3 953.6 499.5C956.1 511.8 958.2 524.2 959.7 536.6C960.9 546.4 973.4 549.8 979.5 542.1C986.5 533.4 995.1 526.3 1005.5 522C1011.9 519.3 1018.8 517.8 1025.8 517.8C1061.2 517.8 1085.4 558.4 1081.7 593.7C1079.8 611.5 1073.1 627.8 1064.1 643.3C1065 642.9 1065.8 642.5 1066.7 642.2C1082.8 636.1 1102.9 637.3 1114.7 649.9C1126.4 662.4 1126.4 682.8 1118.3 697.9C1110.2 713 1095.6 723.5 1080.5 731.5C1023.3 761.6 950.5 759.9 894.8 727.1C849.8 763.4 780.1 765 733.4 730.7C729.9 728.1 726.5 725.3 723.4 722.1C713.4 713.7 706.7 701 706 685.4C704.9 663.4 716.3 644.5 732.6 638.5Z" fill="white"/>
<path d="M839.1 8.99961C859.4 8.99961 881.9 22.8996 882.7 45.1996C882.9 50.4996 881.8 55.9996 879.5 61.3996C879.2 62.0996 878.9 62.6996 878.6 63.3996C879.3 66.0996 879.8 68.8996 880.2 71.7996C880.6 75.2996 880.9 79.1996 880.9 83.6996L884.9 90.3996C887.6 95.0996 888.1 100.6 886.1 105.7C884.6 109.5 881.9 112.6 878.5 114.6C874.4 138.1 865 150.4 850.8 151.2C865.4 161.7 866.1 176 865.4 185.9C865.1 189.5 864.7 192.2 864.2 194.6C864.3 195.1 864.4 195.5 864.5 196L865.4 199.4C870.8 220.3 874.3 234 874.9 248C875.4 259 868.5 268.1 861.8 276.8C858.2 281.5 853.7 287.3 853.1 290.6C851.5 298.3 851.2 307.9 852.3 317.4C865.4 329.9 880.5 344.8 884.1 348.4C885.8 349.6 891.3 353.2 902.1 358.5L905.9 360.4L908 364.1L918.7 382.6L919.9 384.7L920.4 387L921.1 390.6C923.2 401.5 918.1 412.2 908.4 417.3L896 423.7C893.4 425.1 890.5 425.8 887.5 425.8C885.9 425.8 884.4 425.6 882.9 425.2C917.6 528.9 937 630.8 942.2 735C942.4 739.5 942.8 746.3 939.8 753.1C936.7 760.3 931.2 765.6 923.2 769.1C924.6 769.6 926 770.1 927.3 770.8C931 772.3 951 780.5 958.2 783.5C960.5 784.5 963.5 785.3 966.8 786C967.8 786.2 969 786.4 970.3 786.6C980.9 788.3 988.8 789.9 994 794.7C999.4 799.7 1001.5 807.1 999.5 814C997.4 821.4 991.1 826.9 983.1 828.3C968.9 830.9 943.6 831.1 933.4 831.1C916.4 831.1 893.7 830.4 881.1 828.3C869.1 826.3 861.1 816.7 862.1 805.3L864.1 781.9C864.2 777.9 865.8 774.2 868.5 771.2C857.3 768.1 849.1 762.3 844 753.9C836.9 742.1 838.5 729.4 839.9 719.2L840.3 715.9C843.1 692.5 838.1 667.9 833.2 644.2C830.8 632.8 829 622.4 827.3 612.3C820.6 652.9 811.5 691.7 797.4 733.7C794.7 741.7 790.2 755.1 777.4 762.5C772.3 765.5 766.4 767.1 759.6 767.5L758.6 770.2C763.4 772.2 780.2 779 786.5 781.7C788.5 782.6 791.3 783.3 794.2 783.9C795.1 784.1 796.2 784.2 797.4 784.4C807.4 786 814.9 787.5 820 792.2C825.3 797.1 827.4 804.3 825.4 811.1C823.3 818.3 817.2 823.7 809.4 825.1C796.2 827.5 772.6 827.8 763.1 827.8C742.6 827.8 724.4 826.8 714.4 825.2C702.7 823.3 694.9 813.9 695.9 802.8L697.7 781.1C697.9 777 699.5 773.1 702.4 770.1C703.8 768.6 705.5 767.5 707.3 766.6L709.7 758.3C703.9 755 699.1 750.2 696 744.3C691.6 735.9 691 726 694.4 717.2C699.6 703.6 705.6 689.9 711.4 676.6C722.7 650.7 734.3 624 740.7 597.8C743.2 587.5 746.6 572.7 747.1 562.9C747.8 550.2 747.7 532.1 746.9 498.3C746.6 487.1 745.3 474.6 744 461.4C741.6 438.2 739.1 414.2 741.4 391.9C739.9 388.9 738.9 385.4 738.5 381.3L738.3 379L738.8 376.8C740.5 369.2 743.4 355.6 743.9 351.1C745.6 335.5 748.9 322.5 752.1 309.9C757.6 288.2 762.9 267.7 758.6 235C756.3 216.9 756.7 200.8 759.8 186.8C758 184.2 756.6 181.3 755.7 178.2C744.2 176.2 734.3 168.3 730.6 157.8C727.5 149.2 728.6 139.5 733.5 131.2C734.9 128.9 736.5 126.8 738.3 124.9C738.1 124.3 737.9 123.7 737.7 123C735.3 113.9 736.7 103.6 741.4 95.5996C744.4 90.4996 748.5 85.9996 753.9 81.7996C754.4 79.9996 754.9 75.1996 753.8 66.5996C752.3 54.5996 756.6 41.6996 765.6 31.3996C774 21.8996 780.7 17.2996 798.1 15.2996C799.7 15.0996 801.6 14.9996 803.5 14.8996C805.7 14.7996 809.8 14.4996 811.2 14.0996C819.1 11.6996 828 9.09961 837.7 8.69961L839.1 8.99961ZM839.1 4.09961H837.3C827 4.49961 817.8 7.19961 809.6 9.69961C808.9 9.89961 806.7 10.0996 803 10.2996C801 10.3996 799 10.5996 797.3 10.7996C778.4 12.9996 770.7 18.2996 761.6 28.5996C751.6 39.9996 746.8 54.1996 748.6 67.6996C749.4 73.8996 749.2 77.6996 749 79.4996C743.9 83.6996 739.9 88.2996 736.8 93.3996C731.5 102.4 729.9 113.8 732.4 124C731.1 125.6 729.9 127.3 728.9 129.1C723.2 138.7 722 149.9 725.6 159.9C729.6 171 739.6 179.8 751.6 182.9C752.3 184.7 753.2 186.5 754.2 188.2C751.3 202.2 751.1 218.3 753.4 236C757.5 267.8 752.4 287.9 747 309.1C743.7 321.9 740.4 335 738.7 351C738.3 355 735.5 368.1 733.7 376.1L733.2 378.3L733 379L733.1 379.8L733.3 382.1C733.7 386.2 734.6 389.9 736 393.1C733.9 415.5 736.3 439.3 738.7 462.2C740.1 475.3 741.3 487.7 741.6 498.7C742.4 532.3 742.5 550.3 741.8 562.9C741.3 572.3 738 586.8 735.5 596.9C729.2 622.7 717.7 649.2 706.5 674.9V675C700.7 688.3 694.7 702.1 689.4 715.7C685.5 725.9 686.2 737.3 691.3 746.9C694.2 752.4 698.4 757.1 703.6 760.8L702.8 763.6C701.2 764.5 699.8 765.7 698.6 767C694.9 770.8 692.7 775.8 692.5 781.1L690.7 802.6C689.5 816.3 699.1 828 713.4 830.3C723.6 832 742.1 833 762.8 833C772.5 833 796.4 832.7 810 830.3C819.7 828.6 827.3 821.9 829.9 812.8C832.4 804.2 829.8 795 823 788.8C816.9 783.2 808.7 781.5 797.9 779.8H797.6C796.6 779.6 795.6 779.5 794.8 779.3C792.2 778.8 789.8 778.1 788.1 777.4C785.1 776.1 779.6 773.8 771.5 770.5C774.3 769.6 777 768.4 779.5 767C794 758.6 799 743.5 801.8 735.4C812.3 704 820.5 673.2 827 640.1C827.3 641.8 827.7 643.6 828.1 645.3C832.9 668.7 837.9 692.8 835.2 715.4L834.8 718.7C833.4 729.1 831.5 743.3 839.6 756.6C844.4 764.5 851.5 770.3 860.8 774.1C859.8 776.5 859.2 779.1 859 781.8L857 805.1C855.8 819.1 865.5 831 880.1 833.4C893 835.5 916 836.3 933.2 836.3C943.6 836.3 969.2 836 983.8 833.4C993.7 831.6 1001.4 824.8 1004.1 815.6C1006.6 806.9 1004 797.6 997.2 791.3C990.9 785.5 982.3 783.8 970.9 781.9L970.1 781.8C969.1 781.6 968.3 781.5 967.5 781.4C964.6 780.8 961.9 780.1 959.9 779.3C954.4 776.9 941.2 771.6 934 768.6C938.5 765.1 941.9 760.6 944.1 755.4C947.5 747.5 947.1 739.7 946.9 735.1C941.8 632.4 923 532.8 889.6 430.9C892.5 430.6 895.4 429.7 897.9 428.4L910.3 422C922 416 928.1 403.1 925.6 390L924.9 386.4L924.4 384L924.2 383.2L923.8 382.5L922.6 380.4L911.9 361.9L909.8 358.2L909.1 356.9L907.8 356.2L904 354.3C894.1 349.4 888.8 346 887 344.8C881.5 339.4 868.5 326.5 856.8 315.3C856 306.8 856.3 298.6 857.7 291.8C858.2 289.5 863.1 283.1 865.5 280C872.4 271 880.3 260.8 879.7 247.9C879 233.4 875.4 219.4 870 198.3L869.1 194.9C869.1 194.8 869.1 194.7 869 194.7C869.5 192.1 869.8 189.4 870.1 186.4C870.5 181 871.6 166.4 860.7 153.9C865.1 151.9 868.9 148.8 872.2 144.5C877 138.2 880.6 129.2 882.8 117.7C886.3 115.2 889 111.7 890.6 107.6C893.1 101.2 892.5 93.9996 889 88.0996L885.7 82.4996C885.6 78.2996 885.4 74.6996 885 71.2996C884.7 68.7996 884.3 66.3996 883.7 63.9996C883.8 63.7996 883.9 63.5996 883.9 63.3996C886.5 57.2996 887.7 51.0996 887.5 45.0996C887.1 33.2996 881.2 22.4996 871.1 14.7996C862.2 7.99961 850.5 4.09961 839.1 4.09961Z" fill="#FF5662"/>
<path d="M210.7 5C215.2 5 219.4 5.7 223.3 6.5C228.6 7.5 232.5 8.6 235.9 9.6C239.1 10.5 242.1 11.4 246.3 12.2C255.8 14 265.8 16.5 275.2 24.9C285.7 34.3 290.2 49.1 286.8 62.7C286.1 65.3 285.2 67.7 284.5 69.9C283.9 71.4 283.1 73.6 282.9 74.7C283.1 75.2 283.2 75.9 283.6 77.5C285.8 86.2 283.8 95.3 278.2 101.9C275.3 105.4 275.3 106.1 275.2 107.7C275 110.5 274.7 115.3 271.2 120.9C266.2 129.1 258.7 131.7 254.3 133.3C253.5 133.6 252.4 134 251.8 134.3C250.2 137.1 248.7 139.4 247 141.4C248.2 141.6 249.3 141.8 250.5 142.1C251.1 142.1 251.6 142.1 252.2 142.1C263.7 142.1 274.9 147.8 283.8 158.2C285 159.7 286.1 161.1 287.1 162.4C290.8 166.8 294.4 172.2 297.6 178.3C298.6 180.2 299.9 182.4 301.6 185.3L301.7 185.4C301.9 185.6 302.1 185.6 302.1 185.7C307.6 186.5 312.4 189.9 315.1 194.8C317.8 199.7 317.9 205.6 315.5 210.7C315.2 211.4 314.8 212.1 314.4 212.7C332.2 232.2 345.5 252.7 354 273.6C355.8 278.1 357 281.6 357.8 284.7C360 291.5 359.4 297.8 359 303.4C358.8 305.8 358.6 308.1 358.6 310.4C358.6 321.6 358.2 331.2 357.8 339.6C357.1 356.1 356.6 369.2 359.3 386.9C360 390.1 360.5 390.9 361.2 392C362.3 393.8 364 396.5 365.2 401.3C367 408.6 367.7 413.6 368.5 419.5C368.8 421.4 369 423.4 369.4 425.6C371.7 441.2 363.1 450.6 358.1 455C357.5 456.5 356.7 458 355.6 459.4C352.6 463.3 347.7 465.6 342.4 465.6C341.7 465.6 341 465.6 340.3 465.5C337.6 465.2 331.3 463.7 327.6 456.4C327.1 456.4 326.7 456.5 326.2 456.5C318.1 456.5 311.2 450.3 310.1 442.3C307.8 448.5 304.6 454.8 300.3 461.1C300.4 463.7 300.4 466.3 300.5 468.9C300.9 482.2 301.2 494.7 302.4 505.7C306 539 308.2 556.8 310.5 569.2C312.3 578.8 317.5 592.9 321.3 602.7C331 627.7 345.9 652.5 360.3 676.4C367.7 688.7 375.4 701.5 382.3 714.1C386.8 722.3 387.5 732.1 384.2 740.9C382 746.9 378 752.2 372.9 756.1L377.1 769.8C379 770.6 380.7 771.8 382.1 773.3C384.9 776.2 386.6 779.9 386.8 783.9L389 805.3C390.1 816.2 382.7 825.6 371.2 827.7C357.6 830.2 330.9 831.3 311.8 831.3C301.2 831.3 286.5 831 277 829.5C269.3 828.3 263.2 823.1 261 816.1C258.9 809.5 260.8 802.3 266 797.4C271 792.7 278.3 791 288.2 789.3C289.4 789.1 290.5 788.9 291.4 788.7C294.3 788.1 297.1 787.2 299.1 786.3C305.4 783.5 322.2 776.2 326.7 774.3L325.7 771.7C324.3 771.8 322.9 771.9 321.6 771.9C316.3 771.9 311.3 771 306.8 769.1C293.3 763.5 287.1 750.9 283.5 743.4C258.1 691.3 242 643.9 227.8 590.4C224 601.6 220.7 612.1 217.5 622.2C213.7 634.3 209.8 646.9 204.9 660.9C196.9 683.6 188.6 707.1 188.3 730.5C188.3 731.6 188.3 732.7 188.3 733.8C188.3 744 188.2 756.6 179.7 767.3C173.6 774.9 164.7 779.5 153.2 781L153.1 781.1C155.4 784.3 156.4 788.2 156 792.2L154.8 815.5C154.2 826.7 145.1 835 133.2 835.4C132.3 835.4 131.4 835.4 130.5 835.4C107.7 835.4 53.3997 828.3 32.9997 821.7C25.3997 819.2 19.9997 813.1 18.8997 805.6C17.8997 798.6 20.8997 791.7 26.7997 787.5C32.5997 783.4 40.5996 783 51.1996 782.7C52.4996 782.7 53.6996 782.6 54.6996 782.6C57.9996 782.4 61.0997 782 63.4997 781.3C71.0997 779.2 91.5996 774 95.4996 772.9C96.9996 772.4 98.5996 772 100.2 771.7C92.6996 767.2 87.8997 761.2 85.7997 753.7C83.7997 746.6 85.0996 740 85.8996 735.7C107 621.5 140 519.9 186.6 425L184.7 414.6C184.5 413.7 184.3 412.7 184.1 411.5C183.9 410.5 183.6 409.3 183.4 408.1C181.2 404.7 179.5 400.1 179.5 393.8C179.5 381.2 180.7 373.3 181.9 365C182.4 361.7 182.9 358.2 183.4 354.3C164.9 362.6 159 364.5 147.9 368C144.3 369.1 140.1 370.4 134.8 372.2L134.6 372.3L134.4 372.4L126.9 374.6C123.8 380.9 118.8 385.5 112.7 387.9L111.9 389.4C108.6 395.8 102.1 399.9 94.8996 400.2L86.1996 400.6C85.8996 400.6 85.5997 400.6 85.2997 400.6C80.0997 400.6 75.1997 398.4 71.7997 394.6L62.3996 384.2C55.1996 376.2 54.0996 364.5 59.8996 355.1L61.7997 351.9L62.9997 349.9L64.7997 348.4L74.7997 340.2C80.8997 335.2 88.2997 332 96.0997 330.9C102.8 330 106.9 329.1 108.6 328.7C115.1 325.2 140.6 311.6 156.9 305.2C158.3 304.6 160 304 161.8 303.4C164.3 302.5 169 300.8 170.5 300L176.1 296.1C178.7 290.7 179.8 275.2 176.3 252.2C168.3 248.6 163.6 240.1 164.9 231.2C165.5 226.8 166 224.9 166.4 223.1C166.7 221.7 167 220.6 167.4 217.6V217.4V217.2C168.8 209.1 169.3 204.3 169.7 200.5C170.2 195.6 170.5 191.5 172.4 185C174.7 177.1 179.2 166.3 191.3 160.4C191.6 160.1 192 159.8 192.3 159.4C173.8 159 165.6 138.6 161.7 124.4C157.6 123 154.2 120.2 152.1 116.3C149.6 111.6 149.3 106.2 151.4 101.3L155.6 91.4C155.5 89.2 155.4 87.1 155.4 85.1C155.4 82.1 155.6 79.2 155.9 76.4C147.3 69.8 142.6 58.6 144.1 47.8C145.9 35.4 155.3 26.1 169.4 23.1L169.7 23H169.8C171.5 22.7 173.2 22.5 175.1 22.5C176.7 22.5 178 22.6 179.2 22.7C179.6 22.7 180 22.8 180.3 22.8C181.2 22.1 182.7 20.3 183.7 19.1C186.7 15.5 190.5 11.1 196.3 8.2C200.4 6.1 205.3 5 210.7 5ZM210.7 0C204.5 0 198.8 1.3 193.8 3.9C187.2 7.3 182.9 12.3 179.7 16C179.3 16.4 178.7 17.2 178.1 17.8C177.1 17.7 176 17.7 174.8 17.7C172.6 17.7 170.6 17.9 168.6 18.3H168.5H168.4L168.1 18.4C151.9 21.9 141 32.7 138.9 47.2C137.3 58.7 141.7 70.8 150.4 78.6C150.2 80.7 150.1 82.9 150.2 85.2C150.2 86.9 150.3 88.8 150.4 90.6L146.6 99.4C143.9 105.7 144.2 112.7 147.5 118.7C149.7 122.8 153.2 126.1 157.3 128.1C160 137.1 163.2 144.2 167.2 149.9C171 155.3 175.4 159.2 180.3 161.6C172.6 168.4 169.3 177 167.4 183.6C165.4 190.5 165 195.1 164.5 200C164.1 203.8 163.7 208.5 162.3 216.3V216.5V216.6V216.7V216.9C161.9 219.7 161.7 220.6 161.3 221.9C160.9 223.7 160.3 225.9 159.7 230.5C158.2 240.6 162.9 250.3 171.5 255.5C174.3 275.5 173.4 288.3 171.8 293L167.6 295.9C166.3 296.6 161.5 298.3 159.9 298.9C158 299.6 156.4 300.2 154.9 300.7C138.9 306.9 114.7 319.8 106.7 324.1C104.7 324.5 101 325.3 95.2997 326.1C86.5997 327.3 78.2997 330.9 71.4997 336.5L61.4997 344.7L59.6996 346.2L59.0997 346.7L58.6996 347.4L57.4997 349.4L55.5997 352.6C48.6997 363.9 49.8997 377.9 58.6996 387.6L68.0997 398C72.4997 402.8 78.7997 405.6 85.2997 405.6C85.6997 405.6 85.9996 405.6 86.3996 405.6L95.0997 405.2C104 404.8 112.1 399.6 116.3 391.8C122.2 389.1 127 384.6 130.4 378.8L135.9 377.2L136.1 377.1H136.2H136.3L136.5 377C141.9 375.2 145.9 373.9 149.6 372.8C159 369.8 164.8 368 177.5 362.5C177.4 363.1 177.3 363.7 177.2 364.2V364.3C175.9 372.8 174.7 380.9 174.7 393.9C174.7 400 176.1 405.4 178.9 410C179.1 410.8 179.2 411.6 179.4 412.3L179.5 412.5L179.6 412.8C179.8 413.9 180 414.8 180.1 415.5L181.7 424.3C135.3 519.2 102.4 620.7 81.0997 734.5C80.2997 739 78.7997 746.6 81.0997 754.8C82.5997 760.3 85.3996 765.1 89.3996 769.2C81.6996 771.2 68.0997 774.7 62.2997 776.3C60.2997 776.8 57.4997 777.2 54.5997 777.4C53.7997 777.4 52.6997 777.5 51.4997 777.5H51.1996C39.6996 777.8 31.0997 778.3 24.0997 783.2C16.5997 788.4 12.7997 797.2 14.0997 806.1C15.4997 815.4 22.1997 823.1 31.5997 826.2C52.2997 832.9 107.4 840.1 130.6 840.1C131.6 840.1 132.6 840.1 133.5 840.1C148.1 839.7 159.2 829.4 159.9 815.5L161.1 792.4C161.3 789.7 161.1 787.1 160.4 784.6C170.1 782.2 177.9 777.4 183.7 770.3C193.4 758.3 193.4 744.1 193.4 733.7V733.5C193.4 732.5 193.4 731.4 193.4 730.4C193.7 707.8 201.9 684.7 209.7 662.4C214.6 648.3 218.6 635.8 222.4 623.6V623.5C224 618.2 225.7 612.9 227.5 607.4C242.2 659.8 257.9 701.8 279.2 745.4C282.9 753 289.8 767.2 305.1 773.5C307.1 774.3 309.1 775 311.3 775.5C305.9 777.8 300.4 780.2 297.3 781.6C295.7 782.3 293.2 783.1 290.6 783.6C289.9 783.8 288.9 783.9 287.9 784.1H287.6C276.9 786 268.9 787.8 262.9 793.5C256.4 799.7 254 808.8 256.6 817.3C259.4 826.2 267 832.6 276.6 834.2C286.4 835.8 301.3 836.1 312.2 836.1C331.5 836.1 358.6 834.9 372.5 832.4C386.6 829.8 395.7 818.1 394.3 804.6L392.1 783.3C391.8 778.2 389.6 773.3 386 769.6C384.7 768.3 383.2 767.1 381.6 766.2L379 757.6C383.6 753.4 387.1 748.2 389.3 742.4C393.1 732.3 392.3 721 387.1 711.5C380.1 698.7 372.5 685.9 365 673.6C350.7 649.8 335.9 625.2 326.4 600.6C322.7 591 317.5 577.1 315.9 568C313.6 555.7 311.4 538 307.8 504.8C306.6 493.9 306.3 481.5 305.9 468.4C305.8 466.3 305.8 464.2 305.7 462.1C307.5 459.4 309.2 456.6 310.7 453.7C314.3 457.9 319.5 460.6 325.2 461C330.1 468.2 337.1 469.8 340.2 470.1C341.1 470.2 341.9 470.2 342.8 470.2C349.7 470.2 355.9 467.2 359.9 462.1C361 460.7 361.9 459.2 362.6 457.6C372.4 448.6 376.5 437.2 374.7 424.6C374.4 422.3 374.1 420.3 373.9 418.5C373.1 412.5 372.4 407.4 370.5 399.8C369.1 394.3 367.1 391.1 365.9 389.1C365.4 388.3 365.2 387.9 364.7 385.7C362 368.6 362.6 355.7 363.2 339.5C363.6 331 364 321.5 364 310.1C364 308 364.2 305.8 364.4 303.5C364.9 297.8 365.5 290.6 363.1 283C362.3 279.7 361 276.2 359.1 271.4C350.8 250.8 337.9 230.7 320.9 211.5C323.5 205.3 323.2 198.1 319.9 192.1C316.8 186.4 311.5 182.4 305.3 180.9C304.1 178.9 303.2 177.2 302.4 175.7C299 169.4 295.3 163.8 291.4 159.1C290.5 157.9 289.4 156.3 288 154.7C279.6 144.8 269.1 138.8 258 137.3C263 135.5 270.6 132.1 275.9 123.4C280 116.7 280.4 111 280.6 107.9C280.6 107.7 280.6 107.5 280.6 107.4C280.7 107.2 281.1 106.6 282.5 104.9C289 97.1 291.4 86.3 288.9 76.1C288.7 75.4 288.6 74.9 288.5 74.5C288.8 73.5 289.3 72.1 289.6 71.5C290.4 69.2 291.4 66.7 292.1 63.8C296 48.4 290.8 31.6 279 21.1C268.7 11.9 257.5 9.1 247.8 7.3C243.9 6.5 240.9 5.7 237.9 4.8C234.4 3.8 230.4 2.7 224.9 1.6C220.2 0.799998 215.7 0 210.7 0Z" fill="#FF5662"/>
<path d="M716.6 784.9H737.5L758.3 731.1H731.9L716.6 784.9Z" fill="#D2F9FF"/>
<path d="M810.1 802.9C807.1 800.2 796.2 799 791.3 798.1C787.8 797.4 783.9 796.4 780.6 795C773.3 791.9 751.6 783.1 751.6 783.1C747.5 780.9 742.7 780.5 738.3 782.1C736.6 782.7 735.1 783.3 734.1 783.5C726.6 785.7 722.1 784 715.4 779.9C713.7 778.8 711.5 780.1 711.5 782.1L709.6 804.2C709.3 808.1 712.2 810.8 716.3 811.4C735.1 814.5 787.8 814.8 806.5 811.4C811.3 810.6 813.4 805.9 810.1 802.9Z" fill="#6DDCFF"/>
<path d="M839.8 442.2C832.8 462.8 828.1 484.2 826 506C818.3 584.1 809.9 651.1 783.7 729.4C781 737.4 777.7 746 770 750.5C761.2 755.6 749.5 753.8 739.3 751.9C735 751.1 722.3 748.7 722.3 748.7C709.9 745.8 702.9 733.7 707.2 722.7C722.5 682.9 744.1 642.7 754.1 601.5C757.6 587.1 760.4 573.7 760.9 564C761.6 550.5 761.5 531.2 760.7 498.4C759.8 460.4 747.7 409.7 759.1 373.2C761.8 364.4 760.6 362.7 767.8 356.4C781.3 344.8 810 377.2 828.3 379.8C836.4 380.9 845.4 382.6 849.8 389C853 393.6 852.9 399.4 852.6 404.8L839.8 442.2Z" fill="#6DDCFF"/>
<path d="M887.4 788.499H908.3L902.8 734.699H873.3L887.4 788.499Z" fill="#D2F9FF"/>
<path d="M984.3 807.099C981.2 804.099 969.5 802.399 964.2 801.299C960.4 800.499 956.3 799.199 952.8 797.599C945 793.999 922 783.799 922 783.799C917.7 781.299 912.4 780.699 907.7 782.299C905.9 782.899 904.2 783.399 903.1 783.699C894.9 785.899 890.2 783.799 883.1 779.199C881.3 777.999 878.9 779.299 878.8 781.499L876 805.299C875.5 809.499 878.6 812.499 883 813.299C903.1 817.199 959.9 819.399 980.2 816.299C985.3 815.499 987.8 810.399 984.3 807.099Z" fill="#6DDCFF"/>
<path d="M836.8 342.1L848 370.7C894.1 489.7 921.6 609.4 927.9 735.9C928.1 739.9 928.3 744 926.7 747.7C922.4 757.7 908.5 759.6 897 759.9C881.7 760.4 863.4 759.3 855.9 746.8C850.7 738.2 853 727.6 854.2 717.7C857.3 692.2 852.1 666.6 846.9 641.4C840.9 612.6 838.3 590.5 832.3 561.7C829 545.9 820.9 504 813.8 489.2C805.9 472.6 795.5 451.4 784.4 436.6C759.9 403.8 761.9 390.4 759.9 373.4L836.8 342.1Z" fill="#A0EBFF"/>
<path d="M752.3 380.3C753.9 397.3 767.9 385.9 786 383.4C823.7 378.2 866.8 379.9 850 355.4C837.8 337.6 835 307.7 839.1 288C841.9 274.3 861.2 260.1 860.7 248.9C860.1 235.7 856.3 221.7 850.7 199.8C844.4 175.4 859.3 160.3 817.8 157.9C817.8 157.9 809 157.4 802.2 157.5C796.8 157.6 796.3 157.5 796.3 157.5C787.2 159.3 765.2 178.9 772.3 233.7C779.4 288.4 762 311.6 757.6 353.2C756.9 359.9 752.3 380.3 752.3 380.3Z" fill="#00C7FD"/>
<path d="M810.9 114.2L808.2 166L834.6 165.6L832.2 112.8L810.9 114.2Z" fill="#D2F9FF"/>
<path d="M786.9 86.4998C788.3 59.9998 809 39.4998 833.3 40.7998C852.6 41.7998 863.4 52.4998 866.1 73.6998C866.8 79.0998 866.9 85.0998 866.6 91.8998C865.2 118.4 859.7 147.5 839.7 133.8C802 107.7 785.5 113 786.9 86.4998Z" fill="#D2F9FF"/>
<path d="M859.2 74.7998L872.6 97.6998C873.7 99.5998 872.8 102.1 870.7 102.7L863.6 104.9L859.2 74.7998Z" fill="#D2F9FF"/>
<path d="M823.6 102.2C825.2 102.3 825.4 106.8 825 108.9C824.2 119.1 824.7 114.3 821.6 126.3C817.3 142.5 830.6 139.9 830.4 157.6C830.3 164.8 823.6 172 816.9 175.9C812 178.8 805.5 178.4 801.1 175.1C799.6 174 797.5 174.7 796.7 176.4C793.5 183 785.1 187.1 778.1 184.7C772.7 182.8 769.2 177.4 768.5 171.8C768 167.9 765 165 761.1 164.9C753.7 164.8 746.2 160.4 743.7 153.4C740.2 143.5 747.6 131.4 757.8 129.7C758.2 129.6 758.3 129.2 757.9 129C749.6 124.3 748.4 111.5 753.4 103C755.9 98.7999 759.4 95.3999 763.3 92.4999C769.7 87.7999 768.6 72.8999 767.6 65.0999C766.5 56.2999 770.3 47.5999 776 41.0999C782 34.2999 785.4 31.2999 799.5 29.6999C803.8 29.1999 810.9 29.1999 815.1 27.8999C822.6 25.5999 830.2 23.3999 838.1 23.0999C852.2 22.5999 868.2 31.5999 868.7 45.6999C868.8 49.1999 868 52.5999 866.6 55.7999C861.2 68.4999 849.5 67.0999 834.3 66.0999C834 66.0999 828.8 50.5999 828.4 50.4999C827.7 50.2999 828.1 64.0999 827.4 63.8999L826 81.3999L823.6 102.2Z" fill="#6DDCFF"/>
<path d="M835 88.2995C838.2 94.1995 836.8 101.199 831.7 103.999C826.6 106.799 820.7 100.999 817.5 95.0995C814.3 89.1995 814.9 85.3995 820 82.6995C825.1 79.9995 831.7 82.3995 835 88.2995Z" fill="#D2F9FF"/>
<path d="M907 393.399L906.3 389.799L895.6 371.299C880.5 363.799 874.8 359.399 874.8 359.399C874.8 359.399 842.4 327.099 828.2 314.499C824.2 310.899 817.4 305.699 815.2 302.499C813.3 299.599 809.8 296.799 809 291.199C807 277.199 819 252.999 825.9 240.699C832.8 228.399 839.1 217.099 834.1 203.899L813.9 200.399C798.3 223.599 778.6 254.599 779.7 286.299C780 296.399 776.9 299.999 784.3 306.899C784.7 307.299 785.1 307.599 785.6 307.999C789 313.499 793.4 318.699 796.7 321.999C823.4 348.999 832.9 353.099 853.2 369.499L862.5 376.499C864.1 377.699 864.9 379.599 864.9 381.599C864.8 385.399 865.7 391.799 872.7 394.799L873.8 402.899C874.1 405.099 875.6 407.099 877.6 407.999L885.7 411.399C886.9 411.899 888.3 411.899 889.5 411.299L901.9 404.899C905.8 402.699 907.9 398.099 907 393.399Z" fill="#D2F9FF"/>
<path d="M797.6 198C798.3 192.7 799.4 187 801.4 181.7C801.8 180.2 802.2 178.6 802.8 177.1C807.1 165.1 817.1 154.2 833.8 158.6C836.8 159.4 839.7 160.7 842.2 162.5C850.3 168.3 851.9 175.2 851.2 184.9C850.5 195 848.1 197 844.8 215.3C843.2 222.6 844 221.7 842.5 229C841.9 232 839.2 234 836.2 233.8C831.8 233.5 827 232.8 822.9 231.2C817.6 229.1 813.8 224.2 808.5 222.1C802.6 219.8 792.7 227.3 788.2 222.9C786.4 221.2 786.9 218.1 789.1 217C791.4 215.7 793.3 213.7 794.7 211.4C795.3 210.4 795.8 209.3 796.2 208.2C796.7 204.3 797.3 200.9 797.6 198Z" fill="#A0EBFF"/>
<path d="M215 216.6L194.9 212.8C185.5 223.4 187.5 236.1 189.7 250.1C191.9 264.1 194.6 290.9 187.9 303.3C185.2 308.3 181 309.6 178.1 311.7C174.9 313.9 166.8 316.5 161.7 318.4C144 325.3 113.6 341.9 113.6 341.9C113.6 341.9 108.9 343.4 97.8 344.9C92.5 345.6 87.4999 347.8 83.3999 351.2L73.3999 359.4L71.5 362.6C69 366.7 69.4 371.7 72.5 375.1L81.8999 385.5C82.7999 386.5 83.9999 387 85.3999 386.9L94.1999 386.5C96.4999 386.4 98.5 385.1 99.6 383.1L103.4 375.9C111 375.5 114.1 369.9 115.3 366.3C115.9 364.4 117.4 363 119.3 362.4L130.4 359.1C155.2 350.9 154.2 352.6 188.7 336.6C193 334.6 198.9 331.3 204 327.3C204.5 327.1 205.1 326.9 205.6 326.7C214.9 322.8 213.2 318.3 217.1 309C229.1 279.7 221.5 243.7 215 216.6Z" fill="#0095CA"/>
<path d="M231.1 220C232.3 214.8 233.2 209.1 233.3 203.4C233.5 201.8 233.6 200.2 233.6 198.6C233.8 185.9 228.2 172.1 211.1 170.5C208 170.2 204.9 170.4 201.9 171.2C192.3 173.7 188.3 179.7 185.6 189C182.8 198.7 184.2 201.4 181 219.7C179.9 227.1 179.5 225.9 178.4 233.3C178 236.3 179.8 239.2 182.7 240C186.9 241.3 191.6 242.3 196.1 242.2C201.8 242.1 207.1 238.8 212.8 238.7C219.2 238.6 225.8 249 231.5 246.6C233.8 245.6 234.4 242.6 232.8 240.7C231.1 238.7 230 236.1 229.5 233.5C229.3 232.3 229.2 231.1 229.2 230C229.8 226.2 230.5 222.8 231.1 220Z" fill="#005B85"/>
<path d="M228.6 118.2L237.8 168.8L211.7 171.7L207.5 119.5L228.6 118.2Z" fill="#0095CA"/>
<path d="M248.7 87.9004C244 62.0004 221 44.5004 197.3 48.7004C178.4 52.1004 169.2 64.0004 169.2 85.2004C169.2 90.6004 169.8 96.5004 171 103.1C175.7 129 184.8 157 202.7 140.9C236.6 110.7 253.4 113.8 248.7 87.9004Z" fill="#0095CA"/>
<path d="M174.4 82.7002L164.1 106.9C163.2 108.9 164.5 111.2 166.6 111.6L173.9 112.9L174.4 82.7002Z" fill="#0095CA"/>
<path d="M239.9 127.1C244.5 118.8 254.4 121.8 259.4 113.7C263.7 106.7 258.1 104.5 267.6 93C270.4 89.6 271.2 85.1001 270.2 80.8C269.9 79.7001 269.7 78.9 269.7 78.8C267.4 72.5 271.7 65.9 273.4 59.3C275.6 50.7 272.6 41.1 266 35.2C259.5 29.4 252.3 27.5 243.7 25.8C234.3 24 230.1 22 220.7 20.1C214.6 18.9 208 17.8 202.5 20.6C195.1 24.4 191.7 34.5 183.5 36.5C179.8 37.4 176.1 35.9 172.2 36.8C172.2 36.8 172.2 36.8 172.1 36.8C151.9 41.1 155.5 61.1 166.2 66.9C168.3 68 170.8 68 174.9 70.2C197.1 82.1 220.9 52.7001 212.8 81.8C206.3 105.5 223.7 132.7 229 132.5C230.4 132.5 231.2 134.5 231.5 134.8C233.9 137.3 238.6 129.4 239.9 127.1Z" fill="#005B85"/>
<path d="M226.4 93.6005C226.6 101.201 217.8 107.3 213 107.5C208.2 107.7 209.1 99.7005 208.9 94.2005C208.7 88.7005 212.5 84.0005 217.3 83.8005C222.2 83.7005 226.2 88.1005 226.4 93.6005Z" fill="#0095CA"/>
<path d="M368 787.6L347.3 788L325.6 735L351.8 734.5L368 787.6Z" fill="#0095CA"/>
<path d="M275.6 807.2C278.5 804.4 289.3 803.1 294.2 802C297.7 801.3 301.5 800.2 304.7 798.7C311.9 795.5 333.2 786.3 333.2 786.3C337.2 784 342 783.6 346.4 785.1C348.1 785.7 349.6 786.2 350.6 786.4C358.1 788.5 362.5 786.7 369.1 782.5C370.8 781.4 373 782.6 373 784.7L375.3 806.6C375.7 810.5 372.8 813.2 368.8 813.9C350.2 817.3 298 818.6 279.3 815.7C274.6 814.9 272.4 810.3 275.6 807.2Z" fill="#005B85"/>
<path d="M196.7 390.4C194.2 395.3 197.4 406.9 198.4 412.2L207.1 459.8C213.6 481.5 220.6 501.8 225.5 522.9C243.1 598.7 260.1 663.5 295.9 737.1C299.6 744.6 303.9 752.7 312.1 756C321.4 759.9 332.7 756.6 342.5 753.4C346.7 752.1 358.8 748 358.8 748C370.6 743.6 375.9 730.8 370.3 720.4C350.1 683.3 323.7 646.5 308.6 607.3C303.3 593.6 298.8 580.7 297.1 571.3C294.7 558.1 292.3 539.1 288.8 506.7C284.8 469.2 290.1 417.8 274.2 383.3L196.7 390.4Z" fill="#0095CA"/>
<path d="M132.2 795.1L111.6 792.3L124.2 740.2L153.2 744.1L132.2 795.1Z" fill="#0095CA"/>
<path d="M34.6998 798.701C38.1998 796.201 49.8998 796.601 55.2998 796.301C59.0998 796.101 63.3998 795.601 66.9998 794.601C75.1998 792.401 99.3998 786.101 99.3998 786.101C104.1 784.301 109.2 784.701 113.7 787.001C115.4 787.901 117 788.701 117.9 789.101C125.6 792.601 130.5 791.401 138.2 788.001C140.2 787.101 142.3 788.801 142 790.901L140.8 814.601C140.6 818.801 137.1 821.201 132.6 821.301C112.2 821.901 56.3998 814.601 36.9998 808.301C32.2998 806.701 30.6998 801.401 34.6998 798.701Z" fill="#005B85"/>
<path d="M222.6 385.8C161.5 496.6 122.4 614.5 99.3998 738C98.6998 741.9 97.9998 745.9 98.9998 749.8C101.9 760.2 115.3 763.9 126.6 765.8C141.5 768.3 159.7 769.7 168.8 758.4C175 750.6 174.2 739.9 174.4 730.1C174.8 704.7 183.3 680.1 191.8 656.1C201.5 628.5 207.1 607.3 216.8 579.7C222.1 564.6 235.7 524.5 244.6 510.9C254.6 495.7 267.7 476.2 280.5 463.1C309 434.1 301.4 400.4 299.6 385.8H222.6Z" fill="#005B85"/>
<path d="M200.6 253.4C197.9 232.8 191.4 203.9 194.6 184.3C195.7 177.4 198.1 166.8 214.9 163.7C216.8 163.4 218.5 162.1 220.4 161.2C229.9 156.8 237 154.5 244 154.9C269.9 156.6 269.8 216.7 269.8 216.7C280.9 268.1 273.9 276.5 283.5 316.8L301.2 382.7C303.2 399.5 294.4 390.7 276.4 392.1C238.7 395 193.2 418.9 193.2 393.7C193.2 374.3 196.3 367.2 197.8 348.3C197.9 348.4 205.2 288.7 200.6 253.4Z" fill="#00C7FD"/>
<path d="M345 291.9C344.8 288.7 343.7 284.9 341.1 278.5C332 256.1 317.8 236.1 301.2 218.6C295.4 212.4 289.2 206.4 281.7 202.5C274.2 198.6 265 197.1 257.2 200.4L251.1 218.2C279.6 244.3 296.7 265.7 314 300.2C314.1 300.3 314.2 300.5 314.3 300.8" fill="#0095CA"/>
<path d="M285.3 184.7C282.8 180.1 279.8 175.2 276.1 170.9C275.2 169.6 274.3 168.3 273.2 167.1C265 157.5 251.9 150.8 238 160.8C235.5 162.6 233.3 164.8 231.6 167.4C226.1 175.6 227.1 182.6 231.1 191.3C236.5 202.9 240.5 206 256.4 230.1C257.5 232 258.5 233.8 259.6 235.7C261.2 238.4 264.5 239.4 267.3 238.2C271.3 236.4 275.5 234.1 278.8 231.1C283 227.3 284.8 221.4 288.9 217.6C293.6 213.4 300.2 210.1 302.9 204.5C304 202.3 302.5 199.6 300.1 199.3C297.5 199 295 197.7 292.9 196.1C292 195.4 291.2 194.5 290.4 193.6C288.4 190.2 286.6 187.2 285.3 184.7Z" fill="#005B85"/>
<path d="M355.6 427.4C354.3 418.4 353.9 413.3 351.7 404.4C350.1 398.1 347.8 399.4 345.6 389.1C341.1 360.4 344.6 343.3 344.6 310.1C344.6 298.8 348.2 290.4 340.8 282.4C311.4 250 313.9 305.9 314.7 319.9C316.5 353 318.9 365.6 322.1 397.4L320.8 398.9C317.6 403 323.8 440 323.8 440C323.9 441.5 325.4 442.7 326.9 442.2C330.6 440.9 328.6 433.4 329.1 426.9C329.2 425.6 333 429.8 333.4 431.1L339.6 449C340 450.1 340.6 451.4 341.7 451.5C342 451.5 343.8 451.7 344.6 450.7C345.4 449.7 345.4 447.8 345.4 447.5C345.5 446 357.6 441 355.6 427.4Z" fill="#0095CA"/>
<path d="M350 443.3C349.8 442 349.6 440.6 350.1 439.3L350 443.3Z" fill="#0095CA"/>
<path d="M344.6 437.7C344.8 440.3 345 442.9 345.2 445.5L344.6 437.7Z" fill="#0095CA"/>
<path d="M225.57 165.451C232.203 162.704 236.604 158.12 235.4 155.211C234.196 152.303 227.842 152.172 221.208 154.919C214.575 157.666 210.174 162.25 211.379 165.159C212.583 168.067 218.937 168.198 225.57 165.451Z" fill="#0095CA"/>
<path d="M523.5 655.5C517.2 642.1 495.6 656.9 484.6 661.7C471.9 667.2 461.3 678.9 460.4 692.6C459.9 700.2 462.7 707.7 467.5 713.6C463 725.8 460.8 738.1 455.8 750.3C455 752.3 454.3 757.8 454.2 759.9C454.1 763.7 460.2 764.6 460.9 768.4C464.4 787.4 475.3 795.3 483.7 807.8C486.1 811.4 484.9 815.7 488.5 818C492.5 820.5 503.3 818.7 507.9 818C512.2 817.3 511.2 813.4 507.6 810.9C503.8 808.3 503.1 805.1 497.1 800.4C492.8 797.1 488.9 793.2 486.4 788.5C478.3 773.6 476.4 754.8 484.9 740.3C489.4 732.7 495.7 726.5 502.3 720.7C507.3 718.2 512.1 714.8 516.6 711.4C531.3 700.1 529.7 668.6 523.5 655.5Z" fill="#0095CA"/>
<path d="M638.4 682.901C645.5 680.601 652.3 686.901 650.5 694.101C644.6 718.001 641.8 742.901 645.3 767.001C646.8 777.401 650.8 792.801 656.1 802.001C658.3 805.801 664.7 809.601 667.8 812.501C670 814.601 668.6 818.401 665.5 818.501C660 818.601 655.3 819.601 650.5 816.701C649.2 815.901 647.1 812.101 646.2 810.901C630 790.001 618.1 765.801 611.3 740.201C608.9 731.101 607.2 721.401 609.8 712.401C613.8 699.001 626.4 690.301 638.4 682.901Z" fill="#0095CA"/>
<path d="M440.9 623.301C441.8 641.601 434.3 660.201 420.8 672.701C407.4 685.201 388.3 691.301 370.1 689.101C354.7 687.201 340.2 679.401 330 667.701C318.9 654.901 313.2 637.401 315.6 620.601C317.9 603.801 328.5 588.201 343.7 580.601C359.7 572.601 380.3 574.101 394.3 585.501C395.9 586.801 396.8 588.901 396.4 590.901C395.6 595.301 390 595.201 385.8 595.601C374 596.501 364.4 608.001 364.6 619.801C364.8 631.601 374 642.401 385.5 645.301C397 648.201 409.7 643.801 417.6 635.001C423.1 628.901 426.4 621.101 431.5 614.601C438 606.501 447.5 605.101 456.7 601.601C468.4 597.201 480.7 595.401 493.2 595.401C513.7 595.401 534 599.601 554.5 600.601C576.1 601.701 611.5 598.901 628.6 584.401C643.1 572.101 635.1 550.001 646.6 535.901C670.9 506.101 692.7 516.401 708.1 531.801C715.4 539.101 727 540.401 737.7 539.901C745.7 539.601 750.3 543.701 747.3 551.001C745.1 556.301 740.4 562.801 736.4 566.701C727.5 575.501 714.9 573.601 701.3 573.301C694.3 573.101 687.2 589.801 687 596.801C685.7 651.301 682.4 674.401 663.5 693.701C637.9 719.801 633.5 711.701 596.9 711.701C577.9 711.701 553.6 686.201 522.9 672.901C500.9 663.401 481.5 686.701 466.3 705.201C457.6 715.801 441 715.301 433.1 704.101C426.1 694.101 421 682.901 419 670.901C415.5 650.601 421.4 628.401 436.2 614.301C440.9 609.801 446.3 606.301 452 603.501" fill="#00C7FD"/>
<path d="M600.8 683.501C597.9 684.901 595.5 687.201 593.8 690.001C583.3 707.301 579.2 728.401 582.5 748.401C586.1 770.301 598 789.801 609.6 808.701C612.4 813.301 615.3 818.001 619.6 821.201C622 823.001 626 823.601 629.9 823.501C633.8 823.301 635.7 818.701 633 815.901C609.5 791.301 613.1 754.001 629 726.201C633 719.301 637.8 712.901 641.2 705.601C644.5 698.401 646.2 689.801 643.3 682.401C643.2 682.101 643 681.801 642.9 681.501C639 673.101 628.7 669.801 620.3 673.901L600.8 683.501Z" fill="#00C7FD"/>
<path d="M678.4 532.2C677.7 526.5 675.8 521.6 671.1 519.2C666.4 516.8 660.6 517.8 656 520.2C651.4 522.6 647.6 526.4 643.9 530.1C640.9 533.2 637.8 536.3 634.8 539.3C632.4 541.8 629.8 544.4 628.8 547.7C627.6 551.6 628.8 555.9 630.9 559.4C633 562.9 636.1 565.6 639.2 568.3C645.5 573.9 652.9 579.9 661.2 578.8C668.7 577.8 674.4 571.1 676.6 563.9C678.8 556.7 679.2 539.7 678.4 532.2Z" fill="#0095CA"/>
<path d="M433.2 650.7C428.7 657.5 427 665.7 428.4 673.7C429.2 678.4 430.2 683.1 430.8 687.9C432 697.1 432.1 706.7 428.3 715.1C425.6 721.1 420.5 726.2 414.5 728.5C410.7 729.9 408.6 734.5 409.5 738.4C413.9 756.7 410 776.6 408.6 795.7C408.2 801.7 406.6 813.3 408.7 818.9C411.1 825 417.3 823.1 424.9 823.6C429.3 823.9 433.1 820.4 432.8 816C432.4 810.3 425.7 808.3 422.2 804.1C419.5 800.8 418.9 796.2 418.8 791.9C418.2 773.5 426.2 758 435.8 742.3C445.4 726.5 459.7 713.6 476.3 705.7C482.2 702.9 488.5 700.6 493.7 696.7C501.7 690.6 510.5 677.3 510.2 667.2C510 660.2 502.8 653.3 497.1 647.9C489.7 640.8 475.2 635 465 635.4C461 635.5 457 636.1 453.1 637C444.9 638.8 437.8 643.7 433.2 650.7Z" fill="#00C7FD"/>
<path d="M701.6 605.2C695.5 605.2 689.2 605 682.7 604.5L683 600.6C735.3 604.6 773 592.3 798.4 562.9C820.7 537 830.7 502 840.3 468.2C848.5 439.4 856.2 412.2 871 393.7L874.1 396.1C859.8 414 852.2 440.8 844.1 469.2C834.4 503.5 824.3 538.9 801.4 565.4C778.4 592.1 745.6 605.2 701.6 605.2Z" fill="#0095CA"/>
<path d="M680.6 608.401L630.1 593.001C626.3 591.801 624.2 587.8 625.3 584.1C626.5 580.3 630.5 578.201 634.2 579.301L684.7 594.701C688.5 595.901 690.6 599.9 689.5 603.6C688.4 607.4 684.4 609.501 680.6 608.401Z" fill="#0095CA"/>
<path d="M427 841.1L425.3 841L424.5 840.9C423.3 840.8 422 840.8 420.8 840.8H418.9C405.8 840.8 397.2 835.7 393.3 825.6C390.3 818 390.9 808.8 391.8 798.4L392.1 795.2C392.4 790.5 392.9 785.6 393.4 781.3C394.8 767.4 396.1 754.2 393.4 742.9C390.4 730.6 397 718 408.7 713.7C410.4 713.1 412.3 711.1 413.3 709C413.7 708.1 414 707.1 414.3 706.1C413.1 703.9 411.9 701.7 410.8 699.5C397.3 705.6 382.3 708 368.1 706.2C348.8 703.8 330.3 693.9 317.5 679.2C303.1 662.6 296.2 640 299.2 618.9C302.3 596.4 316.5 576.3 336.3 566.4C345.1 562 355.2 559.6 365.3 559.6C378.4 559.6 391.3 563.6 401.6 570.9C411.1 577.7 415.1 587.4 412.2 597C407.8 611.5 393 612.5 388.1 612.8L387.1 612.9C384.3 613.1 381.2 617 381.3 620.2C381.4 624.3 385.2 628.7 389.7 629.9C390.7 630.1 391.7 630.3 392.8 630.3C397.3 630.3 402.1 628.1 405.3 624.6C407.3 622.4 409.1 619.3 411.1 616.1C413.2 612.6 415.6 608.7 418.6 604.9C426.8 594.7 437.2 591.3 445.6 588.6L446.3 588.4C447.8 587.9 449.4 587.4 450.9 586.8C463.6 582 477.9 579.6 493.2 579.6C505.8 579.6 518.1 581 529.9 582.4C538.7 583.4 546.9 584.4 555.3 584.8C557.8 584.9 560.3 585 562.8 585C582.1 585 600.1 581.8 611.1 576.5C612.5 573.6 614.5 571 617 568.9C612.1 561 610.8 551.9 613.2 543.8C615.4 536.4 620.1 531.7 623.3 528.5L632.4 519.3C636.5 515.1 641.6 509.9 648.6 506.3C653.8 503.6 659.5 502.2 665.1 502.2C666.1 502.2 667 502.2 668 502.3C671.5 501.5 675.1 501 678.6 501C692.8 501 706.7 507.7 719.9 520.8C721.1 522 724.7 524.1 734.2 524.1C735.2 524.1 736.2 524.1 737.2 524H738.6C748.5 524 756.5 527.9 761.2 534.9C763.8 538.8 767.4 547 762.8 558.2C760 565 754.9 572.2 750.4 577.1C797.9 558.6 811.5 510.7 824.7 464.3C825.8 460.3 826.9 456.4 828 452.6C834.9 427.7 840.8 406.2 855.5 387.8L860.8 381C867 373 878.3 371.4 886.5 377.3C890.7 380.3 893.4 384.9 894 390C894.7 395.1 893.2 400.2 889.9 404.2L887.4 407.2C875.2 422.5 868 447.7 860.4 474.5C851.1 507.1 840.6 544.1 817.9 572.9C791.7 606.2 754.1 622.4 702.8 622.5C700.8 661.5 695.8 685.3 675.5 706.1C671 710.7 667 714.4 663.2 717.4C660.4 734.8 660 751 662 765.4C663.2 774.1 666.7 787.3 670.3 793.6C671 794.3 673.2 796 674.1 796.6L674.2 796.7C676 798 678 799.6 679.5 801C685.4 806.6 687.4 815.2 684.4 822.8C681.5 830.4 674.3 835.5 666.2 835.7C665.4 835.7 664.6 835.8 663.8 835.8H663.7C662.2 835.9 660.7 835.9 659.3 835.9C656 835.9 651.3 835.6 646 833.3C642.2 837.6 636.8 840.2 631 840.5C630.3 840.5 629.7 840.5 629 840.5C621.3 840.5 614.7 838.5 609.9 834.8C603.1 829.6 599.1 823.1 595.9 817.8C584.1 798.6 570.8 776.9 566.6 751.5C564.8 740.7 564.9 729.6 566.7 718.6C561.4 715.6 556.1 712.1 550.9 708.7L538.2 712.2C535.4 717.4 531.8 721.8 527.4 725.1C524 727.7 518.7 731.6 512.8 734.8C508 739.2 503.1 744 500 749.3C495.1 757.6 495.8 770.1 501.8 781.1C503 783.3 505.1 785.6 508 787.8C512.9 791.5 515.5 794.8 517.3 796.9C517.4 797.1 517.6 797.2 517.7 797.4C517.9 797.6 518 797.8 518.1 797.9C525.9 803.4 529.6 812 527.7 820.3C525.9 828.1 519.6 833.7 511.2 835L510.5 835.1C507.4 835.6 501.6 836.5 496.1 836.5C489.5 836.5 484.5 835.3 480.3 832.6C472.4 827.6 470.7 820 470 816.7V816.6C468.3 814.1 466.3 811.7 464.3 809.3C457.6 801.1 450.1 791.8 446.3 776.7C443.9 774.7 442.1 772.5 440.7 770.2C437.3 778.2 435.9 784.9 436.1 792C436.1 793.1 436.2 793.9 436.3 794.5C436.4 794.6 436.6 794.7 436.7 794.8C436.9 794.9 437.1 795.1 437.3 795.2C441.1 798 448.9 803.7 450 814.5C450.7 821.3 448.4 828.5 443.7 833.6C438.8 838.5 433.1 841.1 427 841.1ZM425.7 836.1H427C431.6 836.1 436.1 834.1 439.4 830.4C443.1 826.3 445 820.6 444.4 815.1C443.5 806.5 437.3 801.9 433.7 799.2C433.5 799.1 433.3 798.9 433.2 798.8C432.9 798.6 432.6 798.4 432.3 798.1H432.2L431.5 797.4L433.3 795.7L431.6 794C430.9 794.7 430.9 795.5 430.9 795.6C430.9 795.5 430.9 795.4 430.9 795.2C430.8 794.6 430.8 793.6 430.7 792.2C430.4 782.9 432.7 773.8 438.3 762.7L441.6 756.1L442.9 763.4C443.6 767.3 445.7 770.6 449.5 773.5L450.2 774L450.4 774.8C453.9 789.3 461.1 798.3 467.6 806.2C469.7 808.8 471.9 811.5 473.8 814.2L474.1 814.6L474.3 815.7C475 818.8 476.3 824.6 482.5 828.5C485.8 830.6 490 831.6 495.6 831.6C500.7 831.6 506.3 830.7 509.2 830.3L509.9 830.2C516.2 829.2 521 825.1 522.3 819.3C523.8 813 520.8 806.3 514.5 802L514.2 801.8C513.8 801.4 513.4 801 513.1 800.6C513 800.5 512.9 800.3 512.8 800.2C511.2 798.2 508.8 795.2 504.3 791.9C500.8 789.3 498.3 786.5 496.7 783.7C489.9 771.2 489.2 756.8 495 747.1C498.5 741.1 503.8 736 509 731.2L509.2 731L509.5 730.9C515.2 727.8 520.3 724.1 523.7 721.5C527.7 718.4 531.1 714.3 533.6 709.3L534.1 708.3L551.1 703.7L552 704.3C557.9 708.2 564.1 712.2 570 715.5L571.5 716.4L571.2 718.1C569.2 729.2 569.1 740.3 570.8 751.1C574.8 775.6 587.9 796.8 599.4 815.6C602.5 820.6 606.2 826.7 612.3 831.3C616.3 834.4 621.9 836 628.4 836C629 836 629.6 836 630.2 836C635.1 835.8 639.8 833.3 642.7 829.2L643.9 827.5L645.8 828.5C650.8 831.1 655.6 831.4 658.7 831.4C660 831.4 661.4 831.3 662.9 831.3C663.8 831.2 664.7 831.2 665.6 831.2C671.7 831.1 677.1 827.3 679.3 821.5C681.5 815.7 680.1 809.3 675.6 805.1C674.2 803.8 672.3 802.3 670.7 801.1L670.6 801C668.5 799.4 666.7 798 665.9 797.1L665.7 796.7C661.8 789.9 658.1 776 656.7 766.5C654.5 751.3 655 734.4 658 716.1L658.2 715.2L659 714.6C662.8 711.6 666.9 707.9 671.5 703.1C691.2 683 695.7 659.5 697.6 620.4L697.7 618H700.1C700.7 618 701.2 618 701.7 618C751.7 618 788.3 602.4 813.6 570.2C835.7 542.2 846 505.7 855.2 473.5C863 446.3 870.3 420.5 883.1 404.5L885.6 401.4C888 398.5 889.1 394.8 888.6 391C888.1 387.2 886.1 383.9 883.1 381.7C877.1 377.3 868.8 378.5 864.2 384.4L858.9 391.3C844.8 408.9 839 430 832.3 454.4C831.2 458.2 830.2 462.1 829 466.1C814.4 517.6 799.2 570.9 739 586.2L720.7 590.9L737.1 581.7C739.7 580.2 742.1 578.4 744.3 576.3C748.8 571.8 754.7 564 757.7 556.8C761.5 547.7 758.6 541.2 756.6 538.2C752.9 532.6 746.3 529.5 738.2 529.5H736.9C735.9 529.5 734.8 529.6 733.8 529.6C725.2 529.6 719.2 528 716 524.8C703.8 512.6 691.1 506.4 678.2 506.4C674.9 506.4 671.6 506.8 668.3 507.6L667.9 507.7H667.5C666.6 507.6 665.7 507.6 664.7 507.6C659.9 507.6 655 508.8 650.5 511.2C644.2 514.5 639.4 519.4 635.5 523.3L626.4 532.5C623.6 535.3 619.4 539.6 617.6 545.8C615.6 552.6 616.8 560.3 621 567C621.3 567.5 621.7 568.1 622 568.6L623.5 570.7L621.4 572.1C618.5 574 616.3 576.7 614.9 579.9L614.5 580.7L613.7 581.1C602 587 582.9 590.5 562.4 590.5C559.8 590.5 557.2 590.4 554.7 590.3C546.1 589.9 537.4 588.9 529 587.9C517.2 586.5 505.1 585.1 492.8 585.1C478 585.1 464.4 587.4 452.2 592C450.6 592.6 449 593.1 447.4 593.7L446.7 593.9C439 596.4 429.3 599.6 422 608.6C419.2 612.1 416.9 615.9 414.9 619.2C412.8 622.7 410.8 625.9 408.5 628.5C404.4 633 398.2 635.8 392.3 635.8C390.8 635.8 389.3 635.6 388 635.3C381.3 633.6 376 627.2 375.9 620.9C375.8 615 380.9 609 386.3 608.6L387.3 608.5C392.2 608.2 403.6 607.4 407 596.2C409.3 588.8 406 581.1 398.3 575.6C388.9 568.9 377 565.3 364.9 565.3C355.5 565.3 346.2 567.5 338.1 571.6C319.8 580.8 306.6 599.5 303.7 620.4C300.9 640.1 307.4 661.2 320.9 676.8C332.9 690.7 350.2 699.9 368.3 702.2C382.4 704 397.3 701.4 410.5 694.9L412.8 693.8L413.9 696.1C415.3 699.2 416.9 702.3 418.7 705.3L419.2 706.1L419 707C418.6 708.8 418.1 710.4 417.5 711.9C416 715.2 413.1 718.1 410.1 719.2C400.8 722.6 395.5 732.7 397.9 742.6C400.8 754.7 399.5 768.3 398 782.6C397.6 786.9 397.1 791.7 396.7 796.4L396.4 799.7C395.5 809.4 395 818 397.6 824.7C401.8 835.5 411.6 836.7 418.6 836.7H420.5C421.8 836.7 423.2 836.7 424.7 836.9L425.7 836.1Z" fill="#FF5662"/>
</svg>
