<svg width="212" height="120" viewBox="0 0 1124 877" fill="none" xmlns="http://www.w3.org/2000/svg">
<path opacity="0.1" d="M1089.36 811.1C1088.83 811 1082.07 810.04 1081.53 810C748.98 783.32 454.45 792.03 117.26 795.58C91.25 795.85 64.33 796.23 40.73 801.94C17.13 807.65 -2.29999 820.26 1.16001 833.42C4.80001 847.25 32.15 856.63 59.2 858.44C86.25 860.26 113.45 856.39 140.25 853.56C292.22 837.5 448.39 854.17 601.17 866.45C753.95 878.73 916.98 885.93 1058.43 852.96C1074.03 849.32 1089.84 844.96 1099.76 837.8C1108.2 831.71 1110.89 823.24 1104.55 816.71C1100.84 812.89 1094.8 812.15 1089.35 811.09L1089.36 811.1Z" fill="white"/>
<path opacity="0.07" d="M390.88 752.429C259.79 752.429 166.74 727.779 113.15 632.839C111.86 630.549 110.6 628.229 109.38 625.899C92.4501 593.379 82.9401 555.679 92.0601 520.389C101.18 485.099 132.3 453.709 170.03 451.179C207.77 448.649 246.05 482.399 239.73 518.259C236 464.889 182.44 411.529 178.72 358.159C176.38 324.659 186.69 294.219 213.42 271.129C232.6 254.569 282.43 242.919 309.47 279.899C327.83 305.019 341.76 328.329 348.38 356.499C331.71 311.779 314.78 264.679 322.66 217.779C330.54 170.879 372.6 125.639 421.75 130.469C463.34 134.559 492.93 170.779 512.81 206.139C560.89 291.679 582.31 390.859 573.61 487.729C563.43 443.419 613.21 397.459 658.85 409.049C704.49 420.639 724.18 484.229 692.57 517.929C695.02 489.569 735.04 474.899 760.88 488.799C786.72 502.689 796.96 534.799 792.89 562.989C792.64 564.749 792.34 566.499 792 568.239C783.84 609.939 750.62 643.009 708.21 654.749L689.05 672.199C633.06 723.179 558.97 751.739 481.85 752.049L390.89 752.419L390.88 752.429Z" fill="white"/>
<path opacity="0.06" d="M507.15 763.01C450.19 739.94 401.71 690.05 367.91 645.56C269.57 516.13 436.2 560.23 413.15 519.58C379.86 460.88 435.11 408.47 498.42 410.99C454.24 363.33 496.72 351.48 505.74 318.01C514.76 284.54 471.43 265.42 504.7 245.07C546.32 219.6 588.06 239.3 600.42 226.08C608.85 217.06 569.3 186.37 598.29 151.56C636.91 105.17 680.02 175.23 721.23 131.13C730.47 121.25 726.48 94.9898 759.21 74.1598C797.19 49.9898 827.03 64.9398 839.99 71.3398C857.17 79.8298 877.73 100.74 878.34 117.32C880.28 170.35 867.16 185.89 847.71 212.87C832.69 233.7 854.7 261.03 878.26 250.82C878.46 250.73 878.65 250.65 878.85 250.56C898.53 242.04 922.99 234.96 942.03 244.42C964.16 255.41 965.09 282.74 953.83 301.98C942.56 321.23 922.7 336.08 909.54 354.48C896.38 372.88 891.57 398.86 909.73 414.06C921.78 424.14 940.86 426.77 952.55 437.13C966.08 449.13 965.65 468.56 956.95 483.33C948.26 498.1 932.96 509.31 918.2 520.27C901.08 532.97 882.64 552.17 893.62 568.9C908.72 591.92 957 577.67 978.83 596.61C996.83 612.22 984.45 638.02 969.49 655.7C934 697.62 894.24 723.23 841.01 749.19" fill="white"/>
<path opacity="0.05" d="M732.61 642.3C737.34 640.27 742.44 639 747.67 638.56C758.22 637.67 767.86 631.3 771.29 621.28C771.54 620.55 771.82 619.83 772.13 619.12C780.25 600.44 804.49 591.79 823.71 598.53C827.26 599.77 830.6 601.46 833.7 603.5C839.94 607.61 848.08 602.43 847.46 594.99C843.81 550.82 854.5 505.4 878.81 468.18C884.78 459.04 894 452.27 904.75 450.36C933.44 445.28 948.2 477.06 953.55 503.25C956.06 515.55 958.11 527.94 959.69 540.39C960.93 550.17 973.39 553.59 979.54 545.88C986.49 537.16 995.18 530.06 1005.52 525.76C1011.93 523.09 1018.84 521.56 1025.78 521.57C1061.22 521.57 1085.39 562.22 1081.65 597.46C1079.76 615.21 1073.06 631.61 1064.08 647.08C1064.95 646.71 1065.79 646.28 1066.67 645.95C1082.72 639.81 1102.89 641.09 1114.65 653.63C1126.36 666.12 1126.34 686.5 1118.25 701.58C1110.16 716.67 1095.59 727.23 1080.44 735.2C1023.2 765.3 950.46 763.56 894.73 730.76C849.69 767.1 779.99 768.67 733.36 734.4C729.84 731.81 726.42 728.96 723.33 725.83C713.36 717.42 706.6 704.77 705.93 689.11C704.99 667.21 716.38 648.32 732.63 642.3H732.61Z" fill="white"/>
<path d="M984.34 810.86C981.23 807.81 969.55 806.19 964.23 805.01C960.47 804.18 956.33 802.94 952.84 801.32C945.07 797.72 921.99 787.48 921.99 787.48C917.66 784.96 912.47 784.41 907.7 785.96L905.36 763.1C914.51 762.01 923.44 759.12 926.73 751.47C928.32 747.77 928.17 743.64 927.97 739.65C922.42 628.11 900.33 521.86 863.59 416.72C866.38 411.14 869.46 405.99 872.95 401.38L873.66 406.67C873.94 408.9 875.41 410.85 877.49 411.73L885.55 415.16C886.79 415.69 888.16 415.65 889.31 415.06L901.75 408.62C905.83 406.51 907.96 401.92 907.05 397.22L906.34 393.58L895.59 375.11C880.47 367.6 874.74 363.17 874.74 363.17C874.74 363.17 854.25 342.78 838.72 328.06C836.68 315.27 836.89 302.06 839.04 291.65C841.87 277.98 861.17 263.75 860.66 252.5C860.06 239.27 856.3 225.27 850.67 203.37C850.21 201.57 849.87 199.82 849.61 198.12C850.32 195.26 850.84 192.58 851.13 188.71C851.84 179.08 850.26 172.11 842.12 166.35C839.76 164.68 837.11 163.44 834.34 162.63L832.95 132.99C835.12 134.37 837.38 135.86 839.72 137.46C856.59 149.05 863.16 130.15 865.63 108.05L870.67 106.48C872.79 105.82 873.74 103.36 872.62 101.45L866.76 91.4797C866.87 86.3697 866.67 81.6797 866.13 77.4197C865.54 72.7697 864.54 68.6497 863.16 64.9997C864.44 63.5797 865.57 61.8397 866.5 59.6597C867.87 56.4697 868.7 52.9997 868.58 49.5297C868.08 35.4397 852.06 26.4497 837.97 26.9597C830.13 27.2497 822.52 29.5097 815.01 31.7697C810.82 33.0297 803.79 33.0297 799.44 33.5297C785.33 35.1497 781.91 38.1697 775.94 44.9597C770.23 51.4497 766.39 60.2497 767.51 68.9997C768.51 76.8497 769.58 91.7397 763.2 96.3997C759.25 99.2897 755.77 102.66 753.29 106.88C748.32 115.31 749.51 128.11 757.83 132.84C758.17 133.03 758.09 133.49 757.71 133.55C747.47 135.25 740.06 147.33 743.59 157.21C746.1 164.24 753.61 168.63 760.98 168.7C764.88 168.74 767.93 171.69 768.39 175.57C768.93 180.13 771.41 184.5 775.2 187.01C771.36 198.8 769.5 215.17 772.37 237.26C779.48 291.96 762.09 315.2 757.69 356.74C756.96 363.66 752.36 384.05 752.36 384.05C752.77 388.35 753.98 390.83 755.84 392.09C750.84 426.63 759.98 469.1 760.77 502.07C761.56 534.9 761.67 554.22 760.98 567.7C760.59 575.25 758.81 585.11 756.39 595.9C738.75 602.68 717 606.02 689.9 604.67C689.71 602.61 688.62 600.73 686.93 599.52C687.73 592.03 694.5 577.01 701.15 577.17C714.76 577.49 727.36 579.4 736.26 570.57C740.19 566.67 744.94 560.16 747.14 554.84C750.19 547.47 745.52 543.38 737.55 543.7C726.82 544.13 715.24 542.88 707.94 535.57C697.47 525.1 684.09 517.03 668.99 522.18C664.77 521.02 660.04 521.93 656.11 523.98C651.47 526.4 647.71 530.19 644.04 533.92C641.01 537 637.97 540.07 634.94 543.15C632.5 545.63 629.97 548.24 628.96 551.57C627.78 555.47 628.93 559.77 631.09 563.22C632.83 566 635.18 568.33 637.61 570.55C636.75 574.92 635.46 579.09 633.1 582.78C629.73 582.39 626.46 584.43 625.44 587.79C625.16 588.72 625.07 589.67 625.17 590.59C607.14 602.86 574.6 605.26 554.35 604.26C533.85 603.25 513.54 599.09 493.01 599.08C480.58 599.08 468.21 600.85 456.55 605.25C447.37 608.71 437.9 610.13 431.38 618.25C426.22 624.67 422.97 632.5 417.46 638.62C409.56 647.39 396.82 651.86 385.39 648.91C373.96 645.96 364.72 635.2 364.52 623.4C364.32 611.6 373.95 600.15 385.71 599.25C389.91 598.93 395.5 598.96 396.35 594.58C396.74 592.55 395.85 590.48 394.24 589.17C380.32 577.78 359.68 576.23 343.69 584.25C330.44 590.9 320.66 603.69 316.86 618.03C315.92 615.79 315 613.54 314.12 611.29C308.83 597.61 304.36 584.74 302.62 575.29C300.2 562.12 297.82 543.11 294.36 510.72C292.73 495.49 292.63 477.96 292.03 460.21C310.7 436.42 308.14 410.79 306.05 395.63C307.28 394.2 307.65 391.52 307.05 386.58L289.35 320.67C281.52 287.8 284.72 276.14 280.14 245.08C295.82 262.34 307.73 279.99 319.68 303.96C319.73 304.07 319.86 304.28 320.01 304.54L320.19 304.49C319.9 312.29 320.26 319.72 320.48 323.73C322.29 356.87 324.73 369.42 327.84 401.26L326.58 402.76C323.38 406.88 329.6 443.84 329.6 443.84C329.72 445.36 331.23 446.52 332.67 446.01C336.36 444.69 334.35 437.18 334.82 430.72C334.92 429.39 338.7 433.62 339.14 434.88L345.34 452.76C345.72 453.86 346.32 455.15 347.49 455.27C347.82 455.3 349.57 455.48 350.34 454.48C351.11 453.48 351.19 451.61 351.19 451.28C351.19 449.79 363.36 444.75 361.35 431.21C360.02 422.21 359.69 417.08 357.47 408.25C355.9 401.99 353.61 403.23 351.4 393.05C346.84 364.31 350.39 347.2 350.39 313.97C350.39 305.36 352.44 298.45 350.18 292.08C349.59 289.57 348.55 286.51 346.86 282.35C337.79 259.93 323.55 239.98 306.93 222.4C305 220.35 303.02 218.33 300.98 216.38C304.11 214.01 307.08 211.53 308.66 208.23C309.71 206.03 308.22 203.34 305.81 203.02C303.22 202.67 300.68 201.47 298.63 199.81C297.71 199.07 296.89 198.23 296.11 197.36C294.1 193.99 292.36 190.98 291.02 188.48C288.55 183.85 285.49 178.94 281.81 174.64C280.9 173.36 279.96 172.09 278.94 170.89C272.94 163.87 264.33 158.46 254.71 159.93C253.2 159.33 251.59 158.93 249.85 158.82C247.04 158.64 244.21 158.91 241.22 159.57C241.19 159.4 241.2 159.22 241.13 159.06C241.1 158.99 241.03 158.93 240.99 158.86L237.35 138.7C239.6 141.06 244.37 133.24 245.66 130.93C250.27 122.62 260.21 125.61 265.17 117.51C269.44 110.55 263.82 108.26 273.38 96.8097C276.18 93.4597 276.99 88.8697 275.93 84.6297C275.65 83.4997 275.44 82.6897 275.41 82.6097C273.09 76.2697 277.45 69.6597 279.1 63.1097C281.25 54.5297 278.29 44.8697 271.69 38.9797C265.19 33.1797 257.96 31.2397 249.41 29.5697C239.99 27.7297 235.85 25.7297 226.44 23.8997C220.35 22.7097 213.71 21.5897 208.19 24.4297C200.75 28.2497 197.35 38.3197 189.24 40.3397C185.58 41.2497 181.86 39.7697 177.97 40.5897C177.95 40.5897 177.93 40.5897 177.9 40.5997C157.67 44.9397 161.29 64.9297 172.01 70.6997C173.5 71.4597 175.15 71.7197 177.39 72.5397C175.73 77.2297 174.9 82.7097 174.91 89.0297C174.91 91.7397 175.07 94.6097 175.38 97.6197L169.8 110.68C168.94 112.7 170.18 115 172.35 115.38L178.66 116.49C183.79 139.05 192.72 158.83 208.46 144.76C210.56 142.89 212.59 141.14 214.55 139.51L216.88 168.47C211.19 170.12 207.55 172.79 205.17 175.81C197.32 178.69 193.8 184.37 191.34 192.79C188.49 202.54 189.97 205.24 186.7 223.52C185.63 230.91 185.18 229.75 184.11 237.14C183.68 240.13 185.48 243 188.37 243.89C190.26 244.47 192.25 244.97 194.27 245.37C194.6 248.14 195.03 250.96 195.48 253.84C197.64 267.82 200.41 294.64 193.66 307.06C190.94 312.06 186.72 313.41 183.89 315.48C180.72 317.7 172.59 320.24 167.54 322.2C149.8 329.08 119.43 345.71 119.43 345.71C119.43 345.71 114.7 347.18 103.59 348.67C98.3001 349.38 93.3201 351.57 89.1901 354.95L79.1901 363.14L77.2501 366.3C74.7501 370.37 75.1401 375.42 78.2301 378.83L87.6201 389.22C88.4901 390.17 89.7601 390.69 91.1001 390.63L99.8601 390.24C102.11 390.14 104.18 388.82 105.22 386.84L109.05 379.67C116.68 379.3 119.79 373.65 120.99 370.06C121.62 368.18 123.09 366.72 124.99 366.16L136.12 362.89C160.92 354.65 159.96 356.39 194.41 340.44C197.54 338.99 201.54 336.77 205.48 334.15C204.52 345.02 203.63 352.23 203.63 352.23C202.11 371.04 199.06 378.22 199.06 397.59C199.06 401.47 200.15 404.18 202.12 405.99C202.75 409.83 203.67 413.61 204.09 416.05L206.8 430.86C157.86 529.53 125.32 633.55 105.1 741.82C104.37 745.71 103.67 749.75 104.74 753.6C106.96 761.56 115.35 765.59 124.19 767.89L118.76 790.39C114.51 788.4 109.63 788.18 105.22 789.85C105.22 789.85 80.9701 796.08 72.7801 798.32C69.0901 799.33 64.8501 799.87 61.0301 800.06C55.6401 800.34 43.9501 800.01 40.4101 802.48C36.4701 805.22 38.0701 810.53 42.9401 812.11C62.3101 818.39 118.16 825.64 138.51 825.08C142.92 824.96 146.45 822.57 146.66 818.36L147.85 794.66C148.2 792.53 146.04 790.85 144.06 791.72C142.72 792.31 141.48 792.8 140.27 793.24L149.3 771.29C159.25 771.39 168.7 769.36 174.47 762.2C180.72 754.45 179.92 743.69 180.06 733.88C180.43 708.43 188.97 683.93 197.44 659.89C207.14 632.34 212.72 611.04 222.41 583.49C225.21 575.54 230.3 560.7 235.78 546.44C251.9 614.01 268.86 673.84 301.55 740.98C305.21 748.5 309.56 756.56 317.7 759.93C324.51 762.75 332.36 761.74 339.91 759.77L351.79 788.84C347.51 787.49 342.86 787.95 338.94 790.17C338.94 790.17 317.6 799.34 310.41 802.57C307.18 804.02 303.36 805.12 299.89 805.84C294.99 806.86 284.23 808.23 281.33 811C278.12 814.08 280.33 818.71 285.02 819.46C303.67 822.45 355.9 821.12 374.47 817.71C378.5 816.97 381.39 814.27 380.99 810.39L378.7 788.5C378.71 786.49 376.5 785.27 374.81 786.35C374.05 786.83 373.32 787.28 372.61 787.7L361.95 752.78C363.41 752.3 364.38 751.98 364.38 751.98C376.17 747.54 381.48 734.77 375.85 724.43C369.41 712.61 362.35 700.82 355.23 688.98C360.02 690.84 365 692.18 370.1 692.82C387.65 695.02 406.01 689.35 419.36 677.76C421.52 687.78 425.75 697.24 431.45 705.8C431.14 710.36 430.21 714.82 428.32 718.98C425.61 724.94 420.54 730.07 414.53 732.34C410.75 733.77 408.61 738.31 409.55 742.24C413.92 760.51 410.01 780.4 408.65 799.5C408.23 805.46 406.6 817.11 408.78 822.68C411.16 828.77 417.42 826.86 424.96 827.42C429.34 827.75 433.16 824.18 432.9 819.8C432.55 814.05 425.8 812.11 422.32 807.9C419.59 804.59 419.04 800.03 418.9 795.75C418.27 777.31 426.33 761.9 435.92 746.13C443.43 733.77 453.85 723.23 466.01 715.41C466.48 716.08 466.97 716.75 467.49 717.38C463 729.58 460.8 741.89 455.83 754.07C455.01 756.08 454.35 761.52 454.28 763.7C454.16 767.52 460.33 768.44 461.01 772.2C464.46 791.19 475.39 799.12 483.83 811.6C486.24 815.17 485 819.51 488.63 821.83C492.58 824.36 503.38 822.54 508.05 821.83C512.35 821.18 511.37 817.23 507.79 814.76C504.03 812.15 503.33 808.91 497.26 804.28C492.96 801.01 489.11 797.08 486.53 792.34C478.39 777.4 476.52 758.59 485.05 744.16C489.52 736.61 495.86 730.4 502.4 724.51C507.4 722.05 512.2 718.64 516.71 715.19C526 708.09 528.73 692.8 527.93 679.21C550.5 690.2 569.44 706.81 585.27 713.1C581.41 725.71 580.38 739.19 582.53 752.2C586.13 774.07 597.99 793.57 609.6 812.45C612.42 817.03 615.33 821.72 619.61 825C621.98 826.82 625.97 827.43 629.94 827.25C633.83 827.08 635.77 822.42 633.08 819.61C618.1 803.96 614.14 783.14 617.33 762.9C624.28 781.49 634.02 799.04 646.19 814.72C647.13 815.93 649.19 819.72 650.49 820.51C655.28 823.43 659.98 822.47 665.48 822.33C668.53 822.26 669.99 818.42 667.78 816.32C664.74 813.45 658.29 809.61 656.1 805.83C650.83 796.71 646.79 781.3 645.31 770.87C642.52 751.2 643.92 730.93 647.71 711.15C652.18 708.24 657.13 703.93 663.32 697.6C680.95 679.58 685 658.28 686.55 611.42C687.64 610.75 688.55 609.8 689.16 608.61C693.51 608.84 697.78 609 701.87 609C722.9 609 740.46 605.99 755.32 600.73C754.97 602.23 754.61 603.73 754.24 605.25C744.22 646.42 722.7 686.63 707.35 726.41C703.07 737.49 710.06 749.56 722.43 752.45C722.43 752.45 724.26 752.8 726.76 753.27L717.75 785C717.03 784.59 716.29 784.16 715.51 783.68C713.78 782.63 711.57 783.9 711.63 785.93L709.75 808.04C709.42 811.96 712.39 814.62 716.46 815.29C735.25 818.37 787.93 818.67 806.67 815.29C811.38 814.44 813.53 809.72 810.23 806.69C807.26 803.96 796.38 802.78 791.42 801.85C787.91 801.19 784.04 800.16 780.75 798.76C773.44 795.65 751.75 786.82 751.75 786.82C747.76 784.66 743.06 784.28 738.77 785.73L749.77 757.23C756.98 757.97 764.22 757.68 770.15 754.26C777.85 749.83 781.14 741.2 783.81 733.2C807.3 662.95 816.49 601.77 823.69 533.47C824.1 532.57 824.49 531.66 824.88 530.76C828.02 544.44 830.71 557.99 832.27 565.57C838.22 594.41 840.91 616.45 846.86 645.29C852.05 670.46 857.27 696.1 854.19 721.57C853 731.39 850.74 742.03 855.93 750.62C860.72 758.56 869.89 761.87 879.84 763.12L885.38 784.34C884.64 783.89 883.88 783.41 883.08 782.89C881.26 781.7 878.83 783 878.82 785.18L876.06 808.94C875.57 813.15 878.68 816.12 883.05 816.98C903.19 820.93 959.94 823.03 980.25 820.02C985.36 819.26 987.83 814.25 984.37 810.87L984.34 810.86ZM864.77 385.45C864.66 388.88 865.46 394.43 870.85 397.69C867.5 401.93 864.51 406.63 861.8 411.69C857.63 399.93 853.32 388.17 848.79 376.43C850.4 375.42 851.65 374.27 852.49 372.95C852.7 373.12 852.9 373.27 853.12 373.45L862.4 380.41C863.98 381.6 864.85 383.48 864.78 385.46L864.77 385.45Z" fill="#00C7FD"/>
<path d="M425.49 849.58C424.75 849.58 424.01 849.55 423.28 849.5C422.53 849.44 421.63 849.44 420.76 849.44H418.94C405.23 849.44 395.55 844.57 390.11 834.96C386.66 837.18 382.7 838.74 378.48 839.52C364.29 842.13 337.68 843.3 317.6 843.3C306.66 843.3 291.51 842.96 281.5 841.36C270.66 839.62 261.98 832.27 258.83 822.18C255.82 812.51 258.56 802.09 265.99 794.98C272.61 788.65 281.49 786.64 292.42 784.68L292.76 784.62C293.74 784.44 294.62 784.29 295.35 784.13C297.65 783.65 299.88 782.98 301.32 782.33C302.76 781.69 304.8 780.78 307.44 779.63C292.23 772.53 285.35 758.4 281.59 750.68C261.71 709.85 246.5 670.08 232.76 622.86C232.19 624.67 231.63 626.48 231.05 628.31C227.23 640.54 223.29 653.12 218.32 667.24C210.55 689.31 202.52 712.14 202.2 734.19C202.18 735.19 202.18 736.21 202.18 737.23V737.45C202.15 748.32 202.1 763.21 191.71 776.11C186.14 783.02 178.77 787.93 169.79 790.72C170.06 792.59 170.11 794.49 169.94 796.4L168.78 819.48C167.99 835.12 155.5 846.79 139.09 847.24C138.16 847.27 137.16 847.28 136.12 847.28C112.45 847.28 57.6302 840.18 36.0802 833.2C25.4502 829.76 17.8702 821.02 16.2902 810.4C14.7802 800.26 19.1602 790.25 27.7002 784.29C35.4202 778.91 44.5502 778.29 56.6102 778.01H57.0302C58.1002 777.98 59.0702 777.95 59.8702 777.91C62.5502 777.77 65.1202 777.41 66.9002 776.93C71.6602 775.63 81.4902 773.07 88.8702 771.15C86.3802 767.67 84.5302 763.78 83.3502 759.54C80.8702 750.63 82.3702 742.57 83.2702 737.75C104.52 623.97 137.35 522.52 183.63 427.64L182.22 419.93C182.09 419.18 181.92 418.36 181.72 417.45L181.63 417.02C181.49 416.34 181.35 415.67 181.21 414.98C178.31 409.93 176.85 404.09 176.85 397.59C176.85 386.53 177.75 378.74 178.77 371.66C169.58 375.47 164.23 377.16 156.09 379.73L155.94 379.78C152.37 380.91 148.32 382.19 143.06 383.94L142.33 384.17L138.1 385.42C134.65 391 129.88 395.39 124.21 398.22C119.37 406.56 110.48 411.97 100.8 412.41L92.0502 412.8C84.1202 413.15 76.4202 409.95 71.1202 404.11L61.7302 393.72C51.9802 382.94 50.6102 367.27 58.3002 354.72L62.2002 348.37L75.0902 337.82C82.4302 331.81 91.2502 327.97 100.59 326.71C105.95 325.99 109.48 325.3 111.28 324.9C118.97 320.76 143.47 307.76 159.47 301.55C160.97 300.97 162.71 300.34 164.52 299.69C166.4 299.01 170.23 297.64 171.71 296.94L174.69 294.86C175.74 290.52 176.59 279.54 174.14 261.44C165.27 255.4 160.58 244.78 162.14 234C162.77 229.62 163.29 227.38 163.84 225.11C164.14 223.87 164.35 223.05 164.73 220.38L164.85 219.66C166.23 211.91 166.64 207.51 167.01 203.63C167.49 198.56 167.94 193.79 170.03 186.61C171.67 181.01 174.51 173.1 180.69 166.22C172.02 160.28 165.21 149.61 160.41 134.4C156.19 132.05 152.74 128.56 150.41 124.25C146.66 117.34 146.29 109.23 149.38 102.01L152.84 93.9198C152.76 92.2598 152.72 90.6398 152.72 89.0998C152.72 87.3298 152.77 85.5798 152.87 83.8598C144.15 75.1998 139.81 62.5898 141.52 50.6098C143.8 34.5698 155.69 22.7298 173.31 18.9498L173.86 18.8398C176.54 18.3098 179.34 18.1098 182.49 18.2398C182.63 18.0698 182.77 17.9098 182.91 17.7498C186.28 13.7898 190.82 8.45977 198.04 4.74977C203.51 1.93977 209.7 0.509766 216.43 0.509766C221.71 0.509766 226.54 1.36977 230.67 2.16977C236.3 3.26977 240.37 4.41977 243.95 5.43977C247.11 6.32977 249.84 7.10977 253.64 7.84977C263.8 9.82977 275.55 12.7498 286.45 22.4898C299.21 33.8898 304.77 51.9698 300.6 68.5598C299.83 71.6298 298.86 74.2498 298 76.5598C297.77 77.1698 297.5 77.9098 297.26 78.5898L297.43 79.2798C300.25 90.5198 297.62 102.4 290.39 111.06C289.85 111.7 289.48 112.19 289.23 112.55C288.99 116.02 288.41 122.05 284.06 129.13C281.27 133.69 277.65 137.37 273.09 140.26C281.48 143.31 289.22 148.84 295.8 156.53C297.26 158.24 298.49 159.9 299.3 161.02C303.32 165.84 307.12 171.57 310.58 178.07C311.17 179.18 311.88 180.45 312.74 181.94C319.26 183.91 324.79 188.41 328.05 194.44C331.45 200.73 332.09 208.03 329.9 214.74C346.55 233.75 359.17 253.7 367.41 274.07C369.36 278.9 370.62 282.57 371.49 285.97C374.1 294.23 373.45 301.69 372.93 307.7C372.73 309.93 372.55 312.05 372.55 314.02C372.55 325.44 372.15 335.05 371.79 343.54C371.09 360.21 370.59 372.24 373.19 388.99C373.55 390.58 373.66 390.76 373.98 391.27C375.66 394 377.57 397.37 378.97 402.91C380.92 410.67 381.66 416.17 382.44 421.99C382.69 423.84 382.95 425.81 383.28 428.02C385.28 441.56 381.06 453.46 370.73 463.42C369.94 465.1 368.97 466.69 367.85 468.13C363.21 474.1 356.02 477.53 348.1 477.53C347.1 477.53 346.13 477.48 345.14 477.37C342.02 477.04 334.35 475.47 328.67 468.14C324.36 467.55 320.29 465.8 316.87 463.1C316.09 464.44 315.27 465.76 314.42 467.06L314.56 472.24C314.92 485.32 315.25 497.68 316.4 508.43C319.78 540.13 322.07 558.23 324.23 570.27C327.27 568.08 330.45 566.14 333.73 564.49C343.35 559.66 354.25 557.11 365.26 557.11C381.21 557.11 396.49 562.42 408.28 572.07C416.27 578.62 420.04 588.88 418.11 598.86C418.01 599.36 417.9 599.85 417.78 600.34C426.3 591.97 436.18 588.74 443.65 586.3C445.46 585.71 447.17 585.15 448.72 584.57C462.08 579.53 476.98 576.98 493.01 576.98C505.95 576.98 518.39 578.43 530.41 579.82C539.12 580.83 547.32 581.78 555.43 582.18C557.8 582.3 560.29 582.36 562.84 582.36C580.03 582.36 596.35 579.77 606.79 575.42C607.71 573.79 608.78 572.27 609.99 570.85C606.05 562.52 605.24 553.5 607.73 545.24C610.34 536.58 615.85 530.99 619.14 527.65L628.25 518.42C632.63 513.98 638.08 508.44 645.86 504.39C651.91 501.23 658.56 499.57 665.08 499.57C665.92 499.57 666.77 499.6 667.61 499.65C671.17 498.87 674.8 498.48 678.4 498.48C694.15 498.48 709.36 505.71 723.6 519.96C723.6 519.96 725.75 521.67 733.93 521.67C734.84 521.67 735.75 521.65 736.65 521.61C737.45 521.58 738.22 521.57 738.99 521.58C738.89 515.93 738.76 509.71 738.59 502.67C738.33 491.83 737.05 479.49 735.7 466.44C733.33 443.53 730.88 419.91 732.9 397.41C731.55 394.08 730.67 390.32 730.27 386.23L729.93 382.7L730.71 379.24C732.45 371.53 735.21 358.33 735.62 354.47C737.34 338.24 740.74 324.95 744.02 312.1C749.6 290.27 754.42 271.42 750.36 240.19C748.07 222.59 748.28 206.56 750.96 192.5C750.38 191.46 749.85 190.38 749.37 189.29C736.83 185.67 726.92 176.59 722.69 164.75C718.82 153.93 720.12 141.76 726.24 131.35C727.11 129.88 728.06 128.45 729.08 127.11C726.88 116.56 728.74 104.92 734.17 95.7198C737.2 90.5598 741.09 85.9998 746.04 81.7898C746.14 79.9498 746.13 76.7798 745.5 71.8998C743.66 57.5698 748.69 42.4398 759.28 30.3998C768.69 19.7098 777.09 13.8598 796.9 11.5898C798.83 11.3698 800.91 11.2298 802.74 11.1098C804.26 11.0098 807.74 10.7798 808.82 10.5598C817.09 8.07976 826.47 5.28977 837.14 4.88977C837.79 4.86977 838.45 4.84977 839.1 4.84977C863.17 4.84977 889.75 21.6598 890.72 48.8198C890.95 55.2298 889.7 61.7198 887.01 68.1298C887.46 70.2798 887.82 72.4898 888.11 74.7098C888.54 78.0798 888.8 81.6998 888.9 85.4898L891.72 90.2898C895.7 97.0798 896.36 105.17 893.52 112.51C891.89 116.72 889.21 120.4 885.73 123.2C884.44 129.69 882.79 135.2 880.7 139.99C877.05 148.37 871.93 154.59 865.46 158.53C873.64 169.69 873.85 181.93 873.23 190.41C873.02 193.21 872.7 195.81 872.25 198.34L873.02 201.33C878.5 222.65 882.13 236.74 882.81 251.57C883.45 265.54 875.24 276.22 868.01 285.64C866.13 288.08 861.16 294.56 860.74 296.32C859.5 302.31 859.16 309.86 859.78 317.59C871.94 329.26 884.97 342.16 889.03 346.19C890.99 347.49 896.13 350.7 905.46 355.34L911.42 358.3L927.39 385.75L928.82 393.07C931.63 407.52 924.85 421.71 911.95 428.39L899.49 434.84C897.68 435.78 895.77 436.49 893.8 436.99C926.62 537.98 945.05 636.68 950.12 738.62C950.37 743.53 950.78 751.76 947.1 760.3C945.33 764.42 942.91 768.09 939.9 771.25C947.32 774.56 957.37 779.05 962.14 781.26C963.84 782.05 966.34 782.83 969 783.42C969.79 783.6 970.76 783.78 971.82 783.98L972.23 784.06C984.14 786.35 993.1 788.47 999.84 795.08C1007.3 802.38 1009.96 812.99 1006.79 822.76C1003.47 832.99 994.53 840.36 983.46 842C976 843.11 965.04 843.67 950.91 843.67C927.42 843.67 895.09 841.99 878.74 838.79C862.58 835.62 852.18 822.02 853.99 806.43L856.68 783.29C856.77 782.13 856.94 780.97 857.2 779.83C848.41 775.84 841.59 769.89 836.9 762.13C828.3 747.89 830.27 733.04 831.7 722.21C831.85 721.12 831.99 720.03 832.12 718.95C834.44 699.84 831.06 679.37 827.02 659.23C821.01 686.98 813.7 713.61 804.78 740.28C801.94 748.78 796.64 764.6 781.15 773.52C780.65 773.81 780.15 774.08 779.64 774.35C784.07 776.17 787.32 777.53 789.36 778.4C790.84 779.03 793.11 779.66 795.45 780.1C796.19 780.24 797.08 780.38 798.07 780.54L798.42 780.6C809.44 782.36 818.41 784.2 825.17 790.42C832.75 797.39 835.7 807.77 832.87 817.51C829.92 827.68 821.36 835.21 810.54 837.16C796.66 839.67 772.51 839.94 762.78 839.94C741.87 839.94 723.19 838.92 712.81 837.23C702.84 835.6 694.95 829.86 690.77 822.03C690.51 824.07 690.01 826.09 689.25 828.08C685.51 837.83 676.37 844.29 665.97 844.55C665.27 844.57 664.58 844.6 663.9 844.64H663.66C662.24 844.73 660.63 844.81 658.86 844.81C654.56 844.81 650.65 844.26 646.96 843.12C642.44 846.95 636.78 849.17 630.85 849.44C630.1 849.47 629.34 849.49 628.59 849.49C619.71 849.49 611.92 847.12 606.07 842.64C598.48 836.83 593.96 829.48 590.65 824.11C578.6 804.53 564.95 782.34 560.58 755.84C558.91 745.73 558.74 735.36 560.06 724.97C555.59 722.24 551.12 719.28 546.42 716.17C545.66 715.67 544.9 715.17 544.14 714.66C540.74 722.2 536.03 728.31 530.11 732.83C525.94 736.02 520.91 739.69 515.14 742.86C509.56 748.01 506.24 751.79 504.06 755.47C500.12 762.13 500.85 772.45 505.92 781.75C506.73 783.24 508.36 784.94 510.62 786.66C516.01 790.76 518.92 794.35 520.86 796.72L521.12 797.04C521.12 797.04 521.2 797.14 521.24 797.19C530.33 803.96 534.7 814.78 532.36 824.85C530.04 834.9 521.97 842.15 511.31 843.77L510.63 843.87C507.12 844.41 501.23 845.32 495.37 845.32C487.78 845.32 481.64 843.75 476.59 840.52C467.4 834.63 464.93 825.79 464.08 822.21C462.6 820.19 460.97 818.17 459.24 816.04C453.32 808.74 446.1 799.84 441.69 786.41C441.13 789.25 440.9 792.02 440.97 794.76C445.62 798.25 454.15 805.47 454.95 818.47C455.44 826.47 452.55 834.43 447.03 840.3C441.45 846.23 433.58 849.64 425.44 849.64L425.49 849.58ZM420.75 843.89C421.73 843.89 422.76 843.89 423.69 843.97C424.28 844.01 424.89 844.04 425.49 844.04C432.1 844.04 438.5 841.27 443.04 836.45C447.52 831.69 449.86 825.24 449.46 818.76C448.76 807.28 440.89 801.49 436.67 798.39L435.63 797.62L435.55 796.33C435.53 796 435.51 795.61 435.49 795.14C435.3 789.63 436.2 784.09 438.23 778.18L439.77 773.72L442.92 777.24C443.56 777.95 444.26 778.66 445.02 779.34L445.63 779.89L445.84 780.69C449.71 795.38 457.41 804.87 463.59 812.49C465.42 814.74 467.3 817.06 468.95 819.36L469.28 819.81L469.4 820.35C470 822.93 471.82 830.8 479.62 835.79C483.75 838.43 488.91 839.72 495.41 839.72C500.84 839.72 506.46 838.85 509.83 838.34L510.52 838.24C518.89 836.97 525.2 831.34 527 823.55C528.85 815.54 525.21 806.85 517.73 801.41L517.46 801.21L517.24 800.95C517.1 800.79 516.97 800.62 516.83 800.45L516.61 800.17C514.84 798 512.17 794.72 507.31 791.01C504.39 788.78 502.3 786.54 501.1 784.34C495.11 773.36 494.42 760.89 499.33 752.58C501.86 748.29 505.44 744.21 511.67 738.48L511.92 738.25L512.22 738.09C517.79 735.06 522.7 731.47 526.77 728.36C532.66 723.85 537.22 717.49 540.31 709.45L541.54 706.24L544.42 708.13C546.12 709.25 547.82 710.37 549.5 711.48C554.7 714.92 559.61 718.17 564.5 721.1L566.08 722.05L565.82 723.88C564.32 734.31 564.4 744.75 566.07 754.88C570.26 780.3 583.61 802 595.39 821.14C598.47 826.14 602.68 832.99 609.45 838.18C614.33 841.91 620.95 843.89 628.6 843.89C629.27 843.89 629.94 843.87 630.62 843.84C635.77 843.61 640.66 841.51 644.4 837.92L645.64 836.73L647.26 837.31C650.8 838.58 654.6 839.2 658.88 839.2C660.51 839.2 662.04 839.12 663.39 839.05H663.63C664.36 839 665.1 838.96 665.85 838.94C674 838.74 681.16 833.67 684.09 826.03C687.02 818.38 685.09 809.82 679.16 804.22C677.48 802.64 675.64 801.24 673.86 799.88C672.88 799.13 671.39 798 670.49 797.21L670.1 796.87L669.86 796.41C666.54 790.03 663.13 778.3 661.74 768.53C659.73 754.41 660.06 738.64 662.72 721.64L662.88 720.6L663.69 719.93C667.19 717.04 670.94 713.54 675.17 709.22C693.17 690.81 700.05 670.37 702.43 628.21L702.58 625.63L705.16 625.59C712.69 625.48 720.07 624.99 727.09 624.13L731.53 623.59L730.04 627.81C723.91 645.21 716.26 662.75 708.86 679.7C703.03 693.07 697.04 706.82 691.79 720.42C688.12 729.94 688.76 740.58 693.54 749.62C696.21 754.67 700.14 759.12 704.88 762.49L706.48 763.62L704.96 768.99L704.04 769.56C702.7 770.39 701.47 771.37 700.38 772.49C697.09 775.87 695.17 780.31 694.96 785V785.12L693.13 806.65C692.08 819.05 700.74 829.59 713.73 831.72C723.83 833.37 742.18 834.36 762.8 834.36C772.39 834.36 796.13 834.1 809.58 831.67C818.32 830.09 825.21 824.06 827.57 815.93C829.81 808.23 827.46 800 821.44 794.47C815.82 789.3 807.66 787.66 797.57 786.05L797.22 785.99C796.18 785.82 795.23 785.67 794.45 785.53C791.7 785.01 789.06 784.27 787.21 783.48C784.35 782.26 779.05 780.07 771.45 776.95L764.62 774.15L771.61 771.76C774 770.95 776.28 769.91 778.4 768.69C792.07 760.82 796.93 746.3 799.54 738.49C809.79 707.85 817.9 677.24 824.34 644.92L827.04 631.36L829.77 644.92C830.02 646.16 830.27 647.4 830.53 648.66C835.39 672.22 840.42 696.58 837.63 719.58C837.5 720.68 837.35 721.79 837.2 722.9C835.87 732.92 834.05 746.65 841.65 759.23C846.1 766.6 852.8 772.12 861.55 775.63L863.98 776.6L863.15 779.08C862.65 780.58 862.33 782.14 862.21 783.72V783.83L859.5 807.03C858.03 819.66 866.57 830.71 879.81 833.31C895.81 836.45 927.69 838.09 950.91 838.09C964.77 838.09 975.45 837.55 982.64 836.48C991.61 835.15 998.84 829.22 1001.51 821.01C1004.03 813.26 1001.9 804.83 995.96 799C990.33 793.48 982.14 791.57 971.18 789.47L970.77 789.39C969.65 789.18 968.63 788.98 967.79 788.8C964.76 788.13 961.85 787.2 959.8 786.26C954.17 783.66 941.1 777.82 933.81 774.58L929.73 772.76L933.17 769.91C937.02 766.72 939.98 762.74 941.99 758.07C945.16 750.71 944.78 743.29 944.56 738.85C939.46 636.4 920.81 537.23 887.53 435.66L886.48 432.45L889.83 432.04C892.33 431.74 894.71 431.01 896.92 429.87L909.38 423.42C920.08 417.88 925.69 406.09 923.36 394.08L922.11 387.68L907.45 362.47L902.98 360.25C892.99 355.29 887.58 351.84 885.71 350.6L885.49 350.45L885.3 350.26C881.4 346.39 867.7 332.82 855.17 320.81L854.42 320.09L854.33 319.06C853.55 310.44 853.9 301.91 855.32 295.04C855.93 292.51 858.7 288.59 863.6 282.21C870.26 273.53 877.81 263.71 877.27 251.76C876.62 237.5 873.05 223.64 867.65 202.65L866.58 198.45L866.69 197.86C867.16 195.34 867.5 192.75 867.7 189.94C868.3 181.76 868.07 169.7 859.13 159.43L856.73 156.67L860.04 155.11C866.71 151.96 871.95 146.11 875.61 137.72C877.64 133.05 879.23 127.61 880.47 121.07L880.67 120L881.55 119.35C884.6 117.1 886.95 114.02 888.33 110.45C890.56 104.7 890.04 98.3598 886.92 93.0398L883.37 86.9898V86.2698C883.28 82.4098 883.02 78.7298 882.59 75.3498C882.29 72.9798 881.89 70.6398 881.39 68.3798L881.2 67.5098L881.75 66.2398C884.22 60.4698 885.37 54.6598 885.16 48.9698C884.29 24.4598 859.23 9.57976 837.32 10.3798C827.31 10.7498 818.27 13.4498 810.29 15.8398L810.12 15.8798C808.8 16.1898 806.04 16.3898 803.09 16.5798C801.22 16.6998 799.3 16.8298 797.5 17.0398C779.26 19.1298 772.24 23.9598 763.41 33.9998C753.87 44.8398 749.33 58.3798 750.97 71.1298C751.77 77.3898 751.66 81.2598 751.43 83.3998L751.31 84.5298L750.43 85.2498C745.56 89.2498 741.79 93.5698 738.91 98.4698C733.97 106.85 732.41 117.54 734.73 127.07L735.06 128.41L734.19 129.48C733.02 130.92 731.94 132.48 730.98 134.11C725.7 143.1 724.56 153.57 727.88 162.84C731.64 173.35 740.67 181.35 752.05 184.24L753.42 184.59L753.94 185.9C754.58 187.51 755.35 189.08 756.23 190.57L756.77 191.49L756.56 192.53C753.81 206.23 753.56 222.02 755.82 239.44C760.01 271.73 755.07 291.06 749.35 313.44C746.11 326.1 742.77 339.2 741.09 355.02C740.65 359.14 737.89 372.36 736.07 380.43L735.49 383.02L735.74 385.67C736.1 389.46 736.94 392.89 738.22 395.85L738.5 396.5L738.43 397.21C736.35 419.37 738.79 442.97 741.16 465.79C742.53 479.01 743.82 491.45 744.08 502.51C744.28 510.82 744.43 517.99 744.54 524.43L744.59 527.52L741.51 527.23C739.99 527.09 738.44 527.05 736.82 527.11C735.85 527.15 734.86 527.17 733.88 527.17C724.38 527.17 720.87 525.09 719.63 523.84C706.46 510.67 692.57 503.99 678.34 503.99C675.01 503.99 671.66 504.37 668.37 505.11L667.96 505.2L667.54 505.17C666.71 505.11 665.86 505.07 665.02 505.07C659.39 505.07 653.63 506.52 648.36 509.27C641.35 512.92 636.24 518.11 632.13 522.28L623.03 531.51C620.1 534.49 615.19 539.47 612.97 546.81C610.73 554.24 611.7 562.47 615.71 569.98L616.67 571.77L615.24 573.22C613.61 574.88 612.24 576.77 611.16 578.84L610.71 579.7L609.82 580.09C598.76 584.96 581.17 587.87 562.78 587.87C560.14 587.87 557.55 587.81 555.1 587.69C546.81 587.28 538.51 586.32 529.73 585.3C517.84 583.92 505.57 582.49 492.95 582.49C477.6 582.49 463.36 584.92 450.62 589.72C448.96 590.35 447.19 590.92 445.32 591.53C437.4 594.12 426.54 597.66 418.35 607.87C415.32 611.64 412.94 615.55 410.85 619.01C408.87 622.28 407 625.36 405.04 627.53C401.88 631.04 397.1 633.22 392.58 633.22C391.51 633.22 390.47 633.09 389.5 632.84C385.09 631.7 381.17 627.17 381.1 623.14C381.04 619.69 384.39 616.05 386.94 615.85L387.9 615.78C390.45 615.61 394.3 615.35 398.18 614.01C405.88 611.36 411.15 605.43 412.64 597.76C414.18 589.79 411.16 581.57 404.74 576.32C393.94 567.48 379.91 562.61 365.24 562.61C355.09 562.61 345.05 564.96 336.2 569.4C331.97 571.52 327.92 574.17 324.15 577.27L320.73 580.08L319.7 575.77C319.41 574.55 319.16 573.38 318.96 572.29C316.72 560.11 314.38 541.76 310.88 508.96C309.71 497.99 309.37 485.53 309.01 472.33L308.82 465.4L309.31 464.67C310.9 462.29 312.38 459.82 313.71 457.33L315.53 453.93L318.17 456.74C321.42 460.2 325.77 462.32 330.41 462.7L331.71 462.81L332.46 463.88C337.02 470.41 343.77 471.6 345.73 471.81C346.53 471.9 347.31 471.94 348.11 471.94C354.3 471.94 359.9 469.3 363.48 464.69C364.44 463.45 365.25 462.08 365.9 460.62L366.13 460.11L366.54 459.73C375.77 451.02 379.56 440.61 377.81 428.79C377.48 426.55 377.21 424.55 376.96 422.68C376.2 417.01 375.48 411.66 373.61 404.21C372.41 399.44 370.75 396.51 369.28 394.13C368.62 393.07 368.31 392.4 367.78 390.06L367.75 389.88C365.05 372.55 365.56 360.27 366.28 343.27C366.63 334.83 367.03 325.28 367.03 313.97C367.03 311.76 367.22 309.53 367.43 307.17C367.91 301.64 368.51 294.76 366.2 287.53L366.16 287.37C365.35 284.2 364.16 280.73 362.29 276.11C354.11 255.88 341.45 236.04 324.68 217.14L323.54 215.86L324.18 214.27C326.44 208.66 326.08 202.38 323.19 197.04C320.48 192.02 315.76 188.35 310.25 186.96L309.12 186.68L308.53 185.67C307.38 183.69 306.45 182.05 305.7 180.65C302.4 174.46 298.79 169.02 294.99 164.48L294.87 164.33C294.11 163.28 292.95 161.7 291.59 160.11C284.04 151.27 274.85 145.61 265.02 143.74L255.87 142L264.49 138.45C271.11 135.73 275.97 131.72 279.35 126.2C283.18 119.96 283.53 114.79 283.74 111.7L283.81 110.72L284.17 110.14C284.49 109.63 285.09 108.75 286.15 107.47C292.25 100.17 294.46 90.1198 292.07 80.5798L291.5 78.3398L291.75 77.5798C292.04 76.6898 292.48 75.4998 292.81 74.6098C293.63 72.4098 294.54 69.9398 295.24 67.1698C298.91 52.5498 294.02 36.6198 282.78 26.5798C272.93 17.7798 262.03 15.0898 252.6 13.2498C248.58 12.4698 245.74 11.6598 242.46 10.7398C238.97 9.74977 235.03 8.62977 229.62 7.57977C225.75 6.82977 221.23 6.01976 216.45 6.01976C210.6 6.01976 205.27 7.23977 200.59 9.63977C194.34 12.8498 190.21 17.6998 187.2 21.2398C186.73 21.7998 186.25 22.3598 185.79 22.8698L184.89 23.8998L183.53 23.8098C182.49 23.7398 181.59 23.7098 180.69 23.7098C178.65 23.7098 176.75 23.8898 174.9 24.2598L174.48 24.3398C159.24 27.6098 148.97 37.7098 147.03 51.3598C145.52 61.9998 149.58 73.2398 157.63 80.6898L158.61 81.5998L158.51 82.9298C158.36 84.9198 158.28 86.9798 158.29 89.0598C158.29 90.7098 158.34 92.4498 158.44 94.2398L158.48 94.8898L154.52 104.17C152.1 109.83 152.39 116.18 155.33 121.59C157.31 125.25 160.31 128.15 164 129.98L165.07 130.51L165.42 131.65C170.34 147.79 177.42 158.4 186.47 163.19L189.92 165.02L187.05 167.68C180.07 174.14 177.06 182.45 175.39 188.14C173.44 194.8 173.02 199.32 172.57 204.1C172.2 208.1 171.77 212.62 170.35 220.6L170.26 221.14C169.84 224.07 169.58 225.09 169.26 226.39C168.74 228.52 168.26 230.63 167.66 234.76C166.35 243.79 170.49 252.68 178.2 257.4L179.31 258.08L179.49 259.37C182.28 279.21 181.39 292.23 179.77 297.35L179.49 298.25L174.4 301.78C172.9 302.53 169.5 303.77 166.44 304.87C164.67 305.51 162.98 306.12 161.52 306.69C145.57 312.88 120.82 326.05 113.61 329.94L113.28 330.12L112.91 330.2C110.78 330.68 107.04 331.42 101.37 332.18C93.0502 333.3 85.1902 336.72 78.6402 342.08L66.4802 352.04L63.0702 357.59C56.6702 368.02 57.8002 381.04 65.8802 389.98L75.2702 400.37C79.4602 404.98 85.5202 407.53 91.8402 407.24L100.59 406.85C108.64 406.48 116.01 401.86 119.82 394.77L120.26 393.96L121.1 393.57C126.42 391.1 130.85 386.98 133.93 381.66L134.48 380.7L141.36 378.66C146.66 376.9 150.73 375.61 154.32 374.48L154.47 374.43C163.71 371.51 169.29 369.75 181.2 364.62L185.78 362.65L184.93 368.34C183.71 376.42 182.45 384.76 182.45 397.58C182.45 403.24 183.74 408.27 186.28 412.55L186.52 412.96L186.61 413.42C186.78 414.26 186.95 415.06 187.1 415.79L187.21 416.3C187.42 417.28 187.6 418.17 187.73 418.92L185.02 419.53L187.75 419.03L189.47 428.43L189.07 429.25C142.8 523.91 109.99 625.15 88.7702 738.76C87.9602 743.1 86.6002 750.37 88.7402 758.05C90.0902 762.91 92.4802 767.22 95.8202 770.88L98.9402 774.28L94.4702 775.43C87.1802 777.31 74.1102 780.7 68.4002 782.26C66.2502 782.85 63.2602 783.28 60.1902 783.43C59.3402 783.47 58.3202 783.5 57.1902 783.52H56.7702C45.6902 783.79 37.3502 784.32 30.9002 788.81C24.0902 793.56 20.6002 801.51 21.8002 809.55C23.0702 818.07 29.2002 825.1 37.8102 827.89C58.9502 834.74 112.84 841.7 136.14 841.7C137.14 841.7 138.08 841.69 138.96 841.66C152.4 841.29 162.63 831.83 163.27 819.16L164.44 795.92C164.64 793.72 164.46 791.53 163.92 789.4L163.24 786.72L165.91 786.03C174.87 783.72 182.1 779.2 187.42 772.6C196.59 761.22 196.64 747.45 196.67 737.4V737.18C196.67 736.14 196.67 735.1 196.69 734.08C197.02 711.12 205.21 687.87 213.12 665.37C218.06 651.34 221.98 638.8 225.77 626.67C227.29 621.81 228.76 617.11 230.27 612.36L233.08 603.56L235.58 612.45C249.89 663.29 265.62 705.16 286.59 748.21C290.17 755.56 296.83 769.25 311.34 775.25C312.72 775.82 314.15 776.31 315.61 776.72L323.14 778.82L315.97 781.93C310.17 784.45 306.01 786.27 303.6 787.35C301.79 788.16 299.2 788.95 296.49 789.52C295.72 789.68 294.78 789.85 293.75 790.03L293.41 790.09C283.42 791.89 275.33 793.68 269.83 798.94C263.93 804.58 261.75 812.84 264.13 820.48C266.65 828.55 273.64 834.43 282.39 835.83C292.04 837.38 306.87 837.7 317.61 837.7C337.43 837.7 363.64 836.56 377.48 834.01C381.96 833.19 386.07 831.31 389.37 828.6L392.21 826.26L393.67 829.64C397.82 839.2 406.09 843.85 418.94 843.85H420.76L420.75 843.89ZM674.54 793.36C675.33 794.02 676.49 794.9 677.22 795.46C679.12 796.9 681.08 798.4 682.97 800.18C684.83 801.94 686.39 803.93 687.62 806.08L689.43 784.69C689.7 778.66 692.18 772.95 696.41 768.61C697.47 767.52 698.63 766.53 699.88 765.66C695.23 761.99 691.37 757.37 688.64 752.21C683.11 741.75 682.37 729.43 686.62 718.42C691.91 704.7 697.93 690.91 703.75 677.56C710.55 661.98 717.53 645.98 723.32 630.12C718.28 630.62 713.09 630.94 707.82 631.08C705.59 667.55 700.12 691.64 679.14 713.09C675.1 717.22 671.46 720.64 668.04 723.52C665.61 739.58 665.34 754.45 667.23 767.74C668.49 776.58 671.6 787.45 674.54 793.37V793.36ZM387.78 621.34C387.31 621.71 386.66 622.62 386.66 623.03C386.68 624.46 388.79 626.91 390.9 627.45C391.42 627.58 391.99 627.65 392.6 627.65C395.51 627.65 398.87 626.1 400.94 623.79C402.49 622.07 404.16 619.35 405.93 616.44C404.11 617.56 402.13 618.5 399.99 619.24C395.42 620.81 391.13 621.1 388.29 621.3L387.77 621.34H387.78Z" fill="#FF5662"/>
</svg>
