<svg width="18" height="19" viewBox="0 0 18 19" fill="none" xmlns="http://www.w3.org/2000/svg">
<path d="M12 11.6797H14V5.17969C14 5.04708 13.9473 4.9199 13.8536 4.82613C13.7598 4.73237 13.6326 4.67969 13.5 4.67969H7V6.67969H12V11.6797Z" fill="#B7B9BE"/>
<path d="M6 12.6797V2.17969C6 2.04708 5.94732 1.9199 5.85355 1.82613C5.75979 1.73237 5.63261 1.67969 5.5 1.67969H4.5C4.36739 1.67969 4.24021 1.73237 4.14645 1.82613C4.05268 1.9199 4 2.04708 4 2.17969V4.67969H1.5C1.36739 4.67969 1.24021 4.73237 1.14645 4.82613C1.05268 4.9199 1 5.04708 1 5.17969V6.17969C1 6.3123 1.05268 6.43947 1.14645 6.53324C1.24021 6.62701 1.36739 6.67969 1.5 6.67969H4V14.1797C4 14.3123 4.05268 14.4395 4.14645 14.5332C4.24021 14.627 4.36739 14.6797 4.5 14.6797H12V17.1797C12 17.3123 12.0527 17.4395 12.1464 17.5332C12.2402 17.627 12.3674 17.6797 12.5 17.6797H13.5C13.6326 17.6797 13.7598 17.627 13.8536 17.5332C13.9473 17.4395 14 17.3123 14 17.1797V14.6797H16.5C16.6326 14.6797 16.7598 14.627 16.8536 14.5332C16.9473 14.4395 17 14.3123 17 14.1797V13.1797C17 13.0471 16.9473 12.9199 16.8536 12.8261C16.7598 12.7324 16.6326 12.6797 16.5 12.6797H6Z" fill="#B7B9BE"/>
</svg>
