<svg width="79" height="120" viewBox="0 0 79 120" fill="none" xmlns="http://www.w3.org/2000/svg">
<path d="M16 70.3422C16.6023 70.9445 17.146 71.507 17.639 72.0325C16.7068 72.2024 16 73.0187 16 74V78C16 79.1046 16.8954 80 18 80H29.6257C31.1072 80.0234 32.9589 80.0173 35.3095 80.0096C36.6918 80.0051 38.2466 80 40 80C41.7534 80 43.3082 80.0051 44.6905 80.0096C47.0411 80.0173 48.8928 80.0234 50.3743 80H62C63.1046 80 64 79.1046 64 78V74C64 73.0187 63.2932 72.2024 62.361 72.0325C62.854 71.507 63.3977 70.9445 64 70.3422C71.5854 63.2395 76.7139 57.1874 78.8621 49.2066L62.858 53.4949L73.1364 30.0353L52.5052 14.8579L67.4072 10.8649C60.2483 4.12795 50.6062 0 40 0C17.9086 0 0 17.9086 0 40C0 53.0835 5.76231 60.7559 16 70.3422Z" fill="#6B6E76"/>
<path fill-rule="evenodd" clip-rule="evenodd" d="M56 96V110C56 111.105 55.1046 112 54 112H48V118C48 119.105 47.1046 120 46 120H34C32.8954 120 32 119.105 32 118V112H26C24.8954 112 24 111.105 24 110V96H18C16.8954 96 16 95.1046 16 94V90C16 88.8954 16.8954 88 18 88H62C63.1046 88 64 88.8954 64 90V94C64 95.1046 63.1046 96 62 96H56ZM32 104V96H48V104H32Z" fill="#6B6E76"/>
</svg>
