<svg width="440" height="280" viewBox="0 0 440 280" fill="none" xmlns="http://www.w3.org/2000/svg">
<path opacity="0.04" d="M199.987 210.167C219.427 214.71 237.409 224.578 255.602 233.347C284.931 247.483 316.204 259.126 348.217 258.111C380.229 257.097 413.298 241.44 429.78 211.413C446.261 181.366 440.683 136.718 413.446 118.186C382.744 97.2884 340.927 114.996 307.562 99.7607C289.157 91.3508 275.697 74.0239 261.582 58.5776C240.515 35.5667 215.962 15.3661 187.563 5.68839C159.163 -3.98931 126.433 -1.91854 102.006 16.5494C77.5581 35.0173 64.0558 71.5305 74.5576 101.979C78.2976 112.777 84.848 123.448 83.0731 134.816C80.7276 149.924 65.1757 157.594 51.3987 160.236C37.6217 162.856 22.3022 163.595 12.0963 174.055C-30.9674 218.238 52.5397 254.562 81.9109 257.055C102.682 258.809 115.255 247.187 129.687 232.354C150.099 211.435 172.032 203.659 199.987 210.167Z" fill="white"/>
<path opacity="0.04" d="M129.665 86.6387C120.326 83.7016 113.67 79.6446 106.063 74.4888C98.4559 69.3118 91.3138 63.1418 82.6504 60.099C66.5702 54.4572 47.5318 61.4725 37.2202 75.0382C26.8874 88.625 24.8378 107.431 29.8245 123.744C34.8113 140.035 46.2006 153.897 59.9141 164.018C73.6277 174.161 89.5811 180.838 105.809 186.036C146.168 198.968 189.507 203.13 231.387 196.622C273.267 190.114 313.626 172.787 346.251 145.719C356.986 136.823 367.466 125.73 368.945 111.868C370.15 100.606 364.931 89.28 356.859 81.335C348.808 73.3689 338.18 68.4666 327.297 65.2971C289.115 54.1825 248.355 63.3531 209.496 71.8686C170.637 80.3841 166.939 100.521 129.665 86.6387Z" fill="white"/>
<path d="M71.0496 272.924L13.3215 273.051C11.5677 273.051 10.152 271.635 10.152 269.902L10.0886 252.491C10.0674 247.06 14.4625 242.644 19.893 242.623L64.4992 242.517C69.9297 242.496 74.3459 246.891 74.3459 252.343L74.4093 269.543C74.4305 271.402 72.9091 272.924 71.0496 272.924Z" fill="#0095CA"/>
<mask id="mask0_4004_19179" style="mask-type:luminance" maskUnits="userSpaceOnUse" x="10" y="242" width="65" height="32">
<path d="M70.0565 272.945L13.892 273.072C11.8424 273.072 10.152 271.402 10.152 269.353L10.0886 252.512C10.0674 247.081 14.4625 242.665 19.893 242.644L64.4992 242.538C69.9297 242.517 74.3459 246.912 74.3459 252.364L74.4093 268.571C74.4305 270.959 72.4653 272.924 70.0565 272.945Z" fill="white"/>
</mask>
<g mask="url(#mask0_4004_19179)">
<path d="M25.4717 237.129C21.0344 242.095 19.2805 250.716 22.2388 256.696C25.197 262.676 29.8668 267.62 38.2556 269.226C46.3063 270.747 84.4043 268.761 90.5954 271.255C93.6805 272.501 97.1459 274.445 97.5262 277.763C97.8432 280.446 62.0272 288.391 59.5972 289.553C57.1461 290.716 54.3569 290.8 51.6522 290.864C44.1298 291.054 36.6074 291.244 29.085 291.455C23.3376 291.603 17.3154 291.688 12.2019 289.067C8.03921 286.933 4.89079 283.172 2.69323 279.052C0.495674 274.931 -0.835543 270.388 -2.14562 265.909C-3.49797 261.26 -4.87144 256.569 -5.16726 251.751C-5.46309 246.934 -4.57561 241.883 -1.80753 237.911C1.31976 233.474 6.60234 230.832 11.9906 230.135C17.3788 229.438 25.2816 229.839 30.4374 231.572L25.4717 237.129Z" fill="#005B85"/>
</g>
<path d="M75.4235 273.008L9.11651 273.156C8.12339 273.156 7.32043 272.353 7.32043 271.381V269.184C7.32043 268.191 8.12339 267.388 9.09539 267.388L75.4024 267.24C76.3955 267.24 77.1985 268.043 77.1985 269.015V271.212C77.1985 272.205 76.3955 273.008 75.4235 273.008Z" fill="#005B85"/>
<path d="M23.6329 250.673H19.1744C18.1602 250.673 17.3149 249.849 17.3149 248.814C17.3149 247.8 18.139 246.955 19.1744 246.955H23.6329C24.6472 246.955 25.4924 247.779 25.4924 248.814C25.4924 249.849 24.6683 250.673 23.6329 250.673Z" fill="#FF5662"/>
<path d="M28.8733 250.716C29.9236 250.716 30.775 249.864 30.775 248.814C30.775 247.764 29.9236 246.912 28.8733 246.912C27.823 246.912 26.9716 247.764 26.9716 248.814C26.9716 249.864 27.823 250.716 28.8733 250.716Z" fill="#FEC91B"/>
<path d="M63.5273 256.569L43.9395 247.441L105.936 92.2805L116.226 96.0206L63.5273 256.569Z" fill="#005B85"/>
<path d="M49.4333 250.018L108.07 93.0623L105.936 92.2805L43.9395 247.441L49.4333 250.018Z" fill="#0095CA"/>
<path d="M198.634 76.3271L120.304 91.3719L117.79 81.7365L197.324 69.2484L198.634 76.3271Z" fill="#005B85"/>
<path d="M126.854 86.7654L130.235 82.0744L134.947 85.4553" stroke="#00C7FD" stroke-width="1.0002" stroke-miterlimit="10" stroke-linecap="round"/>
<path d="M134.948 85.4554L138.329 80.7433L143.041 84.1453" stroke="#00C7FD" stroke-width="1.0002" stroke-miterlimit="10" stroke-linecap="round"/>
<path d="M143.02 84.1454L146.422 79.4333L151.112 82.8142" stroke="#00C7FD" stroke-width="1.0002" stroke-miterlimit="10" stroke-linecap="round"/>
<path d="M151.112 82.8141L154.493 78.1232L159.205 81.504" stroke="#00C7FD" stroke-width="1.0002" stroke-miterlimit="10" stroke-linecap="round"/>
<path d="M159.226 81.504L162.607 76.792L167.319 80.1728" stroke="#00C7FD" stroke-width="1.0002" stroke-miterlimit="10" stroke-linecap="round"/>
<path d="M167.319 80.1727L170.7 75.4818L175.412 78.8627" stroke="#00C7FD" stroke-width="1.0002" stroke-miterlimit="10" stroke-linecap="round"/>
<path d="M175.412 78.8626L178.793 74.1506L183.505 77.5526" stroke="#00C7FD" stroke-width="1.0002" stroke-miterlimit="10" stroke-linecap="round"/>
<path d="M183.484 77.5526L186.886 72.8405L191.577 76.2214" stroke="#00C7FD" stroke-width="1.0002" stroke-miterlimit="10" stroke-linecap="round"/>
<path d="M112.634 99.4224C118.096 99.4224 122.523 94.995 122.523 89.5334C122.523 84.0719 118.096 79.6444 112.634 79.6444C107.173 79.6444 102.745 84.0719 102.745 89.5334C102.745 94.995 107.173 99.4224 112.634 99.4224Z" fill="#6DDCFF"/>
<path d="M116.522 93.2313L116.353 93.4003C114.261 95.4922 110.859 95.4922 108.746 93.4003L108.577 93.2313C106.485 91.1394 106.485 87.7374 108.577 85.6244L108.746 85.4553C110.838 83.3634 114.24 83.3634 116.353 85.4553L116.522 85.6244C118.614 87.7374 118.614 91.1394 116.522 93.2313Z" fill="#005B85"/>
<path d="M54.2087 262.528C62.0859 262.528 68.4716 256.132 68.4716 248.243C68.4716 240.355 62.0859 233.959 54.2087 233.959C46.3314 233.959 39.9457 240.355 39.9457 248.243C39.9457 256.132 46.3314 262.528 54.2087 262.528Z" fill="#6DDCFF"/>
<path d="M54.3358 258.259C59.809 258.259 64.2459 253.822 64.2459 248.349C64.2459 242.876 59.809 238.439 54.3358 238.439C48.8626 238.439 44.4257 242.876 44.4257 248.349C44.4257 253.822 48.8626 258.259 54.3358 258.259Z" fill="#005B85"/>
<path opacity="0.26" d="M322.945 244.968H131.462C125.651 244.968 120.939 240.256 120.939 234.445V129.216C120.939 124.737 124.573 121.102 129.053 121.102H325.354C329.833 121.102 333.468 124.737 333.468 129.216V234.445C333.468 240.256 328.756 244.968 322.945 244.968Z" fill="black"/>
<path d="M371.46 173.907C365.1 168.286 384.075 157.763 369.812 149.565C365.797 147.262 360.536 147.135 357.324 143.839C353.014 139.422 354.852 132.238 356.056 126.195C357.261 120.151 356.352 113.094 350.309 111.932C346.062 111.108 342.047 113.347 339.068 116.475C338.497 117.066 337.842 117.552 337.124 117.975C334.841 114.129 330.615 111.572 325.777 111.699C319.078 111.868 313.584 117.299 313.331 123.997C313.289 125.286 313.415 126.533 313.732 127.716C314.472 130.59 313.88 133.633 312.169 136.063C311.873 136.485 311.598 136.908 311.302 137.33C307.118 143.712 303.674 157.277 310.964 165.391C319.86 175.323 310.753 179.359 308.682 186.691C305.449 198.101 327.129 218.45 343.336 216.125C360.705 215.661 391.09 191.213 371.46 173.907Z" fill="#FEC91B"/>
<path d="M363.768 172.407C359.986 167.103 354.006 163.511 347.604 162.349C345.005 161.884 343.357 159.285 344.096 156.749C344.096 156.728 344.096 156.707 344.117 156.707C344.962 153.833 346.146 151.044 346.505 148.086C346.864 145.128 346.209 141.81 343.969 139.866C341.032 137.309 336.51 137.88 332.897 139.296C325.438 142.233 319.374 148.36 316.246 155.714C315.443 157.573 313.521 158.693 311.534 158.397L310.119 158.207C308.914 158.038 307.667 158.376 306.717 159.137C303.145 162.032 300.99 166.575 300.293 171.181C298.983 179.633 302.131 188.529 308.027 194.742C313.922 200.954 322.353 204.504 330.89 205.074C339.426 205.645 348.047 203.342 355.528 199.158C360.958 196.136 366.156 191.593 367.276 185.465C368.1 180.922 366.473 176.168 363.768 172.407Z" fill="#FFE17A"/>
<path d="M334.144 135.238C334.144 135.238 354.133 204.44 333.235 271.719" stroke="#0095CA" stroke-width="2.5" stroke-miterlimit="10" stroke-linecap="round"/>
<path d="M322.797 153.706C322.797 153.706 326.917 168.35 340.039 166.469" stroke="#0095CA" stroke-width="2.5" stroke-miterlimit="10" stroke-linecap="round"/>
<path d="M356.627 155.228C356.732 157.13 354.936 179.168 342.512 192.776" stroke="#0095CA" stroke-width="2.5" stroke-miterlimit="10" stroke-linecap="round"/>
<path d="M355.211 197.362C355.211 197.362 347.73 197.953 342.934 207.124" stroke="#0095CA" stroke-width="2.5" stroke-miterlimit="10" stroke-linecap="round"/>
<path d="M365.121 175.597C360.451 175.407 352.506 188.36 348.66 184.198" stroke="#0095CA" stroke-width="2.5" stroke-miterlimit="10" stroke-linecap="round"/>
<path d="M334.144 137.901C335.614 137.901 336.806 136.709 336.806 135.238C336.806 133.768 335.614 132.576 334.144 132.576C332.673 132.576 331.481 133.768 331.481 135.238C331.481 136.709 332.673 137.901 334.144 137.901Z" fill="#005B85"/>
<path d="M357.134 200.045C358.604 200.045 359.796 198.853 359.796 197.383C359.796 195.912 358.604 194.72 357.134 194.72C355.663 194.72 354.471 195.912 354.471 197.383C354.471 198.853 355.663 200.045 357.134 200.045Z" fill="#005B85"/>
<path d="M356.627 157.89C358.097 157.89 359.289 156.698 359.289 155.228C359.289 153.757 358.097 152.565 356.627 152.565C355.156 152.565 353.964 153.757 353.964 155.228C353.964 156.698 355.156 157.89 356.627 157.89Z" fill="#005B85"/>
<path d="M366.22 178.725C367.69 178.725 368.882 177.533 368.882 176.062C368.882 174.592 367.69 173.4 366.22 173.4C364.749 173.4 363.557 174.592 363.557 176.062C363.557 177.533 364.749 178.725 366.22 178.725Z" fill="#005B85"/>
<path d="M323.6 180.331C323.6 180.331 333.003 199.876 342.659 199.876" stroke="#0095CA" stroke-width="2.5" stroke-miterlimit="10" stroke-linecap="round"/>
<path d="M319.775 241.545H128.292C122.481 241.545 117.769 236.833 117.769 231.022V125.793C117.769 121.314 121.403 117.679 125.883 117.679H322.184C326.664 117.679 330.298 121.314 330.298 125.793V231.022C330.298 236.833 325.586 241.545 319.775 241.545Z" fill="#D2F9FF"/>
<path d="M120.051 131.773V231.318C120.051 235.692 123.601 239.263 127.996 239.263H320.071C324.445 239.263 328.016 235.713 328.016 231.318V131.773H120.051Z" fill="#A0EBFF"/>
<path d="M191.514 172.322L189.824 171.942C189.063 171.773 188.492 171.16 188.366 170.399C188.366 170.357 188.345 170.315 188.345 170.294C188.197 169.533 188.535 168.751 189.19 168.35L190.648 167.42C191.43 166.913 191.662 165.877 191.155 165.096L188.218 160.51C187.711 159.728 186.675 159.496 185.893 160.003L184.435 160.933C183.78 161.356 182.935 161.313 182.301 160.87C182.28 160.848 182.238 160.827 182.217 160.806C181.583 160.362 181.266 159.581 181.435 158.841L181.815 157.151C182.005 156.242 181.435 155.333 180.526 155.143L175.201 153.981C174.293 153.791 173.384 154.361 173.194 155.27L172.814 156.96C172.645 157.721 172.032 158.292 171.271 158.418C171.229 158.418 171.187 158.44 171.166 158.44C170.405 158.587 169.623 158.249 169.222 157.594L168.292 156.136C167.785 155.355 166.749 155.122 165.967 155.629L161.382 158.566C160.6 159.073 160.368 160.109 160.875 160.891L161.805 162.349C162.227 163.004 162.185 163.849 161.741 164.483C161.72 164.504 161.699 164.546 161.678 164.567C161.234 165.201 160.452 165.518 159.713 165.349L158.022 164.969C157.114 164.779 156.205 165.349 156.015 166.258L154.853 171.583C154.663 172.491 155.233 173.4 156.142 173.59L157.832 173.97C158.593 174.139 159.164 174.752 159.29 175.513C159.29 175.555 159.311 175.597 159.311 175.618C159.459 176.379 159.121 177.161 158.466 177.563L157.008 178.492C156.226 178.999 155.994 180.035 156.501 180.817L159.438 185.402C159.945 186.184 160.981 186.416 161.763 185.909L163.221 184.979C163.876 184.557 164.721 184.599 165.355 185.043C165.376 185.064 165.418 185.085 165.439 185.106C166.073 185.55 166.39 186.332 166.221 187.071L165.841 188.762C165.651 189.67 166.221 190.579 167.13 190.769L172.454 191.931C173.363 192.121 174.272 191.551 174.462 190.642L174.842 188.952C175.011 188.191 175.624 187.621 176.385 187.494C176.427 187.494 176.469 187.473 176.49 187.473C177.251 187.325 178.033 187.663 178.434 188.318L179.364 189.776C179.871 190.558 180.907 190.79 181.688 190.283L186.274 187.346C187.056 186.839 187.288 185.803 186.781 185.021L185.851 183.564C185.429 182.908 185.471 182.063 185.915 181.429C185.936 181.408 185.957 181.366 185.978 181.345C186.422 180.711 187.203 180.394 187.943 180.563L189.633 180.943C190.542 181.134 191.451 180.563 191.641 179.654L192.803 174.33C192.993 173.421 192.423 172.512 191.514 172.322ZM171.673 182.592C166.348 181.429 162.967 176.147 164.129 170.822C165.291 165.497 170.574 162.116 175.899 163.278C181.224 164.441 184.604 169.723 183.442 175.048C182.28 180.373 177.019 183.775 171.673 182.592Z" fill="#D2F9FF"/>
<path d="M239.565 148.53L238.677 151.572C238.276 152.925 237.092 153.897 235.698 154.045C235.634 154.045 235.55 154.066 235.486 154.066C234.071 154.235 232.718 153.537 232.021 152.291L230.5 149.502C229.676 148.001 227.795 147.452 226.316 148.276L217.589 153.073C216.089 153.897 215.539 155.777 216.363 157.256L217.885 160.046C218.561 161.292 218.413 162.814 217.526 163.912C217.483 163.976 217.441 164.018 217.399 164.081C216.511 165.18 215.053 165.666 213.701 165.265L210.658 164.377C209.031 163.891 207.299 164.842 206.834 166.469L204.044 176.02C203.558 177.647 204.509 179.38 206.136 179.845L209.179 180.732C210.531 181.134 211.503 182.317 211.651 183.712C211.651 183.775 211.673 183.859 211.673 183.923C211.842 185.339 211.144 186.691 209.898 187.388L207.108 188.91C205.608 189.734 205.059 191.614 205.883 193.093L210.679 201.82C211.503 203.32 213.384 203.87 214.863 203.046L217.652 201.524C218.899 200.848 220.42 200.996 221.519 201.884C221.583 201.926 221.625 201.968 221.688 202.01C222.787 202.898 223.273 204.356 222.872 205.708L221.984 208.751C221.498 210.378 222.449 212.111 224.076 212.576L233.627 215.365C235.254 215.851 236.987 214.9 237.452 213.273L238.339 210.23C238.741 208.878 239.924 207.906 241.318 207.758C241.382 207.758 241.466 207.737 241.53 207.737C242.945 207.568 244.298 208.265 244.995 209.512L246.516 212.301C247.341 213.801 249.221 214.351 250.7 213.526L259.427 208.73C260.927 207.906 261.477 206.025 260.653 204.546L259.131 201.757C258.455 200.51 258.603 198.989 259.49 197.89C259.533 197.827 259.575 197.784 259.617 197.721C260.505 196.622 261.963 196.136 263.315 196.538L266.358 197.425C267.985 197.911 269.718 196.96 270.182 195.333L272.972 185.782C273.458 184.155 272.507 182.423 270.88 181.958L267.837 181.07C266.485 180.669 265.513 179.485 265.365 178.091C265.365 178.027 265.344 177.943 265.344 177.88C265.175 176.464 265.872 175.111 267.119 174.414L269.908 172.893C271.408 172.069 271.957 170.188 271.133 168.709L266.337 159.982C265.513 158.482 263.632 157.933 262.153 158.757L259.364 160.278C258.117 160.954 256.596 160.806 255.497 159.919C255.433 159.877 255.391 159.834 255.328 159.792C254.229 158.905 253.743 157.447 254.145 156.094L255.032 153.051C255.518 151.424 254.567 149.692 252.94 149.227L243.389 146.438C241.762 145.952 240.051 146.881 239.565 148.53ZM255.877 185.972C253.088 195.545 243.051 201.06 233.479 198.27C223.907 195.481 218.392 185.444 221.181 175.872C223.97 166.3 234.007 160.785 243.579 163.574C253.173 166.342 258.666 176.379 255.877 185.972Z" fill="#6DDCFF"/>
<path d="M201.678 140.098L201.403 141.007C201.276 141.408 200.938 141.704 200.516 141.747C200.494 141.747 200.473 141.747 200.452 141.747C200.03 141.789 199.628 141.599 199.417 141.218L198.952 140.394C198.698 139.95 198.149 139.781 197.705 140.035L195.106 141.451C194.662 141.704 194.493 142.254 194.747 142.697L195.212 143.521C195.423 143.902 195.36 144.346 195.106 144.684C195.085 144.705 195.085 144.726 195.064 144.726C194.81 145.064 194.367 145.191 193.965 145.085L193.057 144.81C192.571 144.663 192.063 144.958 191.916 145.444L191.091 148.297C190.944 148.783 191.239 149.29 191.725 149.438L192.634 149.713C193.035 149.839 193.331 150.178 193.374 150.6C193.374 150.621 193.374 150.642 193.374 150.664C193.416 151.086 193.226 151.488 192.845 151.699L192.021 152.164C191.577 152.417 191.408 152.967 191.662 153.41L193.078 156.01C193.331 156.453 193.881 156.622 194.324 156.369L195.148 155.904C195.529 155.693 195.973 155.756 196.311 156.01C196.332 156.031 196.353 156.031 196.353 156.052C196.691 156.305 196.818 156.749 196.712 157.151L196.437 158.059C196.29 158.545 196.585 159.052 197.071 159.2L199.924 160.024C200.41 160.172 200.917 159.876 201.065 159.39L201.34 158.482C201.466 158.08 201.805 157.784 202.227 157.742C202.248 157.742 202.269 157.742 202.291 157.742C202.713 157.7 203.115 157.89 203.326 158.27L203.791 159.095C204.044 159.538 204.594 159.707 205.037 159.454L207.637 158.038C208.08 157.784 208.249 157.235 207.996 156.791L207.531 155.967C207.32 155.587 207.383 155.143 207.637 154.805C207.658 154.784 207.658 154.763 207.679 154.763C207.932 154.425 208.376 154.298 208.778 154.404L209.686 154.678C210.172 154.826 210.679 154.53 210.827 154.044L211.651 151.192C211.799 150.706 211.503 150.199 211.017 150.051L210.109 149.776C209.707 149.649 209.411 149.311 209.369 148.889C209.369 148.867 209.369 148.846 209.369 148.825C209.327 148.403 209.517 148.001 209.897 147.79L210.722 147.325C211.165 147.071 211.334 146.522 211.081 146.078L209.665 143.479C209.411 143.035 208.862 142.866 208.418 143.12L207.594 143.585C207.214 143.796 206.77 143.733 206.432 143.479C206.411 143.458 206.39 143.458 206.39 143.437C206.052 143.183 205.925 142.74 206.031 142.338L206.305 141.43C206.453 140.944 206.157 140.436 205.671 140.289L202.819 139.464C202.333 139.338 201.826 139.612 201.678 140.098ZM206.538 151.255C205.714 154.108 202.713 155.756 199.861 154.911C197.008 154.066 195.36 151.086 196.205 148.234C197.029 145.381 200.03 143.733 202.882 144.578C205.735 145.402 207.383 148.403 206.538 151.255Z" fill="#6DDCFF"/>
<mask id="mask1_4004_19179" style="mask-type:luminance" maskUnits="userSpaceOnUse" x="120" y="131" width="209" height="109">
<path d="M120.051 131.773V231.318C120.051 235.692 123.601 239.263 127.996 239.263H320.071C324.445 239.263 328.016 235.713 328.016 231.318V131.773H120.051Z" fill="white"/>
</mask>
<g mask="url(#mask1_4004_19179)">
<path d="M101.16 136.21C101.752 132.618 102.851 129.111 104.499 125.857C106.591 121.715 109.401 117.954 112.993 115.017C118.551 110.474 126.052 108.086 133.088 109.523C140.125 110.96 146.379 116.538 147.753 123.574C149.042 130.083 146.316 136.548 143.146 142.465C142.851 143.035 143.421 143.648 144.013 143.416C149.147 141.282 156.099 143.796 158.149 149.1C160.114 154.213 157.008 160.447 152.084 162.581C151.472 162.835 151.556 163.722 152.211 163.87C158.212 165.138 164.34 167.399 166.601 172.872C168.841 178.365 165.819 184.895 161.107 188.508C156.395 192.121 150.394 193.516 144.604 194.826C137.42 196.432 130.13 198.059 122.777 197.7C115.423 197.34 107.88 194.763 103.041 189.205C100.991 186.839 99.5545 184.113 98.4768 181.197C96.2793 175.259 95.7721 168.836 96.8075 162.602L101.16 136.21Z" fill="#6DDCFF"/>
<path d="M120.685 252.765C164.721 261.45 180.442 202.856 149.866 222.866C157.515 215.449 166.01 202.454 164.235 194.129C162.967 188.17 158.825 187.304 154.705 188.931C152.888 189.649 151.092 187.874 151.81 186.078C159.396 167.04 148.831 157.108 140.125 170.23C139.005 171.921 136.364 171.35 136.089 169.343C133.532 151.128 116.353 163.87 120.537 189.945C119.417 182.908 112.402 175.766 106.823 183.014C101.858 191.17 103.274 201.081 105.682 210.42C103.274 201.714 90.701 193.833 87.299 206.131C83.1786 226.078 98.6883 248.434 120.685 252.765Z" fill="#0095CA"/>
<path d="M358.042 196.094C411.692 186.247 403.324 112.988 377.693 149.248C383.039 137.436 386.822 118.968 381.116 110.347C377.038 104.177 371.967 105.064 368.016 108.72C366.283 110.326 363.473 109.142 363.473 106.776C363.557 81.8632 347.181 75.355 343.187 94.0765C342.68 96.4854 339.447 97.0348 338.243 94.8795C327.234 75.4396 313.499 97.4996 329.875 125.117C325.459 117.679 314.366 112.735 311.259 123.405C309.294 134.837 315.295 145.402 322.205 154.89C315.591 146.121 297.863 142.824 299.511 158.249C303.737 182.655 331.249 201.017 358.042 196.094Z" fill="#6DDCFF"/>
<path d="M155.973 233.769C157.811 228.761 164.784 227.43 169.602 229.733C174.419 232.037 177.526 236.77 180.399 241.271C179.533 236.791 178.667 232.142 179.787 227.726C180.906 223.31 184.625 219.21 189.19 219.21C193.564 219.21 197.198 223.014 198.487 227.177C199.776 231.36 199.248 235.84 198.719 240.172C197.325 236.791 199.332 232.48 202.776 231.255C206.221 230.008 210.404 231.889 211.926 235.206C213.447 238.524 212.243 242.813 209.327 245.011C210.806 240.383 221.794 248.096 210.362 255.09C204.699 258.576 199.839 260.71 188.218 262.042C166.643 264.514 151.134 246.87 155.973 233.769Z" fill="#00C7FD"/>
<path d="M295.496 217.372C292.284 214.625 289.495 211.117 288.502 206.997C287.53 202.877 288.692 198.059 292.094 195.544C295.496 193.009 301.117 193.664 303.188 197.362C301.561 193.157 299.891 188.846 299.87 184.345C299.849 179.844 301.814 175.048 305.787 172.956C310.478 170.505 316.5 172.597 320.155 176.443C323.811 180.267 325.649 185.444 327.382 190.431C330.044 183.965 338.877 180.964 344.92 184.472C350.963 188.001 352.717 197.171 348.386 202.665C352.041 199.665 358.148 202.919 359.183 207.546C360.219 212.174 357.598 216.865 354.281 220.225C346.589 227.979 335.073 230.05 324.741 227.515C314.366 224.979 304.075 224.704 295.496 217.372Z" fill="#00C7FD"/>
<path d="M278.571 235.777C277.387 230.705 282.353 225.845 287.509 225.148C292.686 224.451 297.757 226.606 302.533 228.74C299.405 225.549 296.193 222.232 294.736 218.027C293.278 213.822 294.102 208.455 297.82 206.004C301.392 203.658 306.399 204.778 309.696 207.504C312.992 210.209 315 214.16 316.88 217.985C313.922 215.999 313.246 211.392 315.38 208.518C317.514 205.666 321.951 204.926 324.994 206.828C328.016 208.709 329.347 212.85 328.164 216.231C326.896 211.667 339.997 212.026 334.439 223.901C331.692 229.797 328.882 234.15 320.113 241.503C303.843 255.132 281.698 249.068 278.571 235.777Z" fill="#6DDCFF"/>
</g>
<mask id="mask2_4004_19179" style="mask-type:luminance" maskUnits="userSpaceOnUse" x="120" y="131" width="209" height="109">
<path d="M120.051 131.773V231.318C120.051 235.692 123.601 239.263 127.996 239.263H320.071C324.445 239.263 328.016 235.713 328.016 231.318V131.773H120.051Z" fill="white"/>
</mask>
<g mask="url(#mask2_4004_19179)">
<path d="M100.189 211.646C103.337 206.87 106.697 201.884 112.17 198.946C117.664 196.009 125.947 196.009 129.814 200.404C132.053 202.961 132.349 206.448 131.462 209.533C130.574 212.618 128.63 215.407 126.707 218.154C137.061 215.048 147.584 223.606 147.774 230.24C147.964 236.854 142.259 242.961 135.054 245.645C127.848 248.349 113.733 248.096 106.105 246.405C98.9421 244.82 91.6943 241.609 88.4825 235.988C85.6722 231.086 86.4963 225.148 89.1587 220.204C91.8 215.238 96.0895 211.033 100.316 206.913" fill="#00C7FD"/>
</g>
<path d="M330.298 131.773V125.793C330.298 121.314 326.664 117.679 322.184 117.679H125.883C121.403 117.679 117.769 121.314 117.769 125.793V131.773H330.298Z" fill="#0095CA"/>
<path d="M294.038 128.075H154.029C152.444 128.075 151.155 126.786 151.155 125.201C151.155 123.617 152.444 122.328 154.029 122.328H294.038C295.623 122.328 296.912 123.617 296.912 125.201C296.912 126.786 295.623 128.075 294.038 128.075Z" fill="#005B85"/>
<path d="M306.59 125.201C306.59 126.786 305.301 128.075 303.716 128.075C302.132 128.075 300.843 126.786 300.843 125.201C300.843 123.617 302.132 122.328 303.716 122.328C305.301 122.328 306.59 123.617 306.59 125.201Z" fill="#FF5662"/>
<path d="M312.338 128.075C313.925 128.075 315.211 126.789 315.211 125.201C315.211 123.614 313.925 122.328 312.338 122.328C310.75 122.328 309.464 123.614 309.464 125.201C309.464 126.789 310.75 128.075 312.338 128.075Z" fill="#FF8F51"/>
<path d="M320.958 128.075C322.546 128.075 323.832 126.789 323.832 125.201C323.832 123.614 322.546 122.328 320.958 122.328C319.371 122.328 318.085 123.614 318.085 125.201C318.085 126.789 319.371 128.075 320.958 128.075Z" fill="#FEC91B"/>
<path d="M139.301 128.075H127.552C125.967 128.075 124.678 126.786 124.678 125.201C124.678 123.617 125.967 122.328 127.552 122.328H139.301C140.885 122.328 142.174 123.617 142.174 125.201C142.174 126.786 140.885 128.075 139.301 128.075Z" fill="#005B85"/>
<path opacity="0.3" d="M333.277 270.663C333.172 270.642 331.735 270.515 331.629 270.515C261.476 266.817 199.311 268.106 128.165 268.677C122.671 268.719 116.987 268.782 112.022 269.585C107.056 270.388 102.936 272.184 103.654 274.044C104.415 276.009 110.183 277.319 115.888 277.572C121.594 277.826 127.341 277.277 133.004 276.854C165.08 274.551 198.022 276.875 230.267 278.587C262.491 280.298 296.891 281.27 326.769 276.579C330.066 276.051 333.404 275.438 335.496 274.424C337.271 273.558 337.863 272.353 336.51 271.445C335.707 270.916 334.44 270.811 333.277 270.663Z" fill="black"/>
<path d="M22.0695 132.618C23.3648 132.618 24.4149 131.568 24.4149 130.273C24.4149 128.977 23.3648 127.927 22.0695 127.927C20.7741 127.927 19.724 128.977 19.724 130.273C19.724 131.568 20.7741 132.618 22.0695 132.618Z" fill="#6DDCFF"/>
<path d="M17.1252 193.262C18.5956 193.262 19.7876 192.07 19.7876 190.6C19.7876 189.13 18.5956 187.938 17.1252 187.938C15.6548 187.938 14.4628 189.13 14.4628 190.6C14.4628 192.07 15.6548 193.262 17.1252 193.262Z" fill="#6DDCFF"/>
<path d="M52.2648 149.121C53.5602 149.121 54.6103 148.071 54.6103 146.776C54.6103 145.48 53.5602 144.43 52.2648 144.43C50.9694 144.43 49.9193 145.48 49.9193 146.776C49.9193 148.071 50.9694 149.121 52.2648 149.121Z" fill="#6DDCFF"/>
<path d="M33.7125 175.217C34.7395 175.217 35.572 174.385 35.572 173.358C35.572 172.331 34.7395 171.498 33.7125 171.498C32.6855 171.498 31.853 172.331 31.853 173.358C31.853 174.385 32.6855 175.217 33.7125 175.217Z" fill="#6DDCFF"/>
<path d="M47.6795 200.32C48.333 200.32 48.8628 199.79 48.8628 199.137C48.8628 198.483 48.333 197.953 47.6795 197.953C47.026 197.953 46.4962 198.483 46.4962 199.137C46.4962 199.79 47.026 200.32 47.6795 200.32Z" fill="#6DDCFF"/>
<path d="M388.258 167.652C389.554 167.652 390.604 166.602 390.604 165.307C390.604 164.012 389.554 162.961 388.258 162.961C386.963 162.961 385.913 164.012 385.913 165.307C385.913 166.602 386.963 167.652 388.258 167.652Z" fill="#FF5662"/>
<path d="M379.553 223.796C381.023 223.796 382.215 222.604 382.215 221.133C382.215 219.663 381.023 218.471 379.553 218.471C378.082 218.471 376.89 219.663 376.89 221.133C376.89 222.604 378.082 223.796 379.553 223.796Z" fill="#FF5662"/>
<path d="M396.14 205.75C397.167 205.75 397.999 204.918 397.999 203.891C397.999 202.864 397.167 202.031 396.14 202.031C395.113 202.031 394.28 202.864 394.28 203.891C394.28 204.918 395.113 205.75 396.14 205.75Z" fill="#6DDCFF"/>
<path d="M63.9501 101.789L64.3304 104.304C64.5629 105.762 65.7039 106.924 67.1619 107.135L69.6764 107.515C70.0145 107.558 70.0145 108.065 69.6764 108.128L67.1619 108.509C65.7039 108.741 64.5417 109.882 64.3304 111.34L63.9501 113.855C63.9078 114.193 63.4007 114.193 63.3373 113.855L62.957 111.34C62.7245 109.882 61.5835 108.72 60.1255 108.509L57.611 108.128C57.2729 108.086 57.2729 107.579 57.611 107.515L60.1255 107.135C61.5835 106.903 62.7457 105.762 62.957 104.304L63.3373 101.789C63.4007 101.451 63.9078 101.451 63.9501 101.789Z" fill="#00C7FD"/>
<path d="M45.5455 84.2931L46.1371 88.1388C46.4752 90.3786 48.229 92.1325 50.49 92.4917L54.3357 93.0833C54.8639 93.1678 54.8639 93.9285 54.3357 94.0131L50.49 94.6047C48.2502 94.9428 46.4963 96.6966 46.1371 98.9576L45.5455 102.782C45.461 103.31 44.7003 103.31 44.6157 102.782L44.0241 98.9364C43.686 96.6966 41.9322 94.9428 39.6712 94.5836L35.8255 93.9919C35.2973 93.9074 35.2973 93.1467 35.8255 93.0622L39.6712 92.4705C41.911 92.1325 43.6649 90.3786 44.0241 88.1177L44.6157 84.272C44.7003 83.7648 45.461 83.7648 45.5455 84.2931Z" fill="#FF5662"/>
<path d="M310.245 92.9777L309.95 94.9429C309.781 96.0839 308.872 96.9925 307.731 97.1616L305.766 97.4574C305.491 97.4996 305.491 97.88 305.766 97.9223L307.731 98.2181C308.872 98.3871 309.781 99.2957 309.95 100.437L310.245 102.402C310.288 102.677 310.668 102.677 310.71 102.402L311.006 100.437C311.175 99.2957 312.084 98.3871 313.225 98.2181L315.19 97.9223C315.465 97.88 315.465 97.4996 315.19 97.4574L313.225 97.1616C312.084 96.9925 311.175 96.0839 311.006 94.9429L310.71 92.9777C310.689 92.7031 310.288 92.7031 310.245 92.9777Z" fill="#00C7FD"/>
<path d="M336.024 77.2991L335.56 80.2996C335.285 82.0534 333.911 83.4269 332.158 83.7016L329.157 84.1665C328.734 84.2299 328.734 84.8215 329.157 84.8849L332.158 85.3498C333.911 85.6245 335.285 86.9979 335.56 88.7518L336.024 91.7523C336.088 92.1749 336.679 92.1749 336.743 91.7523L337.208 88.7518C337.482 86.9979 338.856 85.6245 340.61 85.3498L343.61 84.8849C344.033 84.8215 344.033 84.2299 343.61 84.1665L340.61 83.7016C338.856 83.4269 337.482 82.0534 337.208 80.2996L336.743 77.2991C336.679 76.8765 336.088 76.8765 336.024 77.2991Z" fill="#FFE17A"/>
<path d="M269.485 220.816L281.339 273.156" stroke="#0095CA" stroke-width="2.5" stroke-miterlimit="10"/>
<path d="M254.673 220.817L266.527 273.156" stroke="#0095CA" stroke-width="2.5" stroke-miterlimit="10"/>
<path d="M271.45 228.466H256.384" stroke="#0095CA" stroke-width="2.5" stroke-miterlimit="10"/>
<path d="M273.183 237.34H258.117" stroke="#0095CA" stroke-width="2.5" stroke-miterlimit="10"/>
<path d="M275.169 246.49H260.103" stroke="#0095CA" stroke-width="2.5" stroke-miterlimit="10"/>
<path d="M277.134 255.618H262.068" stroke="#0095CA" stroke-width="2.5" stroke-miterlimit="10"/>
<path d="M279.691 264.746H264.646" stroke="#0095CA" stroke-width="2.5" stroke-miterlimit="10"/>
<path d="M254.419 220.817L242.565 273.156" stroke="white" stroke-width="2.5" stroke-miterlimit="10"/>
<path d="M269.231 220.816L257.377 273.156" stroke="white" stroke-width="2.5" stroke-miterlimit="10"/>
<path d="M252.454 228.466H267.498" stroke="white" stroke-width="2.5" stroke-miterlimit="10"/>
<path d="M250.721 237.34H265.766" stroke="white" stroke-width="2.5" stroke-miterlimit="10"/>
<path d="M248.735 246.49H263.801" stroke="white" stroke-width="2.5" stroke-miterlimit="10"/>
<path d="M246.77 255.618H261.836" stroke="white" stroke-width="2.5" stroke-miterlimit="10"/>
<path d="M244.319 264.746H259.385" stroke="white" stroke-width="2.5" stroke-miterlimit="10"/>
<path d="M269.844 221.302H254.039C253.299 221.302 252.686 220.69 252.686 219.95C252.686 219.211 253.299 218.598 254.039 218.598H269.844C270.584 218.598 271.196 219.211 271.196 219.95C271.218 220.69 270.605 221.302 269.844 221.302Z" fill="#FF5662"/>
<path d="M132.117 253.716C133.553 250.927 134.314 246.849 131.039 245.412C129.539 244.757 127.785 245.032 126.454 245.983C123.834 247.842 121.551 250.124 119.65 252.702C121.425 247.229 122.545 241.545 122.904 235.798C122.967 234.974 122.714 234.129 122.143 233.537C120.643 231.994 118.551 233.347 117.241 234.72C112.761 239.453 109.824 248.391 108.662 254.794C108.662 254.794 108.725 247.948 108.387 245.814C108.176 244.482 107.648 243.193 106.464 242.538C103.739 241.038 101.52 244.081 100.844 246.722C99.6604 251.392 100.273 256.463 102.302 260.858C102.027 260.858 101.752 260.858 101.457 260.858C99.4914 260.985 97.5263 261.577 96.3007 262.718C94.0609 264.789 95.0117 268.064 97.5685 269.881C100.125 271.719 103.844 272.374 107.394 272.565C108.683 272.628 111.24 272.586 114.642 272.248C115.424 272.163 117.389 272.205 118.171 272.226C120.326 272.269 121.932 272.079 125.735 271.339C127.088 271.064 128.377 270.346 129.18 269.226C131.525 265.972 128.102 262.887 124.89 262.908C127.869 260.33 130.321 257.203 132.117 253.716Z" fill="#FF5662"/>
<path d="M117.051 245.666C117.051 245.666 110.141 257.583 111.832 272.374" stroke="#333333" stroke-width="2.5" stroke-miterlimit="10" stroke-linecap="round"/>
<path d="M105.852 259.929C105.852 265.845 111.494 265.57 111.494 265.57" stroke="#333333" stroke-width="2.5" stroke-miterlimit="10" stroke-linecap="round"/>
<path d="M119.629 256.21C118.614 262.739 112.423 261.471 112.423 261.471" stroke="#333333" stroke-width="2.5" stroke-miterlimit="10" stroke-linecap="round"/>
<path d="M275.338 98.683L261.392 84.737C260.166 83.5114 260.166 81.5251 261.392 80.2996L275.338 66.3536C276.563 65.128 278.55 65.128 279.775 66.3536L293.721 80.2996C294.947 81.5251 294.947 83.5114 293.721 84.737L279.775 98.683C278.55 99.9085 276.563 99.9085 275.338 98.683Z" fill="#FF5662"/>
<path d="M274.26 80.2785C273.627 78.8627 271.366 76.1581 272.19 74.8691C273.162 73.3477 274.746 73.3055 276.86 73.1787C278.571 73.073 280.536 73.0519 281.741 74.0873C283.156 75.334 282.565 77.278 281.994 78.8627C280.726 82.4338 279.606 84.7581 278.487 87.7375C278.254 88.3291 277.176 88.7729 276.775 88.2235C275.275 86.195 275.93 84.0608 274.26 80.2785Z" fill="white"/>
<path d="M276.585 90.5267C276.099 90.8859 275.887 91.4776 276.056 92.0058C276.12 92.1749 276.225 92.3439 276.373 92.4707C276.859 92.8933 277.726 92.8722 278.296 92.4496C278.803 92.0481 279.015 91.3297 278.761 90.8014C278.74 90.738 278.698 90.6958 278.677 90.6535C278.254 90.0618 277.324 89.9985 276.69 90.4845L276.585 90.5267Z" fill="white"/>
<path d="M144.753 207.589C144.436 205.771 143.633 204.039 142.428 202.644C142.069 202.243 141.625 201.82 141.076 201.862C140.125 201.926 139.555 207.483 139.555 208.434C139.555 211.265 139.872 209.828 139.872 212.66C139.872 214.35 139.872 216.083 140.463 217.689C141.034 219.295 142.28 220.732 143.95 221.07" fill="#FFC599"/>
<path d="M140.062 199.897C140.188 199.284 140.358 198.629 140.632 198.017C140.696 197.848 140.759 197.657 140.822 197.488C141.435 196.115 142.238 194.615 144.161 195.27C144.499 195.396 145.281 195.882 145.556 196.115C146.464 196.854 146.591 197.679 146.422 198.798C146.253 199.982 145.999 200.531 145.408 202.306C145.154 203.151 144.922 203.975 144.668 204.821C144.562 205.159 144.245 205.37 143.886 205.328C143.379 205.264 142.83 205.138 142.344 204.905C141.752 204.609 141.351 203.997 140.738 203.722C140.062 203.405 139.195 203.257 138.709 202.708C138.519 202.496 138.604 202.137 138.857 202.01C139.132 201.884 139.386 201.672 139.555 201.398C139.639 201.292 139.702 201.165 139.766 201.038C139.893 200.616 139.998 200.214 140.062 199.897Z" fill="#A0EBFF"/>
<path d="M145.26 190.029L144.372 196.03L147.457 196.284L147.774 190.093L145.26 190.029Z" fill="#FFC599"/>
<path d="M140.463 189.227C139.322 186.332 140.569 183.141 143.21 182.106C145.323 181.282 146.992 181.894 148.303 184.028C148.641 184.578 148.936 185.212 149.232 185.951C150.373 188.846 151.176 192.227 148.387 191.72C143.083 190.79 141.604 192.142 140.463 189.227Z" fill="#FFC599"/>
<path d="M144.393 192.755C143.421 192.206 142.597 193.114 141.604 192.607C140.738 192.164 141.16 191.593 139.491 191.044C139.005 190.875 138.646 190.473 138.477 189.987C138.435 189.86 138.414 189.755 138.414 189.755C138.244 188.973 137.399 188.571 136.829 188.022C136.089 187.283 135.772 186.141 136.089 185.127C136.385 184.134 136.998 183.5 137.737 182.803C138.561 182.042 138.857 181.577 139.702 180.817C140.252 180.331 140.844 179.802 141.562 179.739C142.555 179.654 143.506 180.457 144.457 180.162C144.879 180.035 145.154 179.654 145.598 179.485C147.901 178.661 148.767 180.901 148.049 182.148C147.901 182.38 147.647 182.549 147.373 183.035C145.873 185.592 144.013 183.099 145.978 185.571C147.795 187.832 148.26 191.234 145.788 192.65C145.64 192.734 145.682 192.988 145.682 193.03C145.64 193.389 144.668 192.903 144.393 192.755Z" fill="#005B85"/>
<path d="M145.344 187.599C145.788 188.381 147.056 188.445 147.563 188.17C148.049 187.895 147.478 187.156 147.14 186.585C146.823 186.015 146.147 185.782 145.64 186.057C145.154 186.332 145.006 187.029 145.344 187.599Z" fill="#FFC599"/>
<path d="M136.301 268.803H138.752L141.182 262.485H138.076L136.301 268.803Z" fill="#DD9F76"/>
<path d="M147.246 270.895C146.908 270.578 145.619 270.43 145.049 270.325C144.647 270.24 144.182 270.135 143.802 269.966C142.936 269.606 140.4 268.571 140.4 268.571C139.914 268.317 139.343 268.275 138.836 268.465C138.646 268.529 138.456 268.592 138.35 268.634C137.463 268.888 136.956 268.698 136.153 268.212C135.941 268.085 135.688 268.233 135.688 268.465L135.477 271.064C135.434 271.529 135.793 271.825 136.258 271.91C138.456 272.269 144.626 272.311 146.824 271.91C147.394 271.804 147.648 271.255 147.246 270.895Z" fill="#005B85"/>
<path d="M150.732 228.656C149.908 231.065 149.359 233.579 149.127 236.115C148.218 245.264 147.246 253.125 144.182 262.274C143.865 263.204 143.485 264.218 142.576 264.746C141.541 265.338 140.167 265.127 138.984 264.915C138.477 264.831 136.998 264.535 136.998 264.535C135.54 264.197 134.737 262.781 135.223 261.492C137.019 256.822 139.533 252.132 140.717 247.293C141.118 245.602 141.456 244.039 141.52 242.898C141.604 241.313 141.583 239.052 141.499 235.206C141.393 230.748 139.977 224.81 141.308 220.542C141.625 219.506 141.477 219.316 142.323 218.577C143.907 217.203 147.267 221.028 149.401 221.323C150.352 221.45 151.409 221.662 151.916 222.401C152.296 222.929 152.275 223.627 152.254 224.261L150.732 228.656Z" fill="#E96115"/>
<path d="M155.762 270.092H158.213L157.558 263.796H154.114L155.762 270.092Z" fill="#FFC599"/>
<path d="M167.109 272.057C166.729 271.719 165.355 271.571 164.742 271.445C164.299 271.36 163.813 271.233 163.39 271.064C162.46 270.663 159.734 269.564 159.734 269.564C159.227 269.289 158.614 269.247 158.044 269.437C157.833 269.522 157.643 269.585 157.516 269.627C156.565 269.902 155.994 269.691 155.149 269.184C154.938 269.057 154.642 269.205 154.663 269.458L154.431 272.248C154.388 272.734 154.769 273.072 155.276 273.156C157.643 273.537 164.299 273.579 166.665 273.156C167.257 273.029 167.532 272.438 167.109 272.057Z" fill="#0095CA"/>
<path d="M151.155 221.154C156.543 235.101 159.776 249.11 160.516 263.922C160.537 264.387 160.558 264.873 160.368 265.317C159.861 266.479 158.234 266.711 156.882 266.754C155.085 266.817 152.951 266.69 152.064 265.211C151.451 264.197 151.726 262.95 151.853 261.809C152.212 258.83 151.599 255.829 150.986 252.871C150.289 249.49 149.972 246.912 149.275 243.532C148.894 241.672 147.943 236.77 147.119 235.037C146.19 233.093 144.964 230.621 143.675 228.867C140.801 225.021 141.034 223.458 140.801 221.471C140.548 219.358 141.456 220.309 142.893 218.661C144.858 216.421 146.739 217.879 149.824 217.795" fill="#FF8F51"/>
<path d="M141.182 204.99C141.71 211.434 139.829 214.245 139.28 219.105L138.35 222.232C138.35 224.239 140.104 223.056 142.238 222.972C146.697 222.781 152.338 227.43 153.078 222.866C153.437 220.647 151.916 218.196 151.874 216.273C151.831 214.456 151.683 211.688 151.726 210.357C151.726 210.357 151.261 205.011 150.838 202.391C150.373 199.475 149.782 195.967 147.14 194.911C147.14 194.911 146.274 194.551 145.513 194.551C139.956 194.572 141.182 204.99 141.182 204.99Z" fill="#00C7FD"/>
<path d="M178.265 206.469L191.282 202.306C187.753 198.946 182.555 197.573 177.589 199.158C173.701 200.404 170.764 203.194 169.222 206.638C167.848 209.723 165.228 212.068 161.995 213.019L107.711 229.205C104.288 230.198 102.386 233.833 103.464 237.213C104.542 240.594 108.218 242.433 111.578 241.27L165.249 223.119C168.44 222.021 171.926 222.401 174.842 224.113C178.096 226.014 182.132 226.585 185.999 225.359C190.965 223.774 194.388 219.633 195.318 214.836L182.301 218.999L178.265 206.469Z" fill="#FEC91B"/>
<path d="M109.93 239.305C112.229 239.305 114.092 237.442 114.092 235.143C114.092 232.844 112.229 230.98 109.93 230.98C107.631 230.98 105.767 232.844 105.767 235.143C105.767 237.442 107.631 239.305 109.93 239.305Z" fill="#2E2F33"/>
<mask id="mask3_4004_19179" style="mask-type:luminance" maskUnits="userSpaceOnUse" x="103" y="198" width="93" height="44">
<path d="M178.265 206.469L191.282 202.306C187.753 198.946 182.555 197.573 177.589 199.158C173.701 200.404 170.764 203.194 169.222 206.638C167.848 209.723 165.228 212.068 161.995 213.019L107.711 229.205C104.288 230.198 102.386 233.833 103.464 237.213C104.542 240.594 108.218 242.433 111.578 241.27L165.249 223.119C168.44 222.021 171.926 222.401 174.842 224.113C178.096 226.014 182.132 226.585 185.999 225.359C190.965 223.774 194.388 219.633 195.318 214.836L182.301 218.999L178.265 206.469Z" fill="white"/>
</mask>
<g mask="url(#mask3_4004_19179)">
<path d="M181.984 222.95C188.076 222.95 193.014 218.012 193.014 211.92C193.014 205.829 188.076 200.89 181.984 200.89C175.893 200.89 170.954 205.829 170.954 211.92C170.954 218.012 175.893 222.95 181.984 222.95Z" fill="#FFE17A"/>
</g>
<path d="M148.176 213.526C148.831 216.316 149.549 219.379 149.845 221.809C149.887 222.169 149.993 222.739 150.077 223.098L150.225 223.732C150.225 223.732 150.5 224.514 151.303 226.331C152.233 228.402 150.986 228.804 150.986 228.804L150.796 229.184C150.542 229.691 150.014 229.966 149.486 229.86L147.88 229.564C147.732 229.543 147.605 229.438 147.521 229.311L147.014 228.423C146.887 228.191 146.887 227.916 147.014 227.684L147.035 227.641C147.288 227.219 147.331 226.733 147.288 226.226C147.246 225.782 147.436 225.402 147.626 225.148C147.817 224.894 147.859 224.556 147.753 224.261L146.654 221.281C145.788 218.682 145.006 215.048 144.541 212.322C144.372 211.308 143.929 209.744 144.499 208.899L145.281 202.75L147.584 203.236L149.401 203.806L147.753 211.815L148.176 213.526Z" fill="#FFC599"/>
<path d="M144.647 200.447C144.647 199.834 144.668 199.137 144.795 198.482C144.816 198.291 144.837 198.122 144.879 197.932C145.175 196.474 145.64 194.826 147.648 195.058C148.007 195.101 148.873 195.418 149.19 195.587C150.225 196.115 150.542 196.897 150.606 198.017C150.69 199.2 150.564 199.792 150.373 201.651C150.31 202.517 150.247 203.405 150.204 204.271C150.183 204.631 149.908 204.905 149.549 204.947C149.042 204.99 148.472 204.99 147.964 204.863C147.309 204.715 146.781 204.208 146.147 204.039C145.429 203.87 144.541 203.912 143.95 203.489C143.717 203.32 143.717 202.961 143.95 202.792C144.203 202.602 144.393 202.348 144.499 202.053C144.541 201.926 144.584 201.799 144.626 201.651C144.647 201.186 144.647 200.785 144.647 200.447Z" fill="#A0EBFF"/>
<path d="M307.54 273.156H299.257L315.908 231.762H324.191L307.54 273.156Z" fill="#0095CA"/>
<path d="M332.559 273.156H340.842L324.191 231.762H315.908L332.559 273.156Z" fill="#005B85"/>
<mask id="mask4_4004_19179" style="mask-type:luminance" maskUnits="userSpaceOnUse" x="291" y="237" width="58" height="10">
<path d="M348.639 237.214H291.46V246.257H348.639V237.214Z" fill="white"/>
</mask>
<g mask="url(#mask4_4004_19179)">
<path d="M386.737 237.214H291.376V246.257H386.737V237.214Z" fill="#D2F9FF"/>
<mask id="mask5_4004_19179" style="mask-type:luminance" maskUnits="userSpaceOnUse" x="291" y="237" width="96" height="10">
<path d="M386.737 237.214H291.376V246.257H386.737V237.214Z" fill="white"/>
</mask>
<g mask="url(#mask5_4004_19179)">
<path d="M294.714 252.597H288.777L298.645 228.445H304.582L294.714 252.597Z" fill="#FF5662"/>
<path d="M305.935 252.597H299.997L309.865 228.445H315.803L305.935 252.597Z" fill="#FF5662"/>
<path d="M317.176 252.597H311.239L321.106 228.445H327.044L317.176 252.597Z" fill="#FF5662"/>
<path d="M328.418 252.597H322.48L332.348 228.445H338.285L328.418 252.597Z" fill="#FF5662"/>
<path d="M339.638 252.597H333.7L343.568 228.445H349.505L339.638 252.597Z" fill="#FF5662"/>
<path d="M350.879 252.597H344.941L354.809 228.445H360.747L350.879 252.597Z" fill="#FF5662"/>
</g>
</g>
<mask id="mask6_4004_19179" style="mask-type:luminance" maskUnits="userSpaceOnUse" x="291" y="252" width="58" height="10">
<path d="M348.639 252.364H291.46V261.408H348.639V252.364Z" fill="white"/>
</mask>
<g mask="url(#mask6_4004_19179)">
<path d="M386.737 252.364H291.376V261.408H386.737V252.364Z" fill="#D2F9FF"/>
<mask id="mask7_4004_19179" style="mask-type:luminance" maskUnits="userSpaceOnUse" x="291" y="252" width="96" height="10">
<path d="M386.737 252.364H291.376V261.408H386.737V252.364Z" fill="white"/>
</mask>
<g mask="url(#mask7_4004_19179)">
<path d="M294.714 267.747H288.777L298.645 243.595H304.582L294.714 267.747Z" fill="#FF5662"/>
<path d="M305.935 267.747H299.997L309.865 243.595H315.803L305.935 267.747Z" fill="#FF5662"/>
<path d="M317.176 267.747H311.239L321.106 243.595H327.044L317.176 267.747Z" fill="#FF5662"/>
<path d="M328.418 267.747H322.48L332.348 243.595H338.285L328.418 267.747Z" fill="#FF5662"/>
<path d="M339.638 267.747H333.7L343.568 243.595H349.505L339.638 267.747Z" fill="#FF5662"/>
<path d="M350.879 267.747H344.941L354.809 243.595H360.747L350.879 267.747Z" fill="#FF5662"/>
</g>
</g>
<path d="M292.2 147.219L153.501 128.118C151.937 127.906 150.838 126.448 151.049 124.885C151.261 123.321 152.719 122.222 154.282 122.434L292.982 141.535C294.546 141.747 295.644 143.205 295.433 144.768C295.222 146.332 293.764 147.431 292.2 147.219Z" fill="white"/>
<path d="M260.251 142.571C260.103 143.247 258.814 143.987 258.223 143.86C257.631 143.733 257.969 142.803 258.117 142.127C258.265 141.451 258.856 140.986 259.448 141.113C260.04 141.24 260.378 141.895 260.251 142.571Z" fill="#FFC599"/>
<path d="M262.702 148.614L262.343 154.995L259.11 154.594L260.124 148.17L262.702 148.614Z" fill="#FFBB8D"/>
<path d="M266.02 145.529C266.21 142.254 263.928 139.465 260.927 139.296C258.54 139.169 257.082 140.331 256.469 142.888C256.321 143.543 256.215 144.282 256.173 145.106C255.983 148.382 256.279 152.016 258.92 150.6C263.886 147.938 265.83 148.804 266.02 145.529Z" fill="#FFBB8D"/>
<path d="M257.314 143.141L255.37 145.761C255.201 145.973 255.286 146.29 255.539 146.395L256.384 146.755L257.314 143.141Z" fill="#FFBB8D"/>
<path d="M283.389 222.591L281.001 224.261L277.747 217.668L280.135 215.999L283.389 222.591Z" fill="#DD9F76"/>
<path d="M275.676 230.896C275.782 229.966 276.5 229.733 277.092 229.438C277.451 229.269 277.599 228.994 277.895 228.571L279.839 224.768C280.135 224.176 280.684 223.754 281.339 223.542C281.339 223.542 281.339 223.542 281.36 223.542C282.438 223.183 282.522 222.824 282.966 221.767C283.093 221.493 283.452 221.472 283.621 221.704L286.009 223.944C286.368 224.388 286.283 225.043 285.819 225.359C285.819 225.359 282.755 228.761 278.529 231.086C278.064 231.339 276.542 231.234 275.93 231.191C275.761 231.17 275.655 231.044 275.676 230.896Z" fill="#005B85"/>
<path d="M269.337 184.514C270.436 195.946 269.929 207.039 273.606 218.027C273.944 219.02 274.345 220.077 275.296 220.626C276.374 221.26 278.445 220.985 279.691 220.69L281.847 220.394C283.368 220.034 284.234 218.555 283.706 217.182C281.804 212.28 279.163 207.314 277.916 202.222C277.494 200.447 277.029 197.193 277.071 197.594C277.304 199.242 276.691 192.713 277.092 189.501C277.684 184.852 279.036 182.782 277.62 178.281C277.282 177.203 277.282 177.013 276.543 176.21C275.043 174.604 271.789 175.386 269.549 175.703L269.337 184.514Z" fill="#0095CA"/>
<path d="M267.964 215.555L265.111 215.069L262.956 209.85L265.809 210.336L267.964 215.555Z" fill="#FFBB8D"/>
<path d="M256.025 218.196C255.666 217.309 257.314 217.055 258.561 216.865C259.089 216.78 259.617 216.633 260.124 216.421L264.879 214.435C264.879 214.435 265.09 214.71 265.618 214.815C266.083 214.9 266.548 214.794 266.95 214.541L267.499 214.203C267.752 214.055 268.069 214.245 268.069 214.52L268.724 217.731C268.767 218.302 268.323 218.788 267.753 218.788H257.018C256.575 218.809 256.173 218.577 256.025 218.196Z" fill="#005B85"/>
<path d="M265.745 186.606C264.541 187.114 259.448 190.346 258.307 190.98C255.307 192.692 256.237 192.776 258.815 196.221C262.111 200.637 263.97 201.207 268.091 209.892C269.19 212.47 266.633 212.533 265.597 212.702C264.477 212.893 261.667 212.449 260.695 212.301C259.174 212.068 259.913 210.061 259.153 208.688C256.997 204.778 256.237 204.314 253.173 200.257C252.116 198.862 251.186 196.791 250.32 195.291C249.412 193.748 247.721 192.333 248.059 190.537C248.545 188.107 250.574 186.86 252.877 184.958C255.074 183.12 256.744 182.296 259.153 180.838C261.625 179.338 262.766 178.091 266.252 175.893C268.915 174.224 269.422 171.562 272.613 172.407C274.979 173.041 278.635 177.309 277.642 180.141C275.888 185.212 272.19 183.902 265.745 186.606Z" fill="#00C7FD"/>
<path d="M278.107 175.999C278.762 178.006 276.606 177.394 274.451 178.006C269.929 179.274 263.907 178.767 264.583 175.175C265.09 172.555 265.154 171.879 263.717 169.85C262.724 168.434 260.378 167.547 259.892 166.258C259.301 164.737 259.047 162.962 258.582 160.215C258.075 157.151 255.096 156.411 259.681 154.087C259.681 154.087 260.653 153.601 261.414 153.263C262.026 153.009 263.167 152.671 263.167 152.671C264.287 152.418 266.886 153.094 268.936 160.193C270.838 166.723 273.564 168.709 276.12 173.189C276.564 173.928 278.107 175.999 278.107 175.999Z" fill="#FF8F51"/>
<path d="M254.757 156.517C253.025 157.087 251.419 157.425 249.707 157.869C249.137 158.017 248.122 158.249 246.96 158.123C246.643 158.08 247.003 156.453 247.298 155.65C248.101 153.453 249.771 148.043 249.771 148.043C249.771 148.043 250.13 147.219 251.355 145.529C252.032 144.599 252.623 142.698 252.94 141.155C253.046 140.606 253.173 140.141 253.025 139.866C252.834 139.507 252.581 139.612 252.412 140.204C252.201 141.007 251.841 141.916 251.567 142.613L252.053 139.486C252.095 139.19 251.693 139.084 251.567 139.359C251.186 140.246 251.102 141.366 250.531 142.127C250.51 142.127 250.51 142.127 250.489 142.127C250.531 141.113 251.334 140.183 251.229 139.211C251.207 138.979 250.891 139.021 250.806 139.253C250.468 140.12 250.045 140.648 249.602 142L249.475 141.958C249.602 141.176 250.066 140.415 249.94 139.655C249.897 139.443 249.623 139.507 249.538 139.718C249.285 140.521 248.947 141.028 248.608 142.275C248.503 142.528 248.587 142.317 248.228 143.014L248.08 143.353C247.679 144.156 247.552 145.128 247.784 145.529C247.911 145.74 247.51 146.691 247.404 146.924L246.791 148.213C245.523 151.171 244.72 152.185 243.389 156.665C243.072 157.721 242.734 159.707 243.199 160.701C243.748 161.863 245.291 162.476 247.15 162.201C249.327 161.884 253.954 161.102 256.173 159.982L254.757 156.517ZM251.44 142.909C251.44 142.867 251.461 142.845 251.461 142.845C251.461 142.845 251.44 142.888 251.44 142.909Z" fill="#FFBB8D"/>
<path d="M258.73 160.722C259.364 160.553 260.04 160.32 260.674 160.003C260.864 159.94 261.033 159.855 261.202 159.771C262.597 159.052 263.78 157.658 262.977 155.693C262.829 155.333 262.618 155.017 262.364 154.721C261.54 153.812 260.653 153.728 259.49 153.96C258.265 154.214 258.054 154.531 255.856 155.207C254.99 155.503 255.095 155.397 254.229 155.714C253.87 155.841 253.658 156.2 253.743 156.559C253.849 157.087 253.996 157.658 254.271 158.144C254.609 158.757 255.264 159.158 255.602 159.771C255.983 160.468 255.222 161.778 255.814 162.264C256.046 162.454 256.426 162.349 256.532 162.074C256.659 161.778 256.87 161.504 257.124 161.313C257.251 161.229 257.356 161.144 257.504 161.081C257.969 160.933 258.392 160.806 258.73 160.722Z" fill="#E96115"/>
<path d="M261.308 146.987C261.097 146.987 261.033 147.536 261.054 147.79C261.012 149.058 261.012 148.445 261.244 149.966C261.561 152.016 259.956 151.509 259.744 153.685C259.66 154.573 260.399 155.545 261.16 156.115C261.709 156.538 262.533 156.58 263.125 156.221C263.315 156.094 263.569 156.221 263.653 156.432C263.949 157.277 264.921 157.911 265.83 157.7C266.506 157.531 267.034 156.918 267.182 156.242C267.288 155.777 267.71 155.46 268.175 155.502C269.084 155.587 270.056 155.143 270.457 154.319C271.028 153.157 270.267 151.572 269.042 151.234C268.999 151.213 268.999 151.171 269.042 151.15C270.119 150.685 270.436 149.121 269.95 148.022C269.697 147.473 269.316 147.008 268.873 146.607C268.154 145.952 268.471 144.134 268.704 143.183C268.957 142.127 268.598 140.986 267.985 140.12C267.351 139.211 266.971 138.788 265.259 138.408C264.731 138.281 263.865 138.197 263.379 137.985C262.491 137.605 261.583 137.225 260.632 137.098C258.92 136.844 256.828 137.732 256.575 139.465C256.511 139.887 256.575 140.331 256.701 140.732C257.209 142.359 258.645 142.338 260.526 142.423C260.568 142.423 261.414 140.584 261.456 140.584C261.54 140.584 261.308 142.254 261.392 142.233L261.329 144.388L261.308 146.987Z" fill="#FFE17A"/>
<path d="M260.103 145.106C259.617 145.783 259.723 146.67 260.294 147.071C260.885 147.473 261.688 146.839 262.153 146.163C262.618 145.487 262.597 145.022 262.005 144.599C261.435 144.219 260.568 144.43 260.103 145.106Z" fill="#FFBB8D"/>
<path d="M199.882 87.0825V128.794L198.973 134.393" stroke="#FF8F51" stroke-width="2.5" stroke-miterlimit="10" stroke-linecap="round"/>
<path d="M200.304 87.0825H199.734C198.339 87.0825 197.198 85.9415 197.198 84.5469C197.198 83.1523 198.339 82.0113 199.734 82.0113H200.304C201.699 82.0113 202.84 83.1523 202.84 84.5469C202.819 85.9415 201.699 87.0825 200.304 87.0825Z" fill="#FEC91B"/>
<path d="M202.776 83.427H197.261C195.085 83.427 193.331 81.6731 193.331 79.4967V69.5232C193.331 67.3468 195.085 65.593 197.261 65.593H202.776C204.953 65.593 206.707 67.3468 206.707 69.5232V79.4967C206.685 81.6731 204.932 83.427 202.776 83.427Z" fill="#6DDCFF"/>
<path d="M200.009 77.2146C202.634 77.2146 204.763 75.0861 204.763 72.4603C204.763 69.8346 202.634 67.706 200.009 67.706C197.383 67.706 195.254 69.8346 195.254 72.4603C195.254 75.0861 197.383 77.2146 200.009 77.2146Z" fill="#005B85"/>
<path d="M365.501 269.881L375.179 242.813C375.327 242.412 375.897 242.412 376.045 242.813L385.723 269.881H365.501Z" fill="#E96115"/>
<path d="M386.674 273.051H364.593C363.621 273.051 362.839 272.269 362.839 271.297V270.832C362.839 269.86 363.621 269.078 364.593 269.078H386.674C387.646 269.078 388.428 269.86 388.428 270.832V271.297C388.407 272.269 387.625 273.051 386.674 273.051Z" fill="#FF8F51"/>
<path d="M131.546 120.426C133.279 118.841 134.927 117.066 135.878 114.911C136.829 112.756 136.955 110.115 135.688 108.128C134.314 105.952 131.525 104.98 128.968 105.212C126.411 105.445 124.066 106.734 121.995 108.255C114.621 113.749 109.465 123.849 110.733 133.125C117.685 128.878 125.291 126.195 131.546 120.426Z" fill="#E96115"/>
<path d="M126.855 134.267C127.13 132.048 128.25 129.576 130.447 129.132C131.863 128.836 133.342 129.512 134.377 130.527C135.413 131.541 136.068 132.851 136.723 134.161C137.526 135.767 138.287 137.816 137.188 139.232C136.385 140.246 134.948 140.437 133.659 140.563C132.053 140.711 127.257 141.916 126.285 140.563C125.693 139.739 126.728 135.302 126.855 134.267Z" fill="#E96115"/>
<path d="M114.431 155.545C117.325 154.129 120.389 152.756 123.58 152.904C126.792 153.051 130.13 155.291 130.426 158.503C130.722 161.736 127.743 164.546 124.552 165.117C121.361 165.687 118.107 164.568 115.191 163.194C108.556 160.067 107.965 158.693 114.431 155.545Z" fill="#E96115"/>
<path d="M104.055 117.299C105.978 114.214 107.964 110.368 106.274 107.156C104.499 103.754 99.8715 103.332 96.0258 103.374C92.4337 103.416 87.954 104.029 86.7918 107.431C85.9678 109.819 87.3201 112.354 88.6302 114.531C90.0037 116.834 94.1452 126.723 96.8076 126.977C99.4489 127.251 102.745 119.243 104.055 117.299Z" fill="#E96115"/>
<path d="M90.7855 162.328C89.3064 162.307 87.5526 162.687 86.5806 161.567C85.7776 160.658 86.0523 159.2 86.7496 158.228C88.1654 156.284 91.0391 155.714 93.2789 156.622C95.1172 157.362 100.167 162.666 98.4136 165.032C97.3359 166.469 92.7506 162.349 90.7855 162.328Z" fill="#E96115"/>
<path d="M80.0727 138.239C77.7695 137.626 75.4029 136.295 74.621 134.034C73.7547 131.456 75.424 128.477 77.8751 127.336C80.3262 126.174 83.3056 126.575 85.7567 127.737C89.3489 129.449 94.9907 135.872 93.4482 140.394C92.3282 143.627 90.9548 141.662 88.715 140.69C85.8624 139.38 83.0943 139.042 80.0727 138.239Z" fill="#E96115"/>
<path d="M121.762 119.539C121.762 119.539 81.0865 149.755 117.6 219.485" stroke="#00C7FD" stroke-width="1.7223" stroke-miterlimit="10" stroke-linecap="round"/>
<path d="M130.257 136.802C130.257 136.802 119.734 150.643 105.239 145.973" stroke="#00C7FD" stroke-width="1.7223" stroke-miterlimit="10" stroke-linecap="round"/>
<path d="M97.23 111.277C96.7863 113.242 94.8211 135.006 103.569 152.333C104.604 154.404 108.323 164.208 124.277 158.63" stroke="#00C7FD" stroke-width="1.7223" stroke-miterlimit="10" stroke-linecap="round"/>
<path d="M90.6796 159.243C90.6796 159.243 99.0261 161.356 102.682 172.66" stroke="#00C7FD" stroke-width="1.7223" stroke-miterlimit="10" stroke-linecap="round"/>
<path d="M83.6643 132.661C88.9892 133.337 95.4762 149.565 100.632 145.571" stroke="#00C7FD" stroke-width="1.7223" stroke-miterlimit="10" stroke-linecap="round"/>
</svg>
