<svg width="14" height="11" viewBox="0 0 14 11" fill="none" xmlns="http://www.w3.org/2000/svg">
<path d="M6.25 0C6.11193 0 6 0.111929 6 0.25V2.75C6 2.88807 6.11193 3 6.25 3H6.75C6.88807 3 7 2.88807 7 2.75V2L13.75 2C13.8881 2 14 1.88807 14 1.75V1.25C14 1.11193 13.8881 1 13.75 1L7 1V0.25C7 0.111929 6.88807 0 6.75 0H6.25Z" fill="#E3E3E5"/>
<path d="M5 1.00001L0.25 1C0.111929 1 0 1.11193 0 1.25V1.75C0 1.88807 0.111929 2 0.25 2L5 2V1.00001Z" fill="#E3E3E5"/>
<path d="M13.75 6C13.8881 6 14 5.88807 14 5.75V5.25C14 5.11193 13.8881 5 13.75 5H12V4.25C12 4.11193 11.8881 4 11.75 4H11.25C11.1119 4 11 4.11193 11 4.25V6.75C11 6.88807 11.1119 7 11.25 7H11.75C11.8881 7 12 6.88807 12 6.75V6L13.75 6Z" fill="#E3E3E5"/>
<path d="M10 5.00001V6.00001L0.25 6C0.111929 6 0 5.88807 0 5.75V5.25C0 5.11193 0.111929 5 0.25 5L10 5.00001Z" fill="#E3E3E5"/>
<path d="M14 9.75C14 9.88807 13.8881 10 13.75 10H5V10.75C5 10.8881 4.88807 11 4.75 11H4.25C4.11193 11 4 10.8881 4 10.75V8.25C4 8.11193 4.11193 8 4.25 8H4.75C4.88807 8 5 8.11193 5 8.25V9L13.75 9C13.8881 9 14 9.11193 14 9.25V9.75Z" fill="#E3E3E5"/>
<path d="M3 10V9.00001L0.25 9C0.111929 9 0 9.11193 0 9.25V9.75C0 9.88807 0.111929 10 0.25 10H3Z" fill="#E3E3E5"/>
</svg>
