<svg width="16" height="16" viewBox="0 0 16 16" xmlns="http://www.w3.org/2000/svg">
<path fill-rule="evenodd" clip-rule="evenodd" d="M8 1C7.59406 1 7.24461 1.24188 7.08792 1.58938L1.125 12.5117L1.12608 12.5136C1.04576 12.6575 1 12.8234 1 13C1 13.5523 1.44772 14 2 14L14 14C14.5523 14 15 13.5523 15 13C15 12.8212 14.9531 12.6534 14.8709 12.5082L14.8711 12.5078L8.86719 1.5H8.86622C8.69331 1.2011 8.37014 1 8 1ZM9 12C9 11.7198 8.88474 11.4665 8.69904 11.2849C8.51875 11.1086 8.27206 11 8 11C7.72386 11 7.47387 11.1119 7.2929 11.2929C7.11193 11.4739 7 11.7239 7 12C7 12.2761 7.11193 12.5262 7.2929 12.7071C7.47387 12.8881 7.72386 13 8 13C8.27614 13 8.52614 12.8881 8.7071 12.7071C8.88807 12.5262 9 12.2761 9 12ZM7.25 9.25C7.25 9.66421 7.58579 10 8 10C8.41421 10 8.75 9.66421 8.75 9.25V4.75C8.75 4.33579 8.41421 4 8 4C7.58579 4 7.25 4.33579 7.25 4.75V9.25Z"/>
</svg>
