<svg width="1516" height="1086" viewBox="0 0 1516 1086" fill="none" xmlns="http://www.w3.org/2000/svg">
<path opacity="0.05" d="M899.8 876.04C674.8 885.04 450.39 893.72 235.25 816.84C183.94 798.5 132.7 777.16 89.56 742.57C46.42 707.99 11.75 658.42 4.10002 601.83C-3.54998 545.25 20.46 482.43 68.59 456.19C136.66 419.07 226.79 461.48 293.16 421.07C346.68 388.48 362.76 315.53 367.38 250.52C372 185.51 371.99 115.08 409.17 62.9998C462.03 -11.0302 567.48 -11.1502 650.82 18.6498C758.29 57.0798 801.4 208.72 880.86 248.26C978.61 296.9 996.13 292.65 1100.34 297.12C1208.85 301.78 1298.3 347.11 1351.16 425.02C1412.34 515.18 1403.14 589.63 1356.53 672.24C1309.82 755.04 1187.64 815.69 1123.41 846.27C1082.47 865.76 1048.23 874.89 974.05 873.08C963.27 872.82 952.48 872.97 941.71 873.59L899.8 876.02V876.04Z" fill="white"/>
<path opacity="0.05" d="M449.15 392.7C407.02 380.28 376.49 364.85 341.43 345.38C306.37 325.91 273.12 303.14 233.89 290.54C161.15 267.18 78.77 285.82 36.68 328.84C-5.41002 371.86 -9.46 434.84 16.98 491.2C43.42 547.55 97.58 597.32 160.98 635.2C224.39 673.07 296.84 699.92 370.13 721.81C552.34 776.23 745.31 801.88 929.04 791.11C1112.77 780.35 1286.83 732.67 1424.06 650.06C1469.19 622.89 1512.63 588.26 1515.49 541.87C1517.82 504.19 1491.66 464.58 1453.84 435.57C1416.02 406.56 1367.69 387.11 1318.69 373.53C1146.62 325.82 968.56 345.89 798.8 364.19C629.03 382.49 617.91 449.46 449.15 392.69" fill="white"/>
<path opacity="0.08" d="M1349.52 1038.23C953.04 1007.26 598.73 1027.66 194.99 1031.28C163.87 1031.56 131.67 1031.91 103.41 1036C75.16 1040.09 51.87 1049 55.97 1058.23C60.27 1067.92 92.97 1074.42 125.33 1075.6C157.69 1076.78 190.24 1073.98 222.31 1071.9C404.17 1060.12 590.96 1071.3 773.69 1079.41C956.42 1087.52 1151.44 1092.03 1320.78 1068.42C1339.46 1065.82 1358.38 1062.7 1370.28 1057.64C1382.18 1052.58 1385.42 1043.8 1370.96 1040.63C1365.78 1039.49 1354.92 1038.65 1349.52 1038.22V1038.23Z" fill="white"/>
<path d="M1150.38 198.67H249.33C215.784 198.67 188.59 225.864 188.59 259.41V748.28C188.59 781.826 215.784 809.02 249.33 809.02H1150.38C1183.93 809.02 1211.12 781.826 1211.12 748.28V259.41C1211.12 225.864 1183.93 198.67 1150.38 198.67Z" fill="#A0EBFF"/>
<path d="M1207.16 188.09H192.55C182.703 188.09 174.72 196.073 174.72 205.92V205.93C174.72 215.777 182.703 223.76 192.55 223.76H1207.16C1217.01 223.76 1224.99 215.777 1224.99 205.93V205.92C1224.99 196.073 1217.01 188.09 1207.16 188.09Z" fill="#00C7FD"/>
<path d="M357.18 676.16H274.65C270.072 676.16 266.36 679.872 266.36 684.45V770.62C266.36 775.199 270.072 778.91 274.65 778.91H357.18C361.758 778.91 365.47 775.199 365.47 770.62V684.45C365.47 679.872 361.758 676.16 357.18 676.16Z" fill="#6DDCFF"/>
<path d="M507.37 374.29H424.84C420.262 374.29 416.55 378.002 416.55 382.58V770.62C416.55 775.198 420.262 778.91 424.84 778.91H507.37C511.948 778.91 515.66 775.198 515.66 770.62V382.58C515.66 378.002 511.948 374.29 507.37 374.29Z" fill="#D2F9FF"/>
<path d="M957.96 713.149H875.43C870.852 713.149 867.14 716.861 867.14 721.439V770.619C867.14 775.198 870.852 778.909 875.43 778.909H957.96C962.538 778.909 966.25 775.198 966.25 770.619V721.439C966.25 716.861 962.538 713.149 957.96 713.149Z" fill="#6DDCFF"/>
<path d="M657.57 493.189H575.04C570.462 493.189 566.75 496.901 566.75 501.479V770.619C566.75 775.198 570.462 778.909 575.04 778.909H657.57C662.148 778.909 665.86 775.198 665.86 770.619V501.479C665.86 496.901 662.148 493.189 657.57 493.189Z" fill="#D2F9FF"/>
<path d="M807.76 493.189H725.23C720.652 493.189 716.94 496.901 716.94 501.479V770.619C716.94 775.198 720.652 778.909 725.23 778.909H807.76C812.338 778.909 816.05 775.198 816.05 770.619V501.479C816.05 496.901 812.338 493.189 807.76 493.189Z" fill="#6DDCFF"/>
<path d="M376.7 258.729H245.91C238.25 258.729 232.04 264.939 232.04 272.599C232.04 280.26 238.25 286.469 245.91 286.469H376.7C384.36 286.469 390.57 280.26 390.57 272.599C390.57 264.939 384.36 258.729 376.7 258.729Z" fill="#00C7FD"/>
<path d="M376.7 303.649H245.91C238.25 303.649 232.04 309.859 232.04 317.519C232.04 325.18 238.25 331.389 245.91 331.389H376.7C384.36 331.389 390.57 325.18 390.57 317.519C390.57 309.859 384.36 303.649 376.7 303.649Z" fill="#00C7FD"/>
<path d="M1333.91 743.29C1268.57 758.93 1172.27 684.08 1181.13 636.18C1186.82 605.41 1222.47 585.44 1182.35 548.23C1149.53 517.79 1158.39 461.03 1173.07 433.39C1184.25 412.35 1199.07 393.5 1213.82 374.79C1228.76 355.83 1263.53 356.69 1278.47 337.73C1289.47 323.77 1303.64 308.37 1321.32 310.12C1346.48 312.62 1354.22 345.82 1351.56 370.97C1348.89 396.11 1344.17 426.2 1363.43 442.58C1377.88 454.87 1399.56 453.07 1416.68 461.24C1448.14 476.26 1442.39 518.6 1446.77 553.18C1456.64 631.21 1393.44 720.52 1333.92 743.29" fill="#FEC91B"/>
<path d="M1313.65 975.58C1313.56 975.58 1313.48 975.58 1313.39 975.55C1312.71 975.41 1312.28 974.74 1312.43 974.07C1326.05 909.65 1331.99 840.27 1330.1 767.86C1328.59 709.91 1322.08 649.91 1310.76 589.51C1295.34 507.21 1273.62 440.5 1264.3 416.73C1264.05 416.09 1264.36 415.36 1265.01 415.11C1265.65 414.86 1266.38 415.17 1266.63 415.82C1275.98 439.65 1297.75 506.52 1313.21 588.99C1324.56 649.53 1331.08 709.67 1332.6 767.76C1334.5 840.38 1328.54 909.97 1314.87 974.59C1314.75 975.18 1314.23 975.58 1313.65 975.58Z" fill="#0095CA"/>
<path d="M1296.47 593.69C1276.39 593.69 1261.87 583.28 1252.64 573.47C1240.4 560.46 1234.81 546.13 1234.58 545.52C1234.33 544.88 1234.65 544.15 1235.3 543.91C1235.95 543.66 1236.67 543.98 1236.92 544.63C1236.98 544.77 1242.6 559.17 1254.52 571.81C1270.38 588.64 1289.31 594.57 1310.77 589.44C1311.44 589.28 1312.12 589.69 1312.28 590.37C1312.44 591.04 1312.03 591.72 1311.36 591.88C1306.1 593.14 1301.15 593.7 1296.49 593.7L1296.47 593.69Z" fill="#0095CA"/>
<path d="M1295.32 663.279C1282.46 663.279 1268.53 655.859 1253.87 641.199C1253.38 640.709 1253.38 639.919 1253.87 639.429C1254.36 638.939 1255.15 638.939 1255.64 639.429C1270.68 654.469 1284.78 661.629 1297.55 660.689C1310.06 659.779 1317.71 651.209 1320.42 647.559L1320.54 647.399C1344.3 616.019 1354.88 576.459 1359.56 548.809C1364.73 518.289 1364.3 493.459 1363.72 489.519C1363.62 488.839 1364.09 488.199 1364.77 488.099C1365.46 487.999 1366.09 488.469 1366.19 489.149C1366.81 493.339 1367.32 517.969 1362.02 549.219C1357.29 577.149 1346.59 617.119 1322.52 648.899L1322.41 649.039C1319.5 652.959 1311.26 662.179 1297.72 663.169C1296.92 663.229 1296.12 663.259 1295.31 663.259L1295.32 663.279Z" fill="#0095CA"/>
<path d="M1328.72 707.92C1328.56 707.92 1328.4 707.89 1328.25 707.83C1327.61 707.57 1327.31 706.84 1327.57 706.2C1336.02 685.59 1348.41 674.37 1357.31 668.6C1367.01 662.31 1374.64 660.94 1374.96 660.89C1375.63 660.77 1376.29 661.23 1376.4 661.91C1376.52 662.59 1376.06 663.24 1375.38 663.36C1375.08 663.41 1345.52 668.99 1329.88 707.16C1329.68 707.64 1329.21 707.94 1328.72 707.94V707.92Z" fill="#0095CA"/>
<path d="M1350.14 614.77C1347.49 614.77 1344.95 613.83 1342.56 611.68C1342.05 611.22 1342.01 610.43 1342.47 609.91C1342.93 609.4 1343.72 609.36 1344.24 609.82C1353.17 617.86 1366.07 603.87 1378.53 590.34C1388.85 579.14 1398.6 568.56 1407.37 568.12C1408.04 568.08 1408.65 568.62 1408.68 569.31C1408.71 570 1408.18 570.59 1407.49 570.62C1399.74 571.01 1389.89 581.7 1380.36 592.04C1370.02 603.26 1359.41 614.78 1350.14 614.78V614.77Z" fill="#0095CA"/>
<path d="M1265.47 427.17C1271.49 427.17 1276.37 422.29 1276.37 416.27C1276.37 410.25 1271.49 405.37 1265.47 405.37C1259.45 405.37 1254.57 410.25 1254.57 416.27C1254.57 422.29 1259.45 427.17 1265.47 427.17Z" fill="#0095CA"/>
<path d="M1383.03 672.37C1389.05 672.37 1393.93 667.49 1393.93 661.47C1393.93 655.45 1389.05 650.57 1383.03 650.57C1377.01 650.57 1372.13 655.45 1372.13 661.47C1372.13 667.49 1377.01 672.37 1383.03 672.37Z" fill="#0095CA"/>
<path d="M1364.95 500.26C1370.97 500.26 1375.85 495.38 1375.85 489.36C1375.85 483.34 1370.97 478.46 1364.95 478.46C1358.93 478.46 1354.05 483.34 1354.05 489.36C1354.05 495.38 1358.93 500.26 1364.95 500.26Z" fill="#0095CA"/>
<path d="M1412.11 581.739C1418.13 581.739 1423.01 576.859 1423.01 570.839C1423.01 564.82 1418.13 559.939 1412.11 559.939C1406.09 559.939 1401.21 564.82 1401.21 570.839C1401.21 576.859 1406.09 581.739 1412.11 581.739Z" fill="#0095CA"/>
<path d="M1253.2 652.14C1259.22 652.14 1264.1 647.26 1264.1 641.24C1264.1 635.22 1259.22 630.34 1253.2 630.34C1247.18 630.34 1242.3 635.22 1242.3 641.24C1242.3 647.26 1247.18 652.14 1253.2 652.14Z" fill="#0095CA"/>
<path d="M1235.74 555.98C1241.76 555.98 1246.64 551.1 1246.64 545.08C1246.64 539.06 1241.76 534.18 1235.74 534.18C1229.72 534.18 1224.84 539.06 1224.84 545.08C1224.84 551.1 1229.72 555.98 1235.74 555.98Z" fill="#0095CA"/>
<path d="M1154.45 974.84C1160.17 967.21 1169.58 963.77 1179 964.03C1184.15 964.17 1188.9 960.56 1189.86 955.5C1190.13 954.08 1190.55 952.69 1191.13 951.36C1196.47 939.08 1212.41 933.39 1225.04 937.82C1225.12 937.85 1225.2 937.88 1225.29 937.91C1232.72 940.59 1240.41 935.29 1240.23 927.4C1239.64 900.94 1246.78 874.27 1261.31 852.06C1265.08 846.3 1270.87 841.94 1277.61 840.55C1296.94 836.55 1306.84 857.76 1310.4 875.19C1312.46 885.29 1314.05 895.48 1315.16 905.72C1315.66 910.37 1321.7 911.73 1324.22 907.79C1329.22 899.98 1336.04 893.53 1344.57 889.98C1348.78 888.23 1353.32 887.22 1357.89 887.22C1381.19 887.22 1397.08 913.94 1394.62 937.12C1393.32 949.33 1388.53 960.56 1382.21 971.14C1390.46 968.5 1399.71 968.79 1406.71 973.17C1414.52 976.13 1420.16 983.08 1417.64 993.57C1417.52 994.06 1417.35 994.53 1417.2 995.01C1417.09 997.4 1416.71 999.79 1416.03 1002.07C1413.4 1010.88 1407.07 1018.23 1399.68 1023.7C1380.08 1038.21 1353.93 1040.3 1329.62 1038.26C1314.44 1036.99 1299.32 1034.32 1284.18 1032.79C1275.08 1031.87 1265.98 1031.36 1256.84 1031.81C1236.99 1032.79 1217.38 1038.28 1197.53 1037.16C1184.67 1036.43 1171.16 1031.86 1161.71 1023.56H1161.48C1161.21 1023.27 1160.96 1022.95 1160.7 1022.65C1156.05 1018.3 1152.48 1013 1150.65 1006.73C1150.77 1006.6 1150.88 1006.47 1151 1006.34C1147.18 995.61 1147.58 984.03 1154.47 974.84H1154.45Z" fill="#00C7FD"/>
<path d="M1284.17 1034.04C1284.08 1034.04 1283.99 1034.04 1283.9 1034.01C1283.23 1033.86 1282.8 1033.2 1282.94 1032.52C1290.01 1000.03 1289.4 961.169 1287.64 934.279C1285.73 905.109 1282.1 883.369 1282.06 883.149C1281.95 882.469 1282.4 881.819 1283.08 881.709C1283.77 881.589 1284.41 882.049 1284.52 882.729C1284.67 883.599 1299.02 970.35 1285.38 1033.05C1285.25 1033.63 1284.73 1034.03 1284.16 1034.03L1284.17 1034.04Z" fill="#333333"/>
<path d="M1255.54 1001.92C1233.41 1001.92 1215.74 989.999 1210.75 985.079C1210.03 984.369 1209.05 983.409 1209.69 982.369C1209.95 981.949 1210.54 981.559 1211.37 981.829C1211.9 981.999 1212.23 982.5 1212.23 983.03C1214.41 985.34 1225.64 994.07 1241.22 997.77C1257.55 1001.64 1273.16 998.99 1287.6 989.89C1288.18 989.52 1288.95 989.7 1289.32 990.28C1289.69 990.86 1289.51 991.639 1288.93 991.999C1277.39 999.269 1265.97 1001.92 1255.54 1001.92Z" fill="#333333"/>
<path d="M1309.14 968.66C1298.5 968.66 1289.94 962.55 1289.51 962.24C1288.95 961.83 1288.83 961.05 1289.23 960.5C1289.63 959.94 1290.42 959.82 1290.98 960.22C1291.1 960.31 1303.12 968.86 1315.63 965.27C1324.2 962.81 1331.11 955.3 1336.15 942.92C1336.41 942.28 1337.14 941.97 1337.78 942.23C1338.42 942.49 1338.73 943.22 1338.47 943.86C1333.12 956.99 1325.66 965 1316.3 967.67C1313.86 968.37 1311.45 968.65 1309.14 968.65V968.66Z" fill="#333333"/>
<path d="M279.58 520.09C279.68 531.74 274.36 542.92 267.02 551.97C259.68 561.02 250.37 568.24 241.16 575.38C235.54 579.73 228.71 584.35 221.88 582.37C213.84 580.04 209.73 568.62 212.43 561.06C214.82 554.36 218.95 553.74 225.11 551.01C232.82 547.6 279.66 529.43 279.58 520.08V520.09Z" fill="#DD9F76"/>
<path d="M243.93 769.769L241.95 768.239L315.99 672.179L379.4 715.779L480.41 584.609L482.39 586.129L379.94 719.179L316.53 675.579L243.93 769.769Z" fill="#0095CA"/>
<path d="M975.16 418.09C976.03 414.05 979.27 405.5 980.14 401.46C980.43 400.13 980.71 398.79 981.13 397.51C981.35 396.84 981.61 396.16 982.03 395.66C982.45 395.15 983.05 394.82 983.62 394.97C984.37 395.16 984.88 396.11 984.97 397.06C985.06 398 984.83 398.95 984.61 399.86C983.26 405.22 982.87 410.4 981.23 415.63" fill="#FFBB8D"/>
<path d="M1153.72 303.649H1082.71C1075.05 303.649 1068.84 309.859 1068.84 317.519C1068.84 325.18 1075.05 331.389 1082.71 331.389H1153.72C1161.38 331.389 1167.59 325.18 1167.59 317.519C1167.59 309.859 1161.38 303.649 1153.72 303.649Z" fill="#00C7FD"/>
<path d="M1153.72 261.85H1082.71C1075.05 261.85 1068.84 268.059 1068.84 275.72C1068.84 283.38 1075.05 289.59 1082.71 289.59H1153.72C1161.38 289.59 1167.59 283.38 1167.59 275.72C1167.59 268.059 1161.38 261.85 1153.72 261.85Z" fill="#00C7FD"/>
<path d="M682.86 436.69V147.83C525.26 149.69 398.06 277.96 398.06 436C398.06 594.04 527.12 724.26 686.32 724.26C845.52 724.26 974.19 595.57 974.56 436.69H682.86Z" fill="#00C7FD"/>
<mask id="mask0_40585_13629" style="mask-type:luminance" maskUnits="userSpaceOnUse" x="398" y="147" width="577" height="578">
<path d="M682.86 436.69V147.83C525.26 149.69 398.06 277.96 398.06 436C398.06 594.04 527.12 724.26 686.32 724.26C845.52 724.26 974.19 595.57 974.56 436.69H682.86Z" fill="white"/>
</mask>
<g mask="url(#mask0_40585_13629)">
<path d="M312.29 436.75H744.29L512.44 34.4697L312.29 436.75Z" fill="#005B85"/>
<path d="M799.78 822.51C793.84 802.69 682.86 436.7 682.86 436.7L789.87 424.2L1042.89 428.97L799.78 822.51Z" fill="#D2F9FF"/>
<path d="M495.1 64.03C506.99 67.99 682.86 436.69 682.86 436.69L799.78 111.09L621.43 43.71L423.27 146.76L495.1 64.03Z" fill="#0095CA"/>
</g>
<path d="M534.73 1036.52H498.68C485.78 1036.52 474.68 1027.38 472.21 1014.72L457.43 938.97C454.18 922.32 466.93 906.84 483.9 906.84H550.74C567.88 906.84 580.67 922.62 577.12 939.38L561.11 1015.13C558.47 1027.6 547.47 1036.52 534.73 1036.52Z" fill="#00C7FD"/>
<mask id="mask1_40585_13629" style="mask-type:luminance" maskUnits="userSpaceOnUse" x="456" y="906" width="122" height="131">
<path d="M534.73 1036.52H498.68C485.78 1036.52 474.68 1027.38 472.21 1014.72L457.43 938.97C454.18 922.32 466.93 906.84 483.9 906.84H550.74C567.88 906.84 580.67 922.62 577.12 939.38L561.11 1015.13C558.47 1027.6 547.47 1036.52 534.73 1036.52Z" fill="white"/>
</mask>
<g mask="url(#mask1_40585_13629)">
<path d="M521.27 950.65C580.276 950.65 628.11 941.207 628.11 929.56C628.11 917.912 580.276 908.47 521.27 908.47C462.264 908.47 414.43 917.912 414.43 929.56C414.43 941.207 462.264 950.65 521.27 950.65Z" fill="#0095CA"/>
</g>
<path d="M627.93 806.9C636.18 790.92 640.52 767.59 621.79 759.49C613.19 755.77 603.16 757.35 595.53 762.79C580.6 773.43 567.54 786.52 556.65 801.21C566.82 769.94 573.17 737.41 575.3 704.59C575.61 699.89 574.2 695.08 570.93 691.7C562.34 682.83 550.36 690.56 542.93 698.41C517.32 725.45 500.49 776.51 493.93 813.14C493.93 813.14 494.29 773.97 492.33 761.79C491.12 754.23 488.08 746.81 481.37 743.12C465.75 734.52 453.1 751.99 449.27 767.06C442.5 793.71 446.06 822.68 457.62 847.87C456.02 847.87 454.43 847.82 452.84 847.92C441.66 848.61 430.42 852.04 423.39 858.54C410.64 870.34 416.02 889.04 430.69 899.54C445.36 910.04 466.55 913.82 486.87 914.82C494.18 915.18 508.8 915 528.3 912.98C532.75 912.52 543.99 912.78 548.46 912.87C560.74 913.12 569.97 912.08 591.7 907.74C599.48 906.19 606.74 902.09 611.39 895.65C624.83 877.02 605.24 859.42 586.86 859.51C603.61 844.66 617.67 826.79 627.94 806.89L627.93 806.9Z" fill="#FEC91B"/>
<path d="M511.96 914.69C511.33 914.69 510.79 914.22 510.72 913.58C501.18 829.66 540.33 760.87 540.73 760.19C541.08 759.59 541.84 759.39 542.44 759.73C543.04 760.08 543.24 760.84 542.9 761.44C542.51 762.12 503.77 830.23 513.21 913.3C513.29 913.99 512.79 914.61 512.11 914.68C512.06 914.68 512.01 914.68 511.97 914.68L511.96 914.69Z" fill="#333333"/>
<path d="M509.31 875.85C506.15 875.85 494.34 875.27 485.72 867.05C479.62 861.24 476.53 852.92 476.53 842.33C476.53 841.64 477.09 841.08 477.78 841.08C478.47 841.08 479.03 841.64 479.03 842.33C479.03 852.2 481.86 859.9 487.43 865.22C496.46 873.85 509.84 873.34 509.98 873.34C510.65 873.31 511.25 873.84 511.29 874.53C511.32 875.22 510.79 875.8 510.1 875.84C510.03 875.84 509.76 875.85 509.32 875.85H509.31Z" fill="#333333"/>
<path d="M522.27 853.03C518.2 853.03 515.4 852.479 515.13 852.429C514.45 852.289 514.02 851.63 514.15 850.96C514.29 850.28 514.95 849.849 515.62 849.979C515.77 850.009 530.51 852.869 542.02 844.849C549.12 839.899 553.58 831.849 555.27 820.909C555.38 820.229 556.02 819.759 556.7 819.869C557.38 819.979 557.85 820.609 557.74 821.299C555.94 832.949 551.12 841.569 543.43 846.919C536.19 851.959 527.97 853.039 522.26 853.039L522.27 853.03Z" fill="#333333"/>
<path d="M947.02 968.65V913H857.25V957.01V959.52V1036.52H943.19H947.02H1031.63V968.65H947.02Z" fill="#005B85"/>
<path d="M947.08 958.25H1020.56C1026.99 958.25 1032.21 963.47 1032.21 969.9V972.62H947.08V958.25Z" fill="#0095CA"/>
<path d="M857.25 898.63H935.44C941.87 898.63 947.09 903.85 947.09 910.28V913H857.25V898.63Z" fill="#0095CA"/>
<path d="M935.85 436.419C935.85 436.419 940.8 438.07 945.59 426.84C950.2 416.03 937 424.2 937 424.2" fill="#DD9F76"/>
<path d="M353.315 486.43L351.62 483.494C350.377 481.341 347.625 480.604 345.473 481.847L264.595 528.542C262.442 529.784 261.705 532.536 262.948 534.689L264.643 537.625C265.885 539.777 268.637 540.514 270.79 539.272L351.668 492.577C353.82 491.334 354.558 488.582 353.315 486.43Z" fill="#00C7FD"/>
<path d="M347.156 481.774C347.897 481.346 348.151 480.398 347.723 479.657C347.295 478.915 346.347 478.661 345.606 479.089L262.303 527.184C261.561 527.612 261.307 528.56 261.735 529.302C262.163 530.043 263.111 530.297 263.853 529.869L347.156 481.774Z" fill="#D2F9FF"/>
<path d="M165.243 418.253C168.458 416.228 169.161 411.564 166.812 407.834C164.464 404.105 159.953 402.723 156.738 404.748C153.523 406.773 152.82 411.437 155.169 415.167C157.517 418.896 162.027 420.278 165.243 418.253Z" fill="#E6E6E6"/>
<path d="M176.83 426.74L170.15 471.87L193.33 473.74L195.59 427.29L176.83 426.74Z" fill="#FFC599"/>
<path d="M158.18 400.409C161.61 377.309 181.52 361.109 202.65 364.229C219.5 366.719 228.04 377.009 228.62 395.789C228.77 400.549 228.4 405.869 227.53 411.729C224.1 434.829 216.81 459.889 200.45 446.169C169.57 420.279 154.76 423.509 158.19 400.399L158.18 400.409Z" fill="#FFC599"/>
<path d="M223.92 393.7L233.77 414.86C234.59 416.63 233.55 418.7 231.64 419.1L225.19 420.44L223.92 393.7Z" fill="#FFC599"/>
<path d="M167.05 434.95C162.73 427.71 154 430.65 149.36 423.6C145.38 417.55 150.3 415.36 141.49 405.48C138.91 402.59 138.06 398.54 138.88 394.75C139.1 393.74 139.26 393.01 139.28 392.94C141.16 387.25 137.1 381.51 135.46 375.75C133.31 368.2 135.67 359.55 141.35 354.14C146.95 348.81 153.3 346.88 160.85 345.16C169.15 343.27 172.77 341.37 181.07 339.48C186.44 338.26 192.29 337.08 197.27 339.44C203.97 342.62 207.28 351.45 214.53 353.01C217.8 353.72 221.06 352.3 224.53 352.92C224.55 352.92 224.57 352.92 224.59 352.92C242.66 356.2 240.01 374.03 230.66 379.45C228.79 380.48 226.61 380.58 223 382.67C203.67 393.83 181.74 368.41 189.68 394.04C196.13 414.85 181.45 439.46 176.78 439.46C175.58 439.46 174.88 441.33 174.63 441.61C172.7 443.77 168.25 436.97 167.04 434.95H167.05Z" fill="#005B85"/>
<path d="M178.09 404.87C178.09 411.59 186.09 416.81 190.39 416.81C194.69 416.81 193.65 409.81 193.65 404.87C193.65 399.93 190.17 395.92 185.87 395.92C181.57 395.92 178.09 399.93 178.09 404.87Z" fill="#FFC599"/>
<path d="M109.41 1018.56H127.82L146.1 971.21H122.85L109.41 1018.56Z" fill="#DD9F76"/>
<path d="M191.73 1034.38C189.11 1031.97 179.54 1030.94 175.17 1030.12C172.08 1029.54 168.67 1028.63 165.78 1027.4C159.35 1024.66 140.25 1016.9 140.25 1016.9C136.64 1014.94 132.37 1014.64 128.52 1016.03C127.06 1016.56 125.67 1017.04 124.83 1017.29C118.19 1019.26 114.27 1017.74 108.36 1014.13C106.84 1013.2 104.9 1014.33 104.94 1016.11L103.29 1035.57C103 1039.02 105.61 1041.36 109.2 1041.95C125.74 1044.66 172.1 1044.93 188.6 1041.95C192.75 1041.2 194.64 1037.05 191.73 1034.38Z" fill="#005B85"/>
<path d="M217.85 716.98C211.65 735.15 207.59 753.99 205.71 773.1C198.94 841.87 191.52 900.82 168.49 969.7C166.14 976.74 163.24 984.34 156.46 988.24C148.7 992.71 138.4 991.11 129.44 989.47C125.63 988.77 114.46 986.64 114.46 986.64C103.57 984.1 97.43 973.48 101.19 963.72C114.7 928.71 133.64 893.31 142.46 857.08C145.54 844.43 147.98 832.59 148.42 824.08C149.03 812.21 148.93 795.21 148.23 766.32C147.42 732.86 136.83 688.27 146.84 656.1C149.24 648.38 148.14 646.82 154.5 641.33C166.36 631.08 191.66 659.67 207.73 661.95C214.82 662.95 222.76 664.45 226.64 670C229.45 674.02 229.34 679.14 229.14 683.92L217.86 716.99L217.85 716.98Z" fill="#E96115"/>
<path d="M255.64 1028.31H274.06L269.22 980.95H243.28L255.64 1028.31Z" fill="#FFC599"/>
<path d="M340.98 1043.06C338.16 1040.47 327.84 1039.35 323.13 1038.47C319.8 1037.84 316.13 1036.86 313.01 1035.54C306.08 1032.59 285.49 1024.22 285.49 1024.22C281.6 1022.11 277 1021.78 272.84 1023.29C271.26 1023.86 269.77 1024.38 268.87 1024.65C261.71 1026.78 257.49 1025.13 251.11 1021.24C249.47 1020.24 247.38 1021.45 247.43 1023.37L245.65 1044.35C245.33 1048.07 248.15 1050.59 252.02 1051.23C269.85 1054.15 319.83 1054.44 337.61 1051.23C342.08 1050.42 344.12 1045.95 340.98 1043.07V1043.06Z" fill="#0095CA"/>
<path d="M221 660.63C261.56 765.34 285.8 870.69 291.34 982.01C291.51 985.52 291.65 989.15 290.25 992.41C286.46 1001.21 274.2 1002.86 264.11 1003.17C250.68 1003.58 234.54 1002.64 227.9 991.65C223.33 984.09 225.32 974.72 226.37 966.08C229.08 943.66 224.49 921.09 219.92 898.94C214.68 873.55 212.32 854.16 207.08 828.78C204.2 814.84 197.03 777.96 190.84 765C183.88 750.43 174.7 731.78 164.95 718.72C143.37 689.82 145.1 678.07 143.36 663.08C141.51 647.18 148.27 654.3 159.03 641.95C173.72 625.08 188 636 211.17 635.44" fill="#FF8F51"/>
<path d="M146.14 539.14C150.1 587.52 136.04 608.64 131.86 645.17L124.9 668.65C124.9 683.68 138.13 674.84 154.15 674.15C187.63 672.72 230.05 707.58 235.62 673.42C238.34 656.72 226.94 638.33 226.57 623.89C226.22 610.22 225.18 589.4 225.53 579.5C225.53 579.5 222 539.36 218.91 519.7C215.47 497.81 210.94 471.45 191.06 463.56C191.06 463.56 184.62 460.92 178.78 460.92C136.96 460.92 146.15 539.14 146.15 539.14H146.14Z" fill="#0095CA"/>
<path d="M333.08 508.409L331.45 506.049C330.74 503.849 328.86 503.3 326.59 503.26C323.38 503.2 320.2 503.949 317.26 505.229L311.47 507.749L307.7 509.099L310.47 503.599C311.49 501.979 314.64 500.229 312.48 498.869C310.32 497.509 309.32 499.74 306.6 501.64L298.62 512.359H298.59C289.88 524.409 286.93 526.64 286.93 526.64L283.29 529.89C281.17 531.78 278.96 533.559 276.62 535.169C261.29 545.749 247.07 558.409 230.49 572.989C225.94 576.989 219.26 579.329 218.85 578.259C215.89 570.479 216.01 565.5 215.97 561.34C215.85 549.88 215.49 543.529 215.45 530.249C215.44 526.389 214.37 522.55 212.14 519.4C204.8 509.02 193.12 515.419 189.84 524.039C187.37 530.549 188.16 528.86 187.06 534.53C187.46 551.69 189.08 577.96 194.39 594.96C197.38 604.54 198.55 615.15 207.93 615.77C215.72 616.28 229.32 605.959 235.49 601.179C251.86 588.509 273.28 570.549 287.41 555.559L299.41 541.03C301.03 539.21 303.54 535.029 305.87 534.309C309.7 533.129 320.9 526.11 325.63 520.33L325.86 520.14C327.9 518.4 329.67 516.369 331.11 514.109L332.64 511.719C333.28 510.719 333.44 509.519 333.09 508.439L333.08 508.409Z" fill="#FFC599"/>
<path d="M177.04 514.05C175.94 509.52 175.07 504.46 174.98 499.44C174.83 498.05 174.7 496.66 174.67 495.26C174.44 484.05 179.19 471.92 194.29 470.32C197 470.03 199.77 470.22 202.41 470.89C210.91 473.06 214.41 478.29 216.86 486.43C219.44 494.99 219.5 499.55 221.18 513.44C222.18 519.93 223.18 526.42 224.17 532.92C224.57 535.55 223.01 538.09 220.48 538.89C216.78 540.06 212.65 540.99 208.7 540.95C203.69 540.9 199.01 538.03 194 537.98C188.39 537.93 182.07 539.68 177.01 537.55C174.98 536.7 174.43 534.06 175.86 532.39C177.36 530.63 178.32 528.36 178.7 526.06C178.87 525.03 178.93 523.99 178.92 522.95C178.27 519.53 177.64 516.51 177.05 514.06L177.04 514.05Z" fill="#00C7FD"/>
<path d="M430.56 21.6597H422.48V13.5797C422.48 10.4597 419.95 7.92969 416.83 7.92969C413.71 7.92969 411.18 10.4597 411.18 13.5797V21.6597H403.1C399.98 21.6597 397.45 24.1897 397.45 27.3097C397.45 30.4297 399.98 32.9597 403.1 32.9597H411.18V41.0397C411.18 44.1597 413.71 46.6897 416.83 46.6897C419.95 46.6897 422.48 44.1597 422.48 41.0397V32.9597H430.56C433.68 32.9597 436.21 30.4297 436.21 27.3097C436.21 24.1897 433.68 21.6597 430.56 21.6597Z" fill="#FF5662"/>
<path d="M536.37 82.0098H521.71V67.3499C521.71 61.6799 517.12 57.0898 511.45 57.0898C505.78 57.0898 501.19 61.6799 501.19 67.3499V82.0098H486.53C480.86 82.0098 476.27 86.5999 476.27 92.2699C476.27 97.9398 480.86 102.53 486.53 102.53H501.19V117.19C501.19 122.86 505.78 127.45 511.45 127.45C517.12 127.45 521.71 122.86 521.71 117.19V102.53H536.37C542.04 102.53 546.63 97.9398 546.63 92.2699C546.63 86.5999 542.04 82.0098 536.37 82.0098Z" fill="#0095CA"/>
<path d="M1007.05 454.349C1007.13 454.129 1007.23 453.93 1007.31 453.71C1064.5 305.13 990.42 138.329 841.84 81.1395C840.76 80.7195 839.67 80.3795 838.58 79.9795L734.81 349.56L1007.04 454.349H1007.05Z" fill="#FF5662"/>
<path d="M997.69 419.85C996.7 424.64 987.55 429.82 983.38 428.96C979.22 428.1 981.62 421.53 982.61 416.73C983.6 411.93 987.78 408.75 991.94 409.61C996.1 410.47 998.68 415.05 997.69 419.84V419.85Z" fill="#FFC599"/>
<path d="M1015.06 462.51L1012.51 507.59L989.67 504.77L996.77 459.29L1015.06 462.51Z" fill="#FFBB8D"/>
<path d="M1038.41 440.72C1039.7 417.64 1023.64 397.95 1002.54 396.76C985.7 395.81 975.37 404.07 971.06 422.17C969.97 426.76 969.26 431.98 968.93 437.84C967.64 460.92 969.69 486.66 988.3 476.64C1023.41 457.72 1037.13 463.81 1038.42 440.73L1038.41 440.72Z" fill="#FFBB8D"/>
<path d="M976.96 423.82L963.18 442.36C962.03 443.91 962.62 446.13 964.39 446.9L970.37 449.49L976.95 423.82H976.96Z" fill="#FFBB8D"/>
<path d="M1160.98 984.58L1144.22 996.41L1121.24 949.89L1138 938.05L1160.98 984.58Z" fill="#DD9F76"/>
<path d="M1106.54 1043.22C1107.36 1036.72 1112.34 1034.95 1116.54 1032.94C1119.14 1031.69 1120.12 1029.83 1122.2 1026.8L1135.96 999.94C1138.12 995.72 1142 992.79 1146.5 991.31C1146.53 991.31 1146.56 991.29 1146.59 991.28C1154.24 988.69 1154.76 986.15 1157.96 978.74C1158.78 976.84 1161.39 976.6 1162.54 978.32L1179.36 994.19C1181.96 997.28 1181.34 1001.93 1178.03 1004.23C1178.03 1004.23 1156.47 1028.27 1126.61 1044.62C1123.34 1046.41 1112.53 1045.69 1108.23 1045.32C1107.17 1045.23 1106.42 1044.27 1106.56 1043.21L1106.54 1043.22Z" fill="#005B85"/>
<path d="M1061.89 715.829C1069.61 796.549 1066.05 874.889 1091.95 952.329C1094.28 959.299 1097.15 966.819 1103.85 970.679C1111.53 975.099 1126.14 973.199 1134.91 971.149L1150.11 969.089C1160.88 966.569 1166.97 956.059 1163.24 946.399C1149.87 911.749 1131.12 876.709 1122.39 840.849C1119.34 828.329 1116.09 805.379 1116.49 808.179C1118.17 819.819 1113.77 773.679 1116.67 751.009C1120.87 718.149 1130.35 703.619 1120.44 671.779C1118.06 664.139 1118.11 662.809 1112.86 657.159C1102.29 645.799 1079.33 651.329 1063.43 653.579L1061.88 715.829H1061.89Z" fill="#0095CA"/>
<path d="M1052.11 934.94L1031.97 931.57L1016.75 894.7L1036.89 898.07L1052.11 934.94Z" fill="#FFBB8D"/>
<path d="M967.82 953.62C965.25 947.31 976.86 945.59 985.71 944.28C989.49 943.72 993.17 942.69 996.69 941.22L1030.2 927.18C1030.2 927.18 1031.75 929.18 1035.47 929.89C1038.7 930.51 1042.05 929.71 1044.86 928L1048.81 925.59C1050.58 924.51 1052.84 925.82 1052.79 927.89L1057.37 950.56C1057.71 954.58 1054.52 958.02 1050.49 957.99H974.74C971.79 957.99 968.94 956.35 967.82 953.62Z" fill="#005B85"/>
<path d="M1036.45 730.61C1028.02 734.15 992.03 756.95 983.98 761.54C962.75 773.67 969.42 774.28 987.62 798.54C1010.96 829.65 1024.01 833.72 1053.13 894.98C1060.81 913.2 1042.79 913.65 1035.54 914.84C1027.57 916.15 1007.79 913.02 1000.97 911.96C990.17 910.28 995.4 896.17 990.05 886.48C974.81 858.88 969.43 855.55 947.87 827.04C940.43 817.2 933.89 802.59 927.69 792.06C921.29 781.19 909.3 771.2 911.8 758.5C915.18 741.34 929.49 732.59 945.77 719.07C961.31 706.17 973 700.26 990.05 689.96C1007.53 679.39 1015.53 670.55 1040.09 655.08C1058.81 643.29 1062.47 624.53 1084.97 630.51C1101.75 634.97 1127.43 665.08 1120.45 685.1C1108.02 720.76 1081.93 711.48 1036.44 730.59L1036.45 730.61Z" fill="#00C7FD"/>
<path d="M1123.67 655.78C1128.31 669.92 1113.14 665.68 1097.86 669.98C1065.93 678.97 1023.4 675.41 1028.25 649.94C1031.77 631.44 1032.34 626.67 1022.18 612.33C1015.15 602.41 998.65 596.1 995.13 586.94C990.99 576.17 989.1 563.69 985.94 544.24C982.42 522.59 961.37 517.4 993.67 501.02C993.67 501.02 1000.52 497.56 1005.97 495.27C1010.29 493.45 1018.4 491.04 1018.4 491.04C1026.25 489.27 1044.63 493.96 1059.18 544.08C1072.57 590.22 1091.84 604.22 1109.87 635.83C1112.87 641.09 1123.67 655.76 1123.67 655.76V655.78Z" fill="#FF8F51"/>
<path d="M958.87 518.32C946.63 522.39 935.34 524.76 923.27 527.8C919.28 528.8 912.04 530.46 903.84 529.58C901.64 529.34 904.12 517.74 906.19 512.11C911.93 496.56 923.64 458.49 923.64 458.49C923.64 458.49 926.23 452.74 934.78 440.77C939.48 434.19 943.75 420.76 945.98 409.96C946.79 406.03 947.65 402.8 946.63 400.84C945.29 398.27 943.48 399.03 942.36 403.22C940.84 408.87 938.37 415.28 936.34 420.15L939.77 398.03C940.1 395.92 937.17 395.13 936.34 397.1C933.68 403.4 933.11 411.28 928.99 416.71C928.91 416.72 928.82 416.73 928.74 416.74C929.07 409.61 934.68 403.01 934 396.11C933.84 394.46 931.57 394.84 930.95 396.38C928.5 402.47 925.64 406.23 922.49 415.76L921.55 415.41C922.49 409.89 925.77 404.49 924.89 399.16C924.64 397.65 922.59 398.14 922.11 399.59C920.25 405.26 917.88 408.87 915.59 417.6C914.89 419.34 915.4 417.97 912.92 422.87L911.93 425.18C909.12 430.79 908.14 437.68 909.78 440.54C910.64 442.03 907.83 448.76 907.11 450.32L902.83 459.47C893.9 480.41 888.27 487.44 878.82 519.13C876.61 526.53 874.23 540.58 877.48 547.58C881.3 555.82 892.32 560.09 905.32 558.14C920.72 555.83 953.31 550.37 968.97 542.44L958.89 518.31L958.87 518.32ZM935.48 422.17L935.44 422.02C935.53 421.89 935.62 421.77 935.7 421.66C935.63 421.83 935.55 422 935.48 422.17Z" fill="#FFBB8D"/>
<path d="M986.96 547.96C991.43 546.8 996.24 545.2 1000.67 542.93C1001.95 542.41 1003.23 541.88 1004.46 541.25C1014.35 536.22 1022.72 526.4 1017.06 512.48C1016.04 509.98 1014.59 507.65 1012.77 505.66C1006.91 499.26 1000.7 498.65 992.46 500.31C983.79 502.05 982.3 504.29 966.88 509.16C960.75 511.32 961.45 510.51 955.32 512.67C952.84 513.54 951.35 516.1 951.84 518.68C952.55 522.46 953.67 526.49 955.54 529.92C957.92 534.27 962.62 537.01 965 541.36C967.67 546.23 962.26 555.54 966.47 558.96C968.16 560.33 970.72 559.58 971.51 557.55C972.34 555.42 973.88 553.52 975.71 552.12C976.53 551.49 977.41 550.95 978.32 550.47C981.61 549.44 984.54 548.58 986.95 547.95L986.96 547.96Z" fill="#E96115"/>
<path d="M1005.18 450.93C1003.76 450.9 1003.21 454.74 1003.38 456.58C1003.14 465.53 1003.1 461.26 1004.71 471.94C1006.9 486.4 995.67 482.84 994.18 498.24C993.58 504.49 998.73 511.34 1004.15 515.39C1008.1 518.35 1013.77 518.65 1017.95 516.14C1019.34 515.31 1021.07 516.15 1021.62 517.68C1023.77 523.69 1030.62 528.07 1036.97 526.59C1041.81 525.46 1045.4 521.14 1046.51 516.34C1047.27 513.03 1050.19 510.75 1053.57 511.09C1059.96 511.72 1066.87 508.63 1069.71 502.77C1073.69 494.55 1068.41 483.39 1059.7 480.96C1059.38 480.87 1059.35 480.47 1059.66 480.33C1067.3 477.01 1069.54 466.04 1066.03 458.27C1064.28 454.39 1061.58 451.14 1058.43 448.26C1053.34 443.62 1055.66 430.82 1057.27 424.12C1059.06 416.65 1056.56 408.67 1052.22 402.51C1047.69 396.07 1045.01 393.13 1032.94 390.41C1029.22 389.57 1023.13 388.9 1019.62 387.42C1013.32 384.77 1006.94 382.09 1000.18 381.1C988.03 379.33 973.31 385.62 971.55 397.77C971.12 400.77 971.52 403.84 972.4 406.74C975.91 418.25 986.12 418.1 999.38 418.64C999.66 418.65 1005.64 405.71 1005.92 405.67C1006.52 405.6 1004.91 417.45 1005.5 417.37L1005.06 432.62L1005.19 450.92L1005.18 450.93Z" fill="#FFE17A"/>
<path d="M996.62 437.76C993.26 442.56 993.88 448.79 997.99 451.67C1002.11 454.55 1007.79 450.08 1011.15 445.28C1014.51 440.48 1014.27 437.16 1010.15 434.28C1006.03 431.4 999.97 432.96 996.61 437.76H996.62Z" fill="#FFBB8D"/>
</svg>
