<svg width="16" height="16" viewBox="0 0 16 16" xmlns="http://www.w3.org/2000/svg">
<path d="M9.00004 7.75V6L7.25984 6C7.03712 6 6.92557 5.73071 7.08307 5.57322L9.32326 3.08303C9.37208 3.03421 9.43606 3 9.50004 3C9.56402 3 9.628 3.03421 9.67682 3.08303L11.917 5.57322C12.0745 5.73072 11.963 6 11.7402 6L10 6V7.75C10 7.88807 9.88811 8 9.75004 8H9.25004C9.11197 8 9.00004 7.88807 9.00004 7.75Z"/>
<path d="M5.99996 8.25L5.99996 10L4.25976 10C4.03704 10 3.9255 10.2693 4.08299 10.4268L6.32318 12.917C6.372 12.9658 6.43598 13 6.49996 13C6.56394 13 6.62792 12.9658 6.67674 12.917L8.91694 10.4268C9.07443 10.2693 8.96288 10 8.74016 10L6.99996 10L6.99996 8.25C6.99996 8.11193 6.88803 8 6.74996 8L6.24996 8C6.11189 8 5.99996 8.11193 5.99996 8.25Z"/>
</svg>
