<svg width="16" height="16" viewBox="0 0 16 16" xmlns="http://www.w3.org/2000/svg">
<path d="M5.43658 6.92775C5.53421 7.02539 5.6925 7.02539 5.79013 6.92775L6.3976 6.32029L7.00507 6.92775C7.0582 6.98088 7.12929 7.0051 7.1988 7.00041C7.26831 7.0051 7.3394 6.98088 7.39253 6.92775L8 6.32029L8.60747 6.92775C8.6606 6.98088 8.73169 7.0051 8.8012 7.00041C8.87071 7.0051 8.9418 6.98088 8.99493 6.92775L9.6024 6.32029L10.2099 6.92775C10.3075 7.02539 10.4658 7.02539 10.5634 6.92775L10.917 6.5742C11.0146 6.47657 11.0146 6.31828 10.917 6.22065L9.77936 5.08303C9.7305 5.03417 9.66644 5.00976 9.6024 5.0098C9.53836 5.00976 9.47431 5.03417 9.42545 5.08303L8.8012 5.70727L8.17696 5.08303C8.1281 5.03417 8.06404 5.00976 8 5.0098C7.93596 5.00976 7.87191 5.03417 7.82305 5.08303L7.1988 5.70727L6.57456 5.08303C6.5257 5.03417 6.46164 5.00976 6.3976 5.0098C6.33356 5.00976 6.26951 5.03417 6.22065 5.08303L5.08303 6.22065C4.9854 6.31828 4.9854 6.47657 5.08303 6.5742L5.43658 6.92775Z" />
<path fill-rule="evenodd" clip-rule="evenodd" d="M5.20488 10.0041C5.14325 9.93837 5.07528 9.86806 5 9.79278C3.72029 8.59449 3 7.63544 3 6C3 3.23858 5.23858 1 8 1C10.7614 1 13 3.23858 13 6C13 7.63544 12.2797 8.59449 11 9.79278C10.9247 9.86806 10.8567 9.93837 10.7951 10.0041C10.9117 10.0253 11 10.1273 11 10.25V10.75C11 10.8881 10.8881 11 10.75 11H9.29678C9.1116 11.0029 8.88013 11.0022 8.58632 11.0012C8.41353 11.0006 8.21918 11 8 11C7.78082 11 7.58647 11.0006 7.41368 11.0012C7.11987 11.0022 6.8884 11.0029 6.70322 11H5.25C5.11193 11 5 10.8881 5 10.75V10.25C5 10.1273 5.08835 10.0253 5.20488 10.0041ZM5.70711 9.08567L5.69549 9.07406L5.6835 9.06283C5.06191 8.48078 4.6516 8.02403 4.38796 7.5635C4.13927 7.12909 4 6.65326 4 6C4 3.79086 5.79086 2 8 2C10.2091 2 12 3.79086 12 6C12 6.65326 11.8607 7.12909 11.612 7.5635C11.3484 8.02403 10.9381 8.48078 10.3165 9.06283L10.3045 9.07406L10.2929 9.08567C9.89094 9.48762 9.65173 9.79303 9.5 10H6.5C6.34827 9.79303 6.10906 9.48762 5.70711 9.08567Z" />
<path fill-rule="evenodd" clip-rule="evenodd" d="M10 14.75V13H10.75C10.8881 13 11 12.8881 11 12.75V12.25C11 12.1119 10.8881 12 10.75 12H5.25C5.11193 12 5 12.1119 5 12.25V12.75C5 12.8881 5.11193 13 5.25 13H6V14.75C6 14.8881 6.11193 15 6.25 15H7V15.75C7 15.8881 7.11193 16 7.25 16H8.75C8.88807 16 9 15.8881 9 15.75V15H9.75C9.88807 15 10 14.8881 10 14.75ZM7 13V14H9V13H7Z" />
</svg>
