<svg width="16" height="16" viewBox="0 0 16 16" xmlns="http://www.w3.org/2000/svg">
<path fill-rule="evenodd" clip-rule="evenodd" d="M8 15C11.866 15 15 11.866 15 8C15 4.13401 11.866 1 8 1C4.13401 1 1 4.13401 1 8C1 11.866 4.13401 15 8 15ZM7.18023 10.4644C7.13212 10.5125 7.06927 10.5369 7.00621 10.5376C6.9385 10.5406 6.86977 10.5163 6.81806 10.4646L4.07396 7.72051C3.97633 7.62288 3.97633 7.46459 4.07396 7.36696L4.42752 7.0134C4.52515 6.91577 4.68344 6.91577 4.78107 7.0134L6.99902 9.23135L11.2189 5.01145C11.3166 4.91382 11.4749 4.91382 11.5725 5.01145L11.926 5.365C12.0237 5.46263 12.0237 5.62092 11.926 5.71855L7.18023 10.4644Z"/>
</svg>
