<svg width="16" height="16" viewBox="0 0 16 16" fill="none" xmlns="http://www.w3.org/2000/svg">
<path fill-rule="evenodd" clip-rule="evenodd" d="M13.2176 3.37653C13.5001 3.38399 13.741 3.58745 13.8047 3.87023C13.8241 3.95236 15.5447 12.07 8.40005 14.9239C8.25605 14.9808 7.95881 15.062 7.6025 14.9239C0.434742 12.1418 2.18214 3.95236 2.2006 3.87023C2.2643 3.58651 2.50615 3.38306 2.78769 3.3756C2.78769 3.3756 2.7884 3.37557 2.78904 3.37554C2.84118 3.37343 4.14598 3.32057 5.45079 2.7951C6.7108 2.13341 7.50465 1.23 7.51665 1.216C7.63112 1.08254 7.79266 1.00881 7.96712 1.00228C7.97035 1.00228 7.97381 1.00181 7.97727 1.00135C7.98074 1.00088 7.9842 1.00041 7.98743 1.00041C7.99062 0.99977 7.99424 1.00002 7.9974 1.00023C7.99881 1.00033 8.00013 1.00041 8.00128 1.00041C8.00244 1.00041 8.00371 1.00032 8.00503 1.00022C8.00789 1.00001 8.01104 0.999777 8.0142 1.00041C8.01801 1.00041 8.02158 1.00091 8.02503 1.00139C8.02826 1.00185 8.03138 1.00228 8.03451 1.00228C8.20897 1.00881 8.37051 1.08254 8.48497 1.21693C8.49605 1.23 9.28344 2.12781 10.5333 2.78857C11.846 3.32017 13.1668 3.37444 13.2164 3.37648L13.2176 3.37653ZM7.18023 10.2144C7.13212 10.2625 7.06927 10.2869 7.00622 10.2876C6.9385 10.2906 6.86977 10.2663 6.81806 10.2146L5.07414 8.4707C4.97651 8.37307 4.97651 8.21478 5.07414 8.11714L5.4277 7.76359C5.52533 7.66596 5.68362 7.66596 5.78125 7.76359L6.99902 8.98136L10.2192 5.76561C10.3168 5.66798 10.4751 5.66798 10.5727 5.76561L10.9263 6.11916C11.0239 6.21679 11.0239 6.37508 10.9263 6.47271L7.18023 10.2144Z" fill="#E3E3E5"/>
</svg>
