<svg width="16" height="16" viewBox="0 0 16 16" fill="none" xmlns="http://www.w3.org/2000/svg">
<path d="M7.18015 10.8815C7.13447 10.9271 7.07549 10.9515 7.01567 10.9544C6.9463 10.9589 6.87539 10.9347 6.82237 10.8817L4.07774 8.13706C3.98011 8.03943 3.98011 7.88114 4.07774 7.78351L4.78485 7.0764C4.88248 6.97877 5.04077 6.97877 5.1384 7.0764L7.00114 8.93915L10.8651 5.07518C10.9627 4.97755 11.121 4.97755 11.2187 5.07518L11.9258 5.78229C12.0234 5.87992 12.0234 6.03821 11.9258 6.13584L7.18015 10.8815Z" fill="#000000"/>
<path fill-rule="evenodd" clip-rule="evenodd" d="M15.4963 8C15.4963 12.1421 12.1385 15.5 7.99634 15.5C3.8542 15.5 0.496338 12.1421 0.496338 8C0.496338 3.85786 3.8542 0.5 7.99634 0.5C12.1385 0.5 15.4963 3.85786 15.4963 8ZM13.9963 8C13.9963 11.3137 11.31 14 7.99634 14C4.68263 14 1.99634 11.3137 1.99634 8C1.99634 4.68629 4.68263 2 7.99634 2C11.31 2 13.9963 4.68629 13.9963 8Z" fill="#000000"/>
</svg>