<svg width="16" height="16" viewBox="0 0 16 16" fill="none" xmlns="http://www.w3.org/2000/svg">
<path d="M6.57396 3.08132C6.73145 2.92383 7.00074 3.03537 7.00074 3.2581L7.00074 6.7483C7.00074 6.88637 6.88881 6.9983 6.75074 6.9983L3.26054 6.9983C3.03781 6.9983 2.92627 6.72901 3.08376 6.57152L4.47409 5.1812L1.07322 1.78033C0.975592 1.6827 0.975592 1.52441 1.07322 1.42678L1.42678 1.07322C1.52441 0.975592 1.6827 0.975592 1.78033 1.07322L5.1812 4.47409L6.57396 3.08132Z" fill="#E3E3E5"/>
<path d="M12.9211 9.42849L11.5284 10.8213L14.9268 14.2197C15.0244 14.3173 15.0244 14.4756 14.9268 14.5732L14.5732 14.9268C14.4756 15.0244 14.3173 15.0244 14.2197 14.9268L10.8212 11.5284L9.43093 12.9187C9.27344 13.0762 9.00415 12.9646 9.00415 12.7419V9.25171C9.00415 9.11364 9.11608 9.00171 9.25415 9.00171H12.7443C12.9671 9.00171 13.0786 9.271 12.9211 9.42849Z" fill="#E3E3E5"/>
</svg>
