<svg width="14" height="10" viewBox="0 0 14 10" fill="none" xmlns="http://www.w3.org/2000/svg">
<path d="M2 5.5C2 5.22386 2.22386 5 2.5 5L6.5 5C6.77614 5 7 5.22386 7 5.5C7 5.77614 6.77614 6 6.5 6L2.5 6C2.22386 6 2 5.77614 2 5.5Z"/>
<path d="M2.5 7C2.22386 7 2 7.22386 2 7.5C2 7.77614 2.22386 8 2.5 8L4.5 8C4.77614 8 5 7.77614 5 7.5C5 7.22386 4.77614 7 4.5 7L2.5 7Z"/>
<path fill-rule="evenodd" clip-rule="evenodd" d="M8.74228e-08 1C3.91405e-08 0.447716 0.447715 -3.91405e-08 1 -8.74228e-08L13 -1.1365e-06C13.5523 -1.18478e-06 14 0.447714 14 0.999999L14 9C14 9.55228 13.5523 10 13 10L1 10C0.447716 10 8.35087e-07 9.55229 7.86805e-07 9L8.74228e-08 1ZM1 1L13 0.999999L13 3L1 3L1 1ZM1 4L1 9L13 9L13 4L1 4Z"/>
</svg>
