<svg width="16" height="16" viewBox="0 0 16 16" xmlns="http://www.w3.org/2000/svg">
<path d="M12.5743 3.07383C12.4767 2.9762 12.3184 2.9762 12.2208 3.07383L8.00085 7.29375L3.78179 3.07469C3.68416 2.97706 3.52587 2.97706 3.42824 3.07469L3.07469 3.42824C2.97706 3.52587 2.97706 3.68416 3.07469 3.78179L7.29375 8.00085L3.07457 12.22C2.97694 12.3177 2.97693 12.476 3.07457 12.5736L3.42812 12.9271C3.52575 13.0248 3.68404 13.0248 3.78167 12.9271L8.00085 8.70796L12.2192 12.9263C12.3168 13.0239 12.4751 13.0239 12.5727 12.9263L12.9263 12.5727C13.0239 12.4751 13.0239 12.3168 12.9263 12.2192L8.70796 8.00085L12.9279 3.78094C13.0255 3.68331 13.0255 3.52502 12.9279 3.42739L12.5743 3.07383Z"/>
</svg>
