<svg width="10" height="10" viewBox="0 0 10 10" fill="none" xmlns="http://www.w3.org/2000/svg">
<path d="M8.86522 0.0763029C8.76759 -0.021328 8.6093 -0.0213281 8.51167 0.076303L5.00109 3.58688L1.48939 0.0751765C1.39176 -0.0224546 1.23347 -0.0224548 1.13584 0.0751765L0.0751765 1.13584C-0.0224545 1.23347 -0.0224547 1.39176 0.0751763 1.48939L3.58688 5.00109L0.0751802 8.51279C-0.0224508 8.61042 -0.0224508 8.76871 0.0751802 8.86634L1.13584 9.927C1.23347 10.0246 1.39176 10.0246 1.48939 9.927L5.00109 6.41531L8.51223 9.92644C8.60986 10.0241 8.76815 10.0241 8.86578 9.92644L9.92644 8.86578C10.0241 8.76815 10.0241 8.60986 9.92644 8.51223L6.41531 5.00109L9.92588 1.49052C10.0235 1.39289 10.0235 1.23459 9.92588 1.13696L8.86522 0.0763029Z"/>
</svg>
