<svg width="16" height="16" viewBox="0 0 16 16" fill="none" xmlns="http://www.w3.org/2000/svg">
<path aria-label="cross bold icon" d="M3.42767 13.6308C3.91583 14.119 4.70728 14.119 5.19544 13.6308L4.48833 12.9237L5.19544 13.6308L7.99891 10.8273L10.8035 13.6319C11.2917 14.1201 12.0831 14.1201 12.5713 13.6319L13.6319 12.5713C14.1201 12.0831 14.1201 11.2917 13.6319 10.8035L10.8273 7.99891L13.6319 5.19431L12.9724 4.53477L13.6319 5.19431C14.1201 4.70616 14.1201 3.9147 13.6319 3.42655L12.5713 2.36589C12.0831 1.87773 11.2917 1.87773 10.8035 2.36589L7.99891 5.17048L5.19488 2.36645C4.70672 1.87829 3.91527 1.87829 3.42711 2.36645L2.36646 3.4271C2.36646 3.4271 2.36645 3.42711 2.36645 3.42711C1.87829 3.91527 1.8783 4.70672 2.36645 5.19487L5.17048 7.99891L2.36701 10.8024C1.87885 11.2905 1.87886 12.082 2.36701 12.5701L3.07126 11.8659L2.36701 12.5701L3.42767 13.6308L4.13478 12.9237L3.42767 13.6308Z"/>
</svg>
