<svg width="10" height="12" viewBox="0 0 10 12" fill="none" xmlns="http://www.w3.org/2000/svg">
<path fill-rule="evenodd" clip-rule="evenodd" d="M5 0C7.76142 0 10 1.11929 10 2.5V9.5C10 10.8807 7.76142 12 5 12C2.23858 12 0 10.8807 0 9.5V2.5C0 1.11929 2.23858 0 5 0ZM9 9.5V8.03149C8.08777 8.63858 6.6356 9.03125 5 9.03125C3.3644 9.03125 1.91223 8.63858 1 8.03149V9.5C1 10.3284 2.79086 11 5 11C7.20914 11 9 10.3284 9 9.5ZM9 6.53125V5.00024C8.08777 5.60733 6.6356 6 5 6C3.3644 6 1.91223 5.60733 1 5.00024V6.53125C1 7.35968 2.79086 8.03125 5 8.03125C7.20914 8.03125 9 7.35968 9 6.53125ZM9 3.5V2.5C9 1.67157 7.20914 1 5 1C2.79086 1 1 1.67157 1 2.5V3.5C1 4.32843 2.79086 5 5 5C7.20914 5 9 4.32843 9 3.5Z" fill="#E3E3E5"/>
</svg>
