<svg width="20" height="24" viewBox="0 0 20 24" fill="none" xmlns="http://www.w3.org/2000/svg">
<path d="M20 5V7C20 9.76142 15.5228 12 10 12C4.47715 12 0 9.76142 0 7V5C0 2.23858 4.47715 0 10 0C15.5228 0 20 2.23858 20 5Z" fill="white"/>
<path d="M0 9V13C0 15.7614 4.47715 18 10 18C15.5228 18 20 15.7614 20 13V9C20 11.7614 15.5228 14 10 14C4.47715 14 0 11.7614 0 9Z" fill="white"/>
<path d="M0 15V19C0 21.7614 4.47715 24 10 24C15.5228 24 20 21.7614 20 19V15C20 17.7614 15.5228 20 10 20C4.47715 20 0 17.7614 0 15Z" fill="white"/>
</svg>
