<svg width="16" height="16" viewBox="0 0 16 16" xmlns="http://www.w3.org/2000/svg">
<path fill-rule="evenodd" clip-rule="evenodd" d="M15 8C15 11.866 11.866 15 8 15C4.13401 15 1 11.866 1 8C1 4.13401 4.13401 1 8 1C11.866 1 15 4.13401 15 8ZM13 8C13 10.7614 10.7614 13 8 13C6.97725 13 6.02622 12.6929 5.23408 12.1659L12.1659 5.23407C12.6929 6.02622 13 6.97725 13 8ZM10.7488 3.82275C9.96013 3.30268 9.01541 3 8 3C5.23858 3 3 5.23858 3 8C3 9.01541 3.30268 9.96012 3.82275 10.7488L10.7488 3.82275Z"/>
</svg>
