<svg width="16" height="16" viewBox="0 0 16 16" fill="none" xmlns="http://www.w3.org/2000/svg">
<path d="M6 1.25C6 1.11193 6.11193 1 6.25 1H9.75C9.88807 1 10 1.11193 10 1.25V2.75C10 2.88807 9.88807 3 9.75 3H6.25C6.11193 3 6 2.88807 6 2.75V1.25Z" fill="#E3E3E5"/>
<path fill-rule="evenodd" clip-rule="evenodd" d="M5 2H2.25C2.11193 2 2 2.11193 2 2.25V14C2 14.5523 2.44772 15 3 15H13C13.5523 15 14 14.5523 14 14V2.25C14 2.11193 13.8881 2 13.75 2H11V3C11 3.55228 10.5523 4 10 4H6C5.44772 4 5 3.55228 5 3V2ZM4 6.25C4 6.11193 4.11193 6 4.25 6H4.75C4.88807 6 5 6.11193 5 6.25V6.75C5 6.88807 4.88807 7 4.75 7H4.25C4.11193 7 4 6.88807 4 6.75V6.25ZM6 6.25C6 6.11193 6.11193 6 6.25 6H11.75C11.8881 6 12 6.11193 12 6.25V6.75C12 6.88807 11.8881 7 11.75 7H6.25C6.11193 7 6 6.88807 6 6.75V6.25ZM4.25 8C4.11193 8 4 8.11193 4 8.25V8.75C4 8.88807 4.11193 9 4.25 9H4.75C4.88807 9 5 8.88807 5 8.75V8.25C5 8.11193 4.88807 8 4.75 8H4.25ZM6 8.25C6 8.11193 6.11193 8 6.25 8H11.75C11.8881 8 12 8.11193 12 8.25V8.75C12 8.88807 11.8881 9 11.75 9H6.25C6.11193 9 6 8.88807 6 8.75V8.25ZM4.25 10C4.11193 10 4 10.1119 4 10.25V10.75C4 10.8881 4.11193 11 4.25 11H4.75C4.88807 11 5 10.8881 5 10.75V10.25C5 10.1119 4.88807 10 4.75 10H4.25ZM6 10.25C6 10.1119 6.11193 10 6.25 10H11.75C11.8881 10 12 10.1119 12 10.25V10.75C12 10.8881 11.8881 11 11.75 11H6.25C6.11193 11 6 10.8881 6 10.75V10.25Z" fill="#E3E3E5"/>
</svg>
