<svg width="16" height="16" viewBox="0 0 16 16" xmlns="http://www.w3.org/2000/svg">
<path d="M2 3L14 3C14.0927 3 14.1824 3.0126 14.2675 3.03619C14.2501 3.04657 14.2337 3.05926 14.2187 3.07424L8.00004 9.29294L1.78619 3.07908C1.76913 3.06202 1.75022 3.04794 1.7301 3.03685C1.81596 3.01284 1.90648 3 2 3Z"/>
<path d="M8.00004 10.6036C8.06404 10.6036 8.12804 10.5792 8.17686 10.5304L8.53041 10.1769C8.53171 10.1756 8.533 10.1743 8.53426 10.1729L10 8.70717L14.2192 12.9263C14.2339 12.9411 14.2501 12.9536 14.2672 12.9639C14.1821 12.9874 14.0925 13 14 13L2 13C1.90707 13 1.8171 12.9873 1.73172 12.9636C1.75017 12.9529 1.76754 12.9397 1.78332 12.9239L6.00006 8.70717L7.46582 10.1729C7.46709 10.1743 7.46837 10.1756 7.46967 10.1769L7.82322 10.5304C7.87205 10.5792 7.93605 10.6036 8.00004 10.6036Z"/>
<path d="M14.9639 12.2673C14.9874 12.1822 15 12.0926 15 12L15 4C15 3.90739 14.9874 3.81773 14.9639 3.73262C14.9535 3.75 14.9408 3.76638 14.9258 3.78135L10.7071 8.00006L14.9263 12.2192C14.941 12.234 14.9536 12.2501 14.9639 12.2673Z"/>
<path d="M1.07621 12.2168C1.0604 12.2326 1.04715 12.25 1.03646 12.2685C1.0127 12.1831 1 12.093 1 12L1 4C1 3.90648 1.01284 3.81596 1.03685 3.7301C1.04794 3.75022 1.06202 3.76913 1.07908 3.78619L5.29295 8.00006L1.07621 12.2168Z"/>
</svg>
