<svg width="16" height="16" viewBox="0 0 16 16" fill="none" xmlns="http://www.w3.org/2000/svg">
<path d="M8.75 11C8.75 10.7898 8.66355 10.5999 8.52428 10.4637C8.38906 10.3315 8.20405 10.25 8 10.25C7.7929 10.25 7.6054 10.3339 7.46968 10.4697C7.33395 10.6054 7.25 10.7929 7.25 11C7.25 11.2071 7.33395 11.3946 7.46968 11.5303C7.6054 11.6661 7.7929 11.75 8 11.75C8.2071 11.75 8.3946 11.6661 8.53032 11.5303C8.66605 11.3946 8.75 11.2071 8.75 11Z" />
<path d="M7.25 8.75C7.25 9.16421 7.58579 9.5 8 9.5C8.41421 9.5 8.75 9.16421 8.75 8.75V4.75C8.75 4.33579 8.41421 4 8 4C7.58579 4 7.25 4.33579 7.25 4.75V8.75Z" />
<path fill-rule="evenodd" clip-rule="evenodd" d="M12.7784 13.781C14.4408 12.4054 15.5 10.3264 15.5 8C15.5 5.67362 14.4408 3.59464 12.7784 2.21898C11.4808 1.14526 9.81576 0.5 8 0.5C6.18424 0.5 4.51918 1.14526 3.22163 2.21898C1.55919 3.59464 0.5 5.67362 0.5 8C0.5 10.3264 1.55919 12.4054 3.22163 13.781C4.51918 14.8547 6.18424 15.5 8 15.5C9.81576 15.5 11.4808 14.8547 12.7784 13.781ZM11.7236 12.7051C13.1104 11.6061 14 9.90693 14 8C14 6.09307 13.1104 4.39391 11.7236 3.2949C10.7005 2.48414 9.40677 2 8 2C6.59323 2 5.29953 2.48414 4.27644 3.2949C2.8896 4.39391 2 6.09307 2 8C2 9.90693 2.8896 11.6061 4.27644 12.7051C5.29953 13.5159 6.59323 14 8 14C9.40677 14 10.7005 13.5159 11.7236 12.7051Z" />
</svg>