<svg width="8" height="8" viewBox="0 0 8 4" fill="none" xmlns="http://www.w3.org/2000/svg">
<path d="M0.112668 0.424205C0.100056 0.412235 0.0875274 0.400195 0.0763411 0.386884C0.0492304 0.354622 0 0.286686 0 0.21875C0 0 0.250001 0 0.250001 0L7.75 0C7.75 0 8 0 8 0.21875C8 0.286689 7.95077 0.354628 7.92366 0.386888C7.91247 0.400196 7.89994 0.412234 7.88734 0.424202L4.23767 3.88829C4.22506 3.90026 4.21271 3.91247 4.19913 3.92334C4.16534 3.95038 4.09094 4 4 4C3.90906 4 3.83467 3.95038 3.80087 3.92334C3.78729 3.91247 3.77494 3.90026 3.76233 3.88829L0.112668 0.424205Z" fill="#E3E3E5"/>
</svg>
