<svg width="16" height="16" viewBox="0 0 16 16" xmlns="http://www.w3.org/2000/svg">
<path d="M10.083 2.42678C9.92551 2.26929 10.037 2 10.2598 2L13.75 2C13.888 2 14 2.11193 14 2.25V5.74019C14 5.96292 13.7307 6.07446 13.5732 5.91697L12.1829 4.52665L9.78201 6.92751C9.68438 7.02514 9.52609 7.02514 9.42845 6.92751L9.0749 6.57396C8.97727 6.47633 8.97727 6.31804 9.0749 6.2204L11.4758 3.81954L10.083 2.42678Z"/>
<path d="M2.42678 10.083L3.81954 11.4758L6.21796 9.07737C6.31559 8.97974 6.47389 8.97974 6.57152 9.07737L6.92507 9.43093C7.0227 9.52856 7.0227 9.68685 6.92507 9.78448L4.52665 12.1829L5.91697 13.5732C6.07446 13.7307 5.96292 14 5.7402 14H2.25C2.11193 14 2 13.8881 2 13.75L2 10.2598C2 10.0371 2.26929 9.92553 2.42678 10.083Z"/>
</svg>
