<svg width="12" height="12" viewBox="0 0 12 12" fill="none" xmlns="http://www.w3.org/2000/svg">
<path d="M7.68414 0.426772L9.27513 2.01776L4.07812 7.21874C3.98049 7.31637 3.98049 7.47466 4.07812 7.57229L4.43168 7.92584C4.52931 8.02348 4.6876 8.02348 4.78523 7.92584L9.98223 2.72487L11.5732 4.31586C11.7307 4.47335 12 4.36181 12 4.13908L12 0.249993C12 0.111921 11.8881 -7.62939e-06 11.75 -7.62939e-06L7.86091 -4.38506e-06C7.63925 0.00278382 7.52665 0.269281 7.68414 0.426772Z" fill="#242528"/>
<path d="M5.55698 3C5.7797 3 5.89124 3.26928 5.73375 3.42677L5.23375 3.92677C5.18687 3.97366 5.12328 4 5.05698 4H1L1 11H8V6.92094C8 6.85463 8.02634 6.79104 8.07322 6.74416L8.57322 6.24416C8.73071 6.08667 9 6.19821 9 6.42093V11C9 11.5523 8.55229 12 8 12H1C0.447715 12 0 11.5523 0 11V4C0 3.44771 0.447715 3 1 3H5.55698Z" fill="#242528"/>
</svg>
