<svg width="16" height="16" viewBox="0 0 16 16" xmlns="http://www.w3.org/2000/svg">
<g clip-path="url(#clip0_24300_102174)">
<path fill-rule="evenodd" clip-rule="evenodd" d="M0.75 8C0.75 7.61927 0.991772 7.34987 1.25295 7.05885C1.27045 7.03935 1.28805 7.01974 1.30566 7C2.94819 5.1591 5.33873 4 8 4C10.6613 4 13.0518 5.1591 14.6943 7C14.9747 7.31426 15.2177 7.59375 15.2177 8C15.2177 8.40625 14.9705 8.69117 14.6875 9.00765C13.0452 10.8441 10.6576 12 8 12C5.33873 12 2.94819 10.8409 1.30566 9C1.27497 8.9656 1.24433 8.93198 1.21411 8.89883C0.9683 8.62912 0.75 8.3896 0.75 8ZM10 8C10 9.10457 9.10457 10 8 10C6.89543 10 6 9.10457 6 8C6 6.89543 6.89543 6 8 6C9.10457 6 10 6.89543 10 8Z"/>
</g>
<defs>
<clipPath id="clip0_24300_102174">
<rect width="16" height="16" fill="white"/>
</clipPath>
</defs>
</svg>
