<svg width="16" height="16" viewBox="0 0 16 16" xmlns="http://www.w3.org/2000/svg">
<path fill-rule="evenodd" clip-rule="evenodd" d="M3 5C3 4.44772 3.44772 4 4 4H12C12.5523 4 13 4.44772 13 5V12C13 12.5523 12.5523 13 12 13H4C3.44772 13 3 12.5523 3 12V5ZM4 5.25C4 5.11193 4.11193 5 4.25 5H4.75C4.88807 5 5 5.11193 5 5.25V5.75C5 5.88807 4.88807 6 4.75 6H4.25C4.11193 6 4 5.88807 4 5.75V5.25ZM11.25 5C11.1119 5 11 5.11193 11 5.25V5.75C11 5.88807 11.1119 6 11.25 6H11.75C11.8881 6 12 5.88807 12 5.75V5.25C12 5.11193 11.8881 5 11.75 5H11.25ZM4 7.25C4 7.11193 4.11193 7 4.25 7H4.75C4.88807 7 5 7.11193 5 7.25V7.75C5 7.88807 4.88807 8 4.75 8H4.25C4.11193 8 4 7.88807 4 7.75V7.25ZM11.25 7C11.1119 7 11 7.11193 11 7.25V7.75C11 7.88807 11.1119 8 11.25 8H11.75C11.8881 8 12 7.88807 12 7.75V7.25C12 7.11193 11.8881 7 11.75 7H11.25ZM4 9.25C4 9.11193 4.11193 9 4.25 9H4.75C4.88807 9 5 9.11193 5 9.25V9.75C5 9.88807 4.88807 10 4.75 10H4.25C4.11193 10 4 9.88807 4 9.75V9.25ZM11.25 9C11.1119 9 11 9.11193 11 9.25V9.75C11 9.88807 11.1119 10 11.25 10H11.75C11.8881 10 12 9.88807 12 9.75V9.25C12 9.11193 11.8881 9 11.75 9H11.25ZM4 11.25C4 11.1119 4.11193 11 4.25 11H4.75C4.88807 11 5 11.1119 5 11.25V11.75C5 11.8881 4.88807 12 4.75 12H4.25C4.11193 12 4 11.8881 4 11.75V11.25ZM11.25 11C11.1119 11 11 11.1119 11 11.25V11.75C11 11.8881 11.1119 12 11.25 12H11.75C11.8881 12 12 11.8881 12 11.75V11.25C12 11.1119 11.8881 11 11.75 11H11.25ZM6.03125 5.25C6.03125 5.11193 6.14318 5 6.28125 5H9.78125C9.91932 5 10.0312 5.11193 10.0312 5.25V7.75C10.0312 7.88807 9.91932 8 9.78125 8H6.28125C6.14318 8 6.03125 7.88807 6.03125 7.75V5.25ZM6.28125 9C6.14318 9 6.03125 9.11193 6.03125 9.25V11.75C6.03125 11.8881 6.14318 12 6.28125 12H9.78125C9.91932 12 10.0312 11.8881 10.0312 11.75V9.25C10.0312 9.11193 9.91932 9 9.78125 9H6.28125Z"/>
</svg>
