<svg width="16" height="16" viewBox="0 0 16 16" xmlns="http://www.w3.org/2000/svg">
<path fill-rule="evenodd" clip-rule="evenodd" d="M8 11C9.65686 11 11 9.65685 11 8C11 6.34314 9.65686 5 8 5C6.34315 5 5 6.34314 5 8C5 9.65685 6.34315 11 8 11ZM8 9.5C8.82843 9.5 9.5 8.82843 9.5 8C9.5 7.17157 8.82843 6.5 8 6.5C7.17157 6.5 6.5 7.17157 6.5 8C6.5 8.82843 7.17157 9.5 8 9.5Z"/>
<path fill-rule="evenodd" clip-rule="evenodd" d="M7.5 1C7.36193 1 7.25 1.11193 7.25 1.25V2.04642C6.15447 2.18303 5.15066 2.61499 4.32077 3.26011L3.75736 2.6967C3.65973 2.59907 3.50144 2.59907 3.40381 2.6967L2.6967 3.40381C2.59907 3.50144 2.59907 3.65973 2.6967 3.75736L3.26011 4.32077C2.61499 5.15066 2.18303 6.15447 2.04642 7.25H1.25C1.11193 7.25 1 7.36193 1 7.5L1 8.5C1 8.63807 1.11193 8.75 1.25 8.75H2.04642C2.18303 9.84553 2.61499 10.8493 3.26011 11.6792L2.6967 12.2426C2.59907 12.3403 2.59907 12.4986 2.6967 12.5962L3.40381 13.3033C3.50144 13.4009 3.65973 13.4009 3.75736 13.3033L4.32077 12.7399C5.15066 13.385 6.15447 13.817 7.25 13.9536V14.75C7.25 14.8881 7.36193 15 7.5 15H8.5C8.63807 15 8.75 14.8881 8.75 14.75V13.9536C9.84553 13.817 10.8493 13.385 11.6792 12.7399L12.2426 13.3033C12.3403 13.4009 12.4986 13.4009 12.5962 13.3033L13.3033 12.5962C13.4009 12.4986 13.4009 12.3403 13.3033 12.2426L12.7399 11.6792C13.385 10.8493 13.817 9.84553 13.9536 8.75H14.75C14.8881 8.75 15 8.63807 15 8.5V7.5C15 7.36193 14.8881 7.25 14.75 7.25H13.9536C13.817 6.15447 13.385 5.15066 12.7399 4.32077L13.3033 3.75736C13.4009 3.65973 13.4009 3.50144 13.3033 3.40381L12.5962 2.6967C12.4986 2.59907 12.3403 2.59907 12.2426 2.6967L11.6792 3.26011C10.8493 2.61499 9.84553 2.18303 8.75 2.04642V1.25C8.75 1.11193 8.63807 1 8.5 1H7.5ZM8 12.5C10.4853 12.5 12.5 10.4853 12.5 8C12.5 5.51472 10.4853 3.5 8 3.5C5.51472 3.5 3.5 5.51472 3.5 8C3.5 10.4853 5.51472 12.5 8 12.5Z"/>
</svg>
