<svg width="16" height="16" viewBox="0 0 16 16" xmlns="http://www.w3.org/2000/svg">
<path d="M3.25 3C3.11193 3 3 3.11193 3 3.25V3.75C3 3.88807 3.11193 4 3.25 4H3.75C3.88807 4 4 3.88807 4 3.75V3.25C4 3.11193 3.88807 3 3.75 3H3.25Z" />
<path d="M3.25 6C3.11193 6 3 6.11193 3 6.25V6.75C3 6.88807 3.11193 7 3.25 7H3.75C3.88807 7 4 6.88807 4 6.75V6.25C4 6.11193 3.88807 6 3.75 6H3.25Z" />
<path d="M3.25 9C3.11193 9 3 9.11193 3 9.25V9.75C3 9.88807 3.11193 10 3.25 10H3.75C3.88807 10 4 9.88807 4 9.75V9.25C4 9.11193 3.88807 9 3.75 9H3.25Z" />
<path d="M3.25 12C3.11193 12 3 12.1119 3 12.25V12.75C3 12.8881 3.11193 13 3.25 13H3.75C3.88807 13 4 12.8881 4 12.75V12.25C4 12.1119 3.88807 12 3.75 12H3.25Z" />
<path d="M6.25 3C6.11193 3 6 3.11193 6 3.25V3.75C6 3.88807 6.11193 4 6.25 4H6.75C6.88807 4 7 3.88807 7 3.75V3.25C7 3.11193 6.88807 3 6.75 3H6.25Z" />
<path d="M6.25 6C6.11193 6 6 6.11193 6 6.25V6.75C6 6.88807 6.11193 7 6.25 7H6.75C6.88807 7 7 6.88807 7 6.75V6.25C7 6.11193 6.88807 6 6.75 6H6.25Z" />
<path d="M6.25 9C6.11193 9 6 9.11193 6 9.25V9.75C6 9.88807 6.11193 10 6.25 10H6.75C6.88807 10 7 9.88807 7 9.75V9.25C7 9.11193 6.88807 9 6.75 9H6.25Z" />
<path d="M6.25 12C6.11193 12 6 12.1119 6 12.25V12.75C6 12.8881 6.11193 13 6.25 13H6.75C6.88807 13 7 12.8881 7 12.75V12.25C7 12.1119 6.88807 12 6.75 12H6.25Z" />
<path d="M9.25 3C9.11193 3 9 3.11193 9 3.25V3.75C9 3.88807 9.11193 4 9.25 4H9.75C9.88807 4 10 3.88807 10 3.75V3.25C10 3.11193 9.88807 3 9.75 3H9.25Z" />
<path d="M9.25 6C9.11193 6 9 6.11193 9 6.25V6.75C9 6.88807 9.11193 7 9.25 7H9.75C9.88807 7 10 6.88807 10 6.75V6.25C10 6.11193 9.88807 6 9.75 6H9.25Z" />
<path d="M9.25 9C9.11193 9 9 9.11193 9 9.25V9.75C9 9.88807 9.11193 10 9.25 10H9.75C9.88807 10 10 9.88807 10 9.75V9.25C10 9.11193 9.88807 9 9.75 9H9.25Z" />
<path d="M9.25 12C9.11193 12 9 12.1119 9 12.25V12.75C9 12.8881 9.11193 13 9.25 13H9.75C9.88807 13 10 12.8881 10 12.75V12.25C10 12.1119 9.88807 12 9.75 12H9.25Z" />
<path d="M12.25 3C12.1119 3 12 3.11193 12 3.25V3.75C12 3.88807 12.1119 4 12.25 4H12.75C12.8881 4 13 3.88807 13 3.75V3.25C13 3.11193 12.8881 3 12.75 3H12.25Z" />
<path d="M12.25 6C12.1119 6 12 6.11193 12 6.25V6.75C12 6.88807 12.1119 7 12.25 7H12.75C12.8881 7 13 6.88807 13 6.75V6.25C13 6.11193 12.8881 6 12.75 6H12.25Z" />
<path d="M12.25 9C12.1119 9 12 9.11193 12 9.25V9.75C12 9.88807 12.1119 10 12.25 10H12.75C12.8881 10 13 9.88807 13 9.75V9.25C13 9.11193 12.8881 9 12.75 9H12.25Z" />
<path d="M12.25 12C12.1119 12 12 12.1119 12 12.25V12.75C12 12.8881 12.1119 13 12.25 13H12.75C12.8881 13 13 12.8881 13 12.75V12.25C13 12.1119 12.8881 12 12.75 12H12.25Z" />
</svg>
