<svg width="16" height="16" viewBox="0 0 16 16" xmlns="http://www.w3.org/2000/svg">
<path fill-rule="evenodd" clip-rule="evenodd" d="M12.7784 13.781C14.4408 12.4054 15.5 10.3264 15.5 8C15.5 5.67362 14.4408 3.59464 12.7784 2.21898C11.4808 1.14526 9.81576 0.5 8 0.5C6.18424 0.5 4.51919 1.14526 3.22163 2.21898C1.55919 3.59464 0.5 5.67362 0.5 8C0.5 10.3264 1.55919 12.4054 3.22163 13.781C4.51919 14.8547 6.18424 15.5 8 15.5C9.81576 15.5 11.4808 14.8547 12.7784 13.781ZM8.93454 8.81947C9.85231 8.44934 10.5 7.55031 10.5 6.5C10.5 5.11929 9.38071 4 8 4C6.61929 4 5.5 5.11929 5.5 6.5C5.5 6.77614 5.72386 7 6 7C6.27614 7 6.5 6.77614 6.5 6.5C6.5 5.67157 7.17157 5 8 5C8.82843 5 9.5 5.67157 9.5 6.5C9.5 7.13019 9.11138 7.6696 8.56073 7.89168L7.82507 8.18762C7.63519 8.25853 7.5 8.44164 7.5 8.65625C7.5 8.79039 7.55282 8.91219 7.6388 9.00199C7.72982 9.09705 7.858 9.15625 8 9.15625C8.06787 9.15625 8.13259 9.14273 8.19159 9.11823L8.93454 8.81947ZM8.74999 11C8.74999 11.2102 8.66354 11.4001 8.52427 11.5363C8.38905 11.6685 8.20403 11.75 7.99999 11.75C7.79288 11.75 7.60539 11.6661 7.46966 11.5303C7.33394 11.3946 7.24999 11.2071 7.24999 11C7.24999 10.7929 7.33394 10.6054 7.46966 10.4697C7.60539 10.3339 7.79288 10.25 7.99999 10.25C8.20709 10.25 8.39459 10.3339 8.53031 10.4697C8.66604 10.6054 8.74999 10.7929 8.74999 11Z"/>
</svg>
