<svg width="16" height="16" viewBox="0 0 16 16" xmlns="http://www.w3.org/2000/svg">
<path fill-rule="evenodd" clip-rule="evenodd" d="M2 3.5C2 3.22386 2.22386 3 2.5 3H13.5C13.7761 3 14 3.22386 14 3.5V12.5C14 12.7761 13.7761 13 13.5 13H2.5C2.22386 13 2 12.7761 2 12.5V3.5ZM3 4V12H13V4H3Z"/>
<path d="M10.85 8C10.7565 7.90839 10.6309 7.85707 10.5 7.85707C10.3691 7.85707 10.2435 7.90839 10.15 8L8.95001 9.2L6.85001 7.11C6.80512 7.06217 6.7509 7.02405 6.6907 6.99799C6.63051 6.97193 6.5656 6.95848 6.5 6.95848C6.4344 6.95848 6.36949 6.97193 6.3093 6.99799C6.2491 7.02405 6.19488 7.06217 6.14999 7.11L4 9.28999V10.71L6.5 8.21001L9.5 11.21L10.21 10.5L9.64999 9.95L10.5 9.10001L12 10.6V9.19L10.85 8Z"/>
<path fill-rule="evenodd" clip-rule="evenodd" d="M9 6C9 5.44772 9.44772 5 10 5C10.5523 5 11 5.44772 11 6C11 6.55228 10.5523 7 10 7C9.44772 7 9 6.55228 9 6Z"/>
</svg>
