<svg width="15" height="13" viewBox="0 0 15 13" xmlns="http://www.w3.org/2000/svg">
<path fill-rule="evenodd" clip-rule="evenodd" d="M8.63851 3.14715C8.86631 2.82239 9 2.42681 9 2C9 0.895431 8.10457 0 7 0C5.89543 0 5 0.895431 5 2C5 2.50909 5.19021 2.97375 5.50344 3.32679L2.712 8.1617C2.4908 8.07741 2.25079 8.03125 2 8.03125C0.895431 8.03125 0 8.92668 0 10.0312C0 11.1358 0.895431 12.0312 2 12.0312C2.74028 12.0312 3.38663 11.6291 3.73244 11.0312H10.3301C10.6759 11.6291 11.3222 12.0312 12.0625 12.0312C13.1671 12.0312 14.0625 11.1358 14.0625 10.0312C14.0625 8.92668 13.1671 8.03125 12.0625 8.03125C11.8686 8.03125 11.6812 8.05883 11.504 8.11028L8.63851 3.14715ZM7 3C7.55228 3 8 2.55228 8 2C8 1.44772 7.55228 1 7 1C6.44772 1 6 1.44772 6 2C6 2.55228 6.44772 3 7 3ZM10.0625 10.0312C10.0625 9.48104 10.2847 8.98272 10.6442 8.62112L7.86337 3.80456C7.602 3.92984 7.3092 4 7 4C6.76681 4 6.54294 3.96009 6.33485 3.88673L3.5306 8.74384C3.82352 9.09172 4 9.54088 4 10.0312H10.0625ZM3 10.0312C3 10.5835 2.55228 11.0312 2 11.0312C1.44772 11.0312 1 10.5835 1 10.0312C1 9.47897 1.44772 9.03125 2 9.03125C2.55228 9.03125 3 9.47897 3 10.0312ZM13.0625 10.0312C13.0625 10.5835 12.6148 11.0312 12.0625 11.0312C11.5102 11.0312 11.0625 10.5835 11.0625 10.0312C11.0625 9.47897 11.5102 9.03125 12.0625 9.03125C12.6148 9.03125 13.0625 9.47897 13.0625 10.0312Z"/>
</svg>
