<svg width="16" height="16" viewBox="0 0 16 16" xmlns="http://www.w3.org/2000/svg">
<path d="M6.48782 2.93847L10.6079 1.8345C11.1424 1.69129 11.6915 2.00765 11.8345 2.54111L12.3627 4.51265L11.2473 4.21377L10.9335 3.04188C10.8978 2.90844 10.7606 2.82927 10.6272 2.86509L8.42277 3.45694L6.48782 2.93847Z"/>
<path d="M6.12132 5.28807C5.93378 5.10054 5.67943 4.99518 5.41421 4.99518H4C3.44772 4.99518 3 5.44289 3 5.99518V7.40939C3 7.67461 3.10536 7.92896 3.29289 8.1165L7.01274 11.8363C7.06933 12.5913 7.31219 13.2943 7.69549 13.8995C7.63475 13.8609 7.57728 13.8151 7.52427 13.7621L2.58579 8.82361C2.21071 8.44853 2 7.93983 2 7.40939V5.99518C2 4.89061 2.89543 3.99518 4 3.99518H5.41421C5.94465 3.99518 6.45335 4.20589 6.82843 4.58096L9.64263 7.39517C9.32698 7.53838 9.0308 7.71698 8.75915 7.9259L6.12132 5.28807Z"/>
<path d="M12.7654 7.17554C12.4488 7.08294 12.1177 7.0242 11.7763 7.00352L11.8559 6.70651C11.8916 6.57309 11.8124 6.43598 11.679 6.40031L9.4797 5.81229L8.0633 4.39589L12.1776 5.49832C12.7121 5.64153 13.0295 6.19009 12.8865 6.72355L12.7654 7.17554Z"/>
<path fill-rule="evenodd" clip-rule="evenodd" d="M11.5 14.9952C13.433 14.9952 15 13.4282 15 11.4952C15 9.56218 13.433 7.99518 11.5 7.99518C9.567 7.99518 8 9.56218 8 11.4952C8 13.4282 9.567 14.9952 11.5 14.9952ZM11.25 8.99518C11.1119 8.99518 11 9.10711 11 9.24518V10.9952H9.25C9.11193 10.9952 9 11.1071 9 11.2452V11.7452C9 11.8832 9.11193 11.9952 9.25 11.9952H11V13.7452C11 13.8832 11.1119 13.9952 11.25 13.9952H11.75C11.8881 13.9952 12 13.8832 12 13.7452V11.9952H13.75C13.8881 11.9952 14 11.8832 14 11.7452V11.2452C14 11.1071 13.8881 10.9952 13.75 10.9952H12V9.24518C12 9.10711 11.8881 8.99518 11.75 8.99518H11.25Z"/>
<path d="M5.8125 6.80768C5.8125 7.35996 5.36478 7.80768 4.8125 7.80768C4.26022 7.80768 3.8125 7.35996 3.8125 6.80768C3.8125 6.25539 4.26022 5.80768 4.8125 5.80768C5.36478 5.80768 5.8125 6.25539 5.8125 6.80768Z"/>
</svg>
