<svg width="16" height="16" viewBox="0 0 16 16" xmlns="http://www.w3.org/2000/svg">
<path d="M2.25 2C2.11193 2 2 2.11193 2 2.25V2.75C2 2.88807 2.11193 3 2.25 3L2.75 3C2.88807 3 3 2.88807 3 2.75V2.25C3 2.11193 2.88807 2 2.75 2H2.25Z"/>
<path d="M2.25 7C2.11193 7 2 7.11193 2 7.25V7.75C2 7.88807 2.11193 8 2.25 8L2.75 8C2.88807 8 3 7.88807 3 7.75V7.25C3 7.11193 2.88807 7 2.75 7L2.25 7Z"/>
<path d="M2.25 12C2.11193 12 2 12.1119 2 12.25V12.75C2 12.8881 2.11193 13 2.25 13H2.75C2.88807 13 3 12.8881 3 12.75V12.25C3 12.1119 2.88807 12 2.75 12H2.25Z"/>
<path d="M5.25 2C5.11193 2 5 2.11193 5 2.25V2.75C5 2.88807 5.11193 3 5.25 3L13.75 3C13.8881 3 14 2.88807 14 2.75V2.25C14 2.11193 13.8881 2 13.75 2H5.25Z"/>
<path d="M5.25 7C5.11193 7 5 7.11193 5 7.25V7.75C5 7.88807 5.11193 8 5.25 8L13.75 8C13.8881 8 14 7.88807 14 7.75V7.25C14 7.11193 13.8881 7 13.75 7L5.25 7Z"/>
<path d="M5.25 12C5.11193 12 5 12.1119 5 12.25V12.75C5 12.8881 5.11193 13 5.25 13H13.75C13.8881 13 14 12.8881 14 12.75V12.25C14 12.1119 13.8881 12 13.75 12H5.25Z"/>
</svg>
