<svg width="12" height="14" viewBox="0 0 12 14" fill="none" xmlns="http://www.w3.org/2000/svg">
<path d="M2 5.75C2 5.88807 2.11193 6 2.25 6H9.75C9.88807 6 10 5.88807 10 5.75V5.25C10 5.11193 9.88807 5 9.75 5H2.25C2.11193 5 2 5.11193 2 5.25V5.75Z" />
<path d="M2.25 8C2.11193 8 2 7.88807 2 7.75V7.25C2 7.11193 2.11193 7 2.25 7H9.75C9.88807 7 10 7.11193 10 7.25V7.75C10 7.88807 9.88807 8 9.75 8H2.25Z" />
<path d="M2 9.75C2 9.88807 2.11193 10 2.25 10H9.75C9.88807 10 10 9.88807 10 9.75V9.25C10 9.11193 9.88807 9 9.75 9H2.25C2.11193 9 2 9.11193 2 9.25V9.75Z" />
<path fill-rule="evenodd" clip-rule="evenodd" d="M3.25 0C3.11193 0 3 0.111929 3 0.25V1H0.25C0.111929 1 0 1.11193 0 1.25V13C0 13.5523 0.447715 14 1 14H11C11.5523 14 12 13.5523 12 13V1.25C12 1.11193 11.8881 1 11.75 1H9V0.25C9 0.111929 8.88807 0 8.75 0H3.25ZM1 2H3V2.75C3 2.88807 3.11193 3 3.25 3H8.75C8.88807 3 9 2.88807 9 2.75V2H11V13H1V2ZM8 1H4V2H8V1Z" />
</svg>
