<svg width="12" height="11" viewBox="0 0 12 11" fill="none" xmlns="http://www.w3.org/2000/svg">
<path fill-rule="evenodd" clip-rule="evenodd" d="M4.5 0C4.77614 0 5 0.223858 5 0.5V3.5C5 3.77614 4.77614 4 4.5 4H3V5H9V4H7.5C7.22386 4 7 3.77614 7 3.5V0.5C7 0.223858 7.22386 0 7.5 0H11.5C11.7761 0 12 0.223858 12 0.5V3.5C12 3.77614 11.7761 4 11.5 4H10V5H12V6H6V7H7.5C7.77614 7 8 7.22386 8 7.5V10.5C8 10.7761 7.77614 11 7.5 11H3.5C3.22386 11 3 10.7761 3 10.5V7.5C3 7.22386 3.22386 7 3.5 7H5V6H0V5H2V4H0.5C0.223858 4 0 3.77614 0 3.5V0.5C0 0.223858 0.223858 0 0.5 0H4.5ZM1 1H4V3H1V1ZM8 1H11V3H8V1ZM4 8H7V10H4V8Z" fill="#E3E3E5"/>
</svg>
