<svg width="16" height="16" viewBox="0 0 16 16" xmlns="http://www.w3.org/2000/svg">
<path fill-rule="evenodd" clip-rule="evenodd" d="M9.00006 13C9.53131 13 10.0001 12.5 10.0001 12L10.0001 10L13.7813 6.21875C13.9159 6.08317 14.0001 5.89367 14.0001 5.6875C14.0001 5.48133 13.9159 5.29182 13.7813 5.15625L10.8438 2.21875C10.7086 2.08655 10.5166 2 10.3126 2C10.1064 2 9.91688 2.0841 9.78131 2.21875L6.00006 6H4.00006C3.50006 6 3.00006 6.46875 3.00006 7L5.64773 9.64767L2.07564 13.2198C1.97796 13.3174 1.97801 13.4758 2.07575 13.5734L2.42952 13.9268C2.52717 14.0243 2.68538 14.0242 2.78296 13.9266L6.35483 10.3548L9.00006 13ZM9.00006 11.5858L9.00006 9.58578L12.8983 5.6875L10.3126 3.10171L6.41427 7L4.41427 7L9.00006 11.5858Z"/>
</svg>
