<svg width="16" height="16" viewBox="0 0 16 16" xmlns="http://www.w3.org/2000/svg">
<path d="M8 14.75C8 14.8881 7.88801 15.0005 7.75003 14.9956C6.95457 14.9677 6.19287 14.807 5.4864 14.5351C5.35758 14.4856 5.29871 14.3383 5.35283 14.2113L5.54896 13.7511C5.60311 13.6241 5.74985 13.5655 5.87905 13.6143C6.46453 13.8356 7.09369 13.968 7.75005 13.9949C7.88801 14.0005 8 14.1119 8 14.25V14.75Z"/>
<path d="M10.47 13.4696C10.3442 13.5265 10.2819 13.6716 10.3335 13.7997L10.5202 14.2638C10.5717 14.3919 10.7176 14.4544 10.8438 14.3982C11.5566 14.0809 12.2065 13.648 12.7699 13.1233C12.8709 13.0292 12.8706 12.8706 12.773 12.773L12.4194 12.4194C12.3218 12.3218 12.1638 12.3222 12.0623 12.4157C11.5941 12.8466 11.0572 13.204 10.47 13.4696Z"/>
<path d="M3.58429 12.0622C3.6778 12.1638 3.67822 12.3218 3.58058 12.4194L3.22703 12.773C3.1294 12.8706 2.97075 12.8709 2.87665 12.7699C2.35196 12.2065 1.91906 11.5566 1.60178 10.8438C1.54562 10.7176 1.60809 10.5717 1.73621 10.5202L2.20032 10.3335C2.32838 10.2819 2.47348 10.3442 2.53037 10.47C2.79598 11.0572 3.15339 11.5941 3.58429 12.0622Z"/>
<path d="M2.00512 7.74977C1.99946 7.88772 1.88807 7.99999 1.75 7.99999H1.25C1.11193 7.99999 0.999544 7.88757 1.0044 7.74959C1.13624 3.99957 4.21782 0.999988 8 0.999988C10.5463 0.999988 12.7751 2.35957 14 4.3924V1.24999C14 1.11192 14.1119 0.999988 14.25 0.999988H14.75C14.8881 0.999988 15 1.11192 15 1.24999L15 5.99999L10.25 5.99999C10.1119 5.99999 10 5.88806 10 5.74999V5.24999C10 5.11192 10.1119 4.99999 10.25 4.99999L13.1973 4.99999C12.1599 3.20658 10.2208 1.99999 8 1.99999C4.77011 1.99999 2.1363 4.5521 2.00512 7.74977Z"/>
<path d="M13.6141 10.1216C13.5653 10.2508 13.6238 10.3976 13.7508 10.4517L14.211 10.6479C14.338 10.702 14.4853 10.6432 14.5348 10.5144C14.8069 9.80782 14.9676 9.04599 14.9956 8.25039C15.0005 8.1124 14.8881 7.99999 14.75 7.99999H14.25C14.1119 7.99999 14.0005 8.11225 13.9949 8.25021C13.9679 8.90672 13.8355 9.53603 13.6141 10.1216Z"/>
</svg>
