<svg width="14" height="14" viewBox="0 0 14 14" fill="none" xmlns="http://www.w3.org/2000/svg">
<path d="M0.249996 1C0.111925 1 -3.8147e-06 0.888072 -3.8147e-06 0.75L-3.8147e-06 0.25C-3.8147e-06 0.111929 0.111925 2.33081e-07 0.249996 2.26498e-07L5 0L5 4.75C5 4.88807 4.88807 5 4.75 5H4.25C4.11193 5 4 4.88807 4 4.75L4 1.80269C2.20659 2.84012 0.999996 4.77915 0.999996 7C0.999996 10.3137 3.68629 13 7 13C10.3137 13 13 10.3137 13 7C13 3.77011 10.4479 1.1363 7.25022 1.00512C7.11226 0.999464 7 0.888071 7 0.75V0.25C7 0.111929 7.11241 -0.000456034 7.2504 0.00439543C11.0004 0.136243 14 3.21783 14 7C14 10.866 10.866 14 7 14C3.134 14 -3.8147e-06 10.866 -3.8147e-06 7C-3.8147e-06 4.45368 1.35958 2.2249 3.39241 1L0.249996 1Z" fill="white"/>
</svg>
