<svg width="16" height="16" viewBox="0 0 16 16" fill="none" xmlns="http://www.w3.org/2000/svg">
<path d="M8 1C5.23844 1 3 3.23844 3 6V10C3 12.7616 5.23844 15 8 15C10.7616 15 13 12.7616 13 10V6C13 3.23844 10.7616 1 8 1ZM5.17156 3.17156C5.92719 2.41594 6.93156 2 8 2V6H4C4 4.93156 4.41594 3.92719 5.17156 3.17156ZM10.8284 12.8284C10.0728 13.5841 9.06844 14 8 14C6.93156 14 5.92719 13.5841 5.17156 12.8284C4.41594 12.0728 4 11.0684 4 10V7H12V10C12 11.0684 11.5841 12.0728 10.8284 12.8284Z" fill="#B2B3B9"/>
</svg>
