<svg width="16" height="16" viewBox="0 0 16 16" xmlns="http://www.w3.org/2000/svg">
<path d="M0 3.25C0 3.11193 0.111929 3 0.25 3H0.75C0.888071 3 1 3.11193 1 3.25V11.75C1 11.8881 0.888071 12 0.75 12H0.25C0.111929 12 0 11.8881 0 11.75V3.25Z"/>
<path d="M15 3.25C15 3.11193 15.1119 3 15.25 3H15.75C15.8881 3 16 3.11193 16 3.25V11.75C16 11.8881 15.8881 12 15.75 12H15.25C15.1119 12 15 11.8881 15 11.75V3.25Z"/>
<path d="M5 9.74948V8.00048H11V9.74948C11 9.9722 11.2693 10.0837 11.4268 9.92625L13.917 7.67725C13.9658 7.62844 14 7.56446 14 7.50048C14 7.4365 13.9658 7.37252 13.917 7.3237L11.4268 5.07421C11.2693 4.91672 11 5.02826 11 5.25099L11 7.00048H5L5 5.25099C5 5.02826 4.73071 4.91672 4.57322 5.07421L2.08303 7.3237C2.03421 7.37252 2 7.4365 2 7.50048C2 7.56446 2.03421 7.62844 2.08303 7.67725L4.57322 9.92625C4.73071 10.0837 5 9.9722 5 9.74948Z"/>
</svg>
