<svg width="16" height="16" viewBox="0 0 16 16" fill="none" xmlns="http://www.w3.org/2000/svg">
<path d="M1.50749 5.87313L1 6L1.50749 6.12687C3.6572 6.6643 5.3357 8.3428 5.87313 10.4925L6 11L6.12687 10.4925C6.6643 8.3428 8.3428 6.6643 10.4925 6.12687L11 6L10.4925 5.87313C8.3428 5.3357 6.6643 3.6572 6.12687 1.50749L6 1L5.87313 1.50749C5.3357 3.6572 3.6572 5.3357 1.50749 5.87313Z" fill="currentcolor"/>
<path d="M9.35263 11.8825L9 12L9.35263 12.1175C10.5471 12.5157 11.4843 13.4529 11.8825 14.6474L12 15L12.1175 14.6474C12.5157 13.4529 13.4529 12.5157 14.6474 12.1175L15 12L14.6474 11.8825C13.4529 11.4843 12.5157 10.5471 12.1175 9.35263L12 9L11.8825 9.35263C11.4843 10.5471 10.5471 11.4843 9.35263 11.8825Z" fill="currentcolor"/>
</svg>
