<svg width="12" height="14" viewBox="0 0 12 14" fill="none" xmlns="http://www.w3.org/2000/svg">
<path d="M5.18023 9.52686C5.13212 9.57497 5.06927 9.59937 5.00622 9.60007C4.9385 9.60313 4.86977 9.57881 4.81806 9.5271L3.07414 7.7832C2.97651 7.68557 2.97651 7.52728 3.07414 7.42964L3.4277 7.07609C3.52533 6.97846 3.68362 6.97846 3.78125 7.07609L4.99902 8.29386L8.21916 5.07811C8.3168 4.98048 8.47509 4.98048 8.57272 5.07811L8.92627 5.43166C9.0239 5.52929 9.0239 5.68758 8.92627 5.78521L5.18023 9.52686Z" fill="#E3E3E5"/>
<path fill-rule="evenodd" clip-rule="evenodd" d="M5.6025 13.9239C5.95881 14.062 6.25605 13.9808 6.40005 13.9239C13.5447 11.07 11.8241 2.95236 11.8047 2.87023C11.741 2.58745 11.5001 2.38399 11.2176 2.37653L11.2164 2.37648C11.1668 2.37444 9.84597 2.32017 8.5333 1.78857C7.28344 1.12781 6.49605 0.23 6.48497 0.216934C6.37051 0.0825428 6.20897 0.00881422 6.03451 0.00228131C6.03138 0.00228131 6.02826 0.00184531 6.02503 0.00139475C6.02158 0.000913084 6.01801 0.000414788 6.0142 0.000414788C6.01104 -0.00022298 6.00789 1.09115e-05 6.00503 0.000222967C6.00371 0.000321222 6.00244 0.000414788 6.00128 0.000414788C6.00013 0.000414788 5.99881 0.00032545 5.9974 0.000229697C5.99424 1.59637e-05 5.99062 -0.000229735 5.98743 0.000414788C5.9842 0.000414788 5.98074 0.000881419 5.97727 0.00134805C5.97381 0.00181468 5.97035 0.00228131 5.96712 0.00228131C5.79266 0.00881422 5.63112 0.0825428 5.51665 0.216001C5.50465 0.23 4.7108 1.13341 3.45079 1.7951C2.14598 2.32057 0.841175 2.37343 0.789044 2.37554L0.787687 2.3756C0.506146 2.38306 0.264297 2.58651 0.200605 2.87023C0.182143 2.95236 -1.56526 11.1418 5.6025 13.9239ZM10.2087 3.27145C10.4791 3.31433 10.7081 3.33983 10.8754 3.35487C10.9653 3.9405 11.1349 5.462 10.8069 7.16893C10.3916 9.32995 9.20153 11.727 6.03174 12.9942C6.02628 12.9963 6.01703 12.9991 6.00693 12.9998C6.00237 13.0001 5.99758 13.0001 5.99209 12.9993C5.987 12.9986 5.97796 12.9969 5.96434 12.9917C2.78942 11.7594 1.60126 9.36795 1.18916 7.19801C0.86389 5.48526 1.03695 3.95125 1.12982 3.35412C1.29543 3.33931 1.52111 3.31429 1.78758 3.27228C2.3327 3.18634 3.07194 3.02571 3.82435 2.7227L3.8711 2.70388L3.91572 2.68044C4.89849 2.16435 5.62774 1.52161 6.00015 1.15544C6.37132 1.5211 7.09372 2.15866 8.06593 2.67263L8.11084 2.69637L8.15794 2.71544C8.91414 3.02169 9.65914 3.18431 10.2087 3.27145Z" fill="#E3E3E5"/>
</svg>
