<svg width="16" height="16" viewBox="0 0 16 16" xmlns="http://www.w3.org/2000/svg">
<path d="M7.22033 3.64557C7.22033 3.64557 7.75886 3 8.17726 3C8.75 3 9 3.25 9 4V12C9 12.75 8.75 13 8.19097 13C7.73486 13 7.22033 12.3809 7.22033 12.3809L5.98438 11H3.98438C3.36412 11 3.01607 10.6286 3 10L3 6C3 5.38114 3.35434 5.01816 3.98438 5H5.98438L7.22033 3.64557Z"/>
<path d="M13.2197 9.92629C13.3173 10.0239 13.4756 10.0239 13.5733 9.92629L13.9268 9.57274C14.0244 9.4751 14.0244 9.31681 13.9268 9.21918L12.7084 8.00073L13.9261 6.78302C14.0237 6.68538 14.0237 6.52709 13.9261 6.42946L13.5725 6.07591C13.4749 5.97828 13.3166 5.97828 13.219 6.07591L12.0013 7.29363L10.7828 6.07518C10.6852 5.97755 10.5269 5.97755 10.4293 6.07518L10.0757 6.42873C9.97807 6.52636 9.97807 6.68465 10.0757 6.78228L11.2942 8.00073L10.0764 9.21845C9.97881 9.31608 9.97881 9.47437 10.0764 9.572L10.43 9.92556C10.5276 10.0232 10.6859 10.0232 10.7835 9.92556L12.0013 8.70784L13.2197 9.92629Z"/>
</svg>
