<svg width="16" height="16" viewBox="0 0 16 16" xmlns="http://www.w3.org/2000/svg">
<path d="M7.22033 3.64557C7.22033 3.64557 7.75886 3 8.17726 3C8.75 3 9 3.25 9 4L9 12C9 12.75 8.75 13 8.19097 13C7.73486 13 7.22033 12.3809 7.22033 12.3809L5.98437 11H3.98437C3.36412 11 3.01607 10.6286 3 10L3 6C3 5.38114 3.35434 5.01816 3.98437 5H5.98438L7.22033 3.64557Z"/>
<path d="M10.074 5.57337C9.97642 5.47574 9.97642 5.31745 10.074 5.21982L12.2199 3.07395C12.3175 2.97632 12.4758 2.97632 12.5735 3.07395L12.927 3.42751C13.0247 3.52514 13.0247 3.68343 12.927 3.78106L10.7812 5.92693C10.6835 6.02456 10.5252 6.02456 10.4276 5.92693L10.074 5.57337Z"/>
<path d="M10 7.75C10 7.61193 10.1119 7.5 10.25 7.5L13.75 7.5C13.8881 7.5 14 7.61193 14 7.75V8.25C14 8.38807 13.8881 8.5 13.75 8.5L10.25 8.5C10.1119 8.5 10 8.38807 10 8.25V7.75Z"/>
<path d="M10.074 10.4266C9.97642 10.5242 9.97642 10.6825 10.074 10.7802L12.2199 12.926C12.3175 13.0237 12.4758 13.0237 12.5735 12.926L12.927 12.5725C13.0247 12.4748 13.0247 12.3166 12.927 12.2189L10.7812 10.0731C10.6835 9.97543 10.5252 9.97543 10.4276 10.0731L10.074 10.4266Z"/>
</svg>
