<svg width="16" height="16" viewBox="0 0 16 16" fill="none" xmlns="http://www.w3.org/2000/svg">
<path fill-rule="evenodd" clip-rule="evenodd" d="M12.9576 12.9419C14.2197 11.6758 15 9.92902 15 8C15 6.07098 14.2197 4.32421 12.9576 3.05808C11.6902 1.78673 9.93697 1 8 1C6.06303 1 4.3098 1.78673 3.04244 3.05808C1.78028 4.32421 1 6.07098 1 8C1 9.92902 1.78028 11.6758 3.04244 12.9419C4.3098 14.2133 6.06303 15 8 15C9.93697 15 11.6902 14.2133 12.9576 12.9419ZM7.75 3.00391C7.61193 3.00391 7.5 3.11584 7.5 3.25391V8.10156C7.5 8.11315 7.50079 8.12456 7.50231 8.13574C7.50872 8.18946 7.53254 8.24149 7.57377 8.28272L10.2178 10.9267C10.3154 11.0244 10.4737 11.0244 10.5713 10.9267L10.9249 10.5732C11.0225 10.4755 11.0225 10.3172 10.9249 10.2196L8.5 7.79473V3.25391C8.5 3.11583 8.38807 3.00391 8.25 3.00391H7.75Z" />
</svg>
