<svg width="16" height="16" viewBox="0 0 16 16" xmlns="http://www.w3.org/2000/svg">
<path fill-rule="evenodd" clip-rule="evenodd" d="M8 12C10.2091 12 12 10.2091 12 8C12 5.79086 10.2091 4 8 4C5.79086 4 4 5.79086 4 8C4 10.2091 5.79086 12 8 12ZM8 13C10.7614 13 13 10.7614 13 8C13 5.23858 10.7614 3 8 3C5.23858 3 3 5.23858 3 8C3 10.7614 5.23858 13 8 13Z"/>
<path fill-rule="evenodd" clip-rule="evenodd" d="M7.5 5.23438C7.5 5.0963 7.61193 4.98438 7.75 4.98438H8.25C8.38807 4.98438 8.5 5.0963 8.5 5.23438V7.79302L9.84033 9.13446C9.93792 9.23213 9.93785 9.39042 9.84018 9.48801L9.48648 9.84142C9.38881 9.93901 9.23052 9.93894 9.13293 9.84127L7.57315 8.2802C7.52631 8.23332 7.5 8.16976 7.5 8.10349V5.23438Z"/>
</svg>
