<svg width="16" height="16" viewBox="0 0 16 16" xmlns="http://www.w3.org/2000/svg">
<path d="M8 14.75C8 14.8881 8.11199 15.0005 8.24998 14.9956C9.04543 14.9677 9.80713 14.807 10.5136 14.5351C10.6424 14.4856 10.7013 14.3383 10.6472 14.2113L10.451 13.7511C10.3969 13.6241 10.2501 13.5655 10.121 13.6143C9.53547 13.8356 8.90631 13.968 8.24995 13.9949C8.112 14.0005 8 14.1119 8 14.25V14.75Z"/>
<path d="M5.53001 13.4696C5.65578 13.5265 5.71806 13.6716 5.66654 13.7997L5.4798 14.2638C5.42826 14.3919 5.28237 14.4544 5.1562 14.3982C4.44342 14.0809 3.79346 13.648 3.23013 13.1233C3.1291 13.0292 3.1294 12.8706 3.22703 12.773L3.58058 12.4194C3.67822 12.3218 3.83616 12.3222 3.93775 12.4157C4.4059 12.8466 4.94276 13.204 5.53001 13.4696Z"/>
<path d="M12.4157 12.0622C12.3222 12.1638 12.3218 12.3218 12.4194 12.4194L12.773 12.773C12.8706 12.8706 13.0292 12.8709 13.1234 12.7699C13.648 12.2065 14.0809 11.5566 14.3982 10.8438C14.4544 10.7176 14.3919 10.5717 14.2638 10.5202L13.7997 10.3335C13.6716 10.2819 13.5265 10.3442 13.4696 10.47C13.204 11.0572 12.8466 11.5941 12.4157 12.0622Z"/>
<path d="M13.9949 7.74977C14.0005 7.88772 14.1119 7.99999 14.25 7.99999H14.75C14.8881 7.99999 15.0005 7.88757 14.9956 7.74959C14.8638 3.99957 11.7822 0.999988 8 0.999988C5.45368 0.999988 3.2249 2.35957 2 4.3924V1.24999C2 1.11192 1.88807 0.999988 1.75 0.999988H1.25C1.11193 0.999988 1 1.11192 1 1.24999L1 5.99999L5.75 5.99999C5.88807 5.99999 6 5.88806 6 5.74999L6 5.24999C6 5.11192 5.88807 4.99999 5.75 4.99999L2.8027 4.99999C3.84012 3.20658 5.77916 1.99999 8 1.99999C11.2299 1.99999 13.8637 4.5521 13.9949 7.74977Z"/>
<path d="M2.3859 10.1216C2.43474 10.2508 2.37621 10.3976 2.24916 10.4517L1.78898 10.6479C1.66201 10.702 1.51475 10.6432 1.46516 10.5144C1.19312 9.80782 1.03237 9.04599 1.0044 8.25039C0.999546 8.1124 1.11193 7.99999 1.25 7.99999H1.75C1.88807 7.99999 1.99947 8.11225 2.00513 8.25021C2.03206 8.90672 2.16448 9.53603 2.3859 10.1216Z"/>
</svg>
