<svg width="16" height="16" viewBox="0 0 16 16" xmlns="http://www.w3.org/2000/svg">
<path d="M3.94515 1.23802C3.84752 1.14039 3.68874 1.1399 3.59111 1.23753L3.23755 1.59108C3.13992 1.68871 3.13992 1.84701 3.23755 1.94464L14.0518 12.7589C14.064 12.7711 14.0775 12.7822 14.0914 12.7913C14.1884 12.8554 14.3203 12.8447 14.4057 12.7593L14.7593 12.4057C14.7715 12.3935 14.7822 12.3804 14.7913 12.3665C14.8554 12.2695 14.8447 12.1376 14.7593 12.0522L3.94515 1.23802Z"/>
<path d="M8.0607 3.93935L8.7678 4.64646L10.3126 3.10171L12.8983 5.6875L11.3536 7.23225L12.0607 7.93936L13.7813 6.21875C13.9159 6.08317 14.0001 5.89367 14.0001 5.6875C14.0001 5.48133 13.9159 5.29182 13.7813 5.15625L10.8438 2.21875C10.7086 2.08655 10.5166 2 10.3126 2C10.1064 2 9.91688 2.0841 9.7813 2.21875L8.0607 3.93935Z"/>
<path d="M10.0001 10.1214L9.23227 9.35357L9.00005 9.58579L9.00005 11.5858L4.41427 7L6.41427 7L6.64648 6.76778L5.8787 6L4.00005 6C3.50005 6 3.00005 6.46875 3.00005 7L5.64772 9.64767L2.07563 13.2198C1.97796 13.3174 1.97801 13.4758 2.07574 13.5734L2.42952 13.9268C2.52717 14.0243 2.68537 14.0242 2.78296 13.9266L6.35483 10.3548L9.00005 13C9.5313 13 10.0001 12.5 10.0001 12L10.0001 10.1214Z"/>
</svg>
