<svg width="48" height="48" viewBox="0 0 48 48"  xmlns="http://www.w3.org/2000/svg">
<path d="M40.5 24C40.5 33.1127 33.1127 40.5 24 40.5C14.8873 40.5 7.5 33.1127 7.5 24C7.5 14.8873 14.8873 7.5 24 7.5C33.1127 7.5 40.5 14.8873 40.5 24Z" fill="black" fill-opacity="0.6" stroke="white" stroke-width="3"/>
<path d="M19.917 17.0957C19.7292 16.9565 19.4896 16.9803 19.3024 17.0957C19.1286 17.2028 19 17.3891 19 17.5973L19 30.3971C19 30.6092 19.1145 30.7917 19.276 30.8988C19.4617 31.0219 19.7096 31.0451 19.917 30.8988L29.7287 24.4989C29.905 24.3828 30.0001 24.1979 30 24.0052C29.9999 23.8121 29.9042 23.6112 29.7287 23.4956L19.917 17.0957Z" fill="white"/>
</svg>
